<svg aria-hidden="true" style="width:0;height:0;position:absolute;overflow:hidden" xmlns="http://www.w3.org/2000/svg"><defs><symbol id="icon-aws" viewBox="0 0 32 32"><path fill="#252f3e" style="fill:var(--color1,#252f3e)" d="M9.02 15.374c0 .394.04.714.116.95.084.234.192.49.34.768.045.07.073.154.074.246 0 .106-.064.214-.2.32l-.672.448a.509.509 0 0 1-.275.096h-.001c-.108 0-.214-.052-.32-.148a3.332 3.332 0 0 1-.376-.488l-.008-.014a7.711 7.711 0 0 1-.309-.58l-.021-.05c-.83.982-1.872 1.474-3.128 1.474-.894 0-1.608-.258-2.128-.77-.522-.512-.788-1.196-.788-2.05 0-.908.32-1.644.968-2.2.65-.556 1.512-.832 2.608-.832.36 0 .734.032 1.128.084.394.054.8.14 1.224.236v-.78c0-.812-.17-1.378-.5-1.708-.34-.332-.916-.492-1.736-.492-.372 0-.754.044-1.148.14a8.41 8.41 0 0 0-1.207.382l.057-.02a2.79 2.79 0 0 1-.35.134l-.022.006a.626.626 0 0 1-.168.032h-.002c-.15 0-.224-.108-.224-.332v-.524c0-.17.02-.3.074-.372a.802.802 0 0 1 .295-.224l.005-.002c.37-.192.818-.352 1.34-.48a6.368 6.368 0 0 1 1.66-.202c1.266 0 2.192.288 2.788.864.586.576.884 1.452.884 2.628v3.46h.02zm-4.322 1.622c.35 0 .712-.064 1.096-.192a2.37 2.37 0 0 0 1.01-.684 1.68 1.68 0 0 0 .359-.67l.003-.012c.064-.258.108-.566.108-.93v-.448a8.07 8.07 0 0 0-.936-.175l-.045-.005a7.683 7.683 0 0 0-.999-.066h-.001c-.714 0-1.236.14-1.586.428-.352.288-.52.694-.52 1.228 0 .5.126.874.392 1.132.256.266.628.394 1.118.394zm8.546 1.154c-.192 0-.32-.032-.404-.108-.086-.064-.16-.212-.224-.416l-2.5-8.254a1.812 1.812 0 0 1-.097-.419l-.001-.008c0-.17.086-.266.256-.266h1.044c.2 0 .34.032.414.106.086.064.15.214.214.416l1.788 7.07 1.66-7.07c.052-.212.116-.352.2-.416a.718.718 0 0 1 .43-.105h.848c.204 0 .34.032.426.106.086.064.16.214.202.416l1.682 7.156 1.84-7.156a.91.91 0 0 1 .215-.417l-.001.001a.688.688 0 0 1 .418-.105h.988c.17 0 .266.086.266.266 0 .054-.012.108-.02.172-.02.102-.046.191-.08.276l.004-.01-2.566 8.254c-.064.214-.138.354-.222.418a.675.675 0 0 1-.366.107l-.041-.001h-.912c-.202 0-.34-.032-.426-.106-.086-.076-.16-.214-.202-.428l-1.65-6.886-1.64 6.878c-.052.214-.116.352-.2.426-.086.076-.236.108-.426.108h-.916zm13.676.288h-.009c-.579 0-1.141-.07-1.679-.202l.048.01c-.532-.128-.946-.268-1.224-.428-.17-.096-.286-.202-.33-.3a.738.738 0 0 1-.062-.298v-.544c0-.224.084-.332.244-.332.069 0 .135.012.196.033l-.004-.001c.064.022.16.064.266.108a5.8 5.8 0 0 0 1.17.374c.426.084.84.128 1.266.128.672 0 1.192-.118 1.554-.352a1.15 1.15 0 0 0 .554-.984v-.034.002-.027c0-.279-.11-.532-.289-.719-.19-.204-.552-.386-1.074-.556l-1.544-.48c-.776-.246-1.352-.61-1.702-1.09a2.532 2.532 0 0 1-.532-1.547v-.001c0-.448.096-.844.286-1.186.192-.34.448-.64.768-.876.32-.244.68-.426 1.106-.554s.872-.182 1.34-.182c.236 0 .48.01.714.042.244.032.468.076.692.12a6.8 6.8 0 0 1 .606.17c.192.064.34.128.448.192a.921.921 0 0 1 .318.264l.002.002c.06.089.095.199.095.318l-.001.036v-.002.502c0 .224-.084.342-.244.342a1.11 1.11 0 0 1-.41-.131l.006.003a4.78 4.78 0 0 0-1.967-.417l-.081.001h.004c-.606 0-1.086.096-1.416.3-.33.2-.5.512-.5.95 0 .298.106.554.32.758.212.202.606.404 1.17.586l1.512.48c.766.246 1.32.588 1.65 1.026s.488.94.488 1.496c0 .46-.094.874-.276 1.238a2.886 2.886 0 0 1-.77.935l-.006.005a3.43 3.43 0 0 1-1.182.598c-.48.15-.98.224-1.522.224z"/><path fill="#f90" style="fill:var(--color2,#f90)" d="M28.93 23.626c-3.5 2.594-8.588 3.972-12.962 3.972-6.13 0-11.654-2.274-15.826-6.054-.33-.3-.032-.706.36-.47 4.514 2.626 10.08 4.218 15.84 4.218 3.882 0 8.15-.812 12.078-2.478.586-.266 1.086.384.51.812z"/><path fill="#f90" style="fill:var(--color2,#f90)" d="M30.388 21.96c-.446-.574-2.958-.276-4.096-.138-.34.044-.394-.256-.086-.48 2-1.41 5.29-1.004 5.672-.534.384.48-.106 3.78-1.98 5.36-.286.246-.562.12-.436-.2.426-1.06 1.374-3.44.926-4.006z"/></symbol><symbol id="icon-layers" viewBox="0 0 32 32"><path d="M8.9 4.15 2 8.25 3.75 9.3c2.55 1.5 2.55 1.55.55 2.75-1 .55-1.8 1.2-1.8 1.4 0 .15.8.75 1.75 1.25C5.2 15.25 6 15.8 6 16s-.8.75-1.75 1.3c-.95.5-1.75 1.1-1.75 1.25 0 .2.8.85 1.8 1.4 2 1.2 2 1.25-.55 2.75L2 23.75l7 4.1 7 4.05 14-8.1-1.75-1.1c-2.55-1.5-2.55-1.55-.55-2.75 1-.55 1.8-1.2 1.8-1.4 0-.25-.8-.8-1.75-1.35-.95-.5-1.75-1.05-1.75-1.25 0-.15.8-.7 1.75-1.25.95-.5 1.75-1.1 1.75-1.25 0-.2-.8-.85-1.8-1.4-2-1.2-2-1.25.55-2.75l1.8-1.1-6.85-3.95C19.45 2.05 16.2.2 16.05.2c-.15-.05-3.4 1.75-7.15 3.95zm12.55.65c2.65 1.55 5 2.95 5.2 3.2.45.4-8.45 5.9-10.25 6.4-.95.25-11.65-5.8-11.15-6.3.75-.8 10.1-6.05 10.7-6.1.4 0 2.85 1.25 5.5 2.8zM12.1 19.3l3.9 2.3 4-2.35c3.75-2.2 4.15-2.3 5.5-1.75.85.35 1.5.8 1.5.95 0 .3-9.2 5.9-10.6 6.45-.25.1-2.95-1.2-5.95-2.95C4.95 18.8 4.9 18.8 6 17.9c.6-.5 1.35-.9 1.65-.9s2.3 1.05 4.45 2.3z"/></symbol><symbol id="icon-efficiency" viewBox="0 0 32 32"><path d="M18.975 28.113c-.25.063-.488.113-.738.163a1.191 1.191 0 0 0-.95 1.387c.063.313.238.575.488.75s.575.25.9.2c.288-.05.587-.113.875-.188.637-.163 1.025-.8.863-1.438a1.184 1.184 0 0 0-1.438-.875zM27.75 12.213c.087.25.238.45.438.6.3.213.688.275 1.063.162a1.18 1.18 0 0 0 .75-1.5 8.149 8.149 0 0 0-.313-.838c-.25-.613-.938-.9-1.538-.662-.613.25-.9.938-.663 1.537.1.225.188.463.262.7zM22.837 26.425c-.212.137-.425.275-.65.4a1.187 1.187 0 0 0-.438 1.625c.087.15.212.275.337.375.363.25.863.3 1.275.063.262-.15.512-.313.762-.475.55-.363.7-1.1.337-1.637a1.153 1.153 0 0 0-1.625-.35zM30.738 15.537c-.025-.65-.575-1.162-1.238-1.137s-1.163.575-1.137 1.238c.012.25.012.5 0 .75-.012.413.188.775.5 1 .188.125.413.212.663.212.65.012 1.2-.5 1.212-1.163a11.25 11.25 0 0 0 0-.9zM27.55 23.3a1.182 1.182 0 0 0-1.663.238c-.15.2-.313.4-.475.587-.425.5-.363 1.25.137 1.675.025.025.063.05.087.063.5.35 1.188.262 1.587-.2.188-.225.387-.462.563-.7.4-.525.288-1.262-.238-1.663zM29.3 19.012c-.625-.2-1.288.15-1.488.775-.075.238-.163.475-.25.712a1.17 1.17 0 0 0 .425 1.387c.075.063.163.1.262.137.613.238 1.3-.075 1.525-.688.1-.275.2-.563.3-.85.2-.613-.15-1.275-.775-1.475zM13.8 28.288a12.123 12.123 0 0 1-3.037-.962c-.012 0-.025-.012-.037-.012l-.675-.337c-.4-.225-.8-.462-1.175-.738-5.575-3.938-6.912-11.662-2.987-17.25a12.24 12.24 0 0 1 3.038-3.025c.012-.013.025-.025.037-.025 4.063-2.8 9.575-2.987 13.888-.112l-.925 1.337c-.262.375-.1.65.35.6l4.025-.362c.45-.037.725-.425.6-.862l-1.075-3.913c-.125-.438-.425-.487-.688-.112l-.925 1.337a14.672 14.672 0 0 0-10.738-2.288c-.375.063-.75.15-1.125.238-.012 0-.025.012-.037.012a14.613 14.613 0 0 0-8.113 5.438c-.013.025-.037.037-.05.063-.063.088-.138.188-.2.275-.112.15-.212.313-.313.463-.013.012-.025.037-.038.063a14.641 14.641 0 0 0-2.337 8.637v.025c.012.3.038.6.075.9 0 .012 0 .038.012.063.038.3.075.6.125.9.525 3.05 1.975 5.8 4.125 7.938l.013.012c.575.575 1.212 1.1 1.888 1.575a14.777 14.777 0 0 0 5.875 2.462 1.182 1.182 0 0 0 1.375-.962 1.17 1.17 0 0 0-.95-1.375z"/><path d="M15.275 6.525a.963.963 0 0 0-.963.963v9.563l8.738 4.525a.947.947 0 0 0 1.288-.399.942.942 0 0 0-.413-1.288l-7.7-4.012v-8.4a.95.95 0 0 0-.95-.95z"/></symbol><symbol id="icon-message" viewBox="0 0 32 32"><path d="m6.719 28.977 4.76-4.318a.893.893 0 0 1 .627-.26h17.235a.522.522 0 0 0 .521-.507V2.318a.521.521 0 0 0-.521-.508H2.318a.508.508 0 0 0-.495.508v21.578c0 .28.227.508.508.508h3.485a.907.907 0 0 1 .904.906v3.667zm.304-11.719a.911.911 0 0 0 0 1.822h10.685a.911.911 0 0 0 0-1.822zm0-10.38a.911.911 0 0 0 0 1.822h17.635a.906.906 0 1 0 .049-1.811l-.051.001h.002zm0 5.19a.907.907 0 0 0-.003 1.81h15.807a.907.907 0 0 0 .003-1.81h-.002zm5.443 14.146-5.99 5.487a.905.905 0 0 1-1.578-.604v-4.883H2.317a2.32 2.32 0 0 1-2.318-2.318V2.318A2.32 2.32 0 0 1 2.317 0h27.024a2.326 2.326 0 0 1 2.32 2.317v21.579a2.326 2.326 0 0 1-2.32 2.318z"/></symbol><symbol id="icon-games" viewBox="0 0 32 32"><path d="M19.997 6.667a9.333 9.333 0 0 1 .321 18.661l-.321.005h-7.994a9.333 9.333 0 0 1-.321-18.661l.321-.005h7.994zm-.33 10a1.667 1.667 0 1 0 0 3.334 1.667 1.667 0 0 0 0-3.334zm-9-4.667a1 1 0 0 0-.991.864L9.667 13v1.997l-2 .001a1 1 0 0 0-.136 1.991l.136.009 2-.001V19a1 1 0 0 0 1.991.136l.009-.136v-2.003l2 .001a1 1 0 0 0 .136-1.991l-.136-.009-2-.001V13a1 1 0 0 0-1-1zm11.666 0a1.667 1.667 0 1 0 0 3.334 1.667 1.667 0 0 0 0-3.334z"/></symbol><symbol id="icon-azure" viewBox="0 0 32 32"><path fill="#0089d6" style="fill:var(--color3,#0089d6)" d="m14.94 24.824 6.758-1.198-3.444-4.098c-.44-.497-1.567-1.836-2.688-3.181l-.758-.935c0-.02 3.558-9.818 3.578-9.852-2.051-4.006-.106-.696 1.827 2.622l4.041 7.51L30.2 26l-21.896-.002 6.634-1.174zM1.8 23.576c0-.006 1.622-2.824 3.606-6.262l3.608-6.254 4.204-3.528C15.53 5.594 17.428 4 17.434 4a.75.75 0 0 1-.068.174l.002-.004-4.568 9.792-4.48 9.616-3.26.004c-1.794.002-3.26 0-3.26-.006z"/></symbol><symbol id="icon-behance" fill="#858585" viewBox="0 0 32 32"><path d="M14.688 7.975c.6.838.9 1.85.9 3.025 0 1.2-.3 2.175-.912 2.912-.338.412-.85.787-1.512 1.125 1.012.375 1.775.95 2.287 1.75s.775 1.762.775 2.9c0 1.175-.287 2.225-.887 3.15a5.38 5.38 0 0 1-1.4 1.55c-.625.488-1.375.813-2.237 1-.863.175-1.787.262-2.8.262h-8.9V5.861h9.563c2.4.037 4.112.737 5.125 2.112zM3.938 9.3v4.363h4.813c.863 0 1.55-.162 2.088-.488s.8-.912.8-1.738c0-.925-.35-1.525-1.063-1.825-.613-.2-1.387-.313-2.338-.313h-4.3zm0 7.625V22.2h4.813c.863 0 1.525-.113 2-.35.875-.438 1.3-1.25 1.3-2.462 0-1.025-.412-1.738-1.262-2.125-.475-.212-1.125-.325-1.975-.337H3.939zm24.237-5.612c1.025.45 1.863 1.175 2.525 2.162.6.863.988 1.875 1.163 3.025.1.675.15 1.637.125 2.9h-10.65c.063 1.462.563 2.5 1.525 3.087.587.363 1.288.55 2.113.55.863 0 1.575-.225 2.125-.675.3-.238.563-.575.788-1.012h3.9c-.1.863-.575 1.75-1.413 2.65-1.313 1.425-3.137 2.137-5.5 2.137-1.95 0-3.663-.6-5.15-1.8s-2.238-3.15-2.238-5.85c0-2.537.675-4.475 2.012-5.825 1.35-1.35 3.087-2.025 5.225-2.025 1.288-.012 2.438.213 3.45.675zm-5.713 3.3c-.538.563-.875 1.313-1.025 2.262h6.587c-.075-1.012-.413-1.787-1.012-2.313-.613-.525-1.375-.787-2.275-.787-.975 0-1.738.287-2.275.838zm6.463-7.826H20.45V9.25h8.475V6.787z"/></symbol><symbol id="icon-bitbucket" viewBox="0 0 32 32"><path fill="#2684ff" style="fill:var(--color4,#2684ff)" d="M2.909 3c-.265-.004-.518.114-.691.321s-.248.483-.206.753L5.82 27.948c.098.603.601 1.047 1.193 1.052h18.27a.906.906 0 0 0 .897-.778L29.988 4.08c.043-.27-.033-.546-.206-.753s-.426-.325-.691-.321L2.908 3.001zm16.036 17.255h-5.831l-1.579-8.518h8.823l-1.413 8.518z"/><path style="fill:var(--color5,#000)" d="M28.778 11.736h-8.42l-1.413 8.518h-5.831l-6.885 8.44c.218.195.496.303.785.306h18.274a.905.905 0 0 0 .897-.778l2.593-16.486z"/></symbol><symbol id="icon-bug" fill="#fff" viewBox="0 0 32 32"><path d="M4.364 10.182h4.364V8.727h1.455V7.272h1.455V5.817h-1.455V4.362H8.728V2.907h1.455V1.452h1.455v1.455h1.455v1.455h1.455v1.455h2.909V4.362h1.455V2.907h1.455V1.452h1.455v1.455h1.455v1.455h-1.455v1.455h-1.455v1.455h1.455v1.455h1.455v1.455h4.364v2.909h-2.909V16h2.909v2.909h-2.909v2.909h2.909v2.909h-4.364v1.455h-1.455v1.455h-1.455v1.455H11.64v-1.455h-1.455v-1.455H8.73v-1.455H4.366v-2.909h2.909v-2.909H4.366V16h2.909v-2.909H4.366v-2.909zm14.545 16v-1.455h1.455v-1.455h1.455V11.636h-1.455v-1.455h-1.455V8.726h-5.818v1.455h-1.455v1.455h-1.455v11.636h1.455v1.455h1.455v1.455h5.818zm-5.818-7.273h5.818v2.909h-5.818v-2.909zm0-5.818h5.818V16h-5.818v-2.909z"/></symbol><symbol id="icon-cdnjs" viewBox="0 0 32 32"><path fill="#00bcf2" style="fill:var(--color6,#00bcf2)" d="M5.291 26.811c-1.297-.219-2.357-.759-3.345-1.703C.224 23.463-.436 20.874.295 18.631a6.427 6.427 0 0 1 3.408-3.873c.394-.186.396-.188.358-.408-.198-1.151-.17-1.937.099-2.82.179-.586.631-1.42 1.014-1.87C6.273 8.367 7.646 7.727 9.3 7.735c1.473.007 2.614.476 3.743 1.539l.319.301.152-.328c.665-1.438 2.159-2.908 3.654-3.594.678-.312 1.742-.628 1.742-.518 0 .01-.835 2.25-1.856 4.978-1.063 2.84-1.848 5.027-1.837 5.117l.018.157 1.727.032c.95.017 1.763.054 1.806.082s.078.106.078.173c0 .067-.681 1.782-1.514 3.812-1.834 4.471-1.768 4.303-1.7 4.277.066-.026 10.092-11.451 10.234-11.663.085-.126.086-.155.009-.204-.052-.033-.912-.04-2.069-.016-2.04.042-2.26.022-2.26-.203 0-.119 3.074-5.303 3.145-5.303.09 0 .765.591 1.191 1.045.981 1.043 1.662 2.425 1.912 3.879.12.697.12 1.86 0 2.52-.113.627-.114.722-.009.722.164 0 1.334.615 1.706.896a6.653 6.653 0 0 1 2.365 3.501c.126.465.144.676.142 1.633-.003 1.007-.017 1.147-.172 1.664-.675 2.254-2.308 3.859-4.557 4.481l-.604.167-10.427.01c-8.71.008-10.513-.005-10.95-.078z"/></symbol><symbol id="icon-cloudflare" viewBox="0 0 32 32"><path fill="#fff" style="fill:var(--color7,#fff)" d="m25.295 14.924-.664-.265C21.511 21.68 9.098 17.411 8.352 19.5c-.124 1.411 6.778.268 11.713.507 1.505.073 2.259 1.209 1.62 3.061l1.259.004c1.452-4.526 6.085-2.216 6.279-3.71-.318-.982-5.325 0-3.928-4.437z"/><path fill="#f4811f" style="fill:var(--color8,#f4811f)" d="M22.041 22.294c.199-.664.133-1.328-.199-1.726s-.797-.664-1.394-.73l-11.552-.133c-.066 0-.133-.066-.199-.066-.066-.066-.066-.133 0-.199.066-.133.133-.199.265-.199l11.618-.133c1.394-.066 2.855-1.195 3.386-2.523l.664-1.726c0-.066.066-.133 0-.199-.73-3.386-3.784-5.909-7.369-5.909-3.319 0-6.174 2.124-7.17 5.112a3.624 3.624 0 0 0-2.39-.664c-1.593.133-2.855 1.46-3.054 3.054-.066.398 0 .797.066 1.195a4.848 4.848 0 0 0-4.714 4.846c0 .265 0 .465.066.73 0 .133.133.199.199.199h21.311c.133 0 .266-.066.266-.199l.199-.73z"/><path fill="#faad3f" style="fill:var(--color9,#faad3f)" d="M25.693 14.858h-.332c-.066 0-.133.066-.199.133l-.465 1.593c-.199.664-.133 1.328.199 1.726s.797.664 1.394.73l2.457.133c.066 0 .133.066.199.066.066.066.066.133 0 .199-.066.133-.133.199-.266.199l-2.523.133c-1.394.066-2.855 1.195-3.386 2.523l-.133.598c-.066.066 0 .199.133.199h8.764c.133 0 .199-.066.199-.199.133-.531.265-1.129.265-1.726 0-3.452-2.855-6.307-6.307-6.307z"/></symbol><symbol id="icon-codepen" viewBox="0 0 32 32"><path style="fill:var(--color5,#000)" d="M8.832 14.756v2.488L10.692 16l-1.86-1.244zm6.422-1.81v-3.47l-5.83 3.89 2.604 1.74 3.226-2.16zm7.316.42-5.83-3.89v3.47l3.226 2.16 2.604-1.74zM9.424 18.64l5.83 3.884v-3.47l-3.226-2.16-2.604 1.746zm7.316.414v3.47l5.83-3.884-2.604-1.746-3.226 2.16zM16 14.24 13.366 16 16 17.758 18.628 16 16 14.24z"/><path style="fill:var(--color5,#000)" d="M16 2C8.268 2.001 2 8.269 2 16.001s6.268 14.001 14.001 14.001h.001c7.732-.001 14-6.269 14-14.001S23.734 2 16.001 2H16zm8.654 16.64c0 .036 0 .066-.006.094 0 .012-.006.024-.006.03l-.012.066c-.004.012-.004.024-.01.036l-.02.052-.016.036c-.006.018-.02.036-.024.048a.116.116 0 0 1-.024.034l-.03.048a.144.144 0 0 1-.024.03c-.01.012-.022.03-.034.04l-.03.03c-.012.012-.03.024-.04.036-.014.006-.026.018-.038.024-.006 0-.006.006-.01.012l-7.92 5.28a.748.748 0 0 1-.831-.002l-7.915-5.272c-.006 0-.006-.006-.012-.012l-.036-.024c-.012-.012-.03-.024-.04-.036l-.032-.028a.22.22 0 0 1-.033-.041l-.001-.001c-.006-.012-.02-.024-.024-.03a.135.135 0 0 1-.03-.047v-.001a.116.116 0 0 0-.024-.034l-.042-.084-.016-.052-.012-.036a.228.228 0 0 1-.012-.066c0-.012-.006-.024-.006-.03-.006-.028-.006-.064-.006-.094v-5.274c0-.036 0-.066.006-.096 0-.01.006-.022.006-.028l.012-.066.012-.036.016-.052.02-.036c.004-.018.016-.036.022-.048s.014-.024.024-.034l.03-.048a.176.176 0 0 1 .024-.03c.012-.012.022-.03.034-.04l.03-.03c.012-.012.03-.024.04-.036.014-.006.026-.02.038-.024.006 0 .006-.006.012-.012l7.916-5.274a.738.738 0 0 1 .825.002l7.913 5.272c.004 0 .004.006.01.012l.036.024.042.036.03.028c.012.012.024.024.036.042l.022.03a.135.135 0 0 1 .03.047v.001a.116.116 0 0 0 .024.034.19.19 0 0 1 .024.047v.001l.018.036.018.052c.006.012.006.024.01.036.008.018.012.04.012.066 0 .012.006.024.006.028a.488.488 0 0 1 .006.079v.018-.001 5.268h.012z"/><path style="fill:var(--color5,#000)" d="M23.168 17.244v-2.488L21.304 16l1.864 1.244z"/><path fill="#fff" style="fill:var(--color7,#fff)" d="M24.654 18.64h-.012v-5.283a.488.488 0 0 0-.006-.079l-.006-.03c0-.026-.006-.046-.012-.066l-.006-.016a.034.034 0 0 0-.006-.02l-.016-.052-.018-.036v-.001a.19.19 0 0 0-.024-.047.116.116 0 0 1-.024-.034v-.001a.122.122 0 0 0-.03-.047l-.024-.03-.034-.042-.03-.028-.02-.018-.01-.008a.106.106 0 0 1-.012-.01l-7.959-5.308a.736.736 0 0 0-.825-.002l-7.927 5.284a.066.066 0 0 0-.017.012l-.012.008-.008.004a.054.054 0 0 1-.02.016l-.02.02-.028.03c-.008.004-.014.012-.02.02l-.016.02a.144.144 0 0 0-.024.03l-.016.024-.014.024a.116.116 0 0 0-.024.034l-.006.012v-.001a.255.255 0 0 0-.019.037l-.016.036-.02.052-.012.036v.012c-.004.008-.004.016-.004.022l-.006.034-.004.01-.002.02c-.006.028-.006.058-.006.094v5.274c0 .03 0 .066.006.094l.006.03c0 .024.005.046.012.066l.004.016.006.02.018.052.042.084c.01.01.018.021.024.034v.001a.122.122 0 0 0 .03.047.144.144 0 0 1 .024.03l.001.001a.27.27 0 0 0 .033.041l.032.028a.36.36 0 0 0 .02.018l.02.018 7.959 5.308a.754.754 0 0 0 .831.002l7.97-5.316a.156.156 0 0 1 .02-.016l.02-.02.028-.03.02-.02v-.001l.015-.019-.001.001a.875.875 0 0 0 .041-.055l.008-.012.006-.012a.116.116 0 0 0 .024-.034l.024-.048.016-.036.02-.052v-.006c.004-.004.004-.008.004-.012v-.001a.089.089 0 0 1 .008-.017v-.008c.004-.01.004-.018.004-.024v-.002a.213.213 0 0 1 .008-.032v-.008c.004-.008.004-.014.004-.02a.485.485 0 0 0 .006-.096zM8.832 17.244v-2.488L10.69 16l-1.86 1.244zm6.422-7.768v3.47l-3.226 2.16-2.604-1.74 5.83-3.89zm1.486 0 5.83 3.89-2.604 1.74-3.226-2.16v-3.47zm-1.486 13.048-5.83-3.884 2.604-1.746 3.226 2.16v3.47zm1.486 0v-3.47l3.226-2.16 2.604 1.746-5.83 3.884zM16 17.758 13.366 16 16 14.242 18.628 16 16 17.76zm7.168-3v2.486L21.304 16l1.864-1.244z"/></symbol><symbol id="icon-codewars" viewBox="0 0 32 32"><path fill="#ff5656" style="fill:var(--color10,#ff5656)" d="m1.016 16.266-.109-.052a1.374 1.374 0 0 1-.557-.589 2.034 2.034 0 0 1-.271-1l.026-.172c0-.266.068-.505.188-.734l.109-.198c.052-.109.13-.203.198-.292a.351.351 0 0 0 .068-.323L.6 12.692a2.838 2.838 0 0 1-.13-.797l-.042-.161c0-.297.078-.589.266-.802l.135-.172c.094-.135.24-.214.401-.266.13-.042.224-.177.24-.333l.026-.453c0-.359.172-.693.438-.938l.323-.24c.063-.063.13-.13.182-.24.068-.078.083-.188.068-.266-.026-.13 0-.172.068-.188.214.083.349.057.443-.052l.172-.224.479-.536a.518.518 0 0 0 .104-.557l-.156-.349c-.026-.078 0-.172.068-.198.172 0 .292.063.344.172l.052.094c.083.161.271.24.401.172a2.18 2.18 0 0 1 .76-.13h.427c.292 0 .531-.203.589-.51.052-.37.182-.667.37-.865.203-.229.427-.401.693-.536.349-.182.563-.453.63-.797.094-.427.318-.734.625-.932l1.016-.573.292-.177c.172-.104.333-.24.469-.401l.266-.318a.902.902 0 0 1 .427-.266c.13-.042.318-.068.479-.052l.531.036c.266 0 .479.068.693.161l.135.068c.135.052.266.026.333-.068l.12-.068.573-.599a.522.522 0 0 1 .469-.161c.172.026.344.094.505.177.24.13.438.182.667.182h.135c.292 0 .583.042.88.109l.198.052a.513.513 0 0 0 .531-.188.122.122 0 0 1 .188-.026c.042.026.052.052.068.094.026.266.188.469.401.531l.214.068c.224.068.427.214.557.401.135.198.297.401.479.531l.135.135a.624.624 0 0 0 .505.172h.786c.323 0 .63.057.938.188.292.135.599.161.875.052.297-.089.604-.13.911-.089l.573.089c.266.031.531.161.693.365l.068.063c.13.135.266.307.396.495a.5.5 0 0 0 .453.266h.828c.203 0 .401.042.563.135.172.13.318.266.453.401l.13.172c.161.188.24.438.229.708 0 .214.161.396.37.396l.271.031c.188 0 .344.13.438.302l.135.271.344.771a.766.766 0 0 1 .057.375c0 .13.036.24.13.292l.135.094a.61.61 0 0 1 .24.563l-.094.625-.026.266a.43.43 0 0 0 .161.401c.198.13.292.307.302.505v.266c0 .135-.026.297-.13.401a.643.643 0 0 0-.135.401l.042.307c0 .214.13.401.266.531a.833.833 0 0 1 .323.563c.052.333.063.599.063.865v.307c0 .109 0 .214.042.318a.48.48 0 0 0 .172.245l.266.198c.271.172.458.401.563.708.135.292.172.599.172.906v.104c0 .24-.026.495-.104.719a.968.968 0 0 0 .036.667c.109.188.177.401.203.63.052.266.026.531-.068.745l-.026.094a1.192 1.192 0 0 1-.307.427c-.135.135-.266.214-.344.307-.083.078-.135.214-.094.333l.036.188c.068.266.068.531 0 .771v.109c-.052.198-.13.37-.214.531a.98.98 0 0 1-.396.401l-.203.13a.359.359 0 0 0-.161.297.51.51 0 0 1-.13.344l-.203.271c-.13.172-.302.318-.49.396a3.136 3.136 0 0 0-.469.401 1.47 1.47 0 0 0-.292.536.447.447 0 0 1-.443.37h-.719c-.188 0-.359.135-.438.297a1.8 1.8 0 0 1-.307.49 1.126 1.126 0 0 0-.271.479c-.026.161-.156.271-.292.214a.334.334 0 0 0-.427.135 3.11 3.11 0 0 1-.49.641l-.094.078c-.177.135-.401.24-.604.24-.24 0-.359.109-.396.266a2.46 2.46 0 0 0-.083.458 2.278 2.278 0 0 1-.13.438l-.068.078c-.135.203-.24.401-.375.573l-.052.083c-.172.224-.401.401-.667.464a2.62 2.62 0 0 1-.88.135h-.188a.453.453 0 0 0-.359.214l-.078.135-.083.156-.172.297a.997.997 0 0 1-.599.479 2.9 2.9 0 0 1-.854.078l-.214-.026c-.188 0-.359-.052-.531-.135-.135-.052-.323 0-.401.135a.916.916 0 0 1-.469.349l-.401.13a1.75 1.75 0 0 1-.839 0l-.214-.068a.761.761 0 0 1-.375-.13.72.72 0 0 0-.396-.083l-.177.031c-.266.026-.505 0-.745-.068l-.359-.083a.735.735 0 0 1-.401-.307.533.533 0 0 0-.401-.266H13.2c-.266-.036-.505-.13-.667-.333l-.531-.505-.188-.161-.292-.214-.172-.13a1.568 1.568 0 0 0-.698-.266l-.797-.135c-.083 0-.135-.026-.214-.042l-.307-.068c-.135-.026-.266-.13-.359-.266-.078-.13-.229-.188-.359-.13-.266.104-.479.13-.693.172h-.188a1.968 1.968 0 0 1-.99-.172c-.318-.135-.531-.333-.729-.589a1.079 1.079 0 0 0-.698-.453l-.37-.078a2.222 2.222 0 0 1-.776-.323c-.266-.188-.401-.359-.505-.573a1.683 1.683 0 0 1-.188-.667v-.104c-.026-.271-.214-.51-.464-.573a1.95 1.95 0 0 1-.734-.401.95.95 0 0 1-.297-.693l.031-.589c0-.229-.068-.427-.229-.573-.161-.161-.266-.359-.266-.573l-.042-.479a7.256 7.256 0 0 0-.172-1.042c-.078-.307.042-.615.292-.76l.094-.068a.331.331 0 0 0 .109-.427l-.109-.13a.925.925 0 0 0-.401-.266c-.104-.031-.13-.135-.13-.203l.13-.161a.251.251 0 0 0 0-.318.641.641 0 0 1-.172-.375l-.026-.932c0-.188.026-.375.078-.557.057-.161 0-.349-.156-.427zm13.198-1.761c.094-.094.078-.266 0-.333a1.183 1.183 0 0 1-.307-.359l-.135-.214a1.814 1.814 0 0 0-.344-.453l-.026-.026a1.079 1.079 0 0 1-.307-.401.42.42 0 0 1 0-.401l.078-.13a.98.98 0 0 0 .135-.479v-.057a.756.756 0 0 0-.135-.396 1.592 1.592 0 0 1-.13-.375v-.078a.548.548 0 0 1 .104-.469c.109-.172.188-.333.229-.531v-.031a.513.513 0 0 0-.057-.438.491.491 0 0 1-.052-.427l.094-.266c.078-.24.203-.453.359-.641l.188-.198.135-.161.078-.078a.265.265 0 0 0 .026-.323.62.62 0 0 1-.078-.401l.026-.188c.042-.266.135-.531.307-.745l.052-.052c.198-.266.453-.443.745-.536l.365-.13c.156-.052.266-.229.266-.401 0-.214.068-.401.187-.573l.063-.068c.135-.224.297-.453.401-.693l.094-.172a.276.276 0 0 0 .042-.135c0-.224-.135-.427-.349-.438l-.583-.042c-.333-.026-.667 0-.99 0l-1.13.135c-.177 0-.307.13-.323.318a.435.435 0 0 1-.292.401l-.479.13-.135.042-.401.135a1.112 1.112 0 0 0-.667.599l-.104.172a1.613 1.613 0 0 1-.641.708c-.266.172-.401.453-.427.771v.135c-.026.266-.109.531-.266.719l-.068.109a.43.43 0 0 0-.068.453c.068.156.109.333.094.505v.708a.444.444 0 0 1-.266.396.568.568 0 0 0-.359.401l-.068.266a.682.682 0 0 0 .266.698c.214.156.349.396.401.693v.24c.042.266.188.531.427.667.24.161.427.401.531.667l.068.214a.73.73 0 0 0 .615.49h.078c.24 0 .453.135.589.349.13.214.344.359.583.401l.375.104c.229.068.443.188.615.359l.026.031a.344.344 0 0 0 .469-.057l.094-.104zm1.52-1.224c.13.078.266.036.318-.083l.042-.063c.094-.188.214-.375.344-.536l.271-.401c.036 0 .052-.026.063-.052l.323-.427c.135-.13.292-.224.479-.224a.432.432 0 0 0 .401-.266c.052-.188.13-.365.292-.51l.068-.078c.135-.135.266-.203.401-.266.172-.026.333-.057.495-.057h.396c.161 0 .297-.063.375-.198s.198-.224.333-.292l.135-.057c.214-.089.453-.156.693-.182l.266-.026c.161 0 .333 0 .495.089.13.094.307.083.438-.026l.094-.052c.198-.135.427-.24.667-.266h.026a3.25 3.25 0 0 1 .776-.042h.13c.266.042.495.135.667.333l.042.052c.135.135.344.245.531.245h.229c.068 0 .13-.031.172-.094a.268.268 0 0 1 .172-.083h.135c.188 0 .359.052.531.109l.229.094c.214.063.438.13.667.156h.161c.104 0 .172-.063.172-.156a.691.691 0 0 0-.094-.375l-.094-.214c-.104-.172-.188-.359-.266-.531l-.026-.068a.42.42 0 0 1 0-.401v-.068a.228.228 0 0 0-.135-.266h-.104a1.095 1.095 0 0 1-.536-.359l-.13-.135c-.135-.13-.214-.333-.271-.531-.063-.172-.208-.307-.396-.307h-.563a.75.75 0 0 1-.495-.292l-.052-.068a1.74 1.74 0 0 1-.224-.453c-.068-.135-.214-.214-.349-.172l-.161.052c-.266.094-.531.13-.797.104l-.214-.026c-.229 0-.443-.094-.615-.224l-.135-.094a1.344 1.344 0 0 0-.333-.188c-.13-.052-.24-.026-.318.068l-.068.078a.906.906 0 0 1-.505.266l-.719.042a.525.525 0 0 0-.359.161.774.774 0 0 1-.365.182h-.026c-.13 0-.266.094-.396.188v.026a.679.679 0 0 1-.484.203l-.052.026c-.161 0-.318 0-.479.042h-.161c-.224.036-.401.224-.453.464l-.052.307a1.37 1.37 0 0 1-.266.573c-.135.161-.297.266-.495.266h-.224c-.135.031-.271.177-.245.333.031.229 0 .427-.036.63l-.052.224a.62.62 0 0 1-.365.427l-.078.042h-.026c-.078.052-.135.172-.068.266a.61.61 0 0 1 .094.401l-.042.427a.989.989 0 0 1-.13.438.411.411 0 0 0-.026.401l.13.292a.576.576 0 0 1 .042.427.958.958 0 0 0-.052.401c0 .135.078.266.188.323zm10.532 9.641c.135.13.333.182.495.078l.266-.172a.747.747 0 0 0 .292-.401v-.026l.135-.401.078-.135.057-.13.052-.094a.406.406 0 0 1 .266-.229l.052-.026c.109-.026.177-.13.177-.24 0-.13.063-.24.13-.333l.109-.094.266-.344v-.026a.994.994 0 0 0 .161-.365.665.665 0 0 0-.057-.396l-.026-.057a1.325 1.325 0 0 1-.094-.344l-.036-.375-.042-.401c0-.13.052-.266.135-.396.089-.109.156-.245.214-.375v-.052l.026-.026c.026-.135-.042-.271-.161-.271-.135-.063-.266-.172-.307-.333l-.042-.078a2.833 2.833 0 0 1-.104-.719l.026-.667v-.042a.405.405 0 0 0-.401-.401h-.026a.883.883 0 0 1-.667-.266l-.104-.135-.271-.302-.344-.401a3.087 3.087 0 0 0-.443-.51c-.13-.13-.333-.266-.531-.292l-.266-.042a1.375 1.375 0 0 1-.453-.182c-.109-.083-.266-.057-.375.052l-.172.188-.083.052c-.094.026-.182-.026-.224-.135a.682.682 0 0 1 .026-.505v-.078c0-.094-.078-.161-.161-.135h-.214a1.64 1.64 0 0 1-.703-.13l-.135-.057a.996.996 0 0 0-.438-.104.76.76 0 0 0-.401.104l-.052.042a1.113 1.113 0 0 1-.536.172h-.438a.873.873 0 0 0-.536.177 1.632 1.632 0 0 1-.557.208l-.359.057a1.192 1.192 0 0 0-.484.224c-.13.135-.318.214-.49.266l-.068.031a.953.953 0 0 0-.531.396l-.161.161a.359.359 0 0 0 0 .427c.078.135.24.172.401.135l.198-.083c.104-.036.229 0 .318.052a.436.436 0 0 0 .323.094l.333-.036c.188 0 .375 0 .557.052.203.068.375.135.536.266a.972.972 0 0 0 .531.214c.203.026.401.068.589.135l.13.026c.135.042.245.13.323.266.068.109.13.266.13.401v.042c0 .156.135.266.271.266h.078c.214 0 .443.026.667.094l.094.036a.78.78 0 0 1 .359.271c.109.13.172.266.214.396l.042.188c.036.203.052.401.052.615v.068c0 .13.094.266.24.318.135.026.292.083.443.161l.063.026c.177.104.349.24.479.401l.068.094c.177.198.266.453.266.703v.094c0 .203-.036.401-.104.589-.052.161 0 .349.172.401l.094.068c.203.078.375.224.505.396.135.203.188.427.188.667v.401c-.026.135-.063.24-.13.333s-.068.229 0 .323l.078.13zm-8.532-6.828h-.026c-.057 0-.083.068-.068.135l.052.266c.052.214.078.427.109.641.026.214.13.396.292.531h.052a.876.876 0 0 1 .333.641v.667c-.026.13 0 .266.083.375l.063.063a.924.924 0 0 1 .203.536l.036.734c0 .172-.104.318-.266.344l-.13.026c-.094 0-.135.109-.135.203 0 .104.042.224.078.333v.026c.042.13.057.266.042.401l-.052.359a2.524 2.524 0 0 1-.266.745l-.094.161a.58.58 0 0 1-.271.266.462.462 0 0 0-.266.292l-.104.479a2.936 2.936 0 0 1-.349.802h-.026a1.875 1.875 0 0 1-.599.531l-.161.109-.401.198a.42.42 0 0 0-.24.323l-.063.438c-.042.266-.135.495-.323.667l-.172.203-.203.198-.198.214c-.161.188-.401.266-.667.229l-.479-.094-.443-.057h-.12c-.052.057-.063.135-.026.214.094.161.24.271.401.271l.292.052c.135 0 .297.068.427.13.135.094.266.161.427.203h.026c.177.068.359.078.536.068l.198-.031c.229-.026.443 0 .625.083l.161.052c.068.026.172 0 .24-.068a.8.8 0 0 1 .266-.172l.109-.026c.172-.052.344-.083.531-.083h.109c.156 0 .307.031.438.109l.052.026c.094.042.203 0 .271-.078.036-.094.13-.188.224-.266l.333-.229.214-.135.109-.063a.853.853 0 0 1 .479-.135l.479-.042a.48.48 0 0 0 .401-.344c.052-.203.13-.401.266-.573.135-.177.266-.323.401-.453a.927.927 0 0 1 .531-.214h.109a.447.447 0 0 0 .359-.453v-.896c.026-.13.078-.307.156-.438l.271-.401.104-.135c.083-.068.135-.156.229-.266l.13-.172c.083-.135.083-.307-.026-.427a.913.913 0 0 1-.224-.505v-.057a1.724 1.724 0 0 1 .036-.667v-.063c.068-.177.161-.349.271-.51a.304.304 0 0 0-.042-.427l-.229-.198a.98.98 0 0 1-.318-.641l-.026-.266c0-.083 0-.172-.026-.266l-.026-.203a.77.77 0 0 0-.349-.531l-.094-.026a1.281 1.281 0 0 1-.375-.359c-.104-.135-.156-.323-.198-.51l-.042-.224c0-.083-.052-.135-.13-.172l-.641-.203c-.135-.026-.266-.13-.359-.224h-.026c-.083-.109-.214-.109-.297-.031l-.13.135c-.026.042-.057.052-.094.042-.083 0-.135-.068-.109-.135a.599.599 0 0 0-.224-.557l-.177-.135-.396-.266c-.109-.042-.271 0-.323.13l-.052.083c0 .026-.042.036-.052.052-.057 0-.135 0-.135-.068l-.042-.068c-.036-.078-.13-.13-.214-.156zm-1.599 1.333-.068-.068c-.068-.052-.135-.042-.203.026a1.893 1.893 0 0 0-.214.51v.026c-.036.172-.198.292-.359.266h-.156a.34.34 0 0 0-.333.344c0 .24-.083.484-.229.667l-.078.083a1.133 1.133 0 0 1-.536.359l-.104.026a.359.359 0 0 0-.266.292c0 .135-.083.271-.188.375l-.135.104c-.161.177-.401.271-.641.297l-.667.068c-.214 0-.396.13-.531.333-.135.198-.333.333-.531.359l-.297.026a1.934 1.934 0 0 1-.667-.026l-.13-.026-.365-.094a.28.28 0 0 0-.318.094l-.135.172a.775.775 0 0 1-.667.266l-.865-.104c-.135 0-.24-.068-.359-.135-.135-.078-.229-.172-.323-.266L6.437 21c-.036-.026-.104-.042-.172-.026l-.188.078-.745.188c-.135.042-.307 0-.438-.078-.135-.109-.297-.135-.458-.135h-.172a.3.3 0 0 0-.214.375l.052.266c.042.135.031.292-.036.427s-.052.266.036.401l.083.104c.104.161.266.297.401.427.13.135.266.266.37.443l.203.359a.524.524 0 0 0 .479.292c.198 0 .401.068.557.198l.401.375c.109.094.266.109.375.026l.068-.026c.078 0 .13.052.13.135v.068c0 .172.135.333.307.396l.599.135c.214.068.427.135.63.266h.104a.19.19 0 0 0 .188-.214v-.464c0-.135.052-.271.161-.323l.068-.026c.063.026.13.078.104.135v.224c0 .172.052.333.172.453a.426.426 0 0 0 .453.109c.161-.068.323-.083.495-.068l.495.026c.24.026.464 0 .667-.094.24-.078.438-.188.625-.333l.078-.052.401-.359a.67.67 0 0 1 .469-.203h.531a.624.624 0 0 0 .536-.531l.052-.266c0-.177.078-.333.198-.469.135-.135.266-.214.401-.266l.161-.068a.868.868 0 0 0 .479-.531l.078-.323c.068-.266.203-.531.401-.703l.026-.031c.161-.13.188-.396.083-.583l-.042-.094a.554.554 0 0 1-.042-.505c.068-.188.135-.349.24-.51l.135-.188c.052-.104.052-.266-.026-.359a.611.611 0 0 1-.135-.37l-.026-.188v-.453a.989.989 0 0 0-.042-.443l-.052-.156zm-1.906-1.016v-.036c0-.135-.083-.214-.188-.214h-.349a.91.91 0 0 1-.375 0h-.599c-.307 0-.599-.057-.891-.135l-.323-.078-.266-.083-.599-.198a1.127 1.127 0 0 1-.708-.599l-.068-.135c-.094-.198-.292-.307-.49-.266-.229 0-.453 0-.667-.104l-.161-.068c-.307-.135-.531-.401-.531-.76l-.057-.359c-.036-.188-.156-.359-.318-.427a3.471 3.471 0 0 1-.536-.307L7.04 12.6a1.444 1.444 0 0 1-.469-.625l-.026-.078a1.257 1.257 0 0 1-.026-.667l.026-.083c.052-.172.068-.344.068-.531a.634.634 0 0 0-.188-.443l-.188-.172a.969.969 0 0 1-.359-.708 3.122 3.122 0 0 1 .026-.854v-.078a.267.267 0 0 0-.266-.266h-.042c-.172 0-.318.104-.401.266a1.5 1.5 0 0 1-.292.479l-.052.068-.401.401c-.135.13-.214.333-.24.531a2.12 2.12 0 0 1-.161.589l-.026.068a.952.952 0 0 1-.307.401.572.572 0 0 0-.224.422l-.026.615c0 .266-.042.536-.135.802l-.026.104a.346.346 0 0 0 .161.443l.557.24.052.026c.042 0 .057.026.068.068.042.052 0 .13-.042.13l-.13.068c-.078.026-.135.109-.161.203l-.026.13v.026l-.135.75c-.026.104-.026.224-.026.344a.26.26 0 0 0 .161.24l.292.135c.135.078.297.172.401.266l.135.109a.46.46 0 0 0 .156.13l.057.052a.616.616 0 0 1 .188.307l.13.599c0 .161.135.297.266.333l.214.068s.042 0 .068.026l.266.083c.214.068.401.188.563.344.161.135.318.307.453.495l.052.052c.109.135.266.203.427.161s.333-.052.505-.052h.203c.13 0 .307.036.453.13.13.083.307.135.464.203h.042a.5.5 0 0 0 .469-.052.751.751 0 0 1 .479-.161l.625.036c.135 0 .266-.026.333-.13h.026l.229-.214.068-.068a.579.579 0 0 1 .422-.198h.604c.156 0 .307-.135.37-.266a.508.508 0 0 1 .359-.271l.271-.052c.104 0 .198-.094.24-.214a.624.624 0 0 1 .198-.318l.214-.214a.741.741 0 0 0 .229-.427z"/></symbol><symbol id="icon-cybershoke" viewBox="0 0 32 32"><path fill="#fff" style="fill:var(--color7,#fff)" d="M15.407 23.226v2.97l-8.495-4.922V10.731l8.489-4.917v2.995l-5.914 3.443v7.543l.785.457z"/><path fill="#fff" style="fill:var(--color7,#fff)" d="m29.054 8.506-.009 15.008-12.998 7.503-3.221-1.858-.002-2.978 3.228 1.862 10.426-6.025.006-12.019-5.931-3.426-.004-2.769v-.205l4.567 2.635z"/><path fill="#6080ff" style="fill:var(--color11,#6080ff)" d="M19.275 2.857v2.98l-3.228-1.86-10.415 6.031-.002 12.011 5.92 3.43.004 2.993-8.527-4.932.011-15.002L16.045.997z"/><path fill="#6080ff" style="fill:var(--color11,#6080ff)" d="M19.275 10.317v4.401l5.911.013v6.558l-8.497 4.905.006-2.978 5.918-3.422-.011-2.498-5.914.004V5.808l8.497 4.934v3.004z"/></symbol><symbol id="icon-devdocs" fill="gray" viewBox="0 0 32 32"><path d="M9.893 13.4c-.24-.213-.613-.307-1.12-.307H8l.027 3.253.053 3.267.747-.027c.547 0 .84-.093 1.107-.347.32-.32.347-.48.347-2.933 0-2.547-.027-2.613-.387-2.907zM0 6.587v18.827h32V6.587H0zM11.413 20.4c-.587.773-1.413 1.027-3.373 1.027H6.28V11.374h1.867c2.227 0 2.88.24 3.467 1.2.36.573.387.8.427 3.427.067 2.973-.027 3.64-.627 4.4zm6.787-7.293h-3.293v2.36h2.027v1.707l-.96.053-1 .04v2.36l1.627.04 1.6.053v1.707h-2.133c-2.04 0-2.133-.013-2.493-.4l-.4-.373v-4.213c0-4.027.013-4.24.333-4.64.307-.413.333-.413 2.507-.413h2.187v1.733zm6.24 7.266c-.227.573-.853 1.053-1.333 1.053-.24 0-.6-.2-.893-.52-.427-.427-.6-.84-1.093-2.773l-1.2-4.52-.6-2.227h1.013c.533 0 1 .027 1 .067 0 .08 1.547 6.053 1.68 6.44.053.2.427-.933.973-3.067l.88-3.36.987-.053c.533-.027.973 0 .973.053 0 .187-2.227 8.507-2.4 8.907z"/></symbol><symbol id="icon-dribbble" viewBox="0 0 32 32"><path fill="#d43c89" style="fill:var(--color12,#d43c89)" d="M.8 16c.837 20.275 29.57 20.259 30.4 0C30.368-4.264 1.635-4.27.8 16z"/><path fill="#b2005f" style="fill:var(--color13,#b2005f)" d="M19.991 15.585c4.564-.572 9.092.343 9.541.443a13.675 13.675 0 0 0-3.088-8.565c-.292.393-2.588 3.346-7.652 5.419.436.879.832 1.792 1.198 2.702zm5.091-9.625a13.587 13.587 0 0 0-9.085-3.468 14.337 14.337 0 0 0-3.209.386 74.004 74.004 0 0 1 5.113 8.043c4.877-1.83 6.938-4.611 7.181-4.962zm-9.618 5.793a87.339 87.339 0 0 0-5.084-7.95c-3.829 1.816-6.703 5.362-7.587 9.623.613.007 6.261.028 12.671-1.673zm1.599 4.355c.177-.057.354-.114.538-.163a43.988 43.988 0 0 0-1.104-2.314c-6.788 2.037-13.386 1.952-13.98 1.945a13.6 13.6 0 0 0 3.49 9.532c.311-.532 4.042-6.728 11.057-8.999zm1.292 2.112c-7.486 2.617-10.18 7.824-10.415 8.309 3.515 2.881 9.103 3.672 13.329 1.752-.2-1.17-.967-5.235-2.832-10.089-.028.014-.062.021-.083.028zm2.713-.67c1.741 4.805 2.449 8.714 2.594 9.527a13.419 13.419 0 0 0 5.708-8.957c-.458-.146-4.127-1.238-8.303-.57z"/></symbol><symbol id="icon-evernote" viewBox="0 0 32 32"><path fill="#20c05c" style="fill:var(--color14,#20c05c)" d="M22.529 15.136a6.388 6.388 0 0 0-1.231.074c.109-.881.471-1.963 1.755-1.918 1.421.05 1.621 1.398 1.626 2.312-.6-.269-1.342-.439-2.149-.468zm6.077-9.569c-.238-1.277-.994-1.906-1.678-2.153-.737-.268-2.233-.545-4.113-.768-1.512-.178-3.289-.164-4.363-.131-.128-.886-.747-1.695-1.44-1.975-1.845-.746-4.696-.566-5.427-.36-.582.163-1.226.498-1.585 1.013-.24.344-.395.786-.396 1.402 0 .349.01 1.17.018 1.9l.019 1.392c0 .651-.527 1.182-1.179 1.183H5.471c-.638 0-1.127.108-1.498.277a2.11 2.11 0 0 0-.839.671c-.399.539-.469 1.203-.467 1.881 0 0 .006.555.139 1.627.111.83 1.007 6.629 1.859 8.392.33.686.55.972 1.198 1.274 1.445.622 4.747 1.313 6.294 1.511 1.545.198 2.514.615 3.092-.601.002-.003.116-.303.272-.742.502-1.526.572-2.88.572-3.859 0-.1.145-.104.145 0 0 .691-.131 3.139 1.71 3.796.727.259 2.235.489 3.767.67 1.386.16 2.391.707 2.391 4.276 0 2.171-.454 2.469-2.829 2.469-1.925 0-2.659.05-2.659-1.485 0-1.241 1.223-1.111 2.129-1.111.405 0 .112-.302.112-1.068 0-.762.474-1.202.026-1.213-3.134-.087-4.977-.004-4.977 3.93 0 3.572 1.362 4.235 5.808 4.235 3.487 0 4.716-.115 6.155-4.599.285-.886.974-3.587 1.39-8.124.264-2.868-.248-11.525-.654-13.71zM5.33 6.198c-.735 0-1.349.125-1.855.355-.023.01-.187.091-.308.151a.067.067 0 0 1 .022-.034L9.001.883a.06.06 0 0 1 .035-.018l-.103.192c-.214.43-.337.942-.337 1.53v.009c0 .716.036 3.29.036 3.291 0 .17-.138.311-.31.311H5.329z"/></symbol><symbol id="icon-exercism" fill="#9700ff" viewBox="0 0 32 32"><path d="M5.802 2.214c-1.281 0-2.25.396-2.911 1.193-.661.792-.99 1.948-.99 3.469v4.635c0 1.073-.115 1.896-.349 2.474-.229.583-.656 1.12-1.276 1.625-.188.151-.276.276-.276.37 0 .099.089.224.271.37.635.516 1.068 1.063 1.292 1.635.229.573.339 1.396.339 2.469v4.615c0 1.531.333 2.698 1 3.49.667.797 1.63 1.193 2.896 1.193h1.177c.505 0 .823-.026.958-.073s.203-.172.203-.365c0-.266-.177-.443-.531-.526l-.646-.146c-1.417-.323-2.125-1.724-2.125-4.198v-4.391c0-1.667-.406-2.839-1.208-3.526l-.307-.255c-.151-.13-.224-.224-.224-.292 0-.073.073-.172.224-.286l.307-.26c.802-.682 1.208-1.859 1.208-3.521V7.522c0-1.479.177-2.505.536-3.078.365-.573 1.109-1.016 2.25-1.328.344-.099.516-.255.516-.469 0-.286-.385-.432-1.161-.432zm19.224.036c-.776 0-1.161.146-1.161.438 0 .214.172.37.516.464 1.141.313 1.885.755 2.25 1.328.359.573.536 1.599.536 3.078v4.396c0 1.661.406 2.833 1.208 3.521l.307.255c.151.12.224.214.224.292 0 .063-.073.161-.224.286l-.307.26c-.802.682-1.208 1.859-1.208 3.521v4.391c0 2.479-.708 3.875-2.125 4.198l-.646.146c-.354.083-.531.26-.531.531 0 .193.068.313.203.359s.453.073.958.073h1.177c1.266 0 2.229-.396 2.896-1.193.667-.792 1-1.953 1-3.49v-4.615c0-1.073.115-1.896.339-2.469s.656-1.115 1.292-1.63c.182-.151.271-.276.271-.37 0-.099-.089-.224-.271-.37-.625-.505-1.052-1.047-1.281-1.625-.234-.578-.349-1.406-.349-2.479v-4.63c0-1.521-.328-2.682-.99-3.474-.661-.797-1.63-1.193-2.906-1.193zM10.245 12.979c-1.943 0-3.521 1.484-3.521 3.307h1.359c0-1.12.969-2.031 2.161-2.031 1.188 0 2.156.911 2.156 2.031h1.359c0-1.823-1.573-3.307-3.516-3.307zm11.208 0c-1.943 0-3.521 1.484-3.521 3.307h1.359c0-1.12.969-2.031 2.161-2.031 1.188 0 2.161.911 2.161 2.031h1.359c0-1.823-1.578-3.307-3.521-3.307zm-8.505 6.167v.75c0 1.703 1.417 3.089 3.151 3.089 1.745 0 3.156-1.385 3.156-3.089v-.75H18.01v.75c0 1.167-1.01 1.901-1.911 1.901-.896 0-1.969-.365-1.969-1.901v-.75z"/></symbol><symbol id="icon-faceit" fill="#f60" viewBox="0 0 32 32"><path d="M32 3.6c0-.133-.133-.267-.133-.267-.133 0-.133 0-.267.133-2.667 4.133-5.467 8.267-8.133 12.533H.267c-.267 0-.4.4-.133.533 9.6 3.6 23.6 9.067 31.333 12.133.267.133.533-.133.533-.267v-24.8z"/></symbol><symbol id="icon-fastly" viewBox="0 0 32 32"><path fill="#ff282d" style="fill:var(--color15,#ff282d)" d="M32 16c0 8.837-7.163 16-16 16S0 24.837 0 16 7.163 0 16 0s16 7.163 16 16z"/><path fill="#fff" style="fill:var(--color7,#fff)" d="M19.809 12.753v5.506h1.653v-.841h-.547v-5.506h-1.106v.841zM5.453 17.419h.563v-2.656h-.563v-.731l.563-.094v-.741c0-.897.194-1.284 1.338-1.284.247 0 .537.037.794.081l-.153.9a1.983 1.983 0 0 0-.369-.031c-.403 0-.503.041-.503.434v.641h.834v.822h-.834v2.656h.556v.841H5.454v-.837zm13.794-.266c-.172.038-.325.031-.434.034-.456.012-.416-.137-.416-.569v-1.856h.866v-.825h-.866v-2.025h-1.106v4.934c0 .969.238 1.409 1.281 1.409.247 0 .584-.063.841-.119l-.166-.984zm-3.341-2.394v-.147c-.334-.063-.669-.063-.847-.063-.516 0-.578.272-.578.422 0 .209.072.322.628.444.816.184 1.634.375 1.634 1.388 0 .959-.494 1.456-1.534 1.456-.697 0-1.369-.15-1.884-.281v-.828h.838v.147c.359.069.738.063.938.063.55 0 .637-.297.637-.453 0-.219-.156-.322-.672-.428-.972-.166-1.741-.497-1.741-1.484 0-.934.625-1.3 1.662-1.3.703 0 1.241.109 1.753.241v.822h-.834zm-5.093.729-.084-.084-.428.372a.256.256 0 0 0-.069-.012c-.116 0-.209.097-.209.216s.094.216.209.216.209-.097.209-.216a.25.25 0 0 0-.009-.066l.381-.425zm1.696 1.665v-3.447h-1.106v.322a2.245 2.245 0 0 0-.753-.284h.006v-.381h.134v-.281H9.674v.281h.134v.381h.006a2.278 2.278 0 1 0 1.585 4.191l.2.325h1.169v-1.106h-.259zm-2.212-.003v-.131h-.131v.131a1.17 1.17 0 0 1-1.1-1.106h.131v-.131h-.131a1.172 1.172 0 0 1 1.1-1.1v.131h.131v-.131a1.172 1.172 0 0 1 1.103 1.066v.037h-.134v.131h.134v.038a1.173 1.173 0 0 1-1.103 1.066zm13.965-3.212h2.284v.822h-.547l-1.4 3.447c-.4.969-1.059 1.878-2.066 1.878-.247 0-.575-.028-.803-.081l.1-1.006c.147.028.337.047.438.047.466 0 .991-.288 1.156-.791l-1.419-3.494h-.547v-.822h2.284v.822h-.547l.803 1.978.803-1.978h-.544l.003-.822z"/></symbol><symbol id="icon-images" fill="#fff" viewBox="0 0 32 32"><path d="M1.455 5.818H2.91V4.363h26.182v1.455h1.455v20.364h-1.455v1.455H2.91v-1.455H1.455V5.818zm2.909 14.546h1.455v-1.455h1.455v-1.455h1.455v-1.455h1.455v-1.455h1.455v-1.455h2.909v1.455h1.455v1.455h1.455v1.455h1.455v1.455h1.455v1.455h1.455v1.455h1.455v1.455h1.455v1.455h2.909V7.274H4.369v13.091zm16 4.363v-1.455h-1.455v-1.455h-1.455v-1.455h-1.455v-1.455h-1.455v-1.455h-2.909v1.455H10.18v1.455H8.725v1.455H7.27v1.455H5.815v1.455H20.36zm-1.455-13.091h1.455v-1.455h2.909v1.455h1.455v2.909h-1.455V16h-2.909v-1.455h-1.455v-2.909z"/></symbol><symbol id="icon-gcp" viewBox="0 0 32 32"><path fill="#ea4335" style="fill:var(--color16,#ea4335)" d="m20.626 10.752 3.774-3-.664-.828a11.81 11.81 0 0 0-7.8-2.923c-1.202 0-2.362.179-3.456.511l.084-.022c-3.882 1.199-6.858 4.245-7.936 8.085l-.02.083c-.06.226.624-.196.926-.112l5.216-.856s.254-.248.402-.41c2.32-2.532 6.252-2.864 8.93-.708l.544.18z"/><path fill="#4285f4" style="fill:var(--color17,#4285f4)" d="M27.274 12.6a11.71 11.71 0 0 0-3.528-5.665l-.012-.011-3.66 3.64a6.446 6.446 0 0 1 2.387 5.01l-.001.124v-.006.646c1.8 0 3.26 1.45 3.26 3.24 0 1.786-1.46 3.238-3.26 3.238l-6.514-.006-.65.07v5.014l.65.106h6.597a8.472 8.472 0 0 0 8.06-5.864l.017-.06A8.21 8.21 0 0 0 31 19.58a8.391 8.391 0 0 0-3.698-6.961l-.03-.019z"/><path fill="#34a853" style="fill:var(--color18,#34a853)" d="M9.422 27.998h6.518V22.81H9.42c-.464 0-.922-.132-1.344-.322l-.916.28-2.626 2.594-.228.894a8.447 8.447 0 0 0 5.112 1.74h.002z"/><path fill="#fbbc05" style="fill:var(--color19,#fbbc05)" d="M9.422 11.144a8.472 8.472 0 0 0-7.962 5.677l-.018.059A8.24 8.24 0 0 0 1 19.57a8.398 8.398 0 0 0 3.288 6.672l.02.015 3.78-3.768a3.24 3.24 0 0 1-1.917-2.954 3.234 3.234 0 0 1 2.78-3.202l.017-.002a3.262 3.262 0 0 1 3.42 1.852l.008.02 3.78-3.756c-1.566-2.017-3.991-3.302-6.716-3.302h-.043.002z"/></symbol><symbol id="icon-gdocs" viewBox="0 0 32 32"><path fill="#3c8cea" style="fill:var(--color20,#3c8cea)" d="M4.55 0A2.56 2.56 0 0 0 2 2.55v26.9C2 30.85 3.15 32 4.55 32h22.9c1.4 0 2.55-1.15 2.55-2.55v-19.3L20.55 0h-16z"/><path fill="#2d6fe4" style="fill:var(--color21,#2d6fe4)" d="M30 10.2v.5h-6.4s-3.2-.65-3.1-3.35c0 0 .1 2.85 3 2.85H30z"/><path fill="#fff" style="fill:var(--color7,#fff)" opacity=".5" d="M20.55 0v7.3c0 .8.55 2.9 3.05 2.9H30L20.55 0z"/><path fill="#fff" style="fill:var(--color7,#fff)" d="M14.95 22.55h-3.8v1.1h2.7c-.15 1.6-1.45 2.25-2.7 2.25-1.6 0-2.95-1.25-2.95-3 0-1.7 1.3-3 2.95-3 1.25 0 2.05.8 2.05.8l.8-.8s-1-1.1-2.85-1.1C8.8 18.8 7 20.8 7 22.9s1.7 4.15 4.2 4.15c2.2 0 3.85-1.5 3.85-3.75-.05-.45-.1-.75-.1-.75z"/></symbol><symbol id="icon-gdrive" viewBox="0 0 32 32"><path d="M11.25 21.869h-.175l-.088.15-4.338 7.587-.263.45h20.925l.087-.15 4.6-8.037h-.525zm11.225-1.913.087.15h.175l9.262-.038-.262-.462-10.113-17.5-.087-.163h-.175l-8.725.038-.537.012.262.45zm-7.262-8.9-.088-.162-4.662-7.987-.262.45L.001 21.02l.087.15 4.662 8 .263-.45 10.113-17.512z"/></symbol><symbol id="icon-gist-github" fill="#616161" viewBox="0 0 32 32"><path d="M19.247 17.297c.359 0 .656.177.915.528.256.353.392.784.392 1.3 0 .513-.136.948-.392 1.297-.257.353-.556.528-.915.528-.371 0-.696-.175-.953-.528-.256-.349-.392-.784-.392-1.297 0-.516.136-.947.392-1.3.256-.352.581-.528.953-.528zm4.586-4.745c.995 1.081 1.5 2.393 1.5 3.937 0 .997-.115 1.897-.345 2.697-.233.796-.525 1.445-.872 1.945a5.7 5.7 0 0 1-1.299 1.319c-.515.381-.988.656-1.42.831s-.927.311-1.481.408c-.556.095-.968.148-1.257.164l-.913.019-.729.02a23.898 23.898 0 0 1-2.032 0l-.729-.02-.913-.019a11.85 11.85 0 0 1-1.257-.164 7.03 7.03 0 0 1-1.481-.408c-.432-.175-.907-.449-1.419-.831a5.665 5.665 0 0 1-1.3-1.319c-.348-.5-.639-1.149-.872-1.945-.231-.8-.345-1.7-.345-2.697 0-1.544.505-2.857 1.5-3.937-.109-.055-.113-.596-.011-1.623a9.443 9.443 0 0 1 .66-2.843c1.245.132 2.787.839 4.628 2.108.621-.159 1.468-.244 2.556-.244 1.136 0 1.988.085 2.557.245a16.91 16.91 0 0 1 2.407-1.379c.779-.348 1.34-.555 1.692-.609l.528-.12c.36.865.579 1.813.661 2.843.101 1.025.097 1.567-.012 1.621zM16.04 22.979c2.251 0 3.939-.269 5.095-.809 1.14-.539 1.723-1.651 1.723-3.328 0-.973-.364-1.787-1.096-2.437a2.455 2.455 0 0 0-1.319-.648c-.5-.081-1.265-.081-2.293 0-1.025.083-1.731.12-2.109.12-.513 0-1.067-.024-1.759-.079a51.682 51.682 0 0 0-1.631-.104 4.965 4.965 0 0 0-1.277.144c-.46.109-.839.299-1.137.567-.695.625-1.053 1.436-1.053 2.437 0 1.677.568 2.789 1.707 3.328 1.133.54 2.817.809 5.069.809h.081zm-3.245-5.682c.357 0 .656.177.913.528.256.353.392.784.392 1.3 0 .513-.136.948-.392 1.297-.256.353-.556.528-.913.528-.372 0-.696-.175-.955-.528-.256-.349-.392-.784-.392-1.297 0-.516.136-.947.392-1.3.257-.352.581-.528.955-.528z"/></symbol><symbol id="icon-gmail" fill="#ff3838" viewBox="0 0 32 32"><path d="M30.996 7.824v17.382a2.044 2.044 0 0 1-2.044 2.044h-4.773V15.663L16 21.799l-8.179-6.136v11.588H3.049a2.044 2.044 0 0 1-2.044-2.044V7.824A3.067 3.067 0 0 1 5.92 5.376L16 12.937 26.088 5.37a3.067 3.067 0 0 1 4.907 2.454z"/></symbol><symbol id="icon-google-drive" viewBox="0 0 32 32"><path fill="#0066da" style="fill:var(--color22,#0066da)" d="M2.419 26.192 3.83 28.63c.293.513.715.916 1.21 1.21 1.417-1.799 2.404-3.18 2.96-4.142.564-.976 1.258-2.504 2.08-4.582-2.217-.292-3.897-.438-5.04-.438-1.097 0-2.777.146-5.04.438 0 .568.147 1.136.44 1.649l1.979 3.427z"/><path fill="#ea4335" style="fill:var(--color16,#ea4335)" d="M26.96 29.839a3.327 3.327 0 0 0 1.21-1.21l.587-1.008 2.804-4.857c.293-.513.44-1.081.44-1.649-2.276-.292-3.953-.438-5.031-.438-1.158 0-2.835.146-5.031.438.813 2.09 1.497 3.617 2.053 4.582.56.974 1.55 2.354 2.969 4.142z"/><path fill="#00832d" style="fill:var(--color23,#00832d)" d="M16 10.851c1.64-1.981 2.77-3.508 3.391-4.582.5-.865 1.049-2.245 1.649-4.142a3.225 3.225 0 0 0-1.649-.44H12.61c-.587 0-1.155.165-1.65.44.763 2.175 1.411 3.723 1.943 4.644.588 1.018 1.62 2.378 3.097 4.08z"/><path fill="#2684fc" style="fill:var(--color24,#2684fc)" d="M21.92 21.115H10.08l-5.04 8.724c.495.293 1.063.44 1.65.44h18.621c.587 0 1.155-.165 1.65-.44l-5.04-8.724z"/><path fill="#00ac47" style="fill:var(--color25,#00ac47)" d="m16 10.851-5.04-8.724a3.327 3.327 0 0 0-1.21 1.21L.44 19.465a3.322 3.322 0 0 0-.44 1.65h10.08L16 10.851z"/><path fill="#ffba00" style="fill:var(--color26,#ffba00)" d="M26.905 11.401 22.25 3.337a3.335 3.335 0 0 0-1.21-1.21L16 10.851l5.92 10.264h10.062c0-.568-.147-1.136-.44-1.65l-4.637-8.064z"/></symbol><symbol id="icon-google-meet" viewBox="0 0 32 32"><path fill="#00832d" style="fill:var(--color23,#00832d)" d="m18.103 15.978 3.12 3.566 4.195 2.681.73-6.224-.73-6.084-4.276 2.355z"/><path fill="#0066da" style="fill:var(--color22,#0066da)" d="M0 21.645v5.304c0 1.211.983 2.194 2.194 2.194h5.304l1.098-4.007-1.098-3.491-3.639-1.098L0 21.645z"/><path fill="#e94235" style="fill:var(--color27,#e94235)" d="M7.498 2.813 0 10.311l3.859 1.096 3.639-1.096 1.078-3.443z"/><path fill="#2684fc" style="fill:var(--color24,#2684fc)" d="M0 21.647h7.498V10.31H0z"/><path fill="#00ac47" style="fill:var(--color25,#00ac47)" d="m30.207 5.987-4.79 3.93v12.307l4.81 3.945c.72.564 1.773.05 1.773-.865V6.835c0-.925-1.078-1.437-1.793-.848zm-12.104 9.991v5.667H7.498v7.498h15.725a2.195 2.195 0 0 0 2.194-2.194v-4.724l-7.315-6.247z"/><path fill="#ffba00" style="fill:var(--color26,#ffba00)" d="M23.223 2.813H7.498v7.498h10.605v5.667l7.315-6.061v-4.91a2.195 2.195 0 0 0-2.194-2.194z"/></symbol><symbol id="icon-habr" fill="#6ccbed" viewBox="0 0 32 32"><path d="m1.52 12.393.227.337c-.453-.013-.928-.057-1.019-.252 0-.009.003-.019.005-.028.253-.067.471-.071.787-.057zm2.408 1.027.109.333-.256.011.061-.341a.87.87 0 0 0 .089-.004h-.004zm.872 2.433c-.227.208-.401.347-.536.663-.187-.153-.284-.457-.344-.797-.067-.371-.088-.783-.139-1.091l.016-.157.263-.019.74 1.4zm-.339-3.122c.09-.678.126-.91.163-1.142l-.06.46.087-.005c-.064.229-.128.459-.189.688zm-.182-3.096 1.2.325-.005.043-.001.01c-.559.413-1.075.595-1.352 1.341l.105-1.661.052-.057zm1.12-1.72c-.077.773.032 1.115.167 1.595.213.152.299.244.229.469-.36-.179-.741-.365-1.293-.336l-.035-.041-.005-.005c.155-.609.456-.984.689-1.467l.249-.216zm1.725-1.03.052-.004c-.165.571-.232 1.887-.521 2.409-.684-.324-.671-1.728.095-2.283l.373-.123zm-.637 4.227.576.625c-.227.696-.655 1.22-.836 2.027l-.34-.027c-.291-.812.436-2.135.56-2.727l.533.061c.067.167.131.333.196.501l-.689-.463zM8.063 6.88c-.059.676.091 1.027.131 1.549l-1.017.516c.069-.75.245-1.44.515-2.082l-.017.046.389-.029zm.394-1.027.076-.005-.115.329-.225.015.173-.204.091-.135zm.076 3.154-1.019.627c.021-.379.504-.889.908-1.031l.093.051.017.353zm.68-2.371c-.063.349-.124.697-.184 1.047l-.191.12-.101.111c-.184-.259-.231-.893-.191-1.376l.667.099zm.678-.787c0 .013-.003.024-.004.035l-.26.249c-.173.067-.195.064-.413.056.028-.113.06-.227.091-.34h.587zm.68-1.376-.304.687-1.053-.076.004-.056c.433-.2.813-.437 1.352-.556zm-.55 1.787.112-.067.097.344-.34-.067.131-.212zm.888 1.017c-.404.157-.963.113-1.287.293a37.671 37.671 0 0 0-.163-1.042l.093.628.211-.276c.343.133.685.269 1.027.404l.12-.008zm-.868.619-.461.017c-.011-.048-.019-.096-.028-.145.324-.132.868-.144 1.357-.199l-.516.284-.352.043zm1.207 0c-.388.097-.76.44-1.015.707-.049-.312.549-.861.836-1.033.127.113.14.101.179.327zm.68-4.111-.005.053-.408.247-.605.044.005-.053 1.013-.291zm-.549 1.032-.131-.193c.307-.257.983-.116 1.359-.077l-1.228.271zm3.037-1.013c.567.047 1.085.18 1.48.427L16 4.224l-.063.088-.543.16c-.327-.045-.653-.093-.979-.14l-2.149-.305.005-.044a7.003 7.003 0 0 1 2.167-.176l-.023-.001zm2.257-.181-.12.163a1.636 1.636 0 0 1-.897-.347l.004.003 1.019.129-.005.052zm1.808 1.272.281-.107.292.251c-.04.287-.316.521-.528.8l-.163.011c-.443-.733-1.001-1.535-1.981-1.817l-.043-.087.396-.16c.665.232 1.22.584 1.837.787.08.193.055.128-.093.323zm.819 1.63-.077-.076-.168.012.28-.267-.035.331zm.3 3.798c.459.397.576.973.385 1.72-.197-.443-.393-.887-.592-1.329.067-.099.129-.197.195-.296.004-.032.007-.064.012-.095zm.133-3.094-.005.064-.241.276-.093-.183c.145-.26.04-.12.231-.147l.109-.011zm.283-.004 1.075.399c-.002.04-.005.077-.01.114l.001-.007c-.091.063-.181.123-.272.183l-1.076-.397.009-.108.273-.183zm2.093 1.378-.596-.396-.083-.16c.259-.16.221-.152.495-.099.06.219.123.436.184.653zm.339-.131-.12.131c-.144-.075-.169-.169-.219-.345l.311.136.028.079zm-.253-.985-.085.007c.093-.089.187-.179.283-.267-.067.087-.133.173-.197.26zm1.612 1.73-.167.073c-1.813-.963-2.11-1.132-2.406-1.302l1.498.791c.156.226.063.1-.03-.026l-.254-.36c.471-.347.488.056.932.276l.427.548zm.338.304-.339-.124.204-.107.135.231zm-.413.555c.123.247.123.177.413.14l-.521.451-.497-.949.007-.059c.367-.079.484.053.843.107l.137.221-.38.089zm.075.617.679-.371c-.136.307-.313.464-.523.688l-.156-.317zm1.357 1.314c-.184.159-.304.209-.652.239l.28.031-.005.049-.956.405-.024-1.227.659-.78.12-.057.579 1.34zm-.34-1.883c1.875-.523 1.512.472.676 1.231-.227-.409-.452-.82-.676-1.231zm1.697.199c-.691 3.245-.824 3.423-3.267 4.817a3.935 3.935 0 0 0-.137-.207l.009.014.087-.363c1.593-.453 2.499-1.288 2.404-3.177l.799-1.027.105-.057zm.083 0c-.027-.112-.053-.224-.083-.336l.253-.008-.171.344zm-4.156 3.156.024-.359.021-.307.235-.079c.012 0 .023-.003.033-.004.067.407 0 .707-.133 1.033-.115-.073-.137-.104-.18-.285zm-1.357 3.01.005-.06.445-1.065.093-.224.784.053c.012.059.02.116.024.171.035.405-.105.729-.249 1.152l-1.103-.027zm.34 1.382.009-.533.013-.133.573.043.083-.007a62.64 62.64 0 0 0-.392.653l-.287-.023zm-.336-2.227.035-.017.271-.14.031-.003-.04.143-.159.545-.141-.485.004-.043zm-.53 1.713-.153-.153c.149.104.052.003.153.153zm-.832-.409c.191-.12.397-.083.68-.08l-.084.276c-.233.093-.267.059-.529.031l-.067-.227zm.416 1.288.263.621c-.203.137-.407.273-.609.412-.181-.249.016-.947.347-1.033zm-.67-2.16-.085.007.112-.255-.027.249zm.977.096-.044-.028.149-.315.049-.001.141.331-.296.013zm2.351-4.473-.019-.116c.089-.109.147-.177.3-.227l.04.203c-.067.044-.133.087-.199.132l-.123.008zm-.019.84c-.061.081-.171.127-.248.192l-.092-1.72.34 1.528zm-.623 2.306c.224-.125.256-.009.283.293h-.679l.012-.107.384-.187zm-.333-.95.153-.131.124.221-.057.123-.283-.033.063-.18zm-.063.912-.353.333-.231-.039-.093.009c.053-.105.109-.211.164-.315l.513.011zm-1.28-.196c-.141-.099-.04-.085-.067-.16l.067.16zm1.07-1.536-1.147-.595c.053-.787.149-1.691.072-2.501.884.32 1.677 1.759 1.075 3.096zm-.807 0c.281.149.267.285.657.405.068.255-.036.356-.199.627l-.416-.016c-.085-.453.008-.713-.043-1.016zm.077 2.225c-.143-.099-.04-.085-.067-.16l.067.16zm2.298-3.312.004-.064.307-.225c.053.352.033.939-.047 1.376-.181-.141-.215-.739-.264-1.087zm0 1.087c.069-.115.139-.229.205-.344l-.12.339-.085.005zm1.98-1.028.057-.004c.016 1.319-.797 1.559-1.867 2.053l-.171.012.667-1.381 1.313-.68zm-2.014-2.576c.011.035.023.068.032.103l-.084.061-.255-.344.307.18zm-.306.573.009-.06.061-.005.013-.001.256.344c-.197-.093-.229-.117-.34-.28zm.338.88-.457.431-.983-1.427-1.275-1.107.28-.219c.617.267 1.697.775 1.915 1.409.071.207-.173.377-.008.549.197.205.395.059.529.361zm-2.864 2.151.104.041.045.992-.159-.037c-.149-.111-.253-.623-.117-.845l.127-.151zm-.752 1.725.109-.004.113.269-.173.067-.167.008c.04-.113.08-.227.117-.34zm-.309 5.501-.147-.503c.209-.06.417-.12.627-.183l.053-.003c-.002.011-.005.027-.006.043v.003l-.527.64zm-.487-1.376c.063-.203.107-.233.22-.345l.093.037.027.088-.209.205-.131.013zm.16.344-.16-.176.34-.168-.088.337-.092.007zm-.357 1.56c-.048-.037-.093-.076-.141-.116l.104-.007.524-.405.051.413-.401.275-.136-.16zm.027 3.942c-.817.035-1.307-.173-1.973-.232l-.764-1.511-.147-.152c1.283-.152 2.089-.771 3.04-1.199.336.32 1.097 1.949.427 2.671-.16.247-.34.272-.584.423zm-3.51-1.698.307-.02c.463.311.777.867.999 1.377l-1.359-.393c.101-.344.144-.693.053-.964zm-.976-1.298 1.531-.441 2.405.235.043.121c-.716.323-1.531.595-2.352 1.011-.889.071-1.104-.261-1.72-.48l.095-.445zm-.094 1.621.031-.299.585-.044c.048.26.099.405.027.688l-.643-.347zm-.68.539.228-.125c.28-.185.489.061.791.159l-.12.117-.897-.151zm.66-.538c-.207-.087-.279-.121-.352-.155l.131.055-.099-.244.34.021-.02.323zm-.999 0 .34.292c0 .18-.016.16-.057.396l-.283-.688zm-.88-1.289c.319-.097.743-.076 1.22-.087l-.444.344-.913-.089.137-.168zm-.816-17.244c.631-.603 2.212-.423 2.608-.04l.107-.009c-.527.492-1.343.548-1.844 1.035-.393-.261-.719-.429-.871-.985zm3.467.985.267.303c-.237.013-.487.028-.736.049-.561.048-1.116.132-1.504.333l-.051.003c.134.225.107.182.079.139l-.163-.271a4.786 4.786 0 0 1 2.049-.552h.01l.049-.004zm1.322-1.72c.439.44 1.093.701 1.32 1.376-.92-.428-2.336-.421-3.053-1.103.632.135 1.171.084 1.733-.273zm.303 2.408 1.259.173.099-.008-1.009.867c-.16-.319-.197-.751-.348-1.032zm1.617 1.472-.26-.04.339-.056-.08.096zm-.26-.822.311-.305.028.344-.225-.049-.113.011zm.616 11.386-.149.007-.128-.12.099-.129.24-.093-.061.337zm-.27.63c.04-.048.083-.096.125-.144l.011-.133.197.313-.34.031.007-.067zm-.135 1.098-.211-.253.679-.091-.324.333-.144.011zm.128 1.032-.679-.081.48-.263.2.344zm-.476-.97.137.131-.492.125-.527.027.733-.344.148.061zM15.661 5.505c.396.011.815.111 1.017.344-.273-.027-.765.017-.889-.193l-.128-.151zm.344 1.376c.193.169.261.369.227.688-.299-.103-.221-.429-.227-.688zm.334 2.17.012-.059c.676-.147.821.088.513.299-.267-.037-.387-.137-.524-.24zm.87 8.841.148.037a2.107 2.107 0 0 0-.005.04l-.001.008-.333.259.139-.34.052-.004zM17.023 9.5l.253-.209.081.344-.339-.075.003-.06zm1.013 9.2-.82.215-.197.009c0-.011.003-.023.005-.033.307-.061.504-.163.685-.311l.288.053.04.067zm-.585-.808-.093-.191.233-.153.107.057-.133.277-.113.009zm-2.13 2.38.404-.315 1.251.107.043.093-.845.488c-.313-.052-.584-.191-.747-.381l-.107.008zm-.628.029.627.344-1.017-.18c.131-.053.26-.109.391-.164zm-.05.703a1.015 1.015 0 0 0-.003.062l-.001.021-.193.107-.143.019.005-.083c.148-.196.123-.131.333-.125zM13.043 7l-.1-.105.002.002c.337-.184.869-.272 1.392-.313.431-.036.855-.04 1.159-.047l.165 1.032c-.444-.048-.867-.107-1.324-.127a7.232 7.232 0 0 0-1.218.047l.034-.003a23.603 23.603 0 0 0-.186-.858l.075.373zm.498 13.807.083.147-.08.308-.937.072c.1-.307.249-.455.411-.688l.524.161zm-1.157-1.194c-.427-.024-1.011-.336-1.136-.688l1.359.345-.223.343zm.477-.018-.255.019.008-.083.283-.261c-.013.108-.024.216-.036.325zm-.933-12.583.413-.131.265.333-.28.011-.4-.213zm-.005 14.773c-.023.075-.043.151-.064.227a1.134 1.134 0 0 0-.105.01l.006-.001c-.381-.817-.439-.93-.496-1.043l.324.699.34.035-.005.073zm.188-1.484.792.16.043.107-.615.765-.743-.109.523-.923zm5.925-10.784.153-.225.056-.001.427.107.043.061-.476.176c.192.102.126.063.059.024l-.262-.142zm.919-1.112-.24-.147c.244.089.104-.012.24.147zm-.078 1.574-.163-.139.34-.205-.177.344zm-.162 2.408.528.131c.143.056.139.071.151.213-.227-.087-.605-.147-.679-.344zm.053-.938.072-.093.215.343-.34-.067.053-.183zm-6.876 11.322.036.091-.457.175-.223.017.005-.047.156-.244c.216-.1.221-.035.483.008zm-.983-17.267c.296.221.373.493.327 1.377-.195-.249-.313-.779-.327-1.376zm.195-.687-.024.249-.169.012.195-.261zm-.195.344c-.009.083-.016.165-.027.248l-.313-.057.259-.185.08-.005zm0 19.958.168-1.752 1.189-.313-1.251 2.001-.107.064zm.084-4.71.183-.108c.167.197.017.481-.14.688-.131-.123-.145-.2-.111-.479l.067-.101zm-1.102-.168.391-.628.627.368c-.213.336-.431.672-.647 1.008-.195-.173-.315-.428-.371-.747zm0 2.695.627-.571.295.027.097.16c-.027.168-.051.335-.075.501l-.944-.117zm-1.018-.467.747-.448.568.089.043.079-.599.52c-.299-.031-.497-.111-.653-.247l-.107.007zm-.1-.665.273-.127.117.025.048.056-.791.263-.227-.08.579-.137zm-.918-.323.2-.484c.371-.048.459.135.737.251l.08.123-.415.284-.337.023-.265-.196zm-.68 1.412.495-.872c.328 0 .368.027.503.2.06.101.008.047-.123.069l-.031.3.515.08c-.101.252-.117.219-.269.379-.507.027-.735-.069-1.088-.156zm-.571-1.216.863.26.048.103-.553.669-.804-.264.447-.768zm-3.324-.93.011-.103.481.371.041.099c-1.001.773.531 3.293 2.273 1.66l.749.301c-.288.513-.783.716-1.304 1.007-1.247.104-2.992-1.932-2.253-3.335zm1.163.352.019.233c-.093-.071-.187-.139-.277-.209l-.063-.135.32.111zm1.714 1.461-.62.48c-1.221.128-1.716-.717-1.756-1.756l.239-.288.104-.008c.615.484 1.159 1.223 1.993 1.467l.04.105zm-1.182-5.013c-.111-.08-.117-.12-.173-.256l.232-.883.271-.237.175.256-.504 1.12zm-.174.297.535-1.265.109-.064c.247.435.604.632.712 1.223l-.805.841a1.637 1.637 0 0 1-.548-.722l-.004-.011zm1.018 1.053.68-.663.337.689a71.128 71.128 0 0 0-.869-.024l-.148-.003zm1.696-6.953c-.321.687-.749 1.153-1.005 1.819-.112-.604.563-1.472.78-2.005l.104-.06.121.247zm0-1.893c.505-.156.844-.441 1.205-.761l.153.459-.429.573-.929-.269zm1.697.036-.184.235-.155-.027.003-.037.309-.28.027.109zm-.267-1.483.053-.003.213.449-.08.239c-.311-.163-.299-.356-.187-.685zm-.064 9.975.313.225-.321-.141c.002-.033.005-.062.009-.091l-.001.007zm-.005.345.336.145-.005.034-.001.006-.72.503c-.207-.093-.232-.279-.293-.48l.007-.043.676-.165zm-1.004-.689.323.131-.173.1-.167.019.017-.249zm-.017-6.88c.408.115.279.037.296.343-.187-.109-.2-.161-.296-.344zm0 6.145.028-.297a.884.884 0 0 1 .312.344c.32.035.204.018.087.002l-.427-.049zm.68-4.297c-.128.164-.123.12-.34.215l.148-.344.191.129zm0-1.384-.213.223c-.213-.12-.113-.072-.017-.295l.127-.049.103.121zm-.028-.586-.312-.224c.24.092.184.036.312.224zm-.652 6.314.34.271c-.173-.004-.267-.041-.34-.271zm1.018-.014-.139.013-.119-.219-.083-.107.184-.019c.052.111.103.221.156.331zm-.186-6.37-.153-.152c.149.104.051.003.152.153zm.02 5.666-.173-.36.073-.296.043-.003.224.688c.247.036.191.026.134.015l-.301-.045zm-.89 4.004.037.045-.121.455a.932.932 0 0 1-.556-.682l-.001-.006.641.189zm-.981.5.34.301c-.217-.096-.231-.092-.34-.301zm.587-3.05.04.297-.287-.344.247.047zm-.336 1.609-.251-.623c.297.113.529.453.68.688l-.429-.065zm.266-6.125.084-.003-.248.344c-.04-.085.009-.167.147-.267l.017-.076zm-.177 2.957-.068.136-.195-.151c.379.88.353.826.327.772l-.404-.936.267-.029.073.208zM4.8 19.613c.68.443 1.836.853 2.036 1.72a5.692 5.692 0 0 1-2.025-1.704l-.011-.016zm1.764-.333.272.333-.679-.344.407.011zm2.485 1.021-.516-.52.903-.856.116.943-.503.433zm.503.575.089-.224.12-.007.129.344-.339-.113zm.457-1.263-.119-.344.247.045-.128.299zM9.552 8.027l.003-.031c.112-.027.224-.053.336-.083l-.235.344-.104-.231zM6.129 15.14l-.311-.688c.399.087.333.371.311.688zm-.83.344c-.291-.201-.476-.603-.499-1.032.596.14.563.375.68.919l-.181.113zm-.351-1.796c-.433-.409.197-2.047.475-2.424.147-.185.331-.181.573-.253l.161.041c-.408.723-.683 1.707-.78 2.712l-.429-.076zm-.633 5.581.207.348-.185.433-.107.113c.152.021.187-.109.413-.295.44.713 1.112 1.396 1.853 1.784l-.404.712-1.227-.789c-.14-.26.053-.559-.172-.717-.204-.144-.467.064-.675.001l-.576-.528c.169-.379.332-.749.667-.943l.205-.12zm-1.174-3.794c.054-.398.124-.743.212-1.08l-.014.062.045-.004.177 1.023.093.533c.267.744.536 1.487.805 2.228-.645-.352-1.044-1.167-.987-2.263-.155.353-.027.909.024 1.221-.396-.336-.447-1.004-.359-1.72zm-.589.353a1.23 1.23 0 0 1-.114-.408v-.005a2.718 2.718 0 0 1 .007-.593l-.001.013.059-.123.263-.26-.148.961-.064.413zm23.629 3.44-.679-.261.659-.081.02.344zm-17.96 5.6.177-.093-.205.343.027-.248zM3.103 13.076l-.289-.027c-.36-.119-.697-.539-.728-1.005.551.049.737.311 1.009.629.003.133.007.268.008.403zm-.04-.028c.04-.743-.527-1.207-1.263-1.187.125-1.043 1.032-1.576 1.84-1.927l.156-.012c-.135 1.309-.032 2.437-.521 3.571-.361.835-1.643.819-1.573 2.107l.009.107c.183 1.712 2.044 2.06 2.301 3.565-2.76 1.404.604 7.304 2.787 3.839.392.056.74.233 1.227.063.227-.125.271-.227.359-.488l.78.404.04.099c-.715.555-1.219 1.316-1.987 1.836l.073-.211-.2-.036-.111.06-.1.467c.439.448 1.768-1.172 2.157-1.489-.22.769-.764 1.165-1.067 1.869l.093.096c.573-.411 1.276-1.573 1.383-2.457l.859.143c-1.076 1.455-3.84 4.655-5.293 5.509.221-.695.573-1.225.752-1.796l-.104.008-.097-.099.003.003c-.353.696-.936 1.185-1.04 2.124.063.094.14.173.229.237l.003.002c1.728-.288 4.613-4.631 5.992-5.817-.373 3.747-2.381 4.331-4.123 6.6 1.583-.789 2.543-2.803 3.896-3.92-.149 1.564-.521 5.061-1.457 5.684l.155-.012c1.051-.653 1.112-3.34 1.463-4.713l.149-1.444 1.5-2.107.109-.06c.168.527.928 1.099 1.751.945l.591-.248 1.483.555c.195 2.133.12 3.329-1.231 4.953 1.38-.705 1.887-3.423 1.427-4.865 3.209.372 3.08-.711 2.472-3.048l.564.009c-.104-.156-.385-.04-.6-.16-.097-.063-.079-.051-.139-.144.763-.86 2.6-.005 2.213 1.423.528-1.184-.639-2.237-1.763-1.813.48-.569 1.061-1.037 1.365-1.791l.109-.059 2.64 2.773.156-.012.12-.163c-.84-.995-1.679-1.991-2.516-2.987l.269-.123a.543.543 0 0 1 .469-.161h-.003a7.061 7.061 0 0 1-.303-.146l.17.079c1.348.135 3.071 1.259 4.477.896.129-.225.136-.347.057-.567 1.499.037 4.195-.464 5.053-1.192-2.307.484-4.904.648-7.021.365l-1.876-.22-.105.008.505-.907c1.547-.029 5.603-.068 6.423-1.039l-.181-.243-.707-.101a.525.525 0 0 0-.08.262v.001l.56.06c-1.216.307-4.603.953-5.708.576-.116-.141-.031-.632-.025-.985l.001-.04c0-.053-.003-.104-.009-.155l.001.006c1.589-.475 2.769-1.544 3.253-3.157.276-.924.093-2.137.691-2.713.381.033.459.195.739.304-.148-.205-.36-.32-.625-.413l-.497.343c-.455.176-.931-.284-1.703.075-.627-.536-.98-1.383-1.827-1.707l-.087-.147 1.027-.999c-.336.281-.679.613-1.021.947l-.688-.308-.04-.1c.784-.555 1.48-.76 2.372-.584.041.083.085.164.128.247-.041.071-.079.091-.115.111l-.3-.08c.129.076.264.1.399.124l.113-.111.017-.155c-.195-.173-.255-.299-.637-.312l.183-.269c-.437.301-1.325.381-1.76.643l1.005-.792.12-.161-1.86 1.109c-.397-.027-.82-.213-1.035-.436l-.29.02.187-.012 2.208-1.493-.036-.151c-.837.488-1.676.976-2.512 1.465l-.803-.197.075-.721 5.756-4.52.103-.008-.081-.199c-.213-.101-1.089.609-1.42.821-1.275.817-2.401 1.835-3.655 2.573.517-.657 1.464-1.312 1.621-2.269l-.253-.032-.395.336.429-.187c-.277.844-1.533 2.351-2.243 2.828l-.083-.199c.461-.776.916-1.82.703-2.816l-.387-.227-.415.031c.265.105.445.131.64.26.124.965-.351 1.619-.607 2.4l-.109.059c-.171-.316-.16-.468-.511-.525l-.031-.203.24-.325.165-.115c.056.107.059.068.076.251a.517.517 0 0 0 .079-.261V3.45l-.196-.088-.519.549c-.433-.289-.911-.593-1.52-.707.345-.716 1.395-1.867.853-2.775-.661-1.104-2.919.168-3.745 1.044a1.648 1.648 0 0 0-.244.318l-.004.008c.056-.045.137-.108.218-.17l.03-.022c.816-.608 2.988-2.064 3.459-.9.493.649-.452 1.899-.709 2.407-.88-.089-1.8-.173-2.747-.155a9.87 9.87 0 0 0-3.005.492l.07-.02c-.48.159-2.528 1.385-2.607 1.369l-.933-.904-1.952-.98-.011.103-.115.111 2.501 2.117-.381.233C6.768 4.7 6.058 4.227 4.526 3.828l-.259.02c.895.616 1.796 1.18 2.696 1.745l.18.243c-.643.271-.915.833-1.457 1.183-.848-.405-1.633-.773-2.661-1.084l-.072.211 1.925 1.24.104-.008-.332.229c-.153.516-.453 1.115-.704 1.843-.96.781-2.204.735-2.397 2.327-.307.084-.523.111-.803.316l-.021.207c.176.245 1.735.905 2.107.969l.229-.221zM14.449 2.04l.143.027-.191-.024c-.033 0-.067.003-.099.004.151-.28.593-.349 1.019-.319l-.029.203-.832.041-.011.067zm.595.369.4-.131c.173-.288.272-.593.184-.872-.412-.081-.649.019-1.035.181.093-.168.024-.057-.045.055l-.164.287-.08.133a.737.737 0 0 0 .079.079l.001.001c.131.107.288.144.577.12.08.136-.013.076-.156.113l.24.032zm9.871 3.098-.429.08.264-.019.303.131-.459.84c.236-.279.471-.476.571-.899l-.249-.133zm-2.467 13.42c-.107-.191-.223-.316-.339-.345.103.097.221.212.339.345zm-1.357 4.128-.339.197.26-.024.08-.173zm1.357-4.128c.345.389.604 1.136.529 1.72.392-.847-.055-1.375-.529-1.72z"/></symbol><symbol id="icon-heroku" viewBox="0 0 32 32"><path fill="#4a01aa" style="fill:var(--color28,#4a01aa)" d="M27.498 0a2.874 2.874 0 0 1 2.874 2.827v26.237a2.874 2.874 0 0 1-2.827 2.874H4.502a2.874 2.874 0 0 1-2.874-2.827V2.874A2.874 2.874 0 0 1 4.455 0h23.043zm0 1.597H4.503a1.28 1.28 0 0 0-1.277 1.245v26.222c0 .693.555 1.26 1.245 1.277h23.028c.694 0 1.26-.555 1.277-1.245V2.874a1.28 1.28 0 0 0-1.277-1.278zM8.814 20.759l3.593 3.194-3.593 3.194v-6.388zm3.194-15.968v9.067c1.595-.519 3.823-1.082 5.988-1.082 1.974 0 3.156.776 3.799 1.427 1.36 1.375 1.392 3.124 1.39 3.357v9.588h-3.194v-9.537c-.016-.745-.375-1.641-1.996-1.641-3.215 0-6.817 1.601-6.924 1.649l-.002.001-2.256 1.022V4.792h3.194zm11.178 0c-.216 1.814-.951 3.553-2.395 5.19h-3.194c1.255-1.647 2.043-3.38 2.395-5.19z"/></symbol><symbol id="icon-jira" viewBox="0 0 32 32"><path fill="#2684ff" style="fill:var(--color4,#2684ff)" d="M29.665 15.216 16 2 2.335 15.216a1.083 1.083 0 0 0 0 1.567L16 29.999l13.665-13.216a1.083 1.083 0 0 0 0-1.567zM16 20.139 11.72 16 16 11.861 20.28 16 16 20.139z"/><path style="fill:var(--color5,#000)" d="M16 11.861a6.808 6.808 0 0 1-.03-9.827l-9.366 9.055 5.097 4.93L16 11.861zm4.291 4.128L16 20.139c1.352 1.307 2.112 3.081 2.112 4.93s-.76 3.623-2.112 4.93l9.389-9.081-5.098-4.93z"/></symbol><symbol id="icon-jsdelivr" viewBox="0 0 32 32"><path fill="#e14337" style="fill:var(--color29,#e14337)" d="m15.826 0 15.177 5.321-2.305 19.622-12.872 7.035-12.754-7.045L.997 5.324 15.827 0z"/><path fill="#f9bd3e" style="fill:var(--color30,#f9bd3e)" d="M21.419 16.483a.875.875 0 1 1-1.75 0 .875.875 0 0 1 1.75 0zm-5.222-5.482a.875.875 0 1 1-1.75 0 .875.875 0 0 1 1.75 0zm-.231-1.482c1.067-1.055 2.244-1.964 3.444-2.634a8.992 8.992 0 0 0-3.554-.727c-.591 0-1.168.059-1.727.167.101.892.434 1.959.961 3.078a1.607 1.607 0 0 1 .876.115zm-4.548 8.27c.083-.663.24-1.343.475-2.037.445-1.314 1.166-2.644 2.065-3.887a1.609 1.609 0 0 1 .204-1.985c-.55-1.158-.915-2.292-1.047-3.295a9.033 9.033 0 0 0-6.253 9.389c1.118 1.356 2.383 2.123 3.634 2.52.208-.337.535-.591.923-.704zM16.46 13.5c-.25-.307-.487-.622-.715-.941a1.601 1.601 0 0 1-.986-.044c-.818 1.144-1.475 2.364-1.884 3.571a9.565 9.565 0 0 0-.417 1.752c.45.177.801.549.949 1.012.332-.016.651-.049.954-.094 1.606-.236 3.208-.864 4.652-1.757a1.598 1.598 0 0 1-.023-.952 17.255 17.255 0 0 1-2.53-2.546zm.146-1.521a16.655 16.655 0 0 0 2.973 3.211 1.608 1.608 0 0 1 1.833-.068c1.15-1.126 2.065-2.43 2.604-3.803a9.08 9.08 0 0 0-3.474-3.851c-1.322.627-2.636 1.59-3.811 2.743a1.612 1.612 0 0 1-.125 1.768zm5.517 4.845a9.709 9.709 0 0 0 2.429.799 9.048 9.048 0 0 0-.02-4.94c-.611 1.167-1.461 2.268-2.472 3.243a1.609 1.609 0 0 1 .064.898zm-11.862 2.675a8.567 8.567 0 0 1-3.049-1.689 9.048 9.048 0 0 0 6.126 6.053 6.164 6.164 0 0 1-.982-1.22 6.989 6.989 0 0 1-.734-1.708 1.614 1.614 0 0 1-1.36-1.435zm9.377-1.678c-1.587.999-3.354 1.701-5.125 1.962-.381.056-.756.091-1.126.106-.134.37-.397.677-.737.865.136.454.33.909.597 1.354.426.712 1.143 1.404 2.176 2.101a9.033 9.033 0 0 0 8.79-5.597 11.092 11.092 0 0 1-2.622-.901 1.604 1.604 0 0 1-1.047.386c-.336 0-.648-.102-.906-.278zm-6.894 1.518a.875.875 0 1 1-1.75 0 .875.875 0 0 1 1.75 0z"/><path fill="#440401" style="fill:var(--color31,#440401)" opacity=".3" d="M31.004 5.321 15.826 0v31.979l12.872-7.035 2.305-19.622z"/></symbol><symbol id="icon-jsfiddle" viewBox="0 0 32 32"><path fill="#4679a4" style="fill:var(--color32,#4679a4)" d="M28.118 14.999c.011-.187.028-.373.028-.562 0-5.178-4.262-9.375-9.52-9.375a9.524 9.524 0 0 0-8.587 5.346A4.412 4.412 0 0 0 7.354 9.5c-2.426 0-4.392 1.936-4.392 4.324 0 .449.069.882.198 1.289-1.891 1.107-3.162 3.133-3.162 5.456 0 3.474 2.833 6.291 6.348 6.345l.075.004.026.001.026-.001h18.879c.115.006.228.017.344.017 3.48 0 6.302-2.778 6.302-6.206 0-2.584-1.603-4.796-3.882-5.731zM8.591 22.135a3.733 3.733 0 0 1-1.197-2.106 4.6 4.6 0 0 1-.079-.87c-.001-1.178.428-2.152 1.286-2.919s1.949-1.153 3.275-1.152c1.36 0 2.643.509 3.775 1.527.283.254.556.54.819.856l1.457 1.713c.252.345.523.643.802.894.748.672 1.559 1.008 2.245 1.008.583 0 1.07-.178 1.462-.536.342-.326.535-.715.578-1.167l.009-.198c0-.196-.028-.382-.084-.556a1.836 1.836 0 0 0-.512-.783c-.387-.369-.875-.552-1.466-.552-.727 0-1.445.245-2.233 1.008l-1.29-1.517-.157-.176c1.128-1.105 2.254-1.52 3.77-1.52 1.343 0 2.43.382 3.262 1.143l.019.015c.846.76 1.269 1.743 1.269 2.948 0 .298-.027.583-.079.855a3.708 3.708 0 0 1-1.194 2.087c-.625.576-1.388.937-2.289 1.08-.3.048-.616.072-.948.072-1.391-.001-2.678-.498-3.784-1.491a7.525 7.525 0 0 1-.856-.915l-1.457-1.7a5.57 5.57 0 0 0-.79-.885c-.746-.67-1.568-1.005-2.273-1.005-.219 0-.424.026-.615.077a1.902 1.902 0 0 0-.835.471 1.806 1.806 0 0 0-.586 1.343c0 .517.186.959.559 1.326l.028.027c.4.366.892.548 1.475.548.733 0 1.455-.246 2.241-1.016l1.283 1.498.142.171c-1.171 1.118-2.285 1.541-3.743 1.54-1.342 0-2.438-.381-3.287-1.141z"/></symbol><symbol id="icon-leetcode" fill="#f8d292" viewBox="0 0 32 32"><path d="m21.469 23.907-3.595 3.473c-.624.625-1.484.885-2.432.885s-1.807-.26-2.432-.885l-5.776-5.812c-.62-.625-.937-1.537-.937-2.485 0-.952.317-1.812.937-2.432l5.76-5.844c.62-.619 1.5-.859 2.448-.859s1.808.26 2.432.885l3.595 3.473c.687.688 1.823.663 2.536-.052.708-.713.735-1.848.047-2.536l-3.473-3.511a6.793 6.793 0 0 0-3.261-1.787l3.287-3.333c.688-.687.667-1.823-.047-2.536s-1.849-.735-2.536-.052L4.553 13.968c-1.307 1.312-1.989 3.113-1.989 5.113 0 1.996.683 3.86 1.989 5.168l5.797 5.812c1.307 1.307 3.115 1.937 5.115 1.937 1.995 0 3.801-.683 5.109-1.989l3.479-3.521c.688-.683.661-1.817-.052-2.531s-1.849-.74-2.531-.052zm6.28-6.558H14.218c-.932 0-1.692.801-1.692 1.791s.76 1.797 1.692 1.797h13.531c.933 0 1.693-.807 1.693-1.797 0-.989-.76-1.791-1.693-1.791z"/></symbol><symbol id="icon-linkedin" viewBox="0 0 32 32"><path fill="#0a66c2" style="fill:var(--color33,#0a66c2)" d="M24.45 24.45h-3.556v-5.57c0-1.328-.024-3.038-1.85-3.038-1.852 0-2.136 1.448-2.136 2.94v5.668h-3.556V12.996h3.414v1.566h.048a3.75 3.75 0 0 1 3.368-1.85c3.604 0 4.27 2.37 4.27 5.456l-.002 6.28zM9.34 11.43a2.074 2.074 0 0 1-2.064-2.061v-.001c0-1.132.932-2.064 2.064-2.064s2.062.932 2.064 2.064a2.074 2.074 0 0 1-2.064 2.064zm1.778 13.02h-3.56V12.996h3.56V24.45zM26.22 4H5.76A1.76 1.76 0 0 0 4 5.731v20.537A1.76 1.76 0 0 0 5.76 28h20.476c.963 0 1.746-.772 1.764-1.73V5.73a1.76 1.76 0 0 0-1.76-1.728h-.019.001z"/></symbol><symbol id="icon-loom" viewBox="0 0 32 32"><path fill="#222" style="fill:var(--color34,#222)" d="M16.481 14.571c1.47 0 2.516 1.119 2.516 2.539 0 1.443-1.058 2.537-2.516 2.537s-2.516-1.083-2.516-2.537c0-1.431 1.053-2.539 2.516-2.539zm5.284 0c1.47 0 2.516 1.119 2.516 2.539 0 1.443-1.058 2.537-2.516 2.537-1.46 0-2.516-1.083-2.516-2.537 0-1.431 1.053-2.539 2.516-2.539zm8.501.005c.886 0 1.734.536 1.734 1.823v3.109h-1.257v-2.846c0-.517-.253-.906-.848-.906-.555 0-.887.429-.887.946v2.807h-1.286v-2.846c0-.517-.263-.906-.848-.906-.565 0-.896.419-.896.946v2.807h-1.295v-4.796h1.237v.585c.263-.468.877-.721 1.403-.721.653 0 1.179.283 1.422.799.38-.585.887-.799 1.52-.799zm-16.713-2.125v7.057h-1.296v-7.057h1.296zm8.212 3.277c-.761 0-1.381.62-1.381 1.381s.619 1.381 1.381 1.381c.761 0 1.381-.62 1.381-1.381s-.62-1.381-1.381-1.381zm-5.284.017a1.366 1.366 0 0 0 0 2.732 1.366 1.366 0 0 0 0-2.732z"/><path fill="#625df5" style="fill:var(--color35,#625df5)" d="M9.646 15.443H6.825l2.443-1.41-.536-.929-2.443 1.41 1.41-2.443-.929-.537-1.41 2.443v-2.821H4.287v2.821l-1.411-2.443-.929.537 1.41 2.443-2.443-1.41-.536.929 2.443 1.41H0v1.073h2.82l-2.443 1.41.536.929 2.443-1.41-1.41 2.443.929.537 1.41-2.443v2.821h1.073v-2.821l1.41 2.443.929-.537-1.41-2.443 2.443 1.41.537-.929-2.443-1.41h2.82v-1.073h.001zm-4.823 1.996a1.465 1.465 0 1 1 0-2.93 1.465 1.465 0 0 1 0 2.93z"/></symbol><symbol id="icon-mdn" fill="#999" viewBox="0 0 32 32"><path d="M0 0v32h32V0zm14.085 6.625c.889-.063 1.335.088 2.12.323l.784.234.743.227c.487.132.997.14 1.487.023a2.695 2.695 0 0 1 1.987.239l-.014-.007c.545.311.912.864.983 1.487a1.76 1.76 0 0 0 .864 1.319c.716.391 1.461.717 2.229.981.543.208 1.087.441 1.625.651.267.103.503.271.685.493.148.178.244.403.262.649v.004c.033.479.091.963.115 1.445h-.003a3.63 3.63 0 0 1-.423 1.919c-.116.22-.244.428-.351.648a.823.823 0 0 1-.851.489h.004-.024a.554.554 0 0 0-.347.121l.001-.001c-.328.215-.663.427-1 .628a1.748 1.748 0 0 1-1.521.08 7.022 7.022 0 0 0-2.544-.468l-.087-.001c-.877 0-1.66.401-2.176 1.03l-.004.005a3.472 3.472 0 0 0-.5 1.002l-.007.025c-.297.733-.552 5.117-.552 6.235 0 0-4.215-.82-8.173-4.871l1.032-2.707H7.197l2.339-2.475H5.517l2.336-2.477H4.036l4.251-4.511a9.777 9.777 0 0 1 4.666-2.587l.066-.013c.424-.073.768-.119 1.064-.139z"/></symbol><symbol id="icon-mega" viewBox="0 0 32 32"><path fill="#d9272e" style="fill:var(--color36,#d9272e)" d="M32 16c0 8.837-7.163 16-16 16S0 24.837 0 16 7.163 0 16 0s16 7.163 16 16z"/><path fill="#fff" style="fill:var(--color7,#fff)" d="M16 8.003c-4.416 0-7.997 3.578-7.997 7.997s3.581 7.997 7.997 7.997a7.998 7.998 0 0 0 0-15.994zm4.15 10.825a.246.246 0 0 1-.247.247h-1.047a.246.246 0 0 1-.247-.247v-3.219c0-.028-.031-.041-.053-.022L16.344 17.8a.492.492 0 0 1-.694 0l-2.213-2.213c-.019-.019-.053-.003-.053.022v3.216a.246.246 0 0 1-.247.247h-1.044a.246.246 0 0 1-.247-.247v-5.656c0-.137.109-.247.247-.247h.716c.131 0 .256.053.35.147l2.753 2.753c.047.047.122.05.169.003l2.756-2.756a.49.49 0 0 1 .35-.147h.716c.137 0 .247.109.247.247v5.659z"/></symbol><symbol id="icon-netflix" viewBox="0 0 32 32"><path fill="#b1060f" style="fill:var(--color37,#b1060f)" d="m18.517.094-.025 14.081-.578-1.634v-.004l-.75 15.674c.738 2.079 1.132 3.189 1.136 3.193s.423.029.93.054c1.534.075 3.436.239 4.882.419.335.042.62.063.641.046s.025-7.183.021-15.929l-.013-15.9h-6.244zM7.223.073V15.99c0 8.755.008 15.925.021 15.938s.553-.042 1.207-.113c.654-.071 1.555-.163 2.003-.201.687-.059 2.749-.189 2.984-.193.071 0 .075-.356.084-6.743l.013-6.743.499 1.408c.075.218.101.285.176.499l.75-15.67-.256-.725c-.612-1.731-1.132-3.193-1.152-3.26L13.51.07H7.224z"/><path style="fill:var(--color5,#000)" d="M7.223.073v8.935l6.295 16.696c0-.381 0-.591.004-1.027l.013-6.743.499 1.408a3882.848 3882.848 0 0 0 4.262 12.061c.004.004.423.029.93.054 1.534.075 3.436.239 4.882.419.335.042.62.063.641.046.013-.013.021-3.524.021-8.482L18.509 5.428l-.004 1.706-.013 7.041-.578-1.634-3.219-9.094c-.612-1.731-1.132-3.193-1.152-3.26L13.501.07 7.223.074z"/><path fill="#e50914" style="fill:var(--color38,#e50914)" d="m7.223.073 6.307 17.874v-.008l.499 1.408c2.77 7.841 4.258 12.049 4.266 12.057.004.004.423.029.93.054 1.534.075 3.436.239 4.882.419.331.042.62.063.637.046l-6.831-19.382-3.219-9.094c-.612-1.731-1.132-3.193-1.152-3.26L13.5.07 7.222.074z"/></symbol><symbol id="icon-netlify" fill="#69feff" viewBox="0 0 32 32"><path d="m22.871 11.308-.011-.005a.046.046 0 0 1-.018-.01.087.087 0 0 1-.024-.06l.001-.015v.001l.618-3.781 2.9 2.901-3.016 1.283a.066.066 0 0 1-.025.005h-.014c-.004-.002-.008-.006-.016-.014a1.383 1.383 0 0 0-.388-.301l-.008-.004zm4.207-.23 3.101 3.101c.644.645.966.966 1.084 1.339.018.055.032.11.043.167l-7.41-3.138-.008-.003-.004-.001c-.03-.012-.064-.026-.064-.056s.035-.045.065-.057l.01-.004 3.184-1.347zm4.101 5.602c-.16.301-.472.613-1 1.142l-3.496 3.495-4.546-.946c-.04-.006-.082-.014-.082-.05a1.367 1.367 0 0 0-.521-.952l-.003-.002c-.018-.018-.014-.047-.008-.074 0-.004 0-.008.002-.011l.853-5.239c.005-.04.012-.086.048-.086.38-.049.707-.245.926-.529l.002-.003c.007-.008.012-.017.022-.022.026-.012.056 0 .082.011l7.72 3.266zm-5.3 5.441L20.13 27.87l.984-6.048.002-.008a.086.086 0 0 1 .005-.023c.008-.019.029-.027.049-.035l.01-.004c.221-.096.408-.236.554-.411l.002-.002c.019-.022.042-.044.072-.048l.012-.001.012.001 4.048.832zm-6.965 6.965-.648.648-7.164-10.354-.009-.012.001.001c-.011-.015-.023-.03-.021-.048.001-.013.009-.024.018-.034l.008-.01c.022-.032.04-.064.06-.098l.016-.028.002-.002c.011-.019.022-.038.041-.048.017-.008.04-.005.058-.001l7.937 1.637a.13.13 0 0 1 .061.027c.01.01.013.022.015.034.116.429.419.77.813.937l.009.003c.022.011.013.036.002.062a.16.16 0 0 0-.012.035v.001c-.1.608-.958 5.838-1.188 7.25zm-1.354 1.353c-.478.473-.759.723-1.078.824a1.587 1.587 0 0 1-.976-.004l.011.003c-.373-.118-.695-.44-1.339-1.085l-7.194-7.194 1.879-2.914a.144.144 0 0 1 .032-.038c.02-.014.049-.008.073 0a1.948 1.948 0 0 0 1.323-.071l-.013.005c.022-.008.043-.014.06.002.008.008.016.016.022.025l7.199 10.447zM6.29 22.29l-1.65-1.65 3.259-1.39a.076.076 0 0 1 .026-.006c.027 0 .043.027.058.052.038.058.072.106.108.153l-.004-.005.01.013c.01.014.003.027-.006.04l-1.8 2.794zm-2.38-2.38-2.088-2.088c-.355-.355-.613-.613-.792-.834l6.349 1.317.02.004h.004c.039.006.082.014.082.05 0 .04-.047.058-.087.074l-.018.008-3.47 1.47zM.665 15.914c.008-.144.034-.279.075-.407l-.003.011c.118-.373.44-.694 1.085-1.339l2.672-2.672c4.967 7.439 6.185 9.181 7.405 10.921l-3.704-5.571c.022.029.046.061.021.085-.117.129-.234.27-.316.422a.12.12 0 0 1-.04.049c-.01.006-.022.004-.034.002h-.002L.665 15.913zm4.544-5.123 3.593-3.593c.338.148 1.566.667 2.666 1.131.832.352 1.59.672 1.829.776.024.01.046.019.056.043.006.014.003.033 0 .048a1.594 1.594 0 0 0 .419 1.462c.024.024 0 .058-.021.088l-.011.017-3.648 5.65c-.01.016-.018.03-.034.04-.019.012-.046.006-.069.001a1.776 1.776 0 0 0-.433-.059h-.001c-.131 0-.274.024-.418.05h-.001c-.016.002-.03.006-.043-.004a.195.195 0 0 1-.036-.04V16.4l-3.846-5.61zm4.318-4.318 4.651-4.651c.644-.644.966-.966 1.339-1.084a1.587 1.587 0 0 1 .976.004l-.011-.003c.373.118.695.44 1.339 1.084l1.008 1.008-3.308 5.123a.11.11 0 0 1-.033.038c-.02.014-.048.008-.072 0a1.672 1.672 0 0 0-1.539.299l.003-.002c-.022.022-.054.01-.081-.002-.432-.188-3.792-1.608-4.273-1.812zm10.005-2.941 3.054 3.054-.736 4.558v.012a.108.108 0 0 1-.007.031v-.001c-.008.016-.024.019-.04.024a1.478 1.478 0 0 0-.442.221l.004-.003-.016.014c-.009.01-.018.018-.032.02h-.003a.087.087 0 0 1-.032-.006h.001L16.62 9.474c-.03-.012-.065-.026-.065-.057a1.765 1.765 0 0 0-.252-.74l.004.008c-.022-.037-.047-.075-.028-.113l3.253-5.042zm-3.146 6.885 4.363 1.848c.024.011.05.022.061.046a.085.085 0 0 1 0 .046v-.001a1.07 1.07 0 0 0-.024.21v.122c0 .03-.031.043-.06.055l-.009.003c-.691.295-9.704 4.138-9.718 4.138s-.028 0-.042-.014c-.024-.024 0-.058.022-.088l.01-.014 3.593-5.564c.021-.034.045-.071.083-.071l.036.006c.082.011.154.022.226.022a1.62 1.62 0 0 0 1.352-.718.17.17 0 0 1 .027-.032c.022-.016.054-.008.078.003zm-4.996 7.348 9.824-4.19s.014 0 .028.014c.054.054.099.09.143.123l.022.014c.02.011.04.024.042.045 0 .008 0 .013-.002.02l-.842 5.17-.003.021c-.006.04-.011.086-.049.086a1.388 1.388 0 0 0-1.095.671l-.003.006-.004.006c-.011.018-.022.036-.04.046-.017.008-.038.005-.056.001l-7.834-1.616c-.008-.002-.122-.415-.13-.416z"/></symbol><symbol id="icon-pinterest" viewBox="0 0 32 32"><path fill="#cc2127" style="fill:var(--color39,#cc2127)" d="M16.001 0C7.165 0 0 7.163 0 16.001c0 6.55 3.94 12.179 9.579 14.654-.045-1.116-.008-2.459.277-3.675.309-1.298 2.058-8.717 2.058-8.717s-.51-1.022-.51-2.533c0-2.371 1.375-4.141 3.086-4.141 1.454 0 2.158 1.093 2.158 2.403 0 1.462-.933 3.65-1.413 5.677-.401 1.699.85 3.082 2.525 3.082 3.031 0 5.073-3.893 5.073-8.507 0-3.505-2.361-6.13-6.657-6.13-4.853 0-7.876 3.618-7.876 7.66 0 1.396.41 2.378 1.054 3.138.297.352.337.491.23.894-.075.292-.252 1.003-.325 1.283-.107.405-.435.551-.8.401-2.237-.913-3.278-3.36-3.278-6.113 0-4.544 3.833-9.997 11.434-9.997 6.109 0 10.13 4.424 10.13 9.167 0 6.277-3.488 10.966-8.635 10.966-1.725 0-3.351-.933-3.908-1.993 0 0-.93 3.686-1.125 4.397-.339 1.232-1.003 2.467-1.611 3.426 1.439.425 2.96.657 4.535.657C24.837 32 32 24.837 32 16.001 32 7.163 24.837 0 16.001 0z"/></symbol><symbol id="icon-proton-calendar" fill="#b9b9b9" viewBox="0 0 32 32"><path d="M26.407 7c.512 0 .927.415.927.927v16.147a.927.927 0 0 1-.927.927H5.594a.927.927 0 0 1-.927-.927V7.927c0-.512.415-.927.927-.927h20.813zm0-2H5.594a2.927 2.927 0 0 0-2.927 2.927v16.147a2.927 2.927 0 0 0 2.927 2.927h20.813a2.927 2.927 0 0 0 2.927-2.927V7.927A2.927 2.927 0 0 0 26.407 5z"/><path d="M21.667 10.333v5a6.046 6.046 0 0 0-2.946 1.891l-.007.009-4.532 5.287a6.035 6.035 0 0 0-1.273 2.438L12.9 25H5.76a.927.927 0 0 1-.927-.927v-13.74h16.833zm.111-2H2.833v15.74A2.927 2.927 0 0 0 5.76 27h8.907l.065-.833a4.063 4.063 0 0 1 .974-2.339l-.004.005 4.53-5.285a3.944 3.944 0 0 1 2.285-1.346l.025-.004.217-.03a1 1 0 0 0 .908-.996v-5.951a1.888 1.888 0 0 0-1.888-1.888z"/><path fill="none" stroke="#000" style="stroke:var(--color5,#000)" stroke-linejoin="round" stroke-linecap="round" stroke-width=".48" d="m22.833 20 1.333-.667v3.833"/></symbol><symbol id="icon-proton-mail" fill="#e17cff" viewBox="0 0 32 32"><path d="M6.4 22.2c1.6-1.6 3.7-2.5 6.1-2.5l1.9.1h3.1c2.1 0 4.1-.8 5.6-2.3s2.3-3.5 2.3-5.6c0-2.1-.8-4.1-2.3-5.6S19.6 4 17.5 4H6.4v8h4.3V8.3h6.4c.9 0 1.9.4 2.6 1.1s1.1 1.7 1.1 2.6c0 .9-.4 1.9-1.1 2.6s-1.6 1.1-2.6 1.1h-4.6c-.8 0-1.6.2-2.3.5-.8.3-1.4.7-2 1.3-.5.6-1 1.3-1.3 2s-.5 1.5-.5 2.3v.4zm4.4.2c-.3 0-.5.1-.8.2-2.1.9-3.6 3-3.6 5.4h4.4v-5.6z"/></symbol><symbol id="icon-reddit" viewBox="0 0 32 32"><path fill="#fc471e" style="fill:var(--color40,#fc471e)" d="M16 2C8.278 2 2 8.278 2 16s6.278 14 14 14 14-6.278 14-14S23.722 2 16 2z"/><path fill="#fff" style="fill:var(--color7,#fff)" d="m20.019 8.909-2.655-.668-1.099 4.501c2.075.047 3.951.651 5.335 1.606a1.971 1.971 0 0 1 1.4-.586c1.105 0 2 .917 2 2.047 0 .787-.434 1.47-1.07 1.813.046.244.07.493.07.746 0 3.11-3.582 5.63-8 5.63s-8-2.521-8-5.63c0-.253.024-.502.07-.746A2.054 2.054 0 0 1 7 15.809c0-1.131.895-2.047 2-2.047.545 0 1.04.223 1.4.586 1.271-.877 2.955-1.457 4.828-1.583L16.636 7l3.895.984c.261-.226.599-.363.968-.363.828 0 1.5.688 1.5 1.536s-.672 1.536-1.5 1.536-1.5-.688-1.5-1.536c0-.084.007-.166.019-.247zM12.5 18.881c.828 0 1.5-.688 1.5-1.536s-.672-1.536-1.5-1.536-1.5.688-1.5 1.536.672 1.536 1.5 1.536zm7 0c.828 0 1.5-.688 1.5-1.536s-.672-1.536-1.5-1.536-1.5.688-1.5 1.536.672 1.536 1.5 1.536zm-6.723 1.622c-.23-.157-.54-.093-.693.142s-.091.553.139.71c1.088.742 2.433 1.114 3.777 1.114s2.689-.371 3.777-1.114c.23-.157.292-.475.139-.71s-.464-.299-.693-.142c-.92.628-2.071.942-3.223.942-.683 0-1.366-.11-2-.331a5.22 5.22 0 0 1-1.223-.611z"/></symbol><symbol id="icon-slack" viewBox="0 0 32 32"><path fill="#2eb67d" style="fill:var(--color41,#2eb67d)" d="M26.5 15a2.5 2.5 0 1 0-2.5-2.5V15h2.5zm-7 0a2.5 2.5 0 0 0 2.5-2.5v-7a2.5 2.5 0 1 0-5 0v7a2.5 2.5 0 0 0 2.5 2.5z"/><path fill="#e01e5a" style="fill:var(--color42,#e01e5a)" d="M5.5 17A2.5 2.5 0 1 0 8 19.5V17H5.5zm7 0a2.5 2.5 0 0 0-2.5 2.5v7a2.5 2.5 0 1 0 5 0v-7a2.5 2.5 0 0 0-2.5-2.5z"/><path fill="#ecb22e" style="fill:var(--color43,#ecb22e)" d="M17 26.5a2.5 2.5 0 1 0 2.5-2.5H17v2.5zm0-7a2.5 2.5 0 0 0 2.5 2.5h7a2.5 2.5 0 1 0 0-5h-7a2.5 2.5 0 0 0-2.5 2.5z"/><path fill="#36c5f0" style="fill:var(--color44,#36c5f0)" d="M15 5.5A2.5 2.5 0 1 0 12.5 8H15V5.5zm0 7a2.5 2.5 0 0 0-2.5-2.5h-7a2.5 2.5 0 1 0 0 5h7a2.5 2.5 0 0 0 2.5-2.5z"/></symbol><symbol id="icon-soundcloud" viewBox="0 0 32 32"><path fill="#f66e10" style="fill:var(--color45,#f66e10)" d="M27.636 15.569c-.553 0-1.082.113-1.563.316-.322-3.671-3.375-6.552-7.1-6.552-.912 0-1.8.181-2.585.487-.305.119-.386.241-.389.479V23.23a.49.49 0 0 0 .436.481l11.2.007c2.232 0 4.04-1.824 4.04-4.075s-1.809-4.074-4.04-4.074zM13.648 24a.357.357 0 0 0 .352-.361V10.361a.357.357 0 0 0-.352-.361h-1.296a.357.357 0 0 0-.352.361v13.278c0 .198.158.361.352.361h1.296zm-12-2.004A.357.357 0 0 0 2 21.637v-3.282a.357.357 0 0 0-.352-.359H.352a.357.357 0 0 0-.352.359v3.282c0 .197.158.359.352.359h1.296zm8 2.004a.348.348 0 0 0 .352-.342V15.01a.348.348 0 0 0-.352-.342H8.352A.348.348 0 0 0 8 15.01v8.648c0 .188.158.342.352.342h1.296zm-4 0c.194 0 .352-.15.352-.334v-6.665a.344.344 0 0 0-.352-.334H4.352a.344.344 0 0 0-.352.334v6.665c0 .184.158.334.352.334h1.296z"/></symbol><symbol id="icon-stackoverflow" viewBox="0 0 32 32"><path fill="#ff810f" style="fill:var(--color46,#ff810f)" d="m20.057 27.728-.002-2.699-12.74.007.001 2.698 12.741-.006zm8.61-15.281-2.682.461L23.806.461 26.487 0l2.18 12.447zm-8.303 9.123-.25 2.686-12.687-1.158.25-2.687 12.687 1.159zm.837-3.521-.706 2.606-12.304-3.28.707-2.605 12.303 3.279zm1.606-3.087-1.383 2.324-10.974-6.418 1.383-2.323 10.974 6.418zm2.691-1.889-2.248 1.52-7.179-10.438 2.248-1.52 7.178 10.438z"/><path fill="#bebcbc" style="fill:var(--color47,#bebcbc)" d="M22.221 18.852v11.031H5.51V18.852H3.333V32h21.053V18.852z"/></symbol><symbol id="icon-steam" fill="#00359e" viewBox="0 0 32 32"><path style="fill:var(--color5,#00359e)" d="M2.57 20.027C4.301 25.797 9.655 30 15.991 30 23.728 30 30 23.732 30 16S23.728 2 15.991 2C8.567 2 2.492 7.772 2.012 15.07c0 2.097 0 2.972.558 4.957z"/><path fill="#fff" style="fill:var(--color7,#fff)" d="m15.271 12.563-3.428 4.977a3.888 3.888 0 0 0-2.297.636l-7.527-3.097s-.174 2.864.552 4.998l5.321 2.194a3.88 3.88 0 0 0 7.374.652 3.889 3.889 0 0 0 .299-1.599l5.025-3.501c2.935 0 5.321-2.391 5.321-5.328s-2.386-5.326-5.321-5.326c-2.835 0-5.479 2.474-5.32 5.395zm-.824 10.015a3 3 0 0 1-3.92 1.616 2.979 2.979 0 0 1-1.543-1.471l1.732.717a2.208 2.208 0 0 0 1.698-4.078l-1.791-.741a2.981 2.981 0 0 1 2.21.034c.74.308 1.314.887 1.618 1.627s.303 1.557-.005 2.295zm6.143-6.535a3.552 3.552 0 0 1-3.545-3.55c0-1.956 1.591-3.549 3.545-3.549s3.546 1.593 3.546 3.549a3.553 3.553 0 0 1-3.546 3.55zm-2.656-3.555a2.666 2.666 0 0 1 2.662-2.667c1.471 0 2.663 1.194 2.663 2.667s-1.193 2.666-2.663 2.666a2.664 2.664 0 0 1-2.662-2.666z"/></symbol><symbol id="icon-trello" fill="#82acff" viewBox="0 0 32 32"><path d="M28 0H4C1.792 0 0 1.792 0 4v24c0 2.208 1.792 4 4 4h24c2.208 0 4-1.792 4-4V4c0-2.208-1.792-4-4-4zM13.922 24.24A1.92 1.92 0 0 1 12 26.162H6.078a1.924 1.924 0 0 1-1.917-1.922V6.079c0-1.057.859-1.917 1.917-1.917H12c1.063 0 1.922.859 1.922 1.917zm13.917-8a1.923 1.923 0 0 1-1.917 1.922H20a1.924 1.924 0 0 1-1.922-1.922V6.079c0-1.057.865-1.917 1.922-1.917h5.922c1.057 0 1.917.859 1.917 1.917z"/></symbol><symbol id="icon-unsplash" fill="#9a9a9a" viewBox="0 0 32 32"><path d="M11.333 14.667v6.667h9.333v-6.667h7.333V28h-24V14.667h7.333zM20.667 4v6.667h-9.333V4h9.333z"/></symbol><symbol id="icon-vercel" viewBox="0 0 32 32"><path d="m16 1.333 16 28H0l16-28z"/></symbol><symbol id="icon-vk" fill="#306cff" viewBox="0 0 32 32"><path d="M25.217 22.402h-2.179c-.825 0-1.08-.656-2.562-2.158-1.291-1.25-1.862-1.418-2.179-1.418-.445 0-.572.127-.572.741v1.968c0 .53-.169.847-1.566.847a8.5 8.5 0 0 1-6.646-3.966l-.021-.035a17.46 17.46 0 0 1-3.43-7.142l-.022-.117c0-.317.127-.614.741-.614H8.96c.55 0 .762.254.975.846 1.078 3.112 2.878 5.842 3.619 5.842.275 0 .402-.127.402-.825v-3.219c-.085-1.482-.868-1.608-.868-2.137a.526.526 0 0 1 .551-.508h3.428c.466 0 .635.254.635.804v4.34c0 .465.212.635.339.635.275 0 .509-.17 1.016-.677a18.454 18.454 0 0 0 2.642-4.346l.046-.12a.969.969 0 0 1 .9-.615l.056.002h2.176c.656 0 .805.337.656.804a27.487 27.487 0 0 1-2.994 5.111l.052-.074c-.232.381-.317.55 0 .975.232.317.995.973 1.503 1.566a9.456 9.456 0 0 1 1.816 2.507l.025.055c.212.612-.106.93-.72.93zM20.604 1.004h-9.207c-8.403 0-10.392 1.989-10.392 10.392v9.207c0 8.403 1.989 10.392 10.392 10.392h9.207c8.403 0 10.392-1.989 10.392-10.392v-9.207c0-8.403-2.011-10.392-10.392-10.392z"/></symbol><symbol id="icon-wikipedia" fill="#fff" viewBox="0 0 32 32"><path d="m20.749 25.971-4.093-9.651q-.344.68-2.203 4.243t-2.757 5.409a1.996 1.996 0 0 1-.39.005h.007l-.083.001c-.1 0-.2-.008-.296-.024l.011.001q-1.139-2.68-3.549-8.152T3.791 9.524a6.58 6.58 0 0 0-.932-1.504l.009.011a7.672 7.672 0 0 0-1.417-1.38l-.02-.015A2.49 2.49 0 0 0 .024 6.04l-.009-.001q0-.069-.007-.333T.001 5.33h8.097v.695a3.975 3.975 0 0 0-1.128.231l.028-.009a2.181 2.181 0 0 0-.923.596l-.001.001a.752.752 0 0 0-.136.892l-.003-.004q.361.819 3.007 6.933t3.271 7.501q.427-.847 1.944-3.701t1.819-3.437q-.264-.541-1.751-3.901T12.337 7.03q-.528-.96-2.792-.987v-.697l7.124.013v.653h-.053c-.46 0-.889.128-1.256.351l.011-.007q-.465.32-.173.96.459.973 1.208 2.632t1.193 2.604q1.528-2.972 2.403-5.041.333-.764-.137-1.101a3.371 3.371 0 0 0-1.8-.368h.011c.009-.087.015-.187.015-.288v-.06.003-.333q.888 0 2.368-.007l3.779-.02v.68a3.647 3.647 0 0 0-1.671.468l.019-.009a3.467 3.467 0 0 0-1.241 1.104l-.008.012-2.959 6.139q.18.459 1.771 4.028t1.688 3.805L27.962 7.44a1.808 1.808 0 0 0-.681-.864l-.007-.004a2.718 2.718 0 0 0-.884-.432l-.02-.005a3.91 3.91 0 0 0-.763-.107h-.008v-.699l6.389.056.013.028-.013.611a3.002 3.002 0 0 0-2.785 1.993l-.007.021q-7.309 16.888-7.765 17.929z"/></symbol><symbol id="icon-youtube" fill="#f44336" viewBox="0 0 32 32"><path d="M27.162 8.38c1.134 1.176 1.282 3.046 1.282 7.62s-.148 6.443-1.282 7.62c-1.134 1.176-2.315 1.269-11.162 1.269S5.972 24.796 4.838 23.62C3.704 22.444 3.556 20.574 3.556 16s.148-6.443 1.282-7.62S7.153 7.111 16 7.111s10.028.093 11.162 1.269zM13.984 19.767l6.046-3.575-6.046-3.519v7.094z"/></symbol><symbol id="icon-archive" fill="#cdcdcd" viewBox="0 0 34 32"><path d="M32 30v-2h-2V16h2v-2h-6v2h2v12h-6V16h2v-2h-6v2h2v12h-6V16h2v-2h-6v2h2v12H6V16h2v-2H2v2h2v12H2v2H0v2h34v-2h-2zM16 0h2l16 10v2H0v-2L16 0z"/></symbol><symbol id="icon-hackerrank" fill="#19ff00" viewBox="0 0 32 32"><path d="M16 0c1.713 0 13 6.515 13.856 8 .86 1.487.86 14.513 0 16S17.716 32 16 32 3 25.487 2.14 24c-.855-1.487-.855-14.513 0-16C3 6.515 14.287 0 16 0zm3.06 9.065a.345.345 0 0 0-.344.344v5.167h-5.432V9.211h.935a.34.34 0 0 0 .339-.344.344.344 0 0 0-.164-.295L12.298 6.56a.404.404 0 0 0-.301-.145.353.353 0 0 0-.276.143l-2.24 2.016a.342.342 0 0 0-.16.291.34.34 0 0 0 .34.344h.939l.011 13.38c0 .193.148.344.339.344h1.989a.344.344 0 0 0 .345-.341v-5.339h5.431v5.536h-.932a.34.34 0 0 0-.341.344c0 .123.064.232.159.292l2.105 2.013a.403.403 0 0 0 .3.145c.113 0 .212-.06.277-.145l2.239-2.013a.344.344 0 0 0 .16-.292.342.342 0 0 0-.34-.344h-.939L21.394 9.41a.343.343 0 0 0-.34-.347h-1.992v.003z"/></symbol><symbol id="icon-code" fill="#fff" viewBox="0 0 32 32"><path d="M0 2v28h32V2H0zm30 26H2V4h28v24zM28 6H4v20h24V6zM14 16h-2v2h-2v2H8v-2h2v-2h2v-2h-2v-2H8v-2h2v2h2v2h2v2zm8 4h-6v-2h6v2z"/></symbol><symbol id="icon-home" fill="#fff" viewBox="0 0 32 32"><path d="M32 18.451 16 6.031 0 18.451v-5.064L16 .967l16 12.42zM28 18v12h-8v-8h-8v8H4V18l12-9z"/></symbol><symbol id="icon-npm" fill="#ff5656" viewBox="0 0 32 32"><path d="M0 0v32h32V0H0zm26 26h-4V10h-6v16H6V6h20v20z"/></symbol><symbol id="icon-tux" fill="#e4e4e4" viewBox="0 0 32 32"><path d="M17.739 23.029c-2.561 1.191-4.942 1.179-6.542 1.063-1.908-.138-3.442-.66-4.117-1.117a.909.909 0 1 0-1.019 1.505c1.084.734 3.002 1.28 5.005 1.424.34.024.712.04 1.114.04 1.743 0 3.957-.166 6.326-1.268a.91.91 0 0 0-.767-1.648zm10.103-1.347c.087-7.896.899-22.819-14.218-21.613C-1.301 1.27 2.656 17.037 2.434 22.317 2.237 25.11 1.31 28.525 0 32h4.034c.415-1.473.72-2.929.851-4.317.243.17.503.334.781.491.452.266.84.62 1.251.995.961.876 2.05 1.868 4.179 1.992.143.008.287.012.427.012 2.153 0 3.625-.942 4.809-1.699.567-.363 1.057-.676 1.518-.827 1.31-.41 2.454-1.072 3.309-1.914a5.64 5.64 0 0 0 .374-.405c.476 1.746 1.129 3.711 1.853 5.672H32c-2.068-3.195-4.201-6.324-4.158-10.318zM3.878 17.386v-.001c-.148-2.577 1.085-4.745 2.754-4.842s3.142 1.913 3.291 4.49v.001c.008.139.011.276.012.413a6.46 6.46 0 0 0-1.434.551l-.005-.057v-.001c-.143-1.463-.924-2.567-1.745-2.467s-1.371 1.367-1.228 2.83v.001c.062.638.246 1.207.501 1.639-.064.05-.243.182-.45.333l-.572.42c-.621-.815-1.047-1.987-1.123-3.309zm16.911 6.37c-.059 1.362-1.841 2.643-3.487 3.158l-.009.003c-.684.222-1.295.613-1.941 1.026-1.085.695-2.208 1.413-3.829 1.413-.106 0-.215-.003-.323-.009-1.485-.087-2.179-.72-3.059-1.521-.464-.423-.943-.86-1.562-1.223l-.013-.008c-1.335-.753-2.163-1.69-2.216-2.506-.026-.406.154-.757.537-1.044.832-.624 1.39-1.032 1.759-1.302.41-.3.533-.39.625-.477.066-.062.136-.131.213-.205.764-.743 2.043-1.986 4.005-1.986 1.2 0 2.528.462 3.943 1.372.666.434 1.246.634 1.981.887.505.174 1.077.372 1.843.7l.012.005c.715.294 1.559.83 1.521 1.717zm-.394-3.2a5.876 5.876 0 0 0-.43-.196 25.213 25.213 0 0 0-1.704-.656 4.168 4.168 0 0 0 .426-1.789v-.001c.035-1.637-.79-2.966-1.844-2.968s-1.936 1.322-1.971 2.959v.001l-.001.16a9.182 9.182 0 0 0-1.911-.649 10.966 10.966 0 0 1-.008-.185v-.002c-.061-2.982 1.769-5.45 4.086-5.513s4.245 2.303 4.305 5.285v.002c.027 1.348-.333 2.59-.949 3.552z"/></symbol><symbol id="icon-deviantart" viewBox="0 0 32 32"><path fill="#00cc76" style="fill:var(--color1,#00cc76)" d="M24.978 7.342V1.568a.316.316 0 0 0-.316-.316h-4.969a.312.312 0 0 0-.222.092l-.53.527a.327.327 0 0 0-.057.077l-2.485 4.744-.586.338H7.338a.316.316 0 0 0-.316.315v7.21c0 .174.141.316.316.316h4.443l.22.22-4.942 9.434a.31.31 0 0 0-.036.146v5.76a.319.319 0 0 0 .316.316l4.972-.002a.314.314 0 0 0 .222-.092c.056-.054.574-.556.589-.605l2.49-4.746.57-.33h8.48a.316.316 0 0 0 .316-.316V17.45a.316.316 0 0 0-.316-.316h-4.457l-.208-.208 4.944-9.439a.313.313 0 0 0 .036-.147z"/></symbol><symbol id="icon-figma" viewBox="0 0 32 32"><path fill="#1abcfe" style="fill:var(--color2,#1abcfe)" d="M16 16a4 4 0 1 1 8 0 4 4 0 0 1-8 0z"/><path fill="#0acf83" style="fill:var(--color3,#0acf83)" d="M8 24a4 4 0 0 1 4-4h4v4a4 4 0 0 1-8 0z"/><path fill="#ff7262" style="fill:var(--color4,#ff7262)" d="M16 4v8h4a4 4 0 0 0 0-8h-4z"/><path fill="#f24e1e" style="fill:var(--color5,#f24e1e)" d="M8 8a4 4 0 0 0 4 4h4V4h-4a4 4 0 0 0-4 4z"/><path fill="#a259ff" style="fill:var(--color6,#a259ff)" d="M8 16a4 4 0 0 0 4 4h4v-8h-4a4 4 0 0 0-4 4z"/></symbol><symbol id="icon-github" viewBox="0 0 32 32"><path fill="#fff" style="fill:var(--color7,#fff)" d="M16 3C8.82 3 3 8.82 3 16c0 6.139 4.256 11.28 9.977 12.643-.296-.07-.589-.149-.877-.239v-2.979s-.488.163-1.137.163c-1.819 0-2.574-1.622-2.763-2.438a2.529 2.529 0 0 0-.734-1.255c-.383-.342-.563-.343-.566-.46-.005-.245.329-.235.487-.235.813 0 1.428.864 1.714 1.311.709 1.104 1.469 1.288 1.861 1.288.488 0 .909-.073 1.198-.213.134-.944.554-1.785 1.239-2.387-3.049-.61-5.2-2.358-5.2-5.2 0-1.464.588-2.809 1.566-3.896-.1-.284-.267-.857-.267-1.791 0-.617.043-1.376.325-2.113 0 0 1.854.013 3.603 1.669.807-.235 1.671-.369 2.572-.369s1.766.134 2.572.369c1.748-1.656 3.602-1.669 3.602-1.669.284.737.325 1.495.325 2.113 0 1.008-.134 1.595-.216 1.848.949 1.076 1.516 2.401 1.516 3.839 0 2.842-2.151 4.59-5.2 5.2.814.715 1.3 1.756 1.3 2.925v4.279c-.288.09-.581.169-.878.239 5.721-1.363 9.977-6.505 9.977-12.643 0-7.18-5.82-13-13-13zm.907 25.965zm1.986-.292zM16 29zm-1.106-.05z"/></symbol><symbol id="icon-gitlab" viewBox="0 0 32 32"><path fill="#fc6d26" style="fill:var(--color8,#fc6d26)" d="M29.95 17.808 28.38 13.1l-3.104-9.34a.537.537 0 0 0-.506-.36h-.006a.537.537 0 0 0-.505.356l-.001.004-3.104 9.334h-10.31L7.74 3.758a.535.535 0 0 0-.504-.358h-.007a.535.535 0 0 0-.504.356l-.001.004-3.1 9.334-1.568 4.714a1.03 1.03 0 0 0 .383 1.164l.003.002 13.56 9.624 13.556-9.624a1.033 1.033 0 0 0 .39-1.173l.002.007z"/><path fill="#e24329" style="fill:var(--color9,#e24329)" d="m16 28.592 5.156-15.5h-10.31L16 28.592z"/><path fill="#fc6d26" style="fill:var(--color8,#fc6d26)" d="m16 28.592-5.158-15.5H3.626L16 28.592z"/><path fill="#fca326" style="fill:var(--color10,#fca326)" d="m3.62 13.098-1.568 4.708a1.03 1.03 0 0 0 .383 1.164l.003.002L16 28.6 3.62 13.1z"/><path fill="#e24329" style="fill:var(--color9,#e24329)" d="M3.624 13.098h7.224L7.74 3.764a.537.537 0 0 0-.506-.36h-.006a.537.537 0 0 0-.505.356l-.001.004-3.098 9.334z"/><path fill="#fc6d26" style="fill:var(--color8,#fc6d26)" d="m16 28.592 5.156-15.5h7.228L16 28.592z"/><path fill="#fca326" style="fill:var(--color10,#fca326)" d="m28.38 13.098 1.566 4.708a1.027 1.027 0 0 1-.383 1.164l-.003.002L16 28.592l12.378-15.494z"/><path fill="#e24329" style="fill:var(--color9,#e24329)" d="M28.38 13.098h-7.22l3.102-9.334a.535.535 0 0 1 .505-.36h.005c.23 0 .434.146.508.36l3.104 9.334z"/></symbol><symbol id="icon-notion" viewBox="0 0 32 32"><path fill="#fff" style="fill:var(--color7,#fff)" d="m5.716 29.218-3.439-4.285A5.751 5.751 0 0 1 1 21.33V5.815c0-1.954 1.564-3.576 3.581-3.714l15.951-1.089a5.199 5.199 0 0 1 3.263.873l5.604 3.789A3.59 3.59 0 0 1 31 8.644v17.639c0 1.913-1.537 3.496-3.512 3.618l-17.704 1.09c-1.576.097-3.099-.567-4.067-1.773z"/><path style="fill:var(--color11,#000)" d="M11.248 13.579v-.203c0-.515.412-.942.944-.977l3.871-.258 5.354 7.884v-6.919l-1.378-.184v-.096c0-.521.422-.951.96-.978l3.523-.18v.507a.494.494 0 0 1-.419.482l-.848.143v11.206l-1.064.366c-.889.306-1.878-.021-2.387-.789l-5.197-7.843v7.486l1.6.306-.022.148c-.07.465-.471.816-.957.838l-3.979.177c-.053-.5.322-.947.839-1.001l.523-.055v-9.981l-1.362-.076z"/><path style="fill:var(--color11,#000)" d="M20.675 2.967 4.724 4.056c-.955.065-1.696.833-1.696 1.759V21.33c0 .87.299 1.715.851 2.402l3.439 4.285a2.776 2.776 0 0 0 2.337 1.018l17.704-1.09c.907-.056 1.614-.784 1.614-1.662V8.644c0-.544-.274-1.053-.736-1.365L22.633 3.49a3.117 3.117 0 0 0-1.958-.523zM5.514 6.057c-.222-.164-.116-.506.162-.526l15.105-1.083c.481-.035.959.098 1.349.374l3.031 2.147c.115.082.061.258-.081.265l-15.996.87a2.079 2.079 0 0 1-1.347-.401L5.514 6.057zm2.82 4.774c0-.52.42-.949.957-.978l16.913-.921c.523-.028.964.374.964.88v15.273c0 .519-.418.948-.954.978l-16.806.956c-.582.033-1.073-.414-1.073-.978V10.83z"/></symbol><symbol id="icon-spotify" viewBox="0 0 32 32"><path fill="#00da5a" style="fill:var(--color12,#00da5a)" d="M25.44 14.24c-5.12-3.04-13.68-3.36-18.56-1.84-.8.24-1.6-.24-1.84-.96-.24-.8.24-1.6.96-1.84 5.68-1.68 15.04-1.36 20.96 2.16.72.4.96 1.36.56 2.08-.4.56-1.36.8-2.08.4zm-.16 4.48c-.4.56-1.12.8-1.68.4-4.32-2.64-10.88-3.44-15.92-1.84-.64.16-1.36-.16-1.52-.8s.16-1.36.8-1.52c5.84-1.76 13.04-.88 18 2.16.48.24.72 1.04.32 1.6zm-1.92 4.4c-.32.48-.88.64-1.36.32-3.76-2.32-8.48-2.8-14.08-1.52-.56.16-1.04-.24-1.2-.72-.16-.56.24-1.04.72-1.2 6.08-1.36 11.36-.8 15.52 1.76.56.24.64.88.4 1.36zM16 0C7.2 0 0 7.2 0 16s7.2 16 16 16 16-7.2 16-16S24.88 0 16 0z"/></symbol><symbol id="icon-twitch" viewBox="0 0 32 32"><path fill="#fff" style="fill:var(--color7,#fff)" d="M8 21.333v-16h18v12l-4 4h-6l-4 4v-4z"/><path fill="#8e24aa" style="fill:var(--color13,#8e24aa)" d="M6 3.333 4 8.082v17.251h6v3.333h3.333l3.333-3.333h4.667L28 18.666V3.333H6zm19.333 14L22 20.666h-6l-3.333 3.333v-3.333h-4V5.999h16.667v11.333z"/><path fill="#8e24aa" style="fill:var(--color13,#8e24aa)" d="M21.333 16.667H18V10h3.333v6.667zm-5.333 0h-3.333V10H16v6.667z"/></symbol><symbol id="icon-twitter" viewBox="0 0 32 32"><path fill="#00aaec" style="fill:var(--color14,#00aaec)" d="M32 5.824a12.816 12.816 0 0 1-3.77 1.059 6.715 6.715 0 0 0 2.887-3.723 12.932 12.932 0 0 1-4.172 1.631 6.474 6.474 0 0 0-4.791-2.124c-3.623 0-6.563 3.014-6.563 6.732 0 .528.056 1.04.169 1.533-5.456-.281-10.293-2.958-13.533-7.036a6.858 6.858 0 0 0-.888 3.388 6.777 6.777 0 0 0 2.921 5.603 6.445 6.445 0 0 1-2.975-.84v.083c0 3.263 2.263 5.984 5.269 6.601a6.258 6.258 0 0 1-1.73.237c-.423 0-.836-.04-1.236-.119.836 2.673 3.259 4.621 6.133 4.673a12.96 12.96 0 0 1-8.154 2.883c-.53 0-1.054-.031-1.566-.092a18.279 18.279 0 0 0 10.064 3.022c12.077 0 18.679-10.256 18.679-19.153 0-.293-.006-.586-.017-.873a13.479 13.479 0 0 0 3.274-3.484z"/></symbol><symbol id="icon-font" fill="#c2bdbc" viewBox="0 0 32 32"><path d="M7.273 2.809c-.796 0-1.43.642-1.43 1.438v23.508c0 .796.634 1.438 1.43 1.438h17.453c.796 0 1.43-.642 1.43-1.438V10.091h-5.258c-1.077 0-2.016-.785-2.016-1.828V2.81H7.273zm12.61 0v5.453c0 .429.408.828 1.016.828h5.258l-6.273-6.281zm.836 9.164h.328l-.953 10.438c-.049.487-.078.807-.078.961 0 .247.048.433.141.563.117.179.271.312.469.398.204.086.548.133 1.023.133l-.102.344h-4.945l.102-.344h.211c.401 0 .731-.085.984-.258.179-.117.315-.314.414-.586.068-.191.134-.642.195-1.352l.148-1.594h-3.594l-1.273 1.734c-.29.389-.473.671-.547.844a1.15 1.15 0 0 0-.109.469c0 .197.074.366.234.508s.427.222.797.234l-.102.344h-3.711l.102-.344a1.964 1.964 0 0 0 1.203-.453c.352-.29.879-.906 1.57-1.844l7.492-10.195zm-1.508 3.078-3.641 4.953h3.156l.484-4.953z"/></symbol></defs></svg>