<svg aria-hidden="true" style="position:absolute;width:0;height:0;overflow:hidden" xmlns="http://www.w3.org/2000/svg"><defs><symbol id="icon-aws" viewBox="0 0 32 32"><path fill="#252f3e" style="fill:var(--color1, #252f3e)" d="M9.02 15.374c0 .394.04.714.116.95.084.234.192.49.34.768.045.07.073.154.074.246 0 .106-.064.214-.2.32l-.672.448a.509.509 0 0 1-.275.096h-.001c-.108 0-.214-.052-.32-.148a3.332 3.332 0 0 1-.376-.488l-.008-.014a7.711 7.711 0 0 1-.309-.58l-.021-.05c-.83.982-1.872 1.474-3.128 1.474-.894 0-1.608-.258-2.128-.77-.522-.512-.788-1.196-.788-2.05 0-.908.32-1.644.968-2.2.65-.556 1.512-.832 2.608-.832.36 0 .734.032 1.128.084.394.054.8.14 1.224.236v-.78c0-.812-.17-1.378-.5-1.708-.34-.332-.916-.492-1.736-.492-.372 0-.754.044-1.148.14a8.41 8.41 0 0 0-1.207.382l.057-.02a2.79 2.79 0 0 1-.35.134l-.022.006a.626.626 0 0 1-.168.032h-.002c-.15 0-.224-.108-.224-.332v-.524c0-.17.02-.3.074-.372a.802.802 0 0 1 .295-.224l.005-.002c.37-.192.818-.352 1.34-.48a6.368 6.368 0 0 1 1.66-.202c1.266 0 2.192.288 2.788.864.586.576.884 1.452.884 2.628v3.46h.02zm-4.322 1.622c.35 0 .712-.064 1.096-.192a2.37 2.37 0 0 0 1.01-.684 1.68 1.68 0 0 0 .359-.67l.003-.012c.064-.258.108-.566.108-.93v-.448a8.07 8.07 0 0 0-.936-.175l-.045-.005a7.683 7.683 0 0 0-.999-.066h-.001c-.714 0-1.236.14-1.586.428-.352.288-.52.694-.52 1.228 0 .5.126.874.392 1.132.256.266.628.394 1.118.394zm8.546 1.154c-.192 0-.32-.032-.404-.108-.086-.064-.16-.212-.224-.416l-2.5-8.254a1.812 1.812 0 0 1-.097-.419l-.001-.008c0-.17.086-.266.256-.266h1.044c.2 0 .34.032.414.106.086.064.15.214.214.416l1.788 7.07 1.66-7.07c.052-.212.116-.352.2-.416a.718.718 0 0 1 .43-.105h-.002.85c.204 0 .34.032.426.106.086.064.16.214.202.416l1.682 7.156 1.84-7.156a.91.91 0 0 1 .215-.417l-.001.001a.688.688 0 0 1 .418-.105h-.002.99c.17 0 .266.086.266.266 0 .054-.012.108-.02.172-.02.102-.046.191-.08.276l.004-.01-2.566 8.254c-.064.214-.138.354-.222.418a.675.675 0 0 1-.366.107l-.041-.001h.002-.914c-.202 0-.34-.032-.426-.106-.086-.076-.16-.214-.202-.428l-1.65-6.886-1.64 6.878c-.052.214-.116.352-.2.426-.086.076-.236.108-.426.108h-.916zm13.676.288h-.009c-.579 0-1.141-.07-1.679-.202l.048.01c-.532-.128-.946-.268-1.224-.428-.17-.096-.286-.202-.33-.3a.738.738 0 0 1-.062-.298v-.544c0-.224.084-.332.244-.332.069 0 .135.012.196.033l-.004-.001c.064.022.16.064.266.108a5.8 5.8 0 0 0 1.17.374c.426.084.84.128 1.266.128.672 0 1.192-.118 1.554-.352a1.15 1.15 0 0 0 .554-.984v-.034.002-.027c0-.279-.11-.532-.289-.719-.19-.204-.552-.386-1.074-.556l-1.544-.48c-.776-.246-1.352-.61-1.702-1.09a2.532 2.532 0 0 1-.532-1.547v-.001c0-.448.096-.844.286-1.186.192-.34.448-.64.768-.876.32-.244.68-.426 1.106-.554s.872-.182 1.34-.182c.236 0 .48.01.714.042.244.032.468.076.692.12a6.8 6.8 0 0 1 .606.17c.192.064.34.128.448.192a.921.921 0 0 1 .318.264l.002.002c.06.089.095.199.095.318l-.001.036v-.002.502c0 .224-.084.342-.244.342a1.11 1.11 0 0 1-.41-.131l.006.003a4.78 4.78 0 0 0-1.967-.417l-.081.001h.004c-.606 0-1.086.096-1.416.3-.33.2-.5.512-.5.95 0 .298.106.554.32.758.212.202.606.404 1.17.586l1.512.48c.766.246 1.32.588 1.65 1.026s.488.94.488 1.496c0 .46-.094.874-.276 1.238a2.886 2.886 0 0 1-.77.935l-.006.005a3.43 3.43 0 0 1-1.182.598c-.48.15-.98.224-1.522.224z"/><path fill="#f90" style="fill:var(--color2, #f90)" d="M28.93 23.626c-3.5 2.594-8.588 3.972-12.962 3.972-6.13 0-11.654-2.274-15.826-6.054-.33-.3-.032-.706.36-.47 4.514 2.626 10.08 4.218 15.84 4.218 3.882 0 8.15-.812 12.078-2.478.586-.266 1.086.384.51.812z"/><path fill="#f90" style="fill:var(--color2, #f90)" d="M30.388 21.96c-.446-.574-2.958-.276-4.096-.138-.34.044-.394-.256-.086-.48 2-1.41 5.29-1.004 5.672-.534.384.48-.106 3.78-1.98 5.36-.286.246-.562.12-.436-.2.426-1.06 1.374-3.44.926-4.006z"/></symbol><symbol id="icon-azure" viewBox="0 0 32 32"><path fill="#0089d6" style="fill:var(--color3, #0089d6)" d="m14.94 24.824 6.758-1.198-3.444-4.098c-.44-.497-1.567-1.836-2.688-3.181l-.758-.935c0-.02 3.558-9.818 3.578-9.852-2.051-4.006-.106-.696 1.827 2.622l4.041 7.51L30.2 26l-21.896-.002 6.634-1.174zM1.8 23.576c0-.006 1.622-2.824 3.606-6.262l3.608-6.254 4.204-3.528C15.53 5.594 17.428 4 17.434 4a.75.75 0 0 1-.068.174l.002-.004-4.568 9.792-4.48 9.616-3.26.004c-1.794.002-3.26 0-3.26-.006z"/></symbol><symbol id="icon-behance" viewBox="0 0 32 32"><path d="M14.688 7.975c.6.838.9 1.85.9 3.025 0 1.2-.3 2.175-.912 2.912-.338.412-.85.787-1.512 1.125 1.012.375 1.775.95 2.287 1.75s.775 1.762.775 2.9c0 1.175-.287 2.225-.887 3.15a5.38 5.38 0 0 1-1.4 1.55c-.625.488-1.375.813-2.237 1-.863.175-1.787.262-2.8.262h-8.9V5.861h9.563c2.4.037 4.112.737 5.125 2.112zM3.938 9.3v4.363h4.813c.863 0 1.55-.162 2.088-.488s.8-.912.8-1.738c0-.925-.35-1.525-1.063-1.825-.613-.2-1.387-.313-2.338-.313h-4.3zm0 7.625V22.2h4.813c.863 0 1.525-.113 2-.35.875-.438 1.3-1.25 1.3-2.462 0-1.025-.412-1.738-1.262-2.125-.475-.212-1.125-.325-1.975-.337H3.939zm24.237-5.612c1.025.45 1.863 1.175 2.525 2.162.6.863.988 1.875 1.163 3.025.1.675.15 1.637.125 2.9h-10.65c.063 1.462.563 2.5 1.525 3.087.587.363 1.288.55 2.113.55.863 0 1.575-.225 2.125-.675.3-.238.563-.575.788-1.012h3.9c-.1.863-.575 1.75-1.413 2.65-1.313 1.425-3.137 2.137-5.5 2.137-1.95 0-3.663-.6-5.15-1.8s-2.238-3.15-2.238-5.85c0-2.537.675-4.475 2.012-5.825 1.35-1.35 3.087-2.025 5.225-2.025 1.288-.012 2.438.213 3.45.675zm-5.713 3.3c-.538.563-.875 1.313-1.025 2.262h6.587c-.075-1.012-.413-1.787-1.012-2.313-.613-.525-1.375-.787-2.275-.787-.975 0-1.738.287-2.275.838zm6.463-7.826H20.45V9.25h8.475V6.787z"/></symbol><symbol id="icon-bing" viewBox="0 0 32 32"><path d="M10.418 2.418 3.307 0v26.382l7.111-6.258z"/><path d="m12.906 8.32 2.916 7.253 4.14 1.325L3.52 26.951 10.631 32l18.063-10.951v-7.538z"/></symbol><symbol id="icon-cloudflare" viewBox="0 0 32 32"><path fill="#fff" style="fill:var(--color4, #fff)" d="m25.295 14.924-.664-.265C21.511 21.68 9.098 17.411 8.352 19.5c-.124 1.411 6.778.268 11.713.507 1.505.073 2.259 1.209 1.62 3.061l1.259.004c1.452-4.526 6.085-2.216 6.279-3.71-.318-.982-5.325 0-3.928-4.437z"/><path fill="#f4811f" style="fill:var(--color5, #f4811f)" d="M22.041 22.294c.199-.664.133-1.328-.199-1.726s-.797-.664-1.394-.73l-11.552-.133c-.066 0-.133-.066-.199-.066-.066-.066-.066-.133 0-.199.066-.133.133-.199.265-.199l11.618-.133c1.394-.066 2.855-1.195 3.386-2.523l.664-1.726c0-.066.066-.133 0-.199-.73-3.386-3.784-5.909-7.369-5.909-3.319 0-6.174 2.124-7.17 5.112a3.624 3.624 0 0 0-2.39-.664c-1.593.133-2.855 1.46-3.054 3.054-.066.398 0 .797.066 1.195a4.848 4.848 0 0 0-4.714 4.846c0 .265 0 .465.066.73 0 .133.133.199.199.199h21.311c.133 0 .266-.066.266-.199l.199-.73z"/><path fill="#faad3f" style="fill:var(--color6, #faad3f)" d="M25.693 14.858h-.332c-.066 0-.133.066-.199.133l-.465 1.593c-.199.664-.133 1.328.199 1.726s.797.664 1.394.73l2.457.133c.066 0 .133.066.199.066.066.066.066.133 0 .199-.066.133-.133.199-.266.199l-2.523.133c-1.394.066-2.855 1.195-3.386 2.523l-.133.598c-.066.066 0 .199.133.199h8.764c.133 0 .199-.066.199-.199.133-.531.265-1.129.265-1.726 0-3.452-2.855-6.307-6.307-6.307z"/></symbol><symbol id="icon-codepen" viewBox="0 0 32 32"><path style="fill:var(--color7, #000)" d="M8.832 14.756v2.488L10.692 16l-1.86-1.244zm6.422-1.81v-3.47l-5.83 3.89 2.604 1.74 3.226-2.16zm7.316.42-5.83-3.89v3.47l3.226 2.16 2.604-1.74zM9.424 18.64l5.83 3.884v-3.47l-3.226-2.16-2.604 1.746zm7.316.414v3.47l5.83-3.884-2.604-1.746-3.226 2.16zM16 14.24 13.366 16 16 17.758 18.628 16 16 14.24z"/><path style="fill:var(--color7, #000)" d="M16 2C8.268 2.001 2 8.269 2 16.001s6.268 14.001 14.001 14.001h.001c7.732-.001 14-6.269 14-14.001S23.734 2 16.001 2H16zm8.654 16.64c0 .036 0 .066-.006.094 0 .012-.006.024-.006.03l-.012.066c-.004.012-.004.024-.01.036l-.02.052-.016.036c-.006.018-.02.036-.024.048a.116.116 0 0 1-.024.034l-.03.048a.144.144 0 0 1-.024.03c-.01.012-.022.03-.034.04l-.03.03c-.012.012-.03.024-.04.036-.014.006-.026.018-.038.024-.006 0-.006.006-.01.012l-7.92 5.28a.748.748 0 0 1-.831-.002l.003.002-7.918-5.274c-.006 0-.006-.006-.012-.012l-.036-.024c-.012-.012-.03-.024-.04-.036l-.032-.028a.22.22 0 0 1-.033-.041l-.001-.001c-.006-.012-.02-.024-.024-.03a.135.135 0 0 1-.03-.047v-.001a.116.116 0 0 0-.024-.034l-.042-.084-.016-.052-.012-.036a.228.228 0 0 1-.012-.066c0-.012-.006-.024-.006-.03-.006-.028-.006-.064-.006-.094v-5.274c0-.036 0-.066.006-.096 0-.01.006-.022.006-.028l.012-.066.012-.036.016-.052.02-.036c.004-.018.016-.036.022-.048a.116.116 0 0 1 .024-.034l.03-.048a.176.176 0 0 1 .024-.03c.012-.012.022-.03.034-.04l.03-.03c.012-.012.03-.024.04-.036.014-.006.026-.02.038-.024.006 0 .006-.006.012-.012l7.916-5.274a.738.738 0 0 1 .825.002l-.003-.002 7.916 5.274c.004 0 .004.006.01.012l.036.024.042.036.03.028c.012.012.024.024.036.042l.022.03a.135.135 0 0 1 .03.047v.001a.116.116 0 0 0 .024.034.19.19 0 0 1 .024.047v.001l.018.036.018.052c.006.012.006.024.01.036.008.018.012.04.012.066 0 .012.006.024.006.028a.488.488 0 0 1 .006.079v.018-.001 5.268h.012z"/><path style="fill:var(--color7, #000)" d="M23.168 17.244v-2.488L21.304 16l1.864 1.244z"/><path fill="#fff" style="fill:var(--color4, #fff)" d="M24.654 18.64h-.012v-5.268.001-.016a.488.488 0 0 0-.006-.079l-.006-.03c0-.026-.006-.046-.012-.066l-.006-.016a.034.034 0 0 0-.006-.02l-.016-.052-.018-.036v-.001a.19.19 0 0 0-.024-.047.116.116 0 0 1-.024-.034v-.001a.122.122 0 0 0-.03-.047l-.024-.03-.034-.042-.03-.028-.02-.018-.01-.008a.106.106 0 0 1-.012-.01l-7.959-5.308a.736.736 0 0 0-.825-.002l-7.927 5.284a.066.066 0 0 0-.017.012l-.012.008-.008.004a.054.054 0 0 1-.02.016l-.02.02-.028.03c-.008.004-.014.012-.02.02l-.016.02a.144.144 0 0 0-.024.03l-.016.024-.014.024a.116.116 0 0 0-.024.034l-.006.012v-.001a.255.255 0 0 0-.019.037l-.016.036-.02.052-.012.036v.012c-.004.008-.004.016-.004.022l-.006.034-.004.01-.002.02c-.006.028-.006.058-.006.094v5.274c0 .03 0 .066.006.094l.006.03c0 .024.005.046.012.066l.004.016.006.02.018.052.042.084c.01.01.018.021.024.034v.001a.122.122 0 0 0 .03.047.144.144 0 0 1 .024.03l.001.001a.27.27 0 0 0 .033.041l.032.028a.36.36 0 0 0 .02.018l.02.018 7.959 5.308a.754.754 0 0 0 .831.002l7.97-5.316a.156.156 0 0 1 .02-.016l.02-.02.028-.03.02-.02v-.001l.015-.019-.001.001a.875.875 0 0 0 .041-.055l.008-.012.006-.012a.116.116 0 0 0 .024-.034l.024-.048.016-.036.02-.052v-.006c.004-.004.004-.008.004-.012v-.001a.089.089 0 0 1 .008-.017v-.008c.004-.01.004-.018.004-.024v-.002a.213.213 0 0 1 .008-.032v-.008c.004-.008.004-.014.004-.02a.485.485 0 0 0 .006-.096zM8.832 17.244v-2.488L10.69 16l-1.86 1.244zm6.422-7.768v3.47l-3.226 2.16-2.604-1.74 5.83-3.89zm1.486 0 5.83 3.89-2.604 1.74-3.226-2.16v-3.47zm-1.486 13.048-5.83-3.884 2.604-1.746 3.226 2.16v3.47zm1.486 0v-3.47l3.226-2.16 2.604 1.746-5.83 3.884zM16 17.758 13.366 16 16 14.242 18.628 16 16 17.76zm7.168-3v2.486L21.304 16l1.864-1.244z"/></symbol><symbol id="icon-deviantart" viewBox="0 0 32 32"><path fill="#00cc76" style="fill:var(--color8, #00cc76)" d="M24.978 7.342V1.568a.316.316 0 0 0-.316-.316h-4.969a.312.312 0 0 0-.222.092l-.53.527a.327.327 0 0 0-.057.077l-2.485 4.744-.586.338H7.338a.316.316 0 0 0-.316.315v7.21c0 .174.141.316.316.316h4.443l.22.22-4.942 9.434a.31.31 0 0 0-.036.146v5.76a.319.319 0 0 0 .316.316l4.972-.002a.314.314 0 0 0 .222-.092c.056-.054.574-.556.589-.605l2.49-4.746.57-.33h8.48a.316.316 0 0 0 .316-.316V17.45a.316.316 0 0 0-.316-.316h-4.457l-.208-.208 4.944-9.439a.313.313 0 0 0 .036-.147z"/></symbol><symbol id="icon-digital-ocean" viewBox="0 0 32 32"><path fill="#0080ff" style="fill:var(--color9, #0080ff)" d="M16 24.416v5.304c8.99 0 15.976-8.68 13.036-18.106-1.335-4.137-4.529-7.331-8.572-8.64l-.094-.026C10.96.008 2.28 7.008 2.28 15.984h5.304c0-5.63 5.584-9.986 11.512-7.84a7.992 7.992 0 0 1 4.726 4.689l.018.055c2.16 5.922-2.2 11.5-7.824 11.512v-5.274h-5.29v5.29H16z"/><path fill="#0080ff" style="fill:var(--color9, #0080ff)" d="M10.726 28.49H6.65v-4.074h4.076v4.074zm-7.482-4.074H6.65v-3.408H3.244v3.408z"/></symbol><symbol id="icon-discord" viewBox="0 0 32 32"><path d="M24.787 7.853a20.943 20.943 0 0 0-5.227-1.64c-.227.4-.493.947-.667 1.387a19.16 19.16 0 0 0-5.787 0 14.87 14.87 0 0 0-.68-1.387c-1.84.32-3.587.88-5.227 1.64-3.307 4.987-4.2 9.853-3.76 14.64 2.2 1.64 4.32 2.627 6.413 3.28.52-.707.973-1.467 1.373-2.253-.76-.28-1.48-.64-2.16-1.053.187-.133.36-.28.533-.413 4.173 1.947 8.693 1.947 12.813 0 .173.147.347.28.533.413-.68.413-1.413.76-2.16 1.053.4.787.853 1.547 1.373 2.253a20.773 20.773 0 0 0 6.413-3.28c.52-5.56-.893-10.373-3.76-14.64h-.027zm-13 11.707c-1.253 0-2.28-1.16-2.28-2.587s1-2.587 2.28-2.587c1.28 0 2.293 1.16 2.28 2.587 0 1.413-1 2.587-2.28 2.587zm8.413 0c-1.253 0-2.28-1.16-2.28-2.587s1-2.587 2.28-2.587c1.28 0 2.293 1.16 2.28 2.587 0 1.413-1 2.587-2.28 2.587z"/></symbol><symbol id="icon-dribble" viewBox="0 0 32 32"><path fill="#d43c89" style="fill:var(--color10, #d43c89)" d="M.8 16c.837 20.275 29.57 20.259 30.4 0C30.368-4.264 1.635-4.27.8 16z"/><path fill="#b2005f" style="fill:var(--color11, #b2005f)" d="M19.991 15.585c4.564-.572 9.092.343 9.541.443a13.675 13.675 0 0 0-3.088-8.565c-.292.393-2.588 3.346-7.652 5.419.436.879.832 1.792 1.198 2.702zM25.082 5.96a13.587 13.587 0 0 0-9.085-3.468 14.337 14.337 0 0 0-3.209.386 74.004 74.004 0 0 1 5.113 8.043c4.877-1.83 6.938-4.611 7.181-4.962zM15.464 11.753a87.339 87.339 0 0 0-5.084-7.95c-3.829 1.816-6.703 5.362-7.587 9.623.613.007 6.261.028 12.671-1.673zM17.063 16.108c.177-.057.354-.114.538-.163a43.988 43.988 0 0 0-1.104-2.314c-6.788 2.037-13.386 1.952-13.98 1.945a13.6 13.6 0 0 0 3.49 9.532c.311-.532 4.042-6.728 11.057-8.999zM18.355 18.22c-7.486 2.617-10.18 7.824-10.415 8.309 3.515 2.881 9.103 3.672 13.329 1.752-.2-1.17-.967-5.235-2.832-10.089-.028.014-.062.021-.083.028zM21.068 17.55c1.741 4.805 2.449 8.714 2.594 9.527a13.419 13.419 0 0 0 5.708-8.957c-.458-.146-4.127-1.238-8.303-.57z"/></symbol><symbol id="icon-dropbox" viewBox="0 0 32 32"><path d="M11.478 21.367 16 17.601l-6.531-4.034L5 17.15zM16 17.6l4.535 3.767L27 17.15l-4.469-3.583z"/><path d="M16.027 18.42v-.027l-.013.013-.014-.013v.027l-4.522 3.754-1.943-1.268v1.426L16 26.207v.012l.014-.012.013.012v-.012l6.477-3.875v-1.426l-1.942 1.268zM5 9.998l4.469 3.569L16 9.548l-4.522-3.767zm15.535-4.217L16 9.548l6.531 4.019L27 9.998z"/></symbol><symbol id="icon-duckduckgo" viewBox="0 0 32 32"><path fill="#de5833" style="fill:var(--color12, #de5833)" d="M16.018 2.418c7.5 0 13.58 6.08 13.58 13.58s-6.08 13.58-13.58 13.58-13.58-6.08-13.58-13.58 6.08-13.58 13.58-13.58z"/><path fill="#de5833" style="fill:var(--color12, #de5833)" d="M16.018 31.928c8.798 0 15.93-7.132 15.93-15.93S24.816.068 16.018.068.088 7.2.088 15.998s7.132 15.93 15.93 15.93zm0-1.328c-8.065 0-14.602-6.538-14.602-14.602S7.954 1.396 16.018 1.396c8.065 0 14.602 6.538 14.602 14.602S24.082 30.6 16.018 30.6z"/><path fill="#d5d7d8" style="fill:var(--color13, #d5d7d8)" d="M9.402 6.829c-.003-.228.163-.356.384-.446a1.124 1.124 0 0 0-.284.081c-.23.104-.402.498-.4.685 1.115-.113 2.765-.035 3.971.325.089-.013.178-.025.268-.035-1.203-.534-2.633-.74-3.938-.61zM9.631 5.456c.025-.005.051-.008.076-.012-.241.03-.367.116-.548.146.196.017.939.364 1.406.555a.9.9 0 0 0 .173-.085c-.242-.036-.844-.58-1.107-.604zM10.791 8.157c-.067.026-.13.053-.185.082-1.818.958-2.621 3.195-2.143 5.876.437 2.44 2.227 10.776 3.047 14.696.239.084.482.162.727.233-.73-3.53-2.723-12.78-3.188-15.378-.471-2.643-.013-4.539 1.742-5.509z"/><path fill="#fff" style="fill:var(--color4, #fff)" d="M18.148 27.39a.837.837 0 0 1-.104.057c-.028.11-.071.192-.134.234-.375.249-1.436.375-1.996.249a.511.511 0 0 1-.226-.105c-.956.531-2.331 1.238-2.61 1.078-.436-.25-.499-3.556-.436-4.368.046-.613 2.198.38 3.244.9.231-.216.798-.361 1.3-.41-.758-1.845-1.317-3.956-.974-5.452-.474-.33-1.102-1.096-.971-1.895.101-.608 1.672-1.759 2.785-1.829 1.115-.07 1.463-.055 2.392-.277l.151-.036c.572-2.011-.8-5.509-2.33-7.04-.499-.499-1.266-.813-2.13-.979-.332-.456-.869-.892-1.627-1.296a7.657 7.657 0 0 0-4.774-.777c-.025.004-.051.007-.076.012.263.024.864.568 1.107.604a.82.82 0 0 1-.173.085c-.227.087-.536.139-.779.238-.22.09-.386.218-.384.446 1.305-.131 2.736.076 3.938.61-.09.01-.179.023-.268.035-.853.12-1.637.341-2.204.64l-.078.043c-1.755.97-2.213 2.867-1.742 5.509.465 2.598 2.471 11.991 3.201 15.521 1.2.347 2.323.625 3.635.625 1.114 0 2.454-.247 3.49-.5-.364-.702-.832-1.477-1.12-2.034-.038.046-.069.086-.107.111zm.734-13.32a.864.864 0 1 1 .002-1.728.864.864 0 0 1-.002 1.728zm.52-3.251s-.545-.311-.967-.306c-.869.011-1.105.395-1.105.395s.146-.915 1.256-.731c.602.1.816.642.816.642zm-9.157 1.124s-.391-.872.651-1.299c1.043-.427 1.552.243 1.552.243s-.758-.343-1.495.12c-.736.463-.708.935-.708.935zm.912 1.858a1.005 1.005 0 1 1 2.012 0 1.005 1.005 0 0 1-2.012 0z"/><path fill="#2d4f8e" style="fill:var(--color14, #2d4f8e)" d="M13.168 13.801a1.004 1.004 0 1 0-2.011 0 1.005 1.005 0 1 0 2.011 0zm-.56-.074a.261.261 0 1 1 .002-.522.261.261 0 0 1-.002.522z"/><path fill="#fff" style="fill:var(--color4, #fff)" d="M12.608 13.205c-.143 0-.26.116-.26.261s.117.262.26.261a.261.261 0 0 0 0-.522z"/><path fill="#2d4f8e" style="fill:var(--color14, #2d4f8e)" d="M18.882 12.342a.864.864 0 1 0 .002 1.728.864.864 0 0 0-.002-1.728zm.383.799a.223.223 0 0 1-.223-.224c0-.123.101-.224.223-.224.127 0 .225.101.225.224a.223.223 0 0 1-.225.224z"/><path fill="#fff" style="fill:var(--color4, #fff)" d="M19.265 12.694a.224.224 0 1 0 .002.448.224.224 0 0 0-.002-.448z"/><path style="fill:var(--color7, #000)" d="M12.448 10.888s-.508-.67-1.552-.243c-1.042.427-.651 1.299-.651 1.299s-.027-.473.708-.935c.737-.463 1.495-.12 1.495-.12zM18.586 10.177c-1.111-.184-1.256.731-1.256.731s.236-.384 1.105-.395c.423-.005.967.306.967.306s-.214-.542-.816-.642z"/><path fill="#fdd209" style="fill:var(--color15, #fdd209)" d="M18.025 15.85c-1.113.069-2.685 1.22-2.785 1.829-.131.799.497 1.565.971 1.895l.004.003c.474.329 3.627 1.393 5.192 1.364 1.566-.03 4.139-.99 3.856-1.758-.281-.769-2.836.678-5.501.431-1.974-.183-2.322-1.067-1.885-1.713.55-.812 1.551.154 3.202-.34 1.654-.493 3.966-1.375 4.825-1.855 1.984-1.106-.83-1.565-1.495-1.258-.63.291-2.823.845-3.84 1.09l-.151.036c-.929.223-1.277.207-2.392.277z"/><path fill="#65bc46" style="fill:var(--color16, #65bc46)" d="M15.54 25.934c0-.115.093-.217.24-.304.004-.07.042-.135.106-.195-1.047-.52-3.198-1.512-3.244-.9-.063.811 0 4.118.436 4.368.279.159 1.654-.547 2.61-1.078-.276-.235-.148-.806-.148-1.891zM18.241 27.273l.014.005c.857.331 2.562.953 2.933.817.499-.191.374-4.182-.186-4.309-.449-.1-2.168 1.111-2.844 1.605.12.505.264 1.506.084 1.881z"/><path fill="#43a244" style="fill:var(--color17, #43a244)" d="M16.152 27.639c-.562-.125-.374-.687-.374-1.996l.002-.013c-.147.087-.24.189-.24.304 0 1.085-.128 1.656.148 1.891a.5.5 0 0 0 .226.105c.56.125 1.621 0 1.996-.249.063-.042.106-.125.134-.234-.439.21-1.378.309-1.892.192z"/><path fill="#65bc46" style="fill:var(--color16, #65bc46)" d="M15.885 25.435c-.064.06-.102.125-.106.195l-.002.013c0 1.31-.188 1.872.374 1.996.514.117 1.453.018 1.892-.192a.837.837 0 0 0 .104-.057.283.283 0 0 0 .093-.116c.181-.376.036-1.376-.084-1.881a1.859 1.859 0 0 0-.072-.25c-.052-.128-.449-.161-.9-.116-.502.049-1.069.194-1.3.41z"/></symbol><symbol id="icon-epic-games" viewBox="0 0 32 32"><path d="M4.719 0C2.886 0 2.214.677 2.214 2.505v22.083c0 .209.011.401.027.579.047.401.047.792.421 1.229.036.052.412.328.412.328.203.099.343.172.572.265l11.115 4.656c.573.261.819.371 1.235.355h.005c.421.016.667-.093 1.24-.355l11.109-4.656c.235-.093.369-.167.577-.265 0 0 .376-.287.412-.328.375-.437.375-.828.421-1.229.016-.177.027-.369.027-.573V2.506c0-1.828-.677-2.505-2.505-2.505zm17.808 4.145h.905c1.511 0 2.251.735 2.251 2.267v2.505H23.85V6.51c0-.489-.224-.713-.699-.713h-.312c-.489 0-.713.224-.713.713v7.749c0 .489.224.713.713.713h.349c.468 0 .692-.224.692-.713v-2.771h1.833v2.86c0 1.525-.749 2.276-2.265 2.276h-.921c-1.521 0-2.267-.756-2.267-2.276V6.425c0-1.525.745-2.281 2.267-2.281zm-16.251.106h4.151v1.703H8.14v3.468h2.204v1.699H8.14v3.697h2.319v1.704H6.276zm5.088 0h2.928c1.515 0 2.265.755 2.265 2.28v3.261c0 1.525-.751 2.276-2.265 2.276h-1.057v4.453h-1.871zm6.037 0h1.864v12.271h-1.864zm-4.172 1.65v4.52H14c.469 0 .693-.228.693-.719V6.619c0-.489-.224-.719-.693-.719zM8.088 19.437h.276l.063.011h.1l.052.016h.052l.047.015.052.011.041.011.093.021.053.015.036.011.041.016.052.016.036.015.053.021.047.021.041.025.047.021.036.025.053.027.041.025.041.021.041.031.043.027.036.031.125.095-.032.041-.036.036-.032.037-.036.041-.025.036-.032.037-.036.036-.032.041-.025.036-.068.079-.036.041-.032.037-.025.041-.037.036-.031.043-.036.036-.032.036-.036-.025-.041-.037-.043-.025-.077-.052-.047-.027-.043-.025-.047-.027-.036-.021-.041-.02-.084-.032-.052-.009-.041-.011-.047-.011-.053-.011-.052-.005h-.052l-.061-.011h-.1l-.052.005h-.052l-.052.016-.041.011-.047.016-.047.009-.043.021-.052.021-.072.052-.043.025-.036.032-.036.025-.037.032-.025.036-.043.036-.052.073-.025.041-.021.047-.025.037-.027.047-.016.047-.02.041-.016.052-.005.052-.015.048-.011.052v.052l-.005.052v.12l.005.052v.041l.005.052.009.047.016.041.005.053.016.041.015.036.021.052.027.052.02.037.052.083.032.041.025.037.043.031.025.036.036.032.084.063.036.02.041.027.048.021.052.02.036.021.104.031.047.005.052.016.052.005h.224l.063-.005h.047l.053-.021.052-.005.052-.015.041-.011.047-.021.041-.02.047-.021.032-.021.041-.025v-.464h-.735v-.744h1.661v1.667l-.036.025-.036.031-.037.027-.041.031-.041.021-.036.032-.084.052-.052.025-.083.052-.053.021-.041.02-.047.021-.104.041-.041.021-.095.031-.047.011-.047.016-.052.016-.041.009-.156.032-.048.005-.104.011-.057.005-.052.004-.057.005h-.26l-.052-.009h-.052l-.052-.011h-.047l-.052-.016-.152-.031-.041-.016-.047-.005-.052-.021-.095-.031-.093-.041-.052-.021-.036-.021-.052-.02-.037-.032-.052-.02-.031-.027-.041-.025-.084-.063-.041-.027-.032-.031-.041-.032-.068-.067-.036-.032-.031-.036-.037-.037-.025-.041-.032-.031-.025-.043-.032-.041-.025-.036-.027-.041-.025-.048-.021-.041-.021-.047-.02-.041-.041-.095-.016-.036-.021-.047-.011-.047-.009-.041-.011-.052-.016-.048-.011-.052-.005-.041-.009-.052-.011-.093-.011-.104v-.276l.011-.053v-.052l.016-.052v-.052l.015-.047.016-.052.021-.093.015-.052.016-.047.063-.141.02-.041.021-.047.027-.048.02-.041.027-.036.052-.084.031-.041.032-.036.025-.041.068-.068.031-.037.037-.036.031-.036.043-.032.072-.063.041-.031.043-.027.036-.031.041-.027.043-.02.047-.027.052-.025.036-.027.052-.02.047-.021.047-.025.043-.011.052-.016.041-.021.047-.009.047-.016.052-.011.043-.016.052-.011h.052l.047-.015h.052L8 19.444h.047zm15.985.011h.276l.063.011h.099l.052.015h.057l.052.016.093.021.052.011.047.009.053.016.047.016.041.011.047.015.052.016.041.021.052.02.048.021.047.027.036.02.047.027.047.02.043.027.047.031.12.09.041.025-.032.041-.025.043-.031.036-.032.041-.025.047-.027.043-.031.036-.032.041-.025.043-.032.041-.025.036-.032.041-.025.048-.032.041-.031.036-.032.041-.025.043-.041-.032-.048-.025-.036-.027-.041-.025-.047-.021-.043-.027-.047-.02-.036-.021-.052-.02-.037-.021-.041-.016-.093-.031-.104-.032-.156-.031-.052-.005-.095-.011h-.109l-.057.011-.052.011-.047.011-.041.02-.037.021-.041.036-.031.047-.021.048v.124l.027.057.02.032.032.031.052.027.041.025.047.021.052.02.068.016.036.016.043.011.052.011.041.015.047.011.057.016.052.016.057.015.057.011.047.016.057.015.052.011.047.011.157.047.041.016.052.016.047.02.052.027.104.041.047.027.084.052.077.057.048.031.036.036.036.043.037.036.025.036.037.052.025.037.021.052.02.031.016.052.016.043.011.047.02.104.005.052.005.047v.125l-.005.057-.011.104-.011.052-.015.047-.011.052-.016.052-.015.047-.021.037-.021.047-.025.041-.032.037-.052.083-.063.073-.036.025-.041.037-.032.031-.041.031-.041.021-.041.032-.048.025-.093.047-.052.021-.047.02-.052.016-.047.016-.043.011-.104.02-.036.011-.052.011h-.052l-.047.011h-.052l-.052.011h-.371l-.156-.016-.052-.011-.047-.005-.161-.031-.047-.011-.052-.016-.053-.011-.047-.015-.052-.016-.052-.021-.041-.015-.052-.016-.052-.021-.037-.02-.052-.016-.041-.027-.052-.02-.041-.027-.037-.025-.052-.027-.036-.02-.041-.032-.041-.025-.043-.032-.036-.031-.041-.032-.037-.025-.041-.037.032-.041.036-.036.031-.037.037-.041.025-.036.032-.041.036-.037.031-.036.037-.041.025-.037.037-.036.031-.041.032-.037.036-.041.025-.036.037-.037.036-.041.036.032.048.031.036.031.052.027.036.027.047.031.043.027.047.02.036.027.047.015.052.021.043.021.047.015.041.021.052.016.047.015.052.016.052.005.048.016.052.005h.057l.047.015h.281l.047-.009.052-.011.036-.005.043-.016.036-.02.047-.032.027-.036.02-.041.016-.048v-.12l-.021-.047-.025-.041-.032-.031-.047-.032-.036-.015-.047-.021-.052-.021-.057-.025-.037-.011-.041-.011-.052-.016-.036-.009-.052-.016-.052-.005-.053-.021-.052-.005-.057-.015-.047-.011-.052-.016-.052-.011-.052-.015-.047-.016-.052-.011-.041-.016-.095-.031-.052-.021-.052-.015-.104-.043-.047-.025-.052-.027-.036-.025-.048-.027-.036-.025-.047-.027-.068-.068-.036-.031-.063-.073-.027-.036-.02-.036-.032-.048-.015-.036-.048-.125-.009-.052-.011-.047v-.047l-.011-.052v-.213l.011-.104.011-.043.009-.047.016-.041.011-.052.021-.036.02-.053.021-.041.02-.052.027-.036.036-.041.027-.043.041-.036.031-.036.032-.043.047-.036.032-.027.041-.031.083-.052.047-.027.095-.047.041-.015.047-.016.052-.021.052-.015.037-.011.047-.011.041-.011.047-.011.052-.011.104-.009.048-.005zm-12.318.036h.943l.043.095.02.041.016.052.021.047.015.041.027.047.031.095.027.047.041.093.011.041.083.188.016.047.021.043.025.047.011.047.027.052.009.047.048.093.02.037.021.052.016.052.015.036.027.052.016.043.02.052.016.036.021.052.047.093.015.047.011.048.021.047.025.041.021.052.021.047.015.041.043.095.015.047.021.047.016.047.02.041.027.048.02.047.021.041.011.052.041.093.021.043.015.047.043.093.025.052.011.041.027.053.009.036.021.052.027.052.02.036.016.052.021.043.015.052.027.036.031.104.021.037.02.052.027.041.021.052.009.047.016.041.021.047.025.043h-1.041l-.025-.043-.016-.047-.021-.047-.02-.052-.011-.041-.043-.093-.015-.043-.041-.093-.016-.041-.021-.052-.031-.095-.021-.041h-1.448l-.02.047-.016.043-.021.052-.02.047-.011.041-.021.052-.02.041-.016.047-.021.043-.02.052-.016.036-.021.052-.015.052-.021.037-.016.052h-1.031l.015-.048.043-.093.015-.052.016-.041.027-.047.02-.047.021-.043.011-.047.02-.052.027-.041.02-.047.032-.095.047-.093.016-.047.02-.041.016-.048.063-.14.021-.052.015-.041.016-.047.027-.043.02-.052.016-.047.016-.041.02-.052.027-.037.016-.052.02-.041.016-.047.021-.052.025-.041.016-.052.02-.037.016-.052.021-.052.02-.036.021-.052.016-.043.02-.052.016-.036.027-.052.02-.052.021-.041.011-.047.02-.048.027-.047.02-.041.011-.052.021-.047.021-.043.041-.093.015-.041.043-.104.02-.037.021-.052.016-.041.015-.052.021-.047.027-.041.02-.052.016-.037.016-.052.02-.041.027-.047.016-.052.015-.043.021-.052.02-.036.027-.052.016-.052.015-.036.021-.052zm2.928.027h1.031l.032.041.052.084.025.047.027.036.025.047.027.041.025.048.027.041.025.036.027.047.025.043.037.041.015.041.032.047.025.043.032.036.021.047.025.041.032.043.015.041.037.047.077.125.021.041.031.041.027.041.025.048.079.124.025.048.027.041.031-.041.021-.053.031-.036.027-.047.025-.036.021-.052.036-.037.027-.047.021-.036.025-.043.032-.047.025-.036.027-.052.025-.036.032-.048.02-.036.027-.052.025-.031.027-.043.031-.052.027-.036.02-.047.032-.037.025-.052.027-.031.031-.041.027-.052.025-.037.027-.047.025-.036.027-.052.031-.037.021-.047.027-.036h1.047v3.719h-.98V21.04l-.025.037-.032.052-.025.031-.032.041-.02.052-.032.037-.025.036-.032.052-.052.073-.031.041-.027.052-.031.037-.027.036-.02.052-.032.036-.025.037-.032.052-.025.036-.032.041-.025.047-.021.037-.031.041-.027.047-.031.036-.032.043-.02.041-.027.047-.031.037-.032.041-.02.052-.037.031-.02.041-.032.053-.025.036H16.6l-.031-.047-.027-.043-.025-.047-.027-.036-.031-.047-.027-.041-.031-.043-.027-.041-.025-.047-.063-.084-.021-.041-.031-.047-.027-.036-.025-.047-.032-.043-.025-.052-.032-.036-.025-.047-.027-.043-.025-.047-.032-.036-.025-.047-.032-.041-.02-.043-.032-.041-.025-.047-.032-.036-.025-.048-.032-.041-.02-.047-.037-.036-.02-.048-.032-.041v2.193h-.963v-3.683zm4.624 0h2.933v.839h-1.959v.599h1.76v.792h-1.76v.635h1.984v.844h-2.953v-3.677zm-7.094 1.14-.016.047-.015.043-.021.052-.021.047-.015.047-.043.093-.02.052-.016.043-.016.052-.02.036-.016.052-.021.052-.02.037-.016.052-.02.041-.016.052-.027.047-.011.041-.02.052-.021.048-.016.041-.02.052h.859l-.02-.052-.016-.047-.041-.095-.016-.047-.021-.041-.015-.052-.021-.047-.016-.047-.02-.043-.016-.047-.021-.052-.015-.041-.043-.093-.009-.048-.021-.047-.021-.052-.015-.036-.043-.104-.015-.047zm-1.53 6.964h10.681l-5.452 1.797z"/></symbol><symbol id="icon-evernote" viewBox="0 0 32 32"><path fill="#20c05c" style="fill:var(--color18, #20c05c)" d="M22.529 15.136a6.388 6.388 0 0 0-1.231.074c.109-.881.471-1.963 1.755-1.918 1.421.05 1.621 1.398 1.626 2.312-.6-.269-1.342-.439-2.149-.468zm6.077-9.569c-.238-1.277-.994-1.906-1.678-2.153-.737-.268-2.233-.545-4.113-.768-1.512-.178-3.289-.164-4.363-.131-.128-.886-.747-1.695-1.44-1.975-1.845-.746-4.696-.566-5.427-.36-.582.163-1.226.498-1.585 1.013-.24.344-.395.786-.396 1.402 0 .349.01 1.17.018 1.9l.019 1.392c0 .651-.527 1.182-1.179 1.183H5.471c-.638 0-1.127.108-1.498.277a2.11 2.11 0 0 0-.839.671c-.399.539-.469 1.203-.467 1.881 0 0 .006.555.139 1.627.111.83 1.007 6.629 1.859 8.392.33.686.55.972 1.198 1.274 1.445.622 4.747 1.313 6.294 1.511 1.545.198 2.514.615 3.092-.601.002-.003.116-.303.272-.742.502-1.526.572-2.88.572-3.859 0-.1.145-.104.145 0 0 .691-.131 3.139 1.71 3.796.727.259 2.235.489 3.767.67 1.386.16 2.391.707 2.391 4.276 0 2.171-.454 2.469-2.829 2.469-1.925 0-2.659.05-2.659-1.485 0-1.241 1.223-1.111 2.129-1.111.405 0 .112-.302.112-1.068 0-.762.474-1.202.026-1.213-3.134-.087-4.977-.004-4.977 3.93 0 3.572 1.362 4.235 5.808 4.235 3.487 0 4.716-.115 6.155-4.599.285-.886.974-3.587 1.39-8.124.264-2.868-.248-11.525-.654-13.71zM5.33 6.198c-.735 0-1.349.125-1.855.355-.023.01-.187.091-.308.151a.067.067 0 0 1 .022-.034L9.001.883a.06.06 0 0 1 .035-.018l-.103.192c-.214.43-.337.942-.337 1.53v.009c0 .716.036 3.29.036 3.291 0 .17-.138.311-.31.311H5.329z"/></symbol><symbol id="icon-facebook" viewBox="0 0 32 32"><path fill="#4460a0" style="fill:var(--color19, #4460a0)" d="M17.092 32H1.766A1.766 1.766 0 0 1 0 30.234V1.766C0 .79.791 0 1.766 0h28.468C31.209 0 32 .791 32 1.766v28.468c0 .975-.791 1.766-1.766 1.766H22.08V19.608h4.159l.623-4.829H22.08v-3.083c0-1.398.388-2.351 2.393-2.351l2.557-.001V5.025c-.442-.059-1.96-.19-3.727-.19-3.687 0-6.211 2.251-6.211 6.384v3.562h-4.17v4.829h4.17v12.392z"/></symbol><symbol id="icon-faceit" viewBox="0 0 32 32"><path d="M32 3.6c0-.133-.133-.267-.133-.267-.133 0-.133 0-.267.133-2.667 4.133-5.467 8.267-8.133 12.533H.267c-.267 0-.4.4-.133.533 9.6 3.6 23.6 9.067 31.333 12.133.267.133.533-.133.533-.267v-24.8z"/></symbol><symbol id="icon-figma" viewBox="0 0 32 32"><path fill="#1abcfe" style="fill:var(--color20, #1abcfe)" d="M16 16a4 4 0 1 1 8 0 4 4 0 0 1-8 0z"/><path fill="#0acf83" style="fill:var(--color21, #0acf83)" d="M8 24a4 4 0 0 1 4-4h4v4a4 4 0 0 1-8 0z"/><path fill="#ff7262" style="fill:var(--color22, #ff7262)" d="M16 4v8h4a4 4 0 0 0 0-8h-4z"/><path fill="#f24e1e" style="fill:var(--color23, #f24e1e)" d="M8 8a4 4 0 0 0 4 4h4V4h-4a4 4 0 0 0-4 4z"/><path fill="#a259ff" style="fill:var(--color24, #a259ff)" d="M8 16a4 4 0 0 0 4 4h4v-8h-4a4 4 0 0 0-4 4z"/></symbol><symbol id="icon-fontawesome" viewBox="0 0 32 32"><path d="M3.428 0A3.43 3.43 0 0 0 0 3.428v25.145A3.43 3.43 0 0 0 3.428 32h25.145A3.43 3.43 0 0 0 32 28.572V3.427A3.43 3.43 0 0 0 28.572 0zm5.765 5.333a2.386 2.386 0 0 1 2.391 2.388v.042c0 .753-.367 1.421-.933 1.833l-.006.005v1.324c.171-.057 2.448-1.196 4.779-1.196 2.72 0 4.071 1.153 5.291 1.153 1.623 0 3.413-1.153 3.84-1.153.343 0 .64.256.64.555v10.028c0 .299-.255.427-.553.555-1.195.512-2.476.981-3.84.981-1.92 0-2.817-1.195-5.121-1.195-1.664 0-3.413.597-4.821 1.239-.085.043-.172.043-.257.085v3.243c0 .892-.671 1.451-1.408 1.451h-.011a1.44 1.44 0 0 1-1.44-1.44v-.011.001-15.62a2.386 2.386 0 0 1-.939-1.876v-.001a2.385 2.385 0 0 1 2.389-2.388z"/></symbol><symbol id="icon-gcp" viewBox="0 0 32 32"><path fill="#ea4335" style="fill:var(--color25, #ea4335)" d="m20.626 10.752 3.774-3-.664-.828a11.81 11.81 0 0 0-7.8-2.923c-1.202 0-2.362.179-3.456.511l.084-.022c-3.882 1.199-6.858 4.245-7.936 8.085l-.02.083c-.06.226.624-.196.926-.112l5.216-.856s.254-.248.402-.41c2.32-2.532 6.252-2.864 8.93-.708l.544.18z"/><path fill="#4285f4" style="fill:var(--color26, #4285f4)" d="M27.274 12.6a11.71 11.71 0 0 0-3.528-5.665l-.012-.011-3.66 3.64a6.446 6.446 0 0 1 2.387 5.01l-.001.124v-.006.646c1.8 0 3.26 1.45 3.26 3.24 0 1.786-1.46 3.238-3.26 3.238l-6.514-.006-.65.07v5.014l.65.106h6.597a8.472 8.472 0 0 0 8.06-5.864l.017-.06A8.21 8.21 0 0 0 31 19.58a8.391 8.391 0 0 0-3.698-6.961l-.03-.019z"/><path fill="#34a853" style="fill:var(--color27, #34a853)" d="M9.422 27.998h6.518V22.81H9.42c-.464 0-.922-.132-1.344-.322l-.916.28-2.626 2.594-.228.894a8.447 8.447 0 0 0 5.112 1.74h.002z"/><path fill="#fbbc05" style="fill:var(--color28, #fbbc05)" d="M9.422 11.144a8.472 8.472 0 0 0-7.962 5.677l-.018.059A8.24 8.24 0 0 0 1 19.57a8.398 8.398 0 0 0 3.288 6.672l.02.015 3.78-3.768a3.24 3.24 0 0 1-1.917-2.954 3.234 3.234 0 0 1 2.78-3.202l.017-.002a3.262 3.262 0 0 1 3.42 1.852l.008.02 3.78-3.756c-1.566-2.017-3.991-3.302-6.716-3.302h-.043.002z"/></symbol><symbol id="icon-gdocs" viewBox="0 0 32 32"><path fill="#3c8cea" style="fill:var(--color29, #3c8cea)" d="M4.55 0A2.56 2.56 0 0 0 2 2.55v26.9C2 30.85 3.15 32 4.55 32h22.9c1.4 0 2.55-1.15 2.55-2.55v-19.3L20.55 0h-16z"/><path fill="#2d6fe4" style="fill:var(--color30, #2d6fe4)" d="M30 10.2v.5h-6.4s-3.2-.65-3.1-3.35c0 0 .1 2.85 3 2.85H30z"/><path fill="#fff" opacity=".5" style="fill:var(--color4, #fff)" d="M20.55 0v7.3c0 .8.55 2.9 3.05 2.9H30L20.55 0z"/><path fill="#fff" style="fill:var(--color4, #fff)" d="M14.95 22.55h-3.8v1.1h2.7c-.15 1.6-1.45 2.25-2.7 2.25-1.6 0-2.95-1.25-2.95-3 0-1.7 1.3-3 2.95-3 1.25 0 2.05.8 2.05.8l.8-.8s-1-1.1-2.85-1.1C8.8 18.8 7 20.8 7 22.9s1.7 4.15 4.2 4.15c2.2 0 3.85-1.5 3.85-3.75-.05-.45-.1-.75-.1-.75z"/></symbol><symbol id="icon-gdrive" viewBox="0 0 32 32"><path d="M11.25 21.869h-.175l-.088.15-4.338 7.587-.263.45h20.925l.087-.15 4.6-8.037h-.525zM22.475 19.956l.087.15h.175l9.262-.038-.262-.462-10.113-17.5-.087-.163h-.175l-8.725.038-.537.012.262.45zM15.213 11.056l-.088-.162-4.662-7.987-.262.45L.001 21.02l.087.15 4.662 8 .263-.45 10.113-17.512z"/></symbol><symbol id="icon-gist-github" viewBox="0 0 32 32"><path d="M19.247 17.297c.359 0 .656.177.915.528.256.353.392.784.392 1.3 0 .513-.136.948-.392 1.297-.257.353-.556.528-.915.528-.371 0-.696-.175-.953-.528-.256-.349-.392-.784-.392-1.297 0-.516.136-.947.392-1.3.256-.352.581-.528.953-.528zm4.586-4.745c.995 1.081 1.5 2.393 1.5 3.937 0 .997-.115 1.897-.345 2.697-.233.796-.525 1.445-.872 1.945a5.7 5.7 0 0 1-1.299 1.319c-.515.381-.988.656-1.42.831a7.268 7.268 0 0 1-1.481.408c-.556.095-.968.148-1.257.164l-.913.019-.729.02a23.898 23.898 0 0 1-2.032 0l-.729-.02-.913-.019a11.85 11.85 0 0 1-1.257-.164 7.03 7.03 0 0 1-1.481-.408c-.432-.175-.907-.449-1.419-.831a5.665 5.665 0 0 1-1.3-1.319c-.348-.5-.639-1.149-.872-1.945-.231-.8-.345-1.7-.345-2.697 0-1.544.505-2.857 1.5-3.937-.109-.055-.113-.596-.011-1.623a9.443 9.443 0 0 1 .66-2.843c1.245.132 2.787.839 4.628 2.108.621-.159 1.468-.244 2.556-.244 1.136 0 1.988.085 2.557.245a16.91 16.91 0 0 1 2.407-1.379c.779-.348 1.34-.555 1.692-.609l.528-.12c.36.865.579 1.813.661 2.843.101 1.025.097 1.567-.012 1.621zM16.04 22.979c2.251 0 3.939-.269 5.095-.809 1.14-.539 1.723-1.651 1.723-3.328 0-.973-.364-1.787-1.096-2.437a2.455 2.455 0 0 0-1.319-.648c-.5-.081-1.265-.081-2.293 0-1.025.083-1.731.12-2.109.12-.513 0-1.067-.024-1.759-.079a51.682 51.682 0 0 0-1.631-.104 4.965 4.965 0 0 0-1.277.144c-.46.109-.839.299-1.137.567-.695.625-1.053 1.436-1.053 2.437 0 1.677.568 2.789 1.707 3.328 1.133.54 2.817.809 5.069.809h.081zm-3.245-5.682c.357 0 .656.177.913.528.256.353.392.784.392 1.3 0 .513-.136.948-.392 1.297-.256.353-.556.528-.913.528-.372 0-.696-.175-.955-.528-.256-.349-.392-.784-.392-1.297 0-.516.136-.947.392-1.3.257-.352.581-.528.955-.528z"/></symbol><symbol id="icon-github" viewBox="0 0 32 32"><path d="M16 3C8.82 3 3 8.82 3 16c0 6.139 4.256 11.28 9.977 12.643-.296-.07-.589-.149-.877-.239v-2.979s-.488.163-1.137.163c-1.819 0-2.574-1.622-2.763-2.438a2.529 2.529 0 0 0-.734-1.255c-.383-.342-.563-.343-.566-.46-.005-.245.329-.235.487-.235.813 0 1.428.864 1.714 1.311.709 1.104 1.469 1.288 1.861 1.288.488 0 .909-.073 1.198-.213.134-.944.554-1.785 1.239-2.387-3.049-.61-5.2-2.358-5.2-5.2 0-1.464.588-2.809 1.566-3.896-.1-.284-.267-.857-.267-1.791 0-.617.043-1.376.325-2.113 0 0 1.854.013 3.603 1.669.807-.235 1.671-.369 2.572-.369s1.766.134 2.572.369c1.748-1.656 3.602-1.669 3.602-1.669.284.737.325 1.495.325 2.113 0 1.008-.134 1.595-.216 1.848.949 1.076 1.516 2.401 1.516 3.839 0 2.842-2.151 4.59-5.2 5.2.814.715 1.3 1.756 1.3 2.925v4.279c-.288.09-.581.169-.878.239 5.721-1.363 9.977-6.505 9.977-12.643 0-7.18-5.82-13-13-13zm.907 25.965zm1.986-.292zM16 29zm-1.106-.05z"/></symbol><symbol id="icon-github-dev" viewBox="0 0 32 32"><path d="M16 3C8.82 3 3 8.82 3 16c0 6.139 4.256 11.28 9.977 12.643-.296-.07-.589-.149-.877-.239v-2.979s-.488.163-1.137.163c-1.819 0-2.574-1.622-2.763-2.438a2.529 2.529 0 0 0-.734-1.255c-.383-.342-.563-.343-.566-.46-.005-.245.329-.235.487-.235.813 0 1.428.864 1.714 1.311.709 1.104 1.469 1.288 1.861 1.288.488 0 .909-.073 1.198-.213.134-.944.554-1.785 1.239-2.387-3.049-.61-5.2-2.358-5.2-5.2 0-1.464.588-2.809 1.566-3.896-.1-.284-.267-.857-.267-1.791 0-.617.043-1.376.325-2.113 0 0 1.854.013 3.603 1.669.807-.235 1.671-.369 2.572-.369s1.766.134 2.572.369c1.748-1.656 3.602-1.669 3.602-1.669.284.737.325 1.495.325 2.113 0 1.008-.134 1.595-.216 1.848.949 1.076 1.516 2.401 1.516 3.839 0 2.842-2.151 4.59-5.2 5.2.814.715 1.3 1.756 1.3 2.925v4.279c-.288.09-.581.169-.878.239 5.721-1.363 9.977-6.505 9.977-12.643 0-7.18-5.82-13-13-13zm.907 25.965zm1.986-.292zM16 29zm-1.106-.05z"/></symbol><symbol id="icon-gitlab" viewBox="0 0 32 32"><path fill="#fc6d26" style="fill:var(--color31, #fc6d26)" d="M29.95 17.808 28.38 13.1l-3.104-9.34a.537.537 0 0 0-.506-.36h-.006a.537.537 0 0 0-.505.356l-.001.004-3.104 9.334h-10.31L7.74 3.758a.535.535 0 0 0-.504-.358h-.007a.535.535 0 0 0-.504.356l-.001.004-3.1 9.334-1.568 4.714a1.03 1.03 0 0 0 .383 1.164l.003.002 13.56 9.624 13.556-9.624a1.033 1.033 0 0 0 .39-1.173l.002.007z"/><path fill="#e24329" style="fill:var(--color32, #e24329)" d="m16 28.592 5.156-15.5h-10.31L16 28.592z"/><path fill="#fc6d26" style="fill:var(--color31, #fc6d26)" d="m16 28.592-5.158-15.5H3.626L16 28.592z"/><path fill="#fca326" style="fill:var(--color33, #fca326)" d="m3.62 13.098-1.568 4.708a1.03 1.03 0 0 0 .383 1.164l.003.002L16 28.6 3.62 13.1z"/><path fill="#e24329" style="fill:var(--color32, #e24329)" d="M3.624 13.098h7.224L7.74 3.764a.537.537 0 0 0-.506-.36h-.006a.537.537 0 0 0-.505.356l-.001.004-3.098 9.334z"/><path fill="#fc6d26" style="fill:var(--color31, #fc6d26)" d="m16 28.592 5.156-15.5h7.228L16 28.592z"/><path fill="#fca326" style="fill:var(--color33, #fca326)" d="m28.38 13.098 1.566 4.708a1.027 1.027 0 0 1-.383 1.164l-.003.002L16 28.592l12.378-15.494z"/><path fill="#e24329" style="fill:var(--color32, #e24329)" d="M28.38 13.098h-7.22l3.102-9.334a.535.535 0 0 1 .505-.36h.005c.23 0 .434.146.508.36l3.104 9.334z"/></symbol><symbol id="icon-glitch" viewBox="0 0 32 32"><path style="fill:var(--color7, #000)" d="M9.704 5.568C6.685 4.962-.413 8.052.019 11.52c1.074.319 2.009.71 1.856 1.11h29.541c.178-1.183-.751-2.09-.123-3.077.198-.312.349-.667.454-1.022V6.612a.244.244 0 0 0-.051-.035c-7.335 2.374-3.773 1.872-11.602.001-1.358-1.705-5.868-2.94-7.969-3.078-.807 0-2.421 2.068-2.421 2.068z"/><path style="fill:var(--color7, #000)" d="M19.439 11.621v.908H1.891c.016.268-.427.544-1.62.807 1.059 1.312 4.186 2.572 5.296 2.724a3.523 3.523 0 0 0-.654.215c3.55.447 7.748.598 9.835.642h6.887l-.229-.05c-1.532-.289-.92-.08-1.665-.504 9.863-2.374 4.148-2.023 11.954-.303.253-.454-.958-1.564-.403-2.976.211-.537.159-1.015.053-1.463H19.437z"/><path style="fill:var(--color7, #000)" d="M12.579 15.203v.908a208.07 208.07 0 0 0-7.191-.006C3.61 16.608.469 19.292.019 20.87v.643a.672.672 0 0 0 .05.096c.938.279 1.771.612 1.864.958h13.218v-.908h16.207c-.169-.752-.513-1.414-.065-2.119.461-.992.676-1.672.706-2.121v-.199c-.129-1.668-3.746.987-5.75 1.008-2.27-.404-1.816-.706-4.843-1.362-1.532-.289-.92-.08-1.665-.504 1.875-.451 3.187-.804 4.136-1.068v-.092H12.578z"/><path fill="#974dff" style="fill:var(--color34, #974dff)" d="M11.369 8.04h.05c1.209 2.141.439 3.785-.202 5.902-.181.428.471.76.656.303.514-1.966 1.328-4.128.353-6.104h.101c4.667.036 9.391.883 13.62 2.926.281.064 1.185.759 1.362.202-2.037-2.409-9.963-3.781-13.317-3.683-.146.028-.495-.017-.894-.061a9.037 9.037 0 0 0-.959-.069c-.561 0-.976.12-.77.584z"/><path fill="#f1a5ff" style="fill:var(--color35, #f1a5ff)" d="M11.369 8.04h.05c.729 1.379.916 3.065.202 4.489h.706c.367-1.431.49-2.965-.151-4.338 4.723.014 9.515.787 13.771 2.926.28.049 1.237.809 1.362.202-2.141-2.455-9.868-3.831-13.317-3.733-.166.032-.512-.015-.901-.062a8.007 8.007 0 0 0-.912-.072c-.528 0-.928.122-.81.588z"/><path fill="#974dff" style="fill:var(--color34, #974dff)" d="M9.553 8.292h.05c.98 1.333.936 2.945.303 4.389-.212.351.315.702.504.303.354-.747.598-1.591.605-2.421.007-.934-.419-1.897-.908-2.673-.064-.115-.157-.163-.252-.163-.244 0-.5.312-.303.566z"/><path fill="#f1a5ff" style="fill:var(--color35, #f1a5ff)" d="M10.612 12.529c.293-1.221.509-2.519-.151-3.682-.092-.191-.365-.743-.353-.958-.21-.389-.77-.002-.555.353h.05c.897 1.281 1.009 2.877.353 4.288h.656z"/><path fill="#f1a5ff" style="fill:var(--color35, #f1a5ff)" d="M9.553 8.242h.05c.896 1.281 1.009 2.877.353 4.288h.656c.293-1.221.509-2.519-.151-3.682-.092-.191-.365-.743-.353-.958-.063-.115-.155-.162-.25-.162-.224 0-.457.266-.305.516z"/><path style="fill:var(--color7, #000)" d="M15.101 21.659v.908H1.933c.077.284-.344.578-1.612.858 2.443 2.374 5.484 3.123 8.171 2.522.42 1.894 3.959 2.978 6.306 2.22a2.977 2.977 0 0 0-.252-1.412c3.28.558 11.286-1.959 11.703-2.169.378-.07 1.54.345 2.696.761 1.313.472 2.617.944 2.752.702.253-.454-.958-1.564-.403-2.976.203-.517.163-.979.065-1.412H15.102z"/><path fill="#373fff" style="fill:var(--color36, #373fff)" d="M11.369 18.128h.05c1.221 2.154.416 3.819-.202 5.952-.181.429.471.76.656.303.552-1.943 1.307-4.098.353-6.054l.101-.05c4.666.038 9.395.807 13.62 2.875.281.064 1.185.758 1.362.202-2.037-2.409-9.963-3.781-13.317-3.682-.146.028-.494-.017-.893-.061a9.06 9.06 0 0 0-.96-.07c-.561 0-.976.121-.77.584z"/><path fill="#f1a5ff" style="fill:var(--color35, #f1a5ff)" d="M11.369 18.128h.05c.722 1.364.916 3.03.202 4.439h.706c.37-1.431.49-2.965-.151-4.338 4.718.016 9.496.862 13.771 2.926.28.064 1.186.759 1.362.202-2.036-2.409-9.963-3.782-13.317-3.682-.146.028-.494-.017-.893-.061a9.06 9.06 0 0 0-.96-.07c-.561 0-.976.121-.77.584z"/><path fill="#373fff" style="fill:var(--color36, #373fff)" d="M9.553 18.381h.05c.98 1.333.936 2.945.303 4.389-.212.351.315.702.504.303.354-.747.598-1.591.605-2.421.02-.96-.46-1.9-.908-2.724-.249-.438-.897.107-.555.454z"/><path fill="#f1a5ff" style="fill:var(--color35, #f1a5ff)" d="M10.612 22.567c.13-.826.441-1.665.252-2.522-.025-.499-1.276-3.457-1.412-1.715h.151c.905 1.281 1.01 2.874.353 4.288l.656-.05z"/><path fill="#f1a5ff" style="fill:var(--color35, #f1a5ff)" d="M9.452 18.33h.151c.905 1.281 1.01 2.875.353 4.288l.656-.05c.13-.825.441-1.665.252-2.522-.02-.388-.778-2.259-1.18-2.259-.116 0-.201.154-.232.543z"/><path style="fill:var(--color7, #000)" d="M5.467 8.645a1.362 1.362 0 1 1 0 2.725 1.362 1.362 0 0 1 0-2.725z"/><path fill="#fff" style="fill:var(--color4, #fff)" d="M4.054 9.906a1.461 1.461 0 1 1 2.923.101 1.462 1.462 0 0 1-1.461 1.412 1.362 1.362 0 0 1-1.462-1.254v-.008a1.06 1.06 0 0 0 1.16.908 1.16 1.16 0 1 0-1.16-1.16z"/><path fill="#fff" style="fill:var(--color4, #fff)" d="M4.66 9.906a.405.405 0 1 1-.002.81.405.405 0 0 1 .002-.81z"/><path style="fill:var(--color7, #000)" d="M5.467 18.734a1.361 1.361 0 1 1 .001 2.723 1.361 1.361 0 0 1-.001-2.723z"/><path fill="#fff" style="fill:var(--color4, #fff)" d="M4.054 19.944a1.461 1.461 0 1 1 2.923.101 1.462 1.462 0 0 1-1.461 1.412 1.36 1.36 0 0 1-1.462-1.253v-.008a1.058 1.058 0 0 0 1.151.959l.01-.001a1.16 1.16 0 1 0-1.161-1.21z"/><path fill="#fff" style="fill:var(--color4, #fff)" d="M4.66 19.995a.404.404 0 1 1 0 .808.404.404 0 0 1 0-.808z"/></symbol><symbol id="icon-gmail" viewBox="0 0 32 32"><path d="M30.996 7.824v17.382a2.044 2.044 0 0 1-2.044 2.044H24.179V15.663L16 21.799l-8.179-6.136v11.588H3.049a2.044 2.044 0 0 1-2.044-2.044V7.824A3.067 3.067 0 0 1 5.92 5.376L16 12.937 26.088 5.37a3.067 3.067 0 0 1 4.907 2.454z"/></symbol><symbol id="icon-google" viewBox="0 0 32 32"><path d="m26.347 14.36-.12-.467h-9.92v4.213h5.933a5.935 5.935 0 0 1-5.814 4.454 6.946 6.946 0 0 1-4.667-1.853 6.674 6.674 0 0 1-1.987-4.706 6.852 6.852 0 0 1 1.947-4.707 6.668 6.668 0 0 1 4.64-1.827 6.063 6.063 0 0 1 4 1.547l2.933-3.013a10.506 10.506 0 0 0-7.027-2.667 10.844 10.844 0 0 0-7.693 3.133 10.867 10.867 0 0 0-.12 14.946 11.153 11.153 0 0 0 8 3.253 9.936 9.936 0 0 0 7.213-3.026 10.662 10.662 0 0 0 2.773-7.387 13.3 13.3 0 0 0-.093-1.893z"/></symbol><symbol id="icon-google-drive" viewBox="0 0 32 32"><path fill="#0066da" style="fill:var(--color37, #0066da)" d="M2.419 26.192 3.83 28.63c.293.513.715.916 1.21 1.21 1.417-1.799 2.404-3.18 2.96-4.142.564-.976 1.258-2.504 2.08-4.582-2.217-.292-3.897-.438-5.04-.438-1.097 0-2.777.146-5.04.438 0 .568.147 1.136.44 1.649l1.979 3.427z"/><path fill="#ea4335" style="fill:var(--color25, #ea4335)" d="M26.96 29.839a3.327 3.327 0 0 0 1.21-1.21l.587-1.008 2.804-4.857c.293-.513.44-1.081.44-1.649-2.276-.292-3.953-.438-5.031-.438-1.158 0-2.835.146-5.031.438.813 2.09 1.497 3.617 2.053 4.582.56.974 1.55 2.354 2.969 4.142z"/><path fill="#00832d" style="fill:var(--color38, #00832d)" d="M16 10.851c1.64-1.981 2.77-3.508 3.391-4.582.5-.865 1.049-2.245 1.649-4.142a3.225 3.225 0 0 0-1.649-.44H12.61c-.587 0-1.155.165-1.65.44.763 2.175 1.411 3.723 1.943 4.644.588 1.018 1.62 2.378 3.097 4.08z"/><path fill="#2684fc" style="fill:var(--color39, #2684fc)" d="M21.92 21.115H10.08l-5.04 8.724c.495.293 1.063.44 1.65.44h18.621c.587 0 1.155-.165 1.65-.44l-5.04-8.724z"/><path fill="#00ac47" style="fill:var(--color40, #00ac47)" d="m16 10.851-5.04-8.724a3.327 3.327 0 0 0-1.21 1.21L.44 19.465a3.322 3.322 0 0 0-.44 1.65h10.08L16 10.851z"/><path fill="#ffba00" style="fill:var(--color41, #ffba00)" d="M26.905 11.401 22.25 3.337a3.335 3.335 0 0 0-1.21-1.21L16 10.851l5.92 10.264h10.062c0-.568-.147-1.136-.44-1.65l-4.637-8.064z"/></symbol><symbol id="icon-googlefonts" viewBox="0 0 32 32"><path d="M5.333 3.733a4.8 4.8 0 1 0 0 9.6 4.8 4.8 0 1 0 0-9.6zm10.134 0v24.533h9.6a6.933 6.933 0 1 1 0-13.866 5.333 5.333 0 1 1 0-10.666zm9.6 0V14.4a5.333 5.333 0 1 0 0-10.666zm0 10.667v13.867a6.933 6.933 0 1 0 0-13.866zM14.8 4.792 0 28.265h11.733l3.067-4.853z"/></symbol><symbol id="icon-google-meet" viewBox="0 0 32 32"><path fill="#00832d" style="fill:var(--color38, #00832d)" d="m18.103 15.978 3.12 3.566 4.195 2.681.73-6.224-.73-6.084-4.276 2.355z"/><path fill="#0066da" style="fill:var(--color37, #0066da)" d="M0 21.645v5.304c0 1.211.983 2.194 2.194 2.194h5.304l1.098-4.007-1.098-3.491-3.639-1.098L0 21.645z"/><path fill="#e94235" style="fill:var(--color42, #e94235)" d="M7.498 2.813 0 10.311l3.859 1.096 3.639-1.096 1.078-3.443z"/><path fill="#2684fc" style="fill:var(--color39, #2684fc)" d="M0 21.647h7.498V10.31H0z"/><path fill="#00ac47" style="fill:var(--color40, #00ac47)" d="m30.207 5.987-4.79 3.93v12.307l4.81 3.945c.72.564 1.773.05 1.773-.865V6.835c0-.925-1.078-1.437-1.793-.848zM18.103 15.978v5.667H7.498v7.498h15.725a2.195 2.195 0 0 0 2.194-2.194v-4.724l-7.315-6.247z"/><path fill="#ffba00" style="fill:var(--color41, #ffba00)" d="M23.223 2.813H7.498v7.498h10.605v5.667l7.315-6.061v-4.91a2.195 2.195 0 0 0-2.194-2.194z"/></symbol><symbol id="icon-heroku" viewBox="0 0 32 32"><path fill="#430098" style="fill:var(--color43, #430098)" d="M27.498 0a2.874 2.874 0 0 1 2.874 2.827v26.237a2.874 2.874 0 0 1-2.827 2.874H4.502a2.874 2.874 0 0 1-2.874-2.827V2.874A2.874 2.874 0 0 1 4.455 0h23.043zm0 1.597H4.503a1.28 1.28 0 0 0-1.277 1.245v26.222c0 .693.555 1.26 1.245 1.277H27.499c.694 0 1.26-.555 1.277-1.245V2.874a1.28 1.28 0 0 0-1.277-1.278zM8.814 20.759l3.593 3.194-3.593 3.194v-6.388zm3.194-15.968v9.067c1.595-.519 3.823-1.082 5.988-1.082 1.974 0 3.156.776 3.799 1.427 1.36 1.375 1.392 3.124 1.39 3.357v9.588h-3.194v-9.537c-.016-.745-.375-1.641-1.996-1.641-3.215 0-6.817 1.601-6.924 1.649l-.002.001-2.256 1.022V4.792h3.194zm11.178 0c-.216 1.814-.951 3.553-2.395 5.19h-3.194c1.255-1.647 2.043-3.38 2.395-5.19z"/></symbol><symbol id="icon-instagram" viewBox="0 0 32 32"><path style="fill:var(--color7, #000)" d="M8 2h16a6 6 0 0 1 6 6v16a6 6 0 0 1-6 6H8a6 6 0 0 1-6-6V8a6 6 0 0 1 6-6z"/><path style="fill:var(--color7, #000)" d="M8 2h16a6 6 0 0 1 6 6v16a6 6 0 0 1-6 6H8a6 6 0 0 1-6-6V8a6 6 0 0 1 6-6z"/><path style="fill:var(--color7, #000)" d="M8 2h16a6 6 0 0 1 6 6v16a6 6 0 0 1-6 6H8a6 6 0 0 1-6-6V8a6 6 0 0 1 6-6z"/><path fill="#fff" style="fill:var(--color4, #fff)" d="M23 10.5a1.5 1.5 0 1 1-3.001-.001A1.5 1.5 0 0 1 23 10.5zM16 21a5 5 0 1 1 .001-10.001A5 5 0 0 1 16 21zm0-2a3 3 0 1 0 0-6 3 3 0 0 0 0 6z"/><path fill="#fff" style="fill:var(--color4, #fff)" d="M6 15.6v.8c0 3.36 0 5.041.654 6.324a5.997 5.997 0 0 0 2.622 2.622C10.559 26 12.24 26 15.6 26h.8c3.36 0 5.04 0 6.324-.654a5.997 5.997 0 0 0 2.622-2.622C26 21.441 26 19.76 26 16.4v-.8c0-3.36 0-5.04-.654-6.324a5.997 5.997 0 0 0-2.622-2.622C21.441 6 19.76 6 16.4 6h-.8c-3.36 0-5.04 0-6.324.654a5.997 5.997 0 0 0-2.622 2.622C6 10.559 6 12.24 6 15.6zM15.6 8h.8c1.713 0 2.878.002 3.778.075.877.072 1.325.201 1.638.361a3.996 3.996 0 0 1 1.748 1.748c.159.313.289.761.361 1.638.073.9.075 2.065.075 3.778v.8c0 1.713-.002 2.878-.075 3.778-.072.877-.201 1.325-.361 1.638a4.001 4.001 0 0 1-1.748 1.748c-.313.159-.761.289-1.638.361-.9.073-2.065.075-3.778.075h-.8c-1.713 0-2.878-.002-3.778-.075-.877-.072-1.325-.201-1.638-.361a3.996 3.996 0 0 1-1.748-1.748c-.159-.313-.289-.761-.361-1.638C8.001 19.278 8 18.113 8 16.4v-.8c0-1.713.002-2.878.075-3.778.072-.877.201-1.325.361-1.638a3.991 3.991 0 0 1 1.748-1.748c.313-.159.761-.289 1.638-.361.9-.074 2.065-.075 3.778-.075z"/></symbol><symbol id="icon-jsfiddle" viewBox="0 0 32 32"><path fill="#4679a4" style="fill:var(--color44, #4679a4)" d="M28.118 14.999c.011-.187.028-.373.028-.562 0-5.178-4.262-9.375-9.52-9.375a9.524 9.524 0 0 0-8.587 5.346A4.412 4.412 0 0 0 7.354 9.5c-2.426 0-4.392 1.936-4.392 4.324 0 .449.069.882.198 1.289-1.891 1.107-3.162 3.133-3.162 5.456 0 3.474 2.833 6.291 6.348 6.345l.075.004.026.001.026-.001h18.879c.115.006.228.017.344.017 3.48 0 6.302-2.778 6.302-6.206 0-2.584-1.603-4.796-3.882-5.731zM8.591 22.135a3.733 3.733 0 0 1-1.197-2.106 4.6 4.6 0 0 1-.079-.87c-.001-1.178.428-2.152 1.286-2.919s1.949-1.153 3.275-1.152c1.36 0 2.643.509 3.775 1.527.283.254.556.54.819.856l1.457 1.713c.252.345.523.643.802.894.748.672 1.559 1.008 2.245 1.008.583 0 1.07-.178 1.462-.536.342-.326.535-.715.578-1.167l.009-.198c0-.196-.028-.382-.084-.556a1.836 1.836 0 0 0-.512-.783c-.387-.369-.875-.552-1.466-.552-.727 0-1.445.245-2.233 1.008l-1.29-1.517-.157-.176c1.128-1.105 2.254-1.52 3.77-1.52 1.343 0 2.43.382 3.262 1.143l.019.015c.846.76 1.269 1.743 1.269 2.948 0 .298-.027.583-.079.855a3.708 3.708 0 0 1-1.194 2.087c-.625.576-1.388.937-2.289 1.08-.3.048-.616.072-.948.072-1.391-.001-2.678-.498-3.784-1.491a7.525 7.525 0 0 1-.856-.915l-1.457-1.7a5.57 5.57 0 0 0-.79-.885c-.746-.67-1.568-1.005-2.273-1.005-.219 0-.424.026-.615.077a1.902 1.902 0 0 0-.835.471 1.806 1.806 0 0 0-.586 1.343c0 .517.186.959.559 1.326l.028.027c.4.366.892.548 1.475.548.733 0 1.455-.246 2.241-1.016l1.283 1.498.142.171c-1.171 1.118-2.285 1.541-3.743 1.54-1.342 0-2.438-.381-3.287-1.141z"/></symbol><symbol id="icon-mdn" viewBox="0 0 32 32"><path d="M0 0v32h32V0zm14.085 6.625c.889-.063 1.335.088 2.12.323l.581.173.203.061.743.227c.487.132.997.14 1.487.023a2.695 2.695 0 0 1 1.987.239l-.014-.007c.545.311.912.864.983 1.487a1.76 1.76 0 0 0 .864 1.319c.716.391 1.461.717 2.229.981.543.208 1.087.441 1.625.651.267.103.503.271.685.493.148.178.244.403.262.649v.004c.033.479.091.963.115 1.445h-.003a3.63 3.63 0 0 1-.423 1.919c-.116.22-.244.428-.351.648a.823.823 0 0 1-.851.489h.004-.024a.554.554 0 0 0-.347.121l.001-.001c-.328.215-.663.427-1 .628a1.748 1.748 0 0 1-1.521.08 7.022 7.022 0 0 0-2.544-.468l-.087-.001c-.877 0-1.66.401-2.176 1.03l-.004.005a3.472 3.472 0 0 0-.5 1.002l-.007.025c-.297.733-.552 5.117-.552 6.235 0 0-4.215-.82-8.173-4.871l1.032-2.707H7.197l2.339-2.475H5.517l2.336-2.477H4.036l4.251-4.511a9.777 9.777 0 0 1 4.666-2.587l.066-.013c.424-.073.768-.119 1.064-.139z"/></symbol><symbol id="icon-mega" viewBox="0 0 32 32"><path fill="#d9272e" style="fill:var(--color45, #d9272e)" d="M32 16c0 8.837-7.163 16-16 16S0 24.837 0 16 7.163 0 16 0s16 7.163 16 16z"/><path fill="#fff" style="fill:var(--color4, #fff)" d="M16 8.003c-4.416 0-7.997 3.578-7.997 7.997s3.581 7.997 7.997 7.997a7.998 7.998 0 0 0 0-15.994zm4.15 10.825a.246.246 0 0 1-.247.247h-1.047a.246.246 0 0 1-.247-.247v-3.219c0-.028-.031-.041-.053-.022L16.344 17.8a.492.492 0 0 1-.694 0l-2.213-2.213c-.019-.019-.053-.003-.053.022v3.216a.246.246 0 0 1-.247.247h-1.044a.246.246 0 0 1-.247-.247v-5.656c0-.137.109-.247.247-.247h.716c.131 0 .256.053.35.147l2.753 2.753c.047.047.122.05.169.003l2.756-2.756a.49.49 0 0 1 .35-.147h.716c.137 0 .247.109.247.247v5.659z"/></symbol><symbol id="icon-messanger" viewBox="0 0 32 32"><path d="m17.256 19.218-3.414-3.546-6.574 3.636 7.208-7.649 3.414 3.546 6.574-3.636-7.208 7.649zm-1.39-16.551c-7.29 0-13.199 5.526-13.199 12.342 0 3.878 1.913 7.338 4.904 9.601v4.724l4.504-2.498c1.201.336 2.473.517 3.791.517 7.29 0 13.199-5.526 13.199-12.342S23.156 2.669 15.866 2.669z"/></symbol><symbol id="icon-microsoftoffice" viewBox="0 0 32 32"><path d="M25.925 25.583V6.369a.937.937 0 0 0-.202-.583l.002.002a1.03 1.03 0 0 0-.521-.348l-.007-.002-4.234-1.162q-.496-.139-.992-.287-.496-.146-.992-.27v24.593l6.218-1.783c.215-.059.396-.183.526-.348l.002-.002a.932.932 0 0 0 .201-.579v-.018.001zm1.984-19.198v19.226a2.93 2.93 0 0 1-2.135 2.82l-.021.005-8.607 2.467a2.326 2.326 0 0 1-.351.068l-.012.001a2.917 2.917 0 0 1-.365.024H16.382c-.309 0-.606-.048-.885-.137l.021.006a4.81 4.81 0 0 1-.843-.377l.023.012-5.63-3.179a1.31 1.31 0 0 1-.485-.452l-.003-.005a1.185 1.185 0 0 1-.179-.628v-.016.001-.004c0-.718.582-1.299 1.299-1.299H16.99V7.209l-5.473 1.953a2.125 2.125 0 0 0-1.065.815l-.005.007a2.217 2.217 0 0 0-.402 1.28v10.118c0 .835-.466 1.561-1.152 1.933l-.012.006-2.589 1.412a1.513 1.513 0 0 1-.713.185h-.008a1.483 1.483 0 0 1-1.483-1.483V9.208a2.908 2.908 0 0 1 .42-1.5l-.007.013a2.916 2.916 0 0 1 1.078-1.093l.014-.007 9.244-5.257c.192-.107.414-.197.647-.258l.02-.004c.214-.059.459-.093.712-.094h.023c.16 0 .316.014.468.041l-.016-.002c.181.035.334.075.483.124l-.028-.008 8.608 2.373a2.964 2.964 0 0 1 2.156 2.847v.007z"/></symbol><symbol id="icon-netflix" viewBox="0 0 32 32"><path fill="#b1060f" style="fill:var(--color46, #b1060f)" d="m18.517.094-.025 14.081-.578-1.634v-.004l-.75 15.674c.738 2.079 1.132 3.189 1.136 3.193s.423.029.93.054c1.534.075 3.436.239 4.882.419.335.042.62.063.641.046s.025-7.183.021-15.929l-.013-15.9h-6.244zM7.223.073V15.99c0 8.755.008 15.925.021 15.938s.553-.042 1.207-.113c.654-.071 1.555-.163 2.003-.201.687-.059 2.749-.189 2.984-.193.071 0 .075-.356.084-6.743l.013-6.743.499 1.408c.075.218.101.285.176.499l.75-15.67-.256-.725c-.612-1.731-1.132-3.193-1.152-3.26L13.51.07H7.224z"/><path style="fill:var(--color7, #000)" d="M7.223.073v8.935l6.295 16.696c0-.381 0-.591.004-1.027l.013-6.743.499 1.408a3882.848 3882.848 0 0 0 4.262 12.061c.004.004.423.029.93.054 1.534.075 3.436.239 4.882.419.335.042.62.063.641.046.013-.013.021-3.524.021-8.482L18.509 5.428l-.004 1.706-.013 7.041-.578-1.634-3.219-9.094c-.612-1.731-1.132-3.193-1.152-3.26L13.501.07 7.223.074z"/><path fill="#e50914" style="fill:var(--color47, #e50914)" d="m7.223.073 6.307 17.874v-.008l.499 1.408c2.77 7.841 4.258 12.049 4.266 12.057.004.004.423.029.93.054 1.534.075 3.436.239 4.882.419.331.042.62.063.637.046l-6.253-17.748-.578-1.634-3.219-9.094c-.612-1.731-1.132-3.193-1.152-3.26L13.5.07 7.222.074z"/></symbol><symbol id="icon-netlify" viewBox="0 0 32 32"><path d="m22.871 11.308-.011-.005a.046.046 0 0 1-.018-.01.087.087 0 0 1-.024-.06l.001-.015v.001l.618-3.781 2.9 2.901-3.016 1.283a.066.066 0 0 1-.025.005h-.014c-.004-.002-.008-.006-.016-.014a1.383 1.383 0 0 0-.388-.301l-.008-.004zm4.207-.23 3.101 3.101c.644.645.966.966 1.084 1.339.018.055.032.11.043.167l-7.41-3.138-.008-.003-.004-.001c-.03-.012-.064-.026-.064-.056s.035-.045.065-.057l.01-.004 3.184-1.347zm4.101 5.602c-.16.301-.472.613-1 1.142l-3.496 3.495-4.546-.946c-.04-.006-.082-.014-.082-.05a1.367 1.367 0 0 0-.521-.952l-.003-.002c-.018-.018-.014-.047-.008-.074 0-.004 0-.008.002-.011l.85-5.221.003-.018c.005-.04.012-.086.048-.086.38-.049.707-.245.926-.529l.002-.003c.007-.008.012-.017.022-.022.026-.012.056 0 .082.011l7.72 3.266zm-5.3 5.441L20.13 27.87l.984-6.048.002-.008a.086.086 0 0 1 .005-.023c.008-.019.029-.027.049-.035l.01-.004c.221-.096.408-.236.554-.411l.002-.002c.019-.022.042-.044.072-.048l.012-.001.012.001 4.048.832zm-6.965 6.965-.648.648-7.164-10.354-.009-.012.001.001c-.011-.015-.023-.03-.021-.048.001-.013.009-.024.018-.034l.008-.01c.022-.032.04-.064.06-.098l.016-.028.002-.002c.011-.019.022-.038.041-.048.017-.008.04-.005.058-.001l7.937 1.637a.13.13 0 0 1 .061.027c.01.01.013.022.015.034.116.429.419.77.813.937l.009.003c.022.011.013.036.002.062a.16.16 0 0 0-.012.035v.001c-.1.608-.958 5.838-1.188 7.25zm-1.354 1.353c-.478.473-.759.723-1.078.824a1.587 1.587 0 0 1-.976-.004l.011.003c-.373-.118-.695-.44-1.339-1.085l-7.194-7.194 1.879-2.914a.144.144 0 0 1 .032-.038c.02-.014.049-.008.073 0a1.948 1.948 0 0 0 1.323-.071l-.013.005c.022-.008.043-.014.06.002.008.008.016.016.022.025l7.199 10.447zM6.29 22.29l-1.65-1.65 3.259-1.39a.076.076 0 0 1 .026-.006c.027 0 .043.027.058.052.038.058.072.106.108.153l-.004-.005.01.013c.01.014.003.027-.006.04l-1.8 2.794zm-2.38-2.38-2.088-2.088c-.355-.355-.613-.613-.792-.834l6.349 1.317.02.004h.004c.039.006.082.014.082.05 0 .04-.047.058-.087.074l-.018.008-3.47 1.47zM.665 15.914c.008-.144.034-.279.075-.407l-.003.011c.118-.373.44-.694 1.085-1.339l2.672-2.672c4.967 7.439 6.185 9.181 7.405 10.921l-3.704-5.571c.022.029.046.061.021.085-.117.129-.234.27-.316.422a.12.12 0 0 1-.04.049c-.01.006-.022.004-.034.002h-.002L.665 15.913zm4.544-5.123 3.593-3.593c.338.148 1.566.667 2.666 1.131.832.352 1.59.672 1.829.776.024.01.046.019.056.043.006.014.003.033 0 .048a1.594 1.594 0 0 0 .419 1.462c.024.024 0 .058-.021.088l-.011.017-3.648 5.65c-.01.016-.018.03-.034.04-.019.012-.046.006-.069.001a1.776 1.776 0 0 0-.433-.059h-.001c-.131 0-.274.024-.418.05h-.001c-.016.002-.03.006-.043-.004a.195.195 0 0 1-.036-.04V16.4l-3.846-5.61zm4.318-4.318 4.651-4.651c.644-.644.966-.966 1.339-1.084a1.587 1.587 0 0 1 .976.004l-.011-.003c.373.118.695.44 1.339 1.084l1.008 1.008-3.308 5.123a.11.11 0 0 1-.033.038c-.02.014-.048.008-.072 0a1.672 1.672 0 0 0-1.539.299l.003-.002c-.022.022-.054.01-.081-.002-.432-.188-3.792-1.608-4.273-1.812zm10.005-2.941 3.054 3.054-.736 4.558v.012a.108.108 0 0 1-.007.031v-.001c-.008.016-.024.019-.04.024a1.478 1.478 0 0 0-.442.221l.004-.003-.016.014c-.009.01-.018.018-.032.02h-.003a.087.087 0 0 1-.032-.006h.001L16.62 9.474c-.03-.012-.065-.026-.065-.057a1.765 1.765 0 0 0-.252-.74l.004.008c-.022-.037-.047-.075-.028-.113l3.253-5.042zm-3.146 6.885 4.363 1.848c.024.011.05.022.061.046a.085.085 0 0 1 0 .046v-.001a1.07 1.07 0 0 0-.024.21v.122c0 .03-.031.043-.06.055l-.009.003c-.691.295-9.704 4.138-9.718 4.138s-.028 0-.042-.014c-.024-.024 0-.058.022-.088l.01-.014 3.593-5.564c.021-.034.045-.071.083-.071l.036.006c.082.011.154.022.226.022a1.62 1.62 0 0 0 1.352-.718.17.17 0 0 1 .027-.032c.022-.016.054-.008.078.003zm-4.996 7.348 9.824-4.19s.014 0 .028.014c.054.054.099.09.143.123l.022.014c.02.011.04.024.042.045 0 .008 0 .013-.002.02l-.842 5.17-.003.021c-.006.04-.011.086-.049.086a1.388 1.388 0 0 0-1.095.671l-.003.006-.004.006c-.011.018-.022.036-.04.046-.017.008-.038.005-.056.001l-7.834-1.616c-.008-.002-.122-.415-.13-.416z"/></symbol><symbol id="icon-notion" viewBox="0 0 32 32"><path fill="#fff" style="fill:var(--color4, #fff)" d="m5.716 29.218-3.439-4.285A5.751 5.751 0 0 1 1 21.33V5.815c0-1.954 1.564-3.576 3.581-3.714l15.951-1.089a5.199 5.199 0 0 1 3.263.873l5.604 3.789A3.59 3.59 0 0 1 31 8.644v17.639c0 1.913-1.537 3.496-3.512 3.618l-17.704 1.09c-1.576.097-3.099-.567-4.067-1.773z"/><path style="fill:var(--color7, #000)" d="M11.248 13.579v-.203c0-.515.412-.942.944-.977l3.871-.258 5.354 7.884v-6.919l-1.378-.184v-.096c0-.521.422-.951.96-.978l3.523-.18v.507a.494.494 0 0 1-.419.482l-.848.143v11.206l-1.064.366c-.889.306-1.878-.021-2.387-.789l-5.197-7.843v7.486l1.6.306-.022.148c-.07.465-.471.816-.957.838l-3.979.177c-.053-.5.322-.947.839-1.001l.523-.055v-9.981l-1.362-.076z"/><path style="fill:var(--color7, #000)" d="M20.675 2.967 4.724 4.056c-.955.065-1.696.833-1.696 1.759V21.33c0 .87.299 1.715.851 2.402l3.439 4.285a2.776 2.776 0 0 0 2.337 1.018l17.704-1.09c.907-.056 1.614-.784 1.614-1.662V8.644c0-.544-.274-1.053-.736-1.365L22.633 3.49a3.117 3.117 0 0 0-1.958-.523zM5.514 6.057c-.222-.164-.116-.506.162-.526l15.105-1.083c.481-.035.959.098 1.349.374l3.031 2.147c.115.082.061.258-.081.265l-15.996.87a2.079 2.079 0 0 1-1.347-.401L5.514 6.057zm2.82 4.774c0-.52.42-.949.957-.978l16.913-.921c.523-.028.964.374.964.88v15.273c0 .519-.418.948-.954.978l-16.806.956c-.582.033-1.073-.414-1.073-.978V10.83z"/></symbol><symbol id="icon-pinterest" viewBox="0 0 32 32"><path fill="#cc2127" style="fill:var(--color48, #cc2127)" d="M16.001 0C7.165 0 0 7.163 0 16.001c0 6.55 3.94 12.179 9.579 14.654-.045-1.116-.008-2.459.277-3.675.309-1.298 2.058-8.717 2.058-8.717s-.51-1.022-.51-2.533c0-2.371 1.375-4.141 3.086-4.141 1.454 0 2.158 1.093 2.158 2.403 0 1.462-.933 3.65-1.413 5.677-.401 1.699.85 3.082 2.525 3.082 3.031 0 5.073-3.893 5.073-8.507 0-3.505-2.361-6.13-6.657-6.13-4.853 0-7.876 3.618-7.876 7.66 0 1.396.41 2.378 1.054 3.138.297.352.337.491.23.894-.075.292-.252 1.003-.325 1.283-.107.405-.435.551-.8.401-2.237-.913-3.278-3.36-3.278-6.113 0-4.544 3.833-9.997 11.434-9.997 6.109 0 10.13 4.424 10.13 9.167 0 6.277-3.488 10.966-8.635 10.966-1.725 0-3.351-.933-3.908-1.993 0 0-.93 3.686-1.125 4.397-.339 1.232-1.003 2.467-1.611 3.426 1.439.425 2.96.657 4.535.657C24.837 32 32 24.837 32 16.001 32 7.163 24.837 0 16.001 0z"/></symbol><symbol id="icon-proton-calendar" viewBox="0 0 32 32"><path d="M26.407 7c.512 0 .927.415.927.927v16.147a.927.927 0 0 1-.927.927H5.594a.927.927 0 0 1-.927-.927V7.927c0-.512.415-.927.927-.927h20.813zm0-2H5.594a2.927 2.927 0 0 0-2.927 2.927v16.147a2.927 2.927 0 0 0 2.927 2.927h20.813a2.927 2.927 0 0 0 2.927-2.927V7.927A2.927 2.927 0 0 0 26.407 5z"/><path d="M21.667 10.333v5a6.046 6.046 0 0 0-2.946 1.891l-.007.009-4.532 5.287a6.035 6.035 0 0 0-1.273 2.438L12.9 25H5.76a.927.927 0 0 1-.927-.927v-13.74h16.833zm.111-2H2.833v15.74A2.927 2.927 0 0 0 5.76 27h8.907l.065-.833a4.063 4.063 0 0 1 .974-2.339l-.004.005 4.53-5.285a3.944 3.944 0 0 1 2.285-1.346l.025-.004.217-.03a1 1 0 0 0 .908-.996V10.221a1.888 1.888 0 0 0-1.888-1.888z"/><path fill="none" stroke="#000" stroke-width=".48" stroke-linecap="round" stroke-linejoin="round" style="stroke:var(--color7, #000)" d="m22.833 20 1.333-.667v3.833"/></symbol><symbol id="icon-proton-mail" viewBox="0 0 32 32"><path d="M6.4 22.2c1.6-1.6 3.7-2.5 6.1-2.5l1.9.1h3.1c2.1 0 4.1-.8 5.6-2.3s2.3-3.5 2.3-5.6c0-2.1-.8-4.1-2.3-5.6S19.6 4 17.5 4H6.4v8h4.3V8.3h6.4c.9 0 1.9.4 2.6 1.1s1.1 1.7 1.1 2.6c0 .9-.4 1.9-1.1 2.6s-1.6 1.1-2.6 1.1h-4.6c-.8 0-1.6.2-2.3.5-.8.3-1.4.7-2 1.3-.5.6-1 1.3-1.3 2s-.5 1.5-.5 2.3v.4zm4.4.2c-.3 0-.5.1-.8.2-2.1.9-3.6 3-3.6 5.4h4.4v-5.6z"/></symbol><symbol id="icon-reddit" viewBox="0 0 32 32"><path fill="#fc471e" style="fill:var(--color49, #fc471e)" d="M16 2C8.278 2 2 8.278 2 16s6.278 14 14 14 14-6.278 14-14S23.722 2 16 2z"/><path fill="#fff" style="fill:var(--color4, #fff)" d="m20.019 8.909-2.655-.668-1.099 4.501c2.075.047 3.951.651 5.335 1.606a1.971 1.971 0 0 1 1.4-.586c1.105 0 2 .917 2 2.047 0 .787-.434 1.47-1.07 1.813.046.244.07.493.07.746 0 3.11-3.582 5.63-8 5.63s-8-2.521-8-5.63c0-.253.024-.502.07-.746A2.054 2.054 0 0 1 7 15.809c0-1.131.895-2.047 2-2.047.545 0 1.04.223 1.4.586 1.271-.877 2.955-1.457 4.828-1.583L16.636 7l3.895.984c.261-.226.599-.363.968-.363.828 0 1.5.688 1.5 1.536s-.672 1.536-1.5 1.536-1.5-.688-1.5-1.536c0-.084.007-.166.019-.247zM12.5 18.881c.828 0 1.5-.688 1.5-1.536s-.672-1.536-1.5-1.536-1.5.688-1.5 1.536.672 1.536 1.5 1.536zm7 0c.828 0 1.5-.688 1.5-1.536s-.672-1.536-1.5-1.536-1.5.688-1.5 1.536.672 1.536 1.5 1.536zm-6.723 1.622c-.23-.157-.54-.093-.693.142s-.091.553.139.71c1.088.742 2.433 1.114 3.777 1.114s2.689-.371 3.777-1.114c.23-.157.292-.475.139-.71s-.464-.299-.693-.142c-.92.628-2.071.942-3.223.942-.683 0-1.366-.11-2-.331a5.22 5.22 0 0 1-1.223-.611z"/></symbol><symbol id="icon-sketch" viewBox="0 0 32 32"><path fill="#fdb300" style="fill:var(--color50, #fdb300)" d="M8.109 4.79 16 4l7.891.79L30 12.558 16 28 2 12.558 8.109 4.79z"/><path fill="#ea6c00" style="fill:var(--color51, #ea6c00)" d="M7.671 12.558 16 28 2 12.558h5.671zm16.658 0L16 28l14-15.442z"/><path fill="#fdad00" style="fill:var(--color52, #fdad00)" d="M7.671 12.558h16.658L16 28z"/><path fill="#fdd231" style="fill:var(--color53, #fdd231)" d="m16 4-7.891.79-.438 7.768L16 4zm0 0 7.891.79.438 7.768z"/><path fill="#fdad00" style="fill:var(--color52, #fdad00)" d="M30 12.558 23.891 4.79l.438 7.768H30zm-28 0L8.109 4.79l-.438 7.768z"/><path fill="#feeeb7" style="fill:var(--color54, #feeeb7)" d="m16 4-8.329 8.558H24.33z"/></symbol><symbol id="icon-slack" viewBox="0 0 32 32"><path fill="#2eb67d" style="fill:var(--color55, #2eb67d)" d="M26.5 15a2.5 2.5 0 1 0-2.5-2.5V15h2.5zm-7 0a2.5 2.5 0 0 0 2.5-2.5v-7a2.5 2.5 0 1 0-5 0v7a2.5 2.5 0 0 0 2.5 2.5z"/><path fill="#e01e5a" style="fill:var(--color56, #e01e5a)" d="M5.5 17A2.5 2.5 0 1 0 8 19.5V17H5.5zm7 0a2.5 2.5 0 0 0-2.5 2.5v7a2.5 2.5 0 1 0 5 0v-7a2.5 2.5 0 0 0-2.5-2.5z"/><path fill="#ecb22e" style="fill:var(--color57, #ecb22e)" d="M17 26.5a2.5 2.5 0 1 0 2.5-2.5H17v2.5zm0-7a2.5 2.5 0 0 0 2.5 2.5h7a2.5 2.5 0 1 0 0-5h-7a2.5 2.5 0 0 0-2.5 2.5z"/><path fill="#36c5f0" style="fill:var(--color58, #36c5f0)" d="M15 5.5A2.5 2.5 0 1 0 12.5 8H15V5.5zm0 7a2.5 2.5 0 0 0-2.5-2.5h-7a2.5 2.5 0 1 0 0 5h7a2.5 2.5 0 0 0 2.5-2.5z"/></symbol><symbol id="icon-soundcloud" viewBox="0 0 32 32"><path fill="#f66e10" style="fill:var(--color59, #f66e10)" d="M27.636 15.569c-.553 0-1.082.113-1.563.316-.322-3.671-3.375-6.552-7.1-6.552-.912 0-1.8.181-2.585.487-.305.119-.386.241-.389.479V23.23a.49.49 0 0 0 .436.481l11.2.007c2.232 0 4.04-1.824 4.04-4.075s-1.809-4.074-4.04-4.074zM13.648 24a.357.357 0 0 0 .352-.361V10.361a.357.357 0 0 0-.352-.361h-1.296a.357.357 0 0 0-.352.361v13.278c0 .198.158.361.352.361h1.296zm-12-2.004A.357.357 0 0 0 2 21.637v-3.282a.357.357 0 0 0-.352-.359H.352a.357.357 0 0 0-.352.359v3.282c0 .197.158.359.352.359h1.296zm8 2.004a.348.348 0 0 0 .352-.342V15.01a.348.348 0 0 0-.352-.342H8.352A.348.348 0 0 0 8 15.01v8.648c0 .188.158.342.352.342h1.296zm-4 0c.194 0 .352-.15.352-.334v-6.665a.344.344 0 0 0-.352-.334H4.352a.344.344 0 0 0-.352.334v6.665c0 .184.158.334.352.334h1.296z"/></symbol><symbol id="icon-spotify" viewBox="0 0 32 32"><path fill="#00da5a" style="fill:var(--color60, #00da5a)" d="M25.44 14.24c-5.12-3.04-13.68-3.36-18.56-1.84-.8.24-1.6-.24-1.84-.96-.24-.8.24-1.6.96-1.84 5.68-1.68 15.04-1.36 20.96 2.16.72.4.96 1.36.56 2.08-.4.56-1.36.8-2.08.4zm-.16 4.48c-.4.56-1.12.8-1.68.4-4.32-2.64-10.88-3.44-15.92-1.84-.64.16-1.36-.16-1.52-.8s.16-1.36.8-1.52c5.84-1.76 13.04-.88 18 2.16.48.24.72 1.04.32 1.6zm-1.92 4.4c-.32.48-.88.64-1.36.32-3.76-2.32-8.48-2.8-14.08-1.52-.56.16-1.04-.24-1.2-.72-.16-.56.24-1.04.72-1.2 6.08-1.36 11.36-.8 15.52 1.76.56.24.64.88.4 1.36zM16 0C7.2 0 0 7.2 0 16s7.2 16 16 16 16-7.2 16-16S24.88 0 16 0z"/></symbol><symbol id="icon-stackoverflow" viewBox="0 0 32 32"><path fill="#ff810f" style="fill:var(--color61, #ff810f)" d="m20.057 27.728-.002-2.699-12.74.007.001 2.698 12.741-.006zm8.61-15.281-2.682.461L23.806.461 26.487 0l2.18 12.447zm-8.303 9.123-.25 2.686-12.687-1.158.25-2.687 12.687 1.159zm.837-3.521-.706 2.606-12.304-3.28.707-2.605 12.303 3.279zm1.606-3.087-1.383 2.324-10.974-6.418 1.383-2.323 10.974 6.418zm2.691-1.889-2.248 1.52-7.179-10.438 2.248-1.52 7.178 10.438z"/><path fill="#bebcbc" style="fill:var(--color62, #bebcbc)" d="M22.221 18.852v11.031H5.51V18.852H3.333V32h21.053V18.852z"/></symbol><symbol id="icon-steam" viewBox="0 0 32 32"><path style="fill:var(--color7, #000)" d="M2.57 20.027C4.301 25.797 9.655 30 15.991 30 23.728 30 30 23.732 30 16S23.728 2 15.991 2C8.567 2 2.492 7.772 2.012 15.07c0 2.097 0 2.972.558 4.957z"/><path fill="#fff" style="fill:var(--color4, #fff)" d="m15.271 12.563-3.428 4.977a3.888 3.888 0 0 0-2.297.636l-7.527-3.097s-.174 2.864.552 4.998l5.321 2.194a3.88 3.88 0 0 0 7.374.652 3.889 3.889 0 0 0 .299-1.599l5.025-3.501c2.935 0 5.321-2.391 5.321-5.328s-2.386-5.326-5.321-5.326c-2.835 0-5.479 2.474-5.32 5.395zm-.824 10.015a3 3 0 0 1-3.92 1.616 2.979 2.979 0 0 1-1.543-1.471l1.732.717a2.208 2.208 0 0 0 1.698-4.078l-1.791-.741a2.981 2.981 0 0 1 2.21.034c.74.308 1.314.887 1.618 1.627s.303 1.557-.005 2.295zm6.143-6.535a3.552 3.552 0 0 1-3.545-3.55 3.552 3.552 0 0 1 3.545-3.549 3.552 3.552 0 0 1 3.546 3.549 3.553 3.553 0 0 1-3.546 3.55zm-2.656-3.555a2.666 2.666 0 0 1 2.662-2.667c1.471 0 2.663 1.194 2.663 2.667s-1.193 2.666-2.663 2.666a2.664 2.664 0 0 1-2.662-2.666z"/></symbol><symbol id="icon-telegram" viewBox="0 0 32 32"><path d="M16 5.333a10.666 10.666 0 1 0 0 21.33 10.666 10.666 0 0 0 0-21.329zm5.24 7.307-1.747 8.253c-.133.587-.48.72-.973.453l-2.667-1.973-1.333 1.24a.675.675 0 0 1-.533.267l.187-2.667 4.933-4.467c.227-.187 0-.293-.32-.107l-6.053 3.8-2.667-.827c-.573-.173-.587-.573.12-.84l10.28-4c.507-.147.933.147.773.867z"/></symbol><symbol id="icon-twitch" viewBox="0 0 32 32"><path fill="#fff" style="fill:var(--color4, #fff)" d="M8 21.333v-16h18v12l-4 4h-6l-4 4v-4z"/><path fill="#8e24aa" style="fill:var(--color63, #8e24aa)" d="M6 3.333 4 8.082v17.251h6v3.333h3.333l3.333-3.333h4.667L28 18.666V3.333H6zm19.333 14L22 20.666h-6l-3.333 3.333v-3.333h-4V5.999h16.667v11.333z"/><path fill="#8e24aa" style="fill:var(--color63, #8e24aa)" d="M21.333 16.667H18V10h3.333v6.667zm-5.333 0h-3.333V10H16v6.667z"/></symbol><symbol id="icon-twitter" viewBox="0 0 32 32"><path fill="#00aaec" style="fill:var(--color64, #00aaec)" d="M32 5.824a12.816 12.816 0 0 1-3.77 1.059 6.715 6.715 0 0 0 2.887-3.723 12.932 12.932 0 0 1-4.172 1.631 6.474 6.474 0 0 0-4.791-2.124c-3.623 0-6.563 3.014-6.563 6.732 0 .528.056 1.04.169 1.533-5.456-.281-10.293-2.958-13.533-7.036a6.858 6.858 0 0 0-.888 3.388 6.777 6.777 0 0 0 2.921 5.603 6.445 6.445 0 0 1-2.975-.84v.083c0 3.263 2.263 5.984 5.269 6.601a6.258 6.258 0 0 1-1.73.237c-.423 0-.836-.04-1.236-.119.836 2.673 3.259 4.621 6.133 4.673a12.96 12.96 0 0 1-8.154 2.883c-.53 0-1.054-.031-1.566-.092a18.279 18.279 0 0 0 10.064 3.022c12.077 0 18.679-10.256 18.679-19.153 0-.293-.006-.586-.017-.873a13.479 13.479 0 0 0 3.274-3.484z"/></symbol><symbol id="icon-unsplash" viewBox="0 0 32 32"><path d="M11.333 14.667v6.667h9.333v-6.667h7.333V28h-24V14.667h7.333zM20.667 4v6.667h-9.333V4h9.333z"/></symbol><symbol id="icon-vercel" viewBox="0 0 32 32"><path d="m16 1.333 16 28H0l16-28z"/></symbol><symbol id="icon-vk" viewBox="0 0 32 32"><path d="M25.217 22.402h-2.179c-.825 0-1.08-.656-2.562-2.158-1.291-1.25-1.862-1.418-2.179-1.418-.445 0-.572.127-.572.741v1.968c0 .53-.169.847-1.566.847a8.5 8.5 0 0 1-6.646-3.966l-.021-.035a17.46 17.46 0 0 1-3.43-7.142l-.022-.117c0-.317.127-.614.741-.614H8.96c.55 0 .762.254.975.846 1.078 3.112 2.878 5.842 3.619 5.842.275 0 .402-.127.402-.825v-3.219c-.085-1.482-.868-1.608-.868-2.137a.526.526 0 0 1 .551-.508h3.428c.466 0 .635.254.635.804v4.34c0 .465.212.635.339.635.275 0 .509-.17 1.016-.677a18.454 18.454 0 0 0 2.642-4.346l.046-.12a.969.969 0 0 1 .9-.615l.056.002h2.176c.656 0 .805.337.656.804a27.487 27.487 0 0 1-2.994 5.111l.052-.074c-.232.381-.317.55 0 .975.232.317.995.973 1.503 1.566a9.456 9.456 0 0 1 1.816 2.507l.025.055c.212.612-.106.93-.72.93zM20.604 1.004h-9.207c-8.403 0-10.392 1.989-10.392 10.392v9.207c0 8.403 1.989 10.392 10.392 10.392h9.207c8.403 0 10.392-1.989 10.392-10.392v-9.207c0-8.403-2.011-10.392-10.392-10.392z"/></symbol><symbol id="icon-vscode" viewBox="0 0 32 32"><path fill="#0065a9" style="fill:var(--color65, #0065a9)" d="m29.01 5.03-5.766-2.776a1.734 1.734 0 0 0-1.989.338L2.38 19.8a1.165 1.165 0 0 0-.079 1.647l-.001-.001c.025.027.05.053.077.077l1.541 1.4a1.164 1.164 0 0 0 1.492.064l-.003.002 22.735-17.24A1.158 1.158 0 0 1 30 6.67v-.067c0-.69-.399-1.286-.98-1.57l-.01-.005z"/><path fill="#007acc" style="fill:var(--color66, #007acc)" d="m29.01 26.97-5.766 2.777a1.742 1.742 0 0 1-1.989-.338L2.38 12.2a1.165 1.165 0 0 1-.079-1.648l-.001.001c.025-.027.05-.053.077-.077l1.541-1.4c.206-.189.482-.305.786-.305.267 0 .513.09.709.241L5.41 9.01l22.732 17.24A1.158 1.158 0 0 0 30 25.329v.072a1.746 1.746 0 0 1-.98 1.565l-.01.005z"/><path fill="#1f9cf0" style="fill:var(--color67, #1f9cf0)" d="M23.244 29.747a1.742 1.742 0 0 1-1.989-.338A1.025 1.025 0 0 0 23 28.684V3.315a1.023 1.023 0 0 0-1.749-.723 1.739 1.739 0 0 1 2-.334l-.01-.005 5.765 2.772c.593.288.994.884.995 1.575v18.8c0 .69-.4 1.287-.981 1.571l-.01.005z"/></symbol><symbol id="icon-wikipedia" viewBox="0 0 32 32"><path d="m20.749 25.971-4.093-9.651q-.344.68-2.203 4.243t-2.757 5.409a1.996 1.996 0 0 1-.39.005h.007l-.083.001c-.1 0-.2-.008-.296-.024l.011.001q-1.139-2.68-3.549-8.152T3.791 9.524a6.58 6.58 0 0 0-.932-1.504l.009.011a7.672 7.672 0 0 0-1.417-1.38l-.02-.015A2.49 2.49 0 0 0 .024 6.04l-.009-.001q0-.069-.007-.333T.001 5.33h8.097v.695a3.975 3.975 0 0 0-1.128.231l.028-.009a2.181 2.181 0 0 0-.923.596l-.001.001a.752.752 0 0 0-.136.892l-.003-.004q.361.819 3.007 6.933t3.271 7.501q.427-.847 1.944-3.701t1.819-3.437q-.264-.541-1.751-3.901T12.337 7.03q-.528-.96-2.792-.987v-.697l7.124.013v.653h-.053c-.46 0-.889.128-1.256.351l.011-.007q-.465.32-.173.96.459.973 1.208 2.632t1.193 2.604q1.528-2.972 2.403-5.041.333-.764-.137-1.101a3.371 3.371 0 0 0-1.8-.368h.011c.009-.087.015-.187.015-.288v-.06.003-.333q.888 0 2.368-.007l3.779-.02v.68a3.647 3.647 0 0 0-1.671.468l.019-.009a3.467 3.467 0 0 0-1.241 1.104l-.008.012-2.959 6.139q.18.459 1.771 4.028t1.688 3.805L27.962 7.44a1.808 1.808 0 0 0-.681-.864l-.007-.004a2.718 2.718 0 0 0-.884-.432l-.02-.005a3.91 3.91 0 0 0-.763-.107h-.008v-.699l6.389.056.013.028-.013.611a3.002 3.002 0 0 0-2.785 1.993l-.007.021q-7.309 16.888-7.765 17.929z"/></symbol><symbol id="icon-youtube" viewBox="0 0 32 32"><path d="M27.162 8.38c1.134 1.176 1.282 3.046 1.282 7.62s-.148 6.443-1.282 7.62c-1.134 1.176-2.315 1.269-11.162 1.269S5.972 24.796 4.838 23.62C3.704 22.444 3.556 20.574 3.556 16s.148-6.443 1.282-7.62S7.153 7.111 16 7.111s10.028.093 11.162 1.269zM13.984 19.767l6.046-3.575-6.046-3.519v7.094z"/></symbol><symbol id="icon-zoom" viewBox="0 0 32 32"><path stroke-width=".48" stroke-linecap="round" stroke-linejoin="round" d="M2.812 10.162v8.972c.008 2.029 1.812 3.661 4.012 3.654h14.234c.403 0 .731-.299.731-.663v-8.972c-.011-2.027-1.814-3.661-4.012-3.653H3.54c-.402 0-.728.298-.728.662zm19.882 3.501 5.878-3.944c.51-.389.905-.291.905.411v12.028c0 .8-.483.703-.905.411l-5.878-3.936v-4.97z"/></symbol><symbol id="icon-zoom-2" viewBox="0 0 32 32"><path d="M19.283 17.4a2.023 2.023 0 1 1 .505-1.961l.003.014a2.017 2.017 0 0 1-.508 1.947zm-3.812-3.814a3.37 3.37 0 1 0 3.244-.795l-.024-.006a3.36 3.36 0 0 0-3.222.802l.002-.001zm12.825-.985a2.691 2.691 0 0 0-2.016.909l-.002.003a2.69 2.69 0 0 0-3.542-.447l.009-.006a1.857 1.857 0 0 0-1.184-.462h-.002v6.742l.337-.016a1.02 1.02 0 0 0 .995-.993v-.001l.016-.337v-2.361l.017-.337v-.003c0-.245.061-.477.169-.679l-.004.008a1.35 1.35 0 0 1 2.328-.008l.003.006c.103.196.164.428.165.675l.017.339v2.361l.016.336c.022.54.454.972.991.995h.002l.337.016v-3.708l.015-.337v-.003c0-.247.062-.48.171-.683l-.004.008a1.35 1.35 0 0 1 2.329-.003l.003.006c.102.195.162.427.162.673v.002l.019.337v2.361l.016.336c.02.541.454.975.993.995h.002l.337.016v-4.045a2.696 2.696 0 0 0-2.697-2.694h-.003zM12.206 17.4a2.023 2.023 0 1 1 .47-1.943l.004.014a2.02 2.02 0 0 1-.474 1.93l.001-.001zm-1.426-4.8h-.005a3.369 3.369 0 1 0-.003 6.737 3.369 3.369 0 0 0 .006-6.737zm-4.046 5.408-.337-.015H3.362l4.044-4.045-.016-.337a1.02 1.02 0 0 0-.994-.995h-.001l-.337-.016H1.006l.018.337c.026.538.455.967.99.995h.002l.337.016H5.39l-4.049 4.045.017.336c.019.541.453.975.992.995h.002l.337.016h5.056l-.018-.337a1.04 1.04 0 0 0-.991-.993h-.002z"/></symbol></defs></svg>