<!-- Generated by IcoMoon.io -->
<svg version="1.1" xmlns="http://www.w3.org/2000/svg" width="32" height="32" viewBox="0 0 32 32">
<title>abstractfonts</title>
<path fill="#000" d="M5.333 2.667h21.333c1.473 0 2.667 1.194 2.667 2.667v21.333c0 1.473-1.194 2.667-2.667 2.667h-21.333c-1.473 0-2.667-1.194-2.667-2.667v-21.333c0-1.473 1.194-2.667 2.667-2.667z"></path>
<path fill="#2ca9bc" d="M22.587 22.227l-4.667-13.333c-0.187-0.523-0.677-0.891-1.253-0.893h-1.334c-0.577 0.002-1.067 0.37-1.25 0.884l-0.003 0.009-4.667 13.333c-0.027 0.099-0.042 0.213-0.042 0.331 0 0.736 0.597 1.333 1.333 1.333 0.537 0 1.001-0.318 1.212-0.776l0.003-0.008 1.093-3.107h5.973l1.093 3.107c0.187 0.523 0.677 0.891 1.253 0.893h0c0.158-0.002 0.309-0.031 0.449-0.083l-0.009 0.003c0.521-0.189 0.887-0.68 0.887-1.256 0-0.157-0.027-0.307-0.076-0.446l0.003 0.009zM13.947 17.333l2.053-5.867 2.053 5.867z"></path>
</svg>
