<!-- Generated by IcoMoon.io -->
<svg version="1.1" xmlns="http://www.w3.org/2000/svg" width="32" height="32" viewBox="0 0 32 32">
<title>aws</title>
<path fill="#252f3e" d="M9.020 15.374c0 0.394 0.040 0.714 0.116 0.95 0.084 0.234 0.192 0.49 0.34 0.768 0.045 0.070 0.073 0.154 0.074 0.246v0c0 0.106-0.064 0.214-0.2 0.32l-0.672 0.448c-0.077 0.056-0.172 0.091-0.275 0.096h-0.001c-0.108 0-0.214-0.052-0.32-0.148-0.139-0.149-0.265-0.313-0.376-0.488l-0.008-0.014c-0.097-0.162-0.207-0.369-0.309-0.58l-0.021-0.050c-0.83 0.982-1.872 1.474-3.128 1.474-0.894 0-1.608-0.258-2.128-0.77-0.522-0.512-0.788-1.196-0.788-2.050 0-0.908 0.32-1.644 0.968-2.2 0.65-0.556 1.512-0.832 2.608-0.832 0.36 0 0.734 0.032 1.128 0.084 0.394 0.054 0.8 0.14 1.224 0.236v-0.78c0-0.812-0.17-1.378-0.5-1.708-0.34-0.332-0.916-0.492-1.736-0.492-0.372 0-0.754 0.044-1.148 0.14-0.452 0.108-0.836 0.233-1.207 0.382l0.057-0.020c-0.1 0.047-0.224 0.095-0.35 0.134l-0.022 0.006c-0.050 0.017-0.108 0.029-0.168 0.032h-0.002c-0.15 0-0.224-0.108-0.224-0.332v-0.524c0-0.17 0.020-0.3 0.074-0.372 0.080-0.097 0.18-0.173 0.295-0.224l0.005-0.002c0.37-0.192 0.818-0.352 1.34-0.48 0.52-0.14 1.074-0.202 1.66-0.202 1.266 0 2.192 0.288 2.788 0.864 0.586 0.576 0.884 1.452 0.884 2.628v3.46h0.020zM4.698 16.996c0.35 0 0.712-0.064 1.096-0.192 0.382-0.128 0.724-0.364 1.010-0.684 0.166-0.189 0.291-0.418 0.359-0.67l0.003-0.012c0.064-0.258 0.108-0.566 0.108-0.93v-0.448c-0.264-0.068-0.597-0.131-0.936-0.175l-0.045-0.005c-0.299-0.041-0.646-0.065-0.999-0.066h-0.001c-0.714 0-1.236 0.14-1.586 0.428-0.352 0.288-0.52 0.694-0.52 1.228 0 0.5 0.126 0.874 0.392 1.132 0.256 0.266 0.628 0.394 1.118 0.394zM13.244 18.15c-0.192 0-0.32-0.032-0.404-0.108-0.086-0.064-0.16-0.212-0.224-0.416l-2.5-8.254c-0.046-0.124-0.080-0.269-0.097-0.419l-0.001-0.008c0-0.17 0.086-0.266 0.256-0.266h1.044c0.2 0 0.34 0.032 0.414 0.106 0.086 0.064 0.15 0.214 0.214 0.416l1.788 7.070 1.66-7.070c0.052-0.212 0.116-0.352 0.2-0.416 0.109-0.068 0.24-0.107 0.381-0.107 0.016 0 0.033 0.001 0.049 0.002h0.848c0.204 0 0.34 0.032 0.426 0.106 0.086 0.064 0.16 0.214 0.202 0.416l1.682 7.156 1.84-7.156c0.036-0.162 0.111-0.302 0.215-0.417l-0.001 0.001c0.105-0.067 0.233-0.107 0.37-0.107 0.016 0 0.032 0.001 0.048 0.002h0.988c0.17 0 0.266 0.086 0.266 0.266 0 0.054-0.012 0.108-0.020 0.172-0.020 0.102-0.046 0.191-0.080 0.276l0.004-0.010-2.566 8.254c-0.064 0.214-0.138 0.354-0.222 0.418-0.104 0.067-0.23 0.107-0.366 0.107-0.014 0-0.028 0-0.041-0.001h-0.912c-0.202 0-0.34-0.032-0.426-0.106-0.086-0.076-0.16-0.214-0.202-0.428l-1.65-6.886-1.64 6.878c-0.052 0.214-0.116 0.352-0.2 0.426-0.086 0.076-0.236 0.108-0.426 0.108h-0.916zM26.92 18.438c-0.003 0-0.006 0-0.009 0-0.579 0-1.141-0.070-1.679-0.202l0.048 0.010c-0.532-0.128-0.946-0.268-1.224-0.428-0.17-0.096-0.286-0.202-0.33-0.3-0.039-0.088-0.062-0.19-0.062-0.298v-0.544c0-0.224 0.084-0.332 0.244-0.332 0.069 0 0.135 0.012 0.196 0.033l-0.004-0.001c0.064 0.022 0.16 0.064 0.266 0.108 0.36 0.16 0.756 0.288 1.17 0.374 0.426 0.084 0.84 0.128 1.266 0.128 0.672 0 1.192-0.118 1.554-0.352 0.335-0.205 0.554-0.569 0.554-0.984 0-0.011 0-0.023 0-0.034v0.002c0-0.008 0-0.018 0-0.027 0-0.279-0.11-0.532-0.289-0.719v0c-0.19-0.204-0.552-0.386-1.074-0.556l-1.544-0.48c-0.776-0.246-1.352-0.61-1.702-1.090-0.33-0.423-0.529-0.962-0.532-1.547v-0.001c0-0.448 0.096-0.844 0.286-1.186 0.192-0.34 0.448-0.64 0.768-0.876 0.32-0.244 0.68-0.426 1.106-0.554s0.872-0.182 1.34-0.182c0.236 0 0.48 0.010 0.714 0.042 0.244 0.032 0.468 0.076 0.692 0.12 0.212 0.052 0.416 0.104 0.606 0.17 0.192 0.064 0.34 0.128 0.448 0.192 0.128 0.065 0.235 0.155 0.318 0.264l0.002 0.002c0.060 0.089 0.095 0.199 0.095 0.318 0 0.012 0 0.024-0.001 0.036v-0.002 0.502c0 0.224-0.084 0.342-0.244 0.342-0.151-0.018-0.287-0.063-0.41-0.131l0.006 0.003c-0.579-0.263-1.255-0.417-1.967-0.417-0.027 0-0.054 0-0.081 0.001h0.004c-0.606 0-1.086 0.096-1.416 0.3-0.33 0.2-0.5 0.512-0.5 0.95 0 0.298 0.106 0.554 0.32 0.758 0.212 0.202 0.606 0.404 1.17 0.586l1.512 0.48c0.766 0.246 1.32 0.588 1.65 1.026s0.488 0.94 0.488 1.496c0 0.46-0.094 0.874-0.276 1.238-0.195 0.373-0.456 0.687-0.77 0.935l-0.006 0.005c-0.33 0.266-0.724 0.46-1.182 0.598-0.48 0.15-0.98 0.224-1.522 0.224z"></path>
<path fill="#f90" d="M28.93 23.626c-3.5 2.594-8.588 3.972-12.962 3.972-6.13 0-11.654-2.274-15.826-6.054-0.33-0.3-0.032-0.706 0.36-0.47 4.514 2.626 10.080 4.218 15.84 4.218 3.882 0 8.15-0.812 12.078-2.478 0.586-0.266 1.086 0.384 0.51 0.812z"></path>
<path fill="#f90" d="M30.388 21.96c-0.446-0.574-2.958-0.276-4.096-0.138-0.34 0.044-0.394-0.256-0.086-0.48 2-1.41 5.29-1.004 5.672-0.534 0.384 0.48-0.106 3.78-1.98 5.36-0.286 0.246-0.562 0.12-0.436-0.2 0.426-1.060 1.374-3.44 0.926-4.006z"></path>
</svg>
