<!-- Generated by IcoMoon.io -->
<svg version="1.1" xmlns="http://www.w3.org/2000/svg" width="32" height="32" viewBox="0 0 32 32">
<title>azure</title>
<path fill="#0089d6" d="M14.94 24.824l6.758-1.198-3.444-4.098c-0.44-0.497-1.567-1.836-2.688-3.181l-0.758-0.935c0-0.020 3.558-9.818 3.578-9.852-2.051-4.006-0.106-0.696 1.827 2.622l4.041 7.51 5.946 10.308-21.896-0.002 6.634-1.174zM1.8 23.576c0-0.006 1.622-2.824 3.606-6.262l3.608-6.254 4.204-3.528c2.312-1.938 4.21-3.532 4.216-3.532-0.017 0.065-0.039 0.121-0.068 0.174l0.002-0.004-4.568 9.792-4.48 9.616-3.26 0.004c-1.794 0.002-3.26 0-3.26-0.006z"></path>
</svg>
