<!-- Generated by IcoMoon.io -->
<svg version="1.1" xmlns="http://www.w3.org/2000/svg" width="32" height="32" viewBox="0 0 32 32">
<title>behance</title>
<path d="M14.688 7.975c0.6 0.838 0.9 1.85 0.9 3.025 0 1.2-0.3 2.175-0.912 2.912-0.338 0.412-0.85 0.787-1.512 1.125 1.012 0.375 1.775 0.95 2.287 1.75s0.775 1.762 0.775 2.9c0 1.175-0.287 2.225-0.887 3.15-0.375 0.613-0.838 1.137-1.4 1.55-0.625 0.488-1.375 0.813-2.237 1-0.863 0.175-1.787 0.262-2.8 0.262h-8.9v-19.788h9.563c2.4 0.037 4.112 0.737 5.125 2.112zM3.938 9.3v4.363h4.813c0.863 0 1.55-0.162 2.088-0.488s0.8-0.912 0.8-1.738c0-0.925-0.35-1.525-1.063-1.825-0.613-0.2-1.387-0.313-2.338-0.313h-4.3zM3.938 16.925v5.275h4.813c0.863 0 1.525-0.113 2-0.35 0.875-0.438 1.3-1.25 1.3-2.462 0-1.025-0.412-1.738-1.262-2.125-0.475-0.212-1.125-0.325-1.975-0.337h-4.875zM28.175 11.313c1.025 0.45 1.863 1.175 2.525 2.162 0.6 0.863 0.988 1.875 1.163 3.025 0.1 0.675 0.15 1.637 0.125 2.9h-10.65c0.063 1.462 0.563 2.5 1.525 3.087 0.587 0.363 1.288 0.55 2.113 0.55 0.863 0 1.575-0.225 2.125-0.675 0.3-0.238 0.563-0.575 0.788-1.012h3.9c-0.1 0.863-0.575 1.75-1.413 2.65-1.313 1.425-3.137 2.137-5.5 2.137-1.95 0-3.663-0.6-5.15-1.8s-2.238-3.15-2.238-5.85c0-2.537 0.675-4.475 2.012-5.825 1.35-1.35 3.087-2.025 5.225-2.025 1.288-0.012 2.438 0.213 3.45 0.675zM22.462 14.613c-0.538 0.563-0.875 1.313-1.025 2.262h6.587c-0.075-1.012-0.413-1.787-1.012-2.313-0.613-0.525-1.375-0.787-2.275-0.787-0.975 0-1.738 0.287-2.275 0.838zM28.925 6.787h-8.475v2.463h8.475v-2.463z"></path>
</svg>
