<!-- Generated by IcoMoon.io -->
<svg version="1.1" xmlns="http://www.w3.org/2000/svg" width="32" height="32" viewBox="0 0 32 32">
<title>bitbucket</title>
<path fill="#2684ff" d="M2.909 3c-0.265-0.004-0.518 0.114-0.691 0.321s-0.248 0.483-0.206 0.753l3.808 23.874c0.098 0.603 0.601 1.047 1.193 1.052h18.27c0.444 0.006 0.826-0.325 0.897-0.778l3.808-24.142c0.043-0.27-0.033-0.546-0.206-0.753s-0.426-0.325-0.691-0.321l-26.183-0.005zM18.945 20.255h-5.831l-1.579-8.518h8.823l-1.413 8.518z"></path>
<path fill="#000" d="M28.778 11.736h-8.42l-1.413 8.518h-5.831l-6.885 8.44c0.218 0.195 0.496 0.303 0.785 0.306h18.274c0.445 0.006 0.826-0.325 0.897-0.778l2.593-16.486z"></path>
</svg>
