<!-- Generated by IcoMoon.io -->
<svg version="1.1" xmlns="http://www.w3.org/2000/svg" width="32" height="32" viewBox="0 0 32 32">
<title>bug</title>
<path d="M4.364 10.182h4.364v-1.455h1.455v-1.455h1.455v-1.455h-1.455v-1.455h-1.455v-1.455h1.455v-1.455h1.455v1.455h1.455v1.455h1.455v1.455h2.909v-1.455h1.455v-1.455h1.455v-1.455h1.455v1.455h1.455v1.455h-1.455v1.455h-1.455v1.455h1.455v1.455h1.455v1.455h4.364v2.909h-2.909v2.909h2.909v2.909h-2.909v2.909h2.909v2.909h-4.364v1.455h-1.455v1.455h-1.455v1.455h-8.727v-1.455h-1.455v-1.455h-1.455v-1.455h-4.364v-2.909h2.909v-2.909h-2.909v-2.909h2.909v-2.909h-2.909v-2.909zM18.909 26.182v-1.455h1.455v-1.455h1.455v-11.636h-1.455v-1.455h-1.455v-1.455h-5.818v1.455h-1.455v1.455h-1.455v11.636h1.455v1.455h1.455v1.455h5.818zM13.091 18.909h5.818v2.909h-5.818v-2.909zM13.091 13.091h5.818v2.909h-5.818v-2.909z"></path>
</svg>
