<!-- Generated by IcoMoon.io -->
<svg version="1.1" xmlns="http://www.w3.org/2000/svg" width="32" height="32" viewBox="0 0 32 32">
<title>cdnjs</title>
<path fill="#00bcf2" d="M5.291 26.811c-1.297-0.219-2.357-0.759-3.345-1.703-1.722-1.645-2.382-4.234-1.651-6.477 0.565-1.733 1.765-3.096 3.408-3.873 0.394-0.186 0.396-0.188 0.358-0.408-0.198-1.151-0.17-1.937 0.099-2.82 0.179-0.586 0.631-1.42 1.014-1.87 1.099-1.293 2.472-1.933 4.126-1.925 1.473 0.007 2.614 0.476 3.743 1.539l0.319 0.301 0.152-0.328c0.665-1.438 2.159-2.908 3.654-3.594 0.678-0.312 1.742-0.628 1.742-0.518 0 0.010-0.835 2.25-1.856 4.978-1.063 2.84-1.848 5.027-1.837 5.117l0.018 0.157 1.727 0.032c0.95 0.017 1.763 0.054 1.806 0.082s0.078 0.106 0.078 0.173c0 0.067-0.681 1.782-1.514 3.812-1.834 4.471-1.768 4.303-1.7 4.277 0.066-0.026 10.092-11.451 10.234-11.663 0.085-0.126 0.086-0.155 0.009-0.204-0.052-0.033-0.912-0.040-2.069-0.016-2.040 0.042-2.26 0.022-2.26-0.203 0-0.119 3.074-5.303 3.145-5.303 0.090 0 0.765 0.591 1.191 1.045 0.981 1.043 1.662 2.425 1.912 3.879 0.12 0.697 0.12 1.86 0 2.52-0.113 0.627-0.114 0.722-0.009 0.722 0.164 0 1.334 0.615 1.706 0.896 1.133 0.857 1.994 2.132 2.365 3.501 0.126 0.465 0.144 0.676 0.142 1.633-0.003 1.007-0.017 1.147-0.172 1.664-0.675 2.254-2.308 3.859-4.557 4.481l-0.604 0.167-10.427 0.010c-8.71 0.008-10.513-0.005-10.95-0.078z"></path>
</svg>
