<!-- Generated by IcoMoon.io -->
<svg version="1.1" xmlns="http://www.w3.org/2000/svg" width="32" height="32" viewBox="0 0 32 32">
<title>cloudflare</title>
<path fill="#fff" d="M25.295 14.924l-0.664-0.265c-3.12 7.021-15.533 2.752-16.279 4.841-0.124 1.411 6.778 0.268 11.713 0.507 1.505 0.073 2.259 1.209 1.62 3.061l1.259 0.004c1.452-4.526 6.085-2.216 6.279-3.71-0.318-0.982-5.325 0-3.928-4.437z"></path>
<path fill="#f4811f" d="M22.041 22.294c0.199-0.664 0.133-1.328-0.199-1.726s-0.797-0.664-1.394-0.73l-11.552-0.133c-0.066 0-0.133-0.066-0.199-0.066-0.066-0.066-0.066-0.133 0-0.199 0.066-0.133 0.133-0.199 0.265-0.199l11.618-0.133c1.394-0.066 2.855-1.195 3.386-2.523l0.664-1.726c0-0.066 0.066-0.133 0-0.199-0.73-3.386-3.784-5.909-7.369-5.909-3.319 0-6.174 2.124-7.17 5.112-0.664-0.465-1.46-0.73-2.39-0.664-1.593 0.133-2.855 1.46-3.054 3.054-0.066 0.398 0 0.797 0.066 1.195-2.589 0.066-4.714 2.191-4.714 4.846 0 0.265 0 0.465 0.066 0.73 0 0.133 0.133 0.199 0.199 0.199h21.311c0.133 0 0.266-0.066 0.266-0.199l0.199-0.73z"></path>
<path fill="#faad3f" d="M25.693 14.858h-0.332c-0.066 0-0.133 0.066-0.199 0.133l-0.465 1.593c-0.199 0.664-0.133 1.328 0.199 1.726s0.797 0.664 1.394 0.73l2.457 0.133c0.066 0 0.133 0.066 0.199 0.066 0.066 0.066 0.066 0.133 0 0.199-0.066 0.133-0.133 0.199-0.266 0.199l-2.523 0.133c-1.394 0.066-2.855 1.195-3.386 2.523l-0.133 0.598c-0.066 0.066 0 0.199 0.133 0.199h8.764c0.133 0 0.199-0.066 0.199-0.199 0.133-0.531 0.265-1.129 0.265-1.726 0-3.452-2.855-6.307-6.307-6.307z"></path>
</svg>
