<!-- Generated by IcoMoon.io -->
<svg version="1.1" xmlns="http://www.w3.org/2000/svg" width="32" height="32" viewBox="0 0 32 32">
<title>codepen</title>
<path fill="#000" d="M8.832 14.756v2.488l1.86-1.244-1.86-1.244zM15.254 12.946v-3.47l-5.83 3.89 2.604 1.74 3.226-2.16zM22.57 13.366l-5.83-3.89v3.47l3.226 2.16 2.604-1.74zM9.424 18.64l5.83 3.884v-3.47l-3.226-2.16-2.604 1.746zM16.74 19.054v3.47l5.83-3.884-2.604-1.746-3.226 2.16zM16 14.24l-2.634 1.76 2.634 1.758 2.628-1.758-2.628-1.76z"></path>
<path fill="#000" d="M16 2c-7.732 0.001-14 6.269-14 14.001s6.268 14.001 14.001 14.001c0 0 0.001 0 0.001 0h-0c7.732-0.001 14-6.269 14-14.001s-6.268-14.001-14.001-14.001c-0 0-0.001 0-0.001 0h0zM24.654 18.64c0 0.036 0 0.066-0.006 0.094 0 0.012-0.006 0.024-0.006 0.030l-0.012 0.066c-0.004 0.012-0.004 0.024-0.010 0.036l-0.020 0.052-0.016 0.036c-0.006 0.018-0.020 0.036-0.024 0.048-0.006 0.013-0.014 0.024-0.024 0.034v0l-0.030 0.048c-0.007 0.012-0.015 0.021-0.024 0.030l-0 0c-0.010 0.012-0.022 0.030-0.034 0.040l-0.030 0.030c-0.012 0.012-0.030 0.024-0.040 0.036-0.014 0.006-0.026 0.018-0.038 0.024-0.006 0-0.006 0.006-0.010 0.012l-7.92 5.28c-0.117 0.078-0.26 0.124-0.414 0.124s-0.297-0.046-0.417-0.126l0.003 0.002-7.918-5.274c-0.006 0-0.006-0.006-0.012-0.012l-0.036-0.024c-0.012-0.012-0.030-0.024-0.040-0.036l-0.032-0.028c-0.012-0.012-0.024-0.026-0.033-0.041l-0.001-0.001c-0.006-0.012-0.020-0.024-0.024-0.030-0.013-0.013-0.023-0.029-0.030-0.047l-0-0.001c-0.006-0.013-0.014-0.024-0.024-0.034v0l-0.042-0.084-0.016-0.052-0.012-0.036c-0.007-0.020-0.011-0.042-0.012-0.066v-0c0-0.012-0.006-0.024-0.006-0.030-0.006-0.028-0.006-0.064-0.006-0.094v-5.274c0-0.036 0-0.066 0.006-0.096 0-0.010 0.006-0.022 0.006-0.028l0.012-0.066 0.012-0.036 0.016-0.052 0.020-0.036c0.004-0.018 0.016-0.036 0.022-0.048 0.006-0.013 0.014-0.024 0.024-0.034v0l0.030-0.048c0.007-0.011 0.015-0.021 0.024-0.030l0-0c0.012-0.012 0.022-0.030 0.034-0.040l0.030-0.030c0.012-0.012 0.030-0.024 0.040-0.036 0.014-0.006 0.026-0.020 0.038-0.024 0.006 0 0.006-0.006 0.012-0.012l7.916-5.274c0.116-0.078 0.258-0.124 0.411-0.124s0.295 0.046 0.414 0.126l-0.003-0.002 7.916 5.274c0.004 0 0.004 0.006 0.010 0.012l0.036 0.024 0.042 0.036 0.030 0.028c0.012 0.012 0.024 0.024 0.036 0.042l0.022 0.030c0.013 0.013 0.023 0.029 0.030 0.047l0 0.001c0.006 0.013 0.014 0.024 0.024 0.034v0c0.010 0.014 0.018 0.030 0.024 0.047l0 0.001 0.018 0.036 0.018 0.052c0.006 0.012 0.006 0.024 0.010 0.036 0.008 0.018 0.012 0.040 0.012 0.066 0 0.012 0.006 0.024 0.006 0.028 0.004 0.024 0.006 0.051 0.006 0.079 0 0.006-0 0.012-0 0.018l0-0.001v5.268h0.012z"></path>
<path fill="#000" d="M23.168 17.244v-2.488l-1.864 1.244 1.864 1.244z"></path>
<path fill="#fff" d="M24.654 18.64h-0.012v-5.268l-0 0.001c0-0.005 0-0.011 0-0.016 0-0.028-0.002-0.055-0.006-0.079l-0.006-0.030c0-0.026-0.006-0.046-0.012-0.066l-0.006-0.016c0-0.008-0.002-0.014-0.006-0.020l-0.016-0.052-0.018-0.036-0-0.001c-0.006-0.017-0.014-0.033-0.024-0.047v0c-0.010-0.010-0.018-0.021-0.024-0.034l-0-0.001c-0.006-0.018-0.017-0.034-0.030-0.047l-0.024-0.030-0.034-0.042-0.030-0.028-0.020-0.018-0.010-0.008-0-0c-0.004-0.003-0.008-0.006-0.012-0.010l-7.959-5.308c-0.118-0.080-0.261-0.126-0.414-0.126s-0.295 0.046-0.411 0.124l-7.927 5.284c-0.006 0.003-0.012 0.007-0.017 0.012l-0.012 0.008-0.008 0.004c-0.004 0.006-0.012 0.012-0.020 0.016l-0 0c-0.007 0.006-0.013 0.013-0.020 0.020l-0.028 0.030c-0.008 0.004-0.014 0.012-0.020 0.020l-0.016 0.020-0 0c-0.009 0.009-0.017 0.018-0.024 0.030l-0.016 0.024-0.014 0.024c-0.010 0.010-0.018 0.021-0.024 0.034l-0.006 0.012 0-0.001c-0.007 0.011-0.013 0.023-0.019 0.037l-0.016 0.036-0.020 0.052-0.012 0.036v0.012c-0.004 0.008-0.004 0.016-0.004 0.022l-0.006 0.034-0.004 0.010-0.002 0.020c-0.006 0.028-0.006 0.058-0.006 0.094v5.274c0 0.030 0 0.066 0.006 0.094l0.006 0.030v0c0 0.024 0.005 0.046 0.012 0.066l0.004 0.016 0.006 0.020 0.018 0.052 0.042 0.084c0.010 0.010 0.018 0.021 0.024 0.034l0 0.001c0.006 0.018 0.017 0.034 0.030 0.047l0 0c0.009 0.009 0.017 0.018 0.024 0.030l0.001 0.001c0.010 0.015 0.021 0.029 0.033 0.041l0.032 0.028c0.006 0.006 0.013 0.012 0.020 0.018l0 0c0.007 0.006 0.013 0.011 0.020 0.018l7.959 5.308c0.119 0.079 0.263 0.126 0.417 0.126s0.297-0.046 0.414-0.124l7.97-5.316c0.006-0.006 0.013-0.011 0.020-0.016l0-0c0.007-0.006 0.013-0.013 0.020-0.020l0.028-0.030 0.020-0.020 0-0.001c0.005-0.007 0.010-0.013 0.015-0.019l-0.001 0.001c0.014-0.017 0.027-0.035 0.041-0.055l0.008-0.012 0.006-0.012c0.010-0.010 0.018-0.021 0.024-0.034l0.024-0.048 0.016-0.036 0.020-0.052v-0.006c0.004-0.004 0.004-0.008 0.004-0.012l0-0.001c0.002-0.006 0.005-0.012 0.008-0.017v-0.008c0.004-0.010 0.004-0.018 0.004-0.024l0-0.002c0.002-0.012 0.005-0.023 0.008-0.032v-0.008c0.004-0.008 0.004-0.014 0.004-0.020 0.006-0.030 0.006-0.060 0.006-0.096zM8.832 17.244v-2.488l1.858 1.244-1.86 1.244zM15.254 9.476v3.47l-3.226 2.16-2.604-1.74 5.83-3.89zM16.74 9.476l5.83 3.89-2.604 1.74-3.226-2.16v-3.47zM15.254 22.524l-5.83-3.884 2.604-1.746 3.226 2.16v3.47zM16.74 22.524v-3.47l3.226-2.16 2.604 1.746-5.83 3.884zM16 17.758l-2.634-1.758 2.634-1.758 2.628 1.758-2.628 1.76zM23.168 14.758v2.486l-1.864-1.244 1.864-1.244z"></path>
</svg>
