<!-- Generated by IcoMoon.io -->
<svg version="1.1" xmlns="http://www.w3.org/2000/svg" width="32" height="32" viewBox="0 0 32 32">
<title>cybershoke</title>
<path fill="#fff" d="M15.407 23.226v2.97l-8.495-4.922v-10.543l8.489-4.917v2.995l-5.914 3.443v7.543l0.785 0.457z"></path>
<path fill="#fff" d="M29.054 8.506l-0.009 15.008-12.998 7.503-3.221-1.858-0.002-2.978 3.228 1.862 10.426-6.025 0.006-12.019-5.931-3.426-0.004-2.769v-0.205l4.567 2.635z"></path>
<path fill="#6080ff" d="M19.275 2.857v2.98l-3.228-1.86-10.415 6.031-0.002 12.011 5.92 3.43 0.004 2.993-8.527-4.932 0.011-15.002 13.007-7.511z"></path>
<path fill="#6080ff" d="M19.275 10.317v4.401l5.911 0.013v6.558l-8.497 4.905 0.006-2.978 5.918-3.422-0.011-2.498-5.914 0.004v-11.492l8.497 4.934v3.004z"></path>
</svg>
