<!-- Generated by IcoMoon.io -->
<svg version="1.1" xmlns="http://www.w3.org/2000/svg" width="32" height="32" viewBox="0 0 32 32">
<title>cybershoke</title>
<path d="M12.137 0.58c0.409-0.359 0.949-0.579 1.54-0.579 0.236 0 0.465 0.035 0.68 0.1l-0.017-0.004c0.291 0.096 0.541 0.271 0.812 0.444 0.213 0.135 0.464 0.193 0.657 0.348 0.096 0.077 0.019 0.213 0.019 0.309 0.252 0.6 0.387 1.256 0.173 1.893-0.173 0.213-0.483 0.271-0.733 0.368-0.040 0.271 0.057 0.52 0.096 0.792-0.057 0.039-0.096 0.077-0.155 0.116 0.368-0.020 0.735-0.097 1.103-0.173 0.135-0.136 0.347-0.059 0.52-0.079 0.020-0.271 0.117-0.521 0.117-0.792 0.057-0.004 0.109-0.018 0.157-0.040l-0.003 0.001c0.019 0.193 0 0.387 0.057 0.58 0.097 0.077 0.252 0.039 0.368 0.057 0 0.077 0 0.155 0.019 0.232 2.241-0.019 4.503 0 6.744 0v0.329h0.213v-1.257h0.251c0 0.347-0.019 0.676 0 1.024 0.026 0.024 0.060 0.038 0.097 0.039h0c0 0.039 0.019 0.116 0.019 0.155 0.077-0.077 0.173-0.136 0.291-0.097 0.019 0.059 0.039 0.116 0.057 0.193-0.077 0.077-0.116 0.173-0.077 0.291 0.619 0.019 1.237 0 1.875 0 0.059-0.077 0.155-0.116 0.252-0.155 0.044 0.023 0.082 0.049 0.117 0.078l-0.001-0.001h0.907c0.021 0.082 0.033 0.176 0.033 0.273 0 0.060-0.005 0.119-0.013 0.177l0.001-0.006h-0.928c-0.034 0.037-0.072 0.069-0.114 0.096l-0.002 0.001c-0.096-0.059-0.173-0.097-0.269-0.155h-1.681c-0.329 0.096-0.677 0.077-1.005 0.019v0.367h-2.765c-0.104 0.093-0.237 0.155-0.383 0.173l-0.003 0c0.059 0.291-0.269 0.368-0.387 0.581-0.074 0.108-0.18 0.189-0.304 0.231l-0.004 0.001c-0.097 0.599 0.116 1.16 0.271 1.72-0.173 0.039-0.368 0.096-0.541 0.135-0.097 0.387-0.193 0.792-0.271 1.179-0.091 0.355-0.342 0.637-0.668 0.771l-0.008 0.003c-0.232 0.271-0.541 0.541-0.909 0.56-0.135 0.040-0.232-0.057-0.328-0.135-0.483 0.039-0.928-0.193-1.353-0.387-0.463-0.213-0.888-0.484-1.333-0.733 0.040 0.269-0.096 0.501-0.193 0.733 0.213 0.096 0.503 0.173 0.619 0.405 0.077 0.173 0.155 0.368 0.155 0.58-0.019 0.696-0.096 1.392-0.135 2.087 0.019 0.503-0.232 1.005-0.58 1.373-0.232-0.020-0.425-0.117-0.637-0.213-0.077 0.173-0.252 0.347-0.155 0.56 0.077 0.252 0.077 0.523 0.193 0.755 0.644 0.667 1.187 1.438 1.599 2.285l0.023 0.053c0.405 0.832 0.715 1.701 1.044 2.571 0.057 0 0.173-0.020 0.232-0.020 0.077 0.252 0 0.541 0.155 0.773 0.135 0.213 0.096 0.464 0.096 0.715-0.039 0.58-0.077 1.16-0.135 1.74-0.040 0.405-0.136 0.812-0.193 1.217 0.019 0.309 0.155 0.619 0.135 0.928-0.019 0.289-0.019 0.599-0.251 0.811 0.019 0.657-0.155 1.315 0.077 1.952 0.309 0.427 0.657 0.831 1.024 1.199 0.405 0.193 0.889 0.232 1.237 0.58 0.133 0.213 0.057 0.463 0.019 0.695-0.375 0.055-0.807 0.087-1.247 0.087s-0.872-0.032-1.295-0.093l0.048 0.006c-0.328-0.077-0.637-0.212-0.965-0.251-0.445 0.019-0.967 0.193-1.373-0.116-0.037-0.521 0.156-1.024 0.252-1.527 0.039-0.173 0.213-0.289 0.193-0.464-0.040-0.6-0.077-1.217-0.116-1.816-0.077-0.040-0.213-0.077-0.193-0.193 0-0.291-0.096-0.58-0.173-0.851-0.122-0.666-0.199-1.439-0.213-2.229l-0-0.013c-0.019-0.213 0.116-0.368 0.271-0.503 0.040-0.328 0.077-0.676 0.097-1.005-0.059-0.173-0.193-0.309-0.271-0.464-0.348 0.040-0.851 0.116-1.063-0.251-0.503-0.753-1.025-1.527-1.527-2.28-0.213-0.020-0.464 0-0.657-0.136-0.213-0.232-0.348-0.54-0.484-0.831-0.057 0.232-0.096 0.483-0.232 0.676-0.116 0.193-0.308 0.329-0.444 0.503-0.135 0.309-0.251 0.619-0.367 0.928-0.136 0.387-0.329 0.773-0.368 1.199-0.016 0.219-0.064 0.423-0.14 0.613l0.005-0.014c-0.097 0.155-0.271 0.213-0.425 0.289-0.116 0.252-0.193 0.503-0.367 0.716-0.116 0.135-0.309 0.173-0.387 0.347-0.077 0.232-0.193 0.445-0.291 0.657-0.039 0.232 0.116 0.484 0.040 0.715-0.136 0.58-0.427 1.121-0.696 1.643-0.136 0.387-0.232 0.793-0.427 1.16-0.076 0.155-0.269 0.193-0.424 0.213-0.173 0.424-0.368 0.831-0.483 1.275-0.033 0.261-0.052 0.564-0.052 0.87 0 0.149 0.005 0.298 0.013 0.445l-0.001-0.020c0 0.193 0.117 0.348 0.195 0.521 0.076 0.232 0.019 0.464-0.020 0.696-0.753 0.097-1.527 0.173-2.261-0.057-0.077-0.059-0.057-0.155-0.077-0.232-0.057-0.348-0.096-0.715 0.020-1.044 0.251-0.908 0.464-1.816 0.715-2.724-0.096-0.097-0.232-0.173-0.232-0.329-0.019-0.251 0-0.521 0.059-0.773 0.116-0.425 0.424-0.753 0.579-1.16 0.059-0.173 0.040-0.347 0.059-0.52 0-0.407 0.232-0.735 0.405-1.083 0.173-0.291 0.309-0.6 0.541-0.851 0.155-0.135 0.155-0.347 0.271-0.521 0.116-0.213 0.309-0.387 0.309-0.639 0.039-0.308-0.077-0.617-0.040-0.927 0.079-0.908 0.253-1.797 0.407-2.707-0.077-0.096-0.193-0.192-0.232-0.328 0.020-0.096 0.040-0.173 0.059-0.271l-0.173-0.289c0.076-0.116 0.153-0.251 0.231-0.367-0.077-0.059-0.173-0.136-0.251-0.193 0.096-0.291 0.057-0.716 0.405-0.851 0.040 0.019 0.136 0.039 0.173 0.057-0.057-0.501-0.057-1.024-0.115-1.527-0.082-0.329-0.129-0.707-0.129-1.096 0-0.193 0.012-0.383 0.034-0.569l-0.002 0.023c0.193-0.289 0.56-0.405 0.889-0.424-0.425-0.097-0.851-0.136-1.256-0.271-0.020-0.348 0.039-0.696 0.096-1.044 0.173-0.676 0.097-1.372 0.193-2.067 0.097-0.195 0.348-0.233 0.56-0.195 0.252 0.040 0.503-0.039 0.755-0.116 0-0.096 0.019-0.213 0-0.309-0.155-0.676-0.116-1.372 0-2.028 0.155-0.851 0.503-1.681 1.14-2.28 0.425-0.407 1.044-0.6 1.623-0.58 0.193 0 0.309 0.193 0.464 0.309 0.077-0.077 0.155-0.155 0.213-0.232-0.097-0.329-0.252-0.677-0.232-1.025 0.039-0.773 0.289-1.565 0.869-2.087zM18.165 6.048c0.039 0.039 0.039 0.039 0 0zM18.436 6.087c0.019 0.135 0.057 0.271-0.020 0.387-0.096 0.039-0.213 0.039-0.309 0.096 0.271 0 0.541 0.020 0.813 0 0.212-0.057 0.133-0.328 0.133-0.483-0.133-0.155-0.424-0.059-0.617 0zM17.76 6.899c0.193 0.212 0.289 0.54 0.463 0.753 0.252-0.329 0.445-0.677 0.735-0.967-0.347-0.020-0.696 0.020-1.043-0.020-0.059 0.077-0.097 0.155-0.155 0.232z"></path>
</svg>
