<!-- Generated by IcoMoon.io -->
<svg version="1.1" xmlns="http://www.w3.org/2000/svg" width="32" height="32" viewBox="0 0 32 32">
<title>deviantart</title>
<path fill="#00cc76" d="M24.978 7.342v-5.774c0-0.174-0.141-0.316-0.316-0.316h-4.969c-0.084 0-0.163 0.033-0.222 0.092l-0.53 0.527c-0.023 0.023-0.042 0.049-0.057 0.077l-2.485 4.744-0.586 0.338h-8.475c-0.174 0-0.316 0.141-0.316 0.315v7.21c0 0.174 0.141 0.316 0.316 0.316h4.443l0.22 0.22-4.942 9.434c-0.024 0.045-0.036 0.095-0.036 0.146v5.76c-0.003 0.169 0.146 0.319 0.316 0.316l4.972-0.002c0.083 0 0.163-0.033 0.222-0.092 0.056-0.054 0.574-0.556 0.589-0.605 0 0 2.49-4.746 2.49-4.746l0.57-0.33h8.48c0.174 0 0.316-0.141 0.316-0.316v-7.206c0-0.174-0.141-0.316-0.316-0.316h-4.457l-0.208-0.208 4.944-9.439c0.024-0.045 0.036-0.096 0.036-0.147z"></path>
</svg>
