<!-- Generated by IcoMoon.io -->
<svg version="1.1" xmlns="http://www.w3.org/2000/svg" width="32" height="32" viewBox="0 0 32 32">
<title>digital-ocean</title>
<path fill="#0080ff" d="M16 24.416v5.304c8.99 0 15.976-8.68 13.036-18.106-1.335-4.137-4.529-7.331-8.572-8.64l-0.094-0.026c-9.41-2.94-18.090 4.060-18.090 13.036h5.304c0-5.63 5.584-9.986 11.512-7.84 2.21 0.822 3.922 2.534 4.726 4.689l0.018 0.055c2.16 5.922-2.2 11.5-7.824 11.512v-5.274h-5.29v5.29h5.274z"></path>
<path fill="#0080ff" d="M10.726 28.49h-4.076v-4.074h4.076v4.074zM3.244 24.416h3.406v-3.408h-3.406v3.408z"></path>
</svg>
