<!-- Generated by IcoMoon.io -->
<svg version="1.1" xmlns="http://www.w3.org/2000/svg" width="32" height="32" viewBox="0 0 32 32">
<title>discord</title>
<path d="M24.787 7.853c-1.64-0.76-3.387-1.32-5.227-1.64-0.227 0.4-0.493 0.947-0.667 1.387-1.947-0.293-3.88-0.293-5.787 0-0.187-0.44-0.453-0.987-0.68-1.387-1.84 0.32-3.587 0.88-5.227 1.64-3.307 4.987-4.2 9.853-3.76 14.64 2.2 1.64 4.32 2.627 6.413 3.28 0.52-0.707 0.973-1.467 1.373-2.253-0.76-0.28-1.48-0.64-2.16-1.053 0.187-0.133 0.36-0.28 0.533-0.413 4.173 1.947 8.693 1.947 12.813 0 0.173 0.147 0.347 0.28 0.533 0.413-0.68 0.413-1.413 0.76-2.16 1.053 0.4 0.787 0.853 1.547 1.373 2.253 2.093-0.653 4.227-1.64 6.413-3.28 0.52-5.56-0.893-10.373-3.76-14.64h-0.027zM11.787 19.56c-1.253 0-2.28-1.16-2.28-2.587s1-2.587 2.28-2.587c1.28 0 2.293 1.16 2.28 2.587 0 1.413-1 2.587-2.28 2.587zM20.2 19.56c-1.253 0-2.28-1.16-2.28-2.587s1-2.587 2.28-2.587c1.28 0 2.293 1.16 2.28 2.587 0 1.413-1 2.587-2.28 2.587z"></path>
</svg>
