<!-- Generated by IcoMoon.io -->
<svg version="1.1" xmlns="http://www.w3.org/2000/svg" width="32" height="32" viewBox="0 0 32 32">
<title>dribble</title>
<path fill="#d43c89" d="M0.8 16c0.837 20.275 29.57 20.259 30.4 0-0.832-20.264-29.565-20.27-30.4 0z"></path>
<path fill="#b2005f" d="M19.991 15.585c4.564-0.572 9.092 0.343 9.541 0.443-0.021-3.246-1.184-6.227-3.088-8.565-0.292 0.393-2.588 3.346-7.652 5.419 0.436 0.879 0.832 1.792 1.198 2.702z"></path>
<path fill="#b2005f" d="M25.082 5.96c-2.417-2.159-5.598-3.468-9.085-3.468-1.105 0.007-2.182 0.143-3.209 0.386 0.378 0.508 2.867 3.911 5.113 8.043 4.877-1.83 6.938-4.611 7.181-4.962z"></path>
<path fill="#b2005f" d="M15.464 11.753c-2.268-4.046-4.721-7.45-5.084-7.95-3.829 1.816-6.703 5.362-7.587 9.623 0.613 0.007 6.261 0.028 12.671-1.673z"></path>
<path fill="#b2005f" d="M17.063 16.108c0.177-0.057 0.354-0.114 0.538-0.163-0.34-0.773-0.715-1.554-1.104-2.314-6.788 2.037-13.386 1.952-13.98 1.945-0.121 3.61 1.229 7.035 3.49 9.532 0.311-0.532 4.042-6.728 11.057-8.999z"></path>
<path fill="#b2005f" d="M18.355 18.22c-7.486 2.617-10.18 7.824-10.415 8.309 3.515 2.881 9.103 3.672 13.329 1.752-0.2-1.17-0.967-5.235-2.832-10.089-0.028 0.014-0.062 0.021-0.083 0.028z"></path>
<path fill="#b2005f" d="M21.068 17.55c1.741 4.805 2.449 8.714 2.594 9.527 2.983-2.031 5.112-5.236 5.708-8.957-0.458-0.146-4.127-1.238-8.303-0.57z"></path>
</svg>
