<!-- Generated by IcoMoon.io -->
<svg version="1.1" xmlns="http://www.w3.org/2000/svg" width="32" height="32" viewBox="0 0 32 32">
<title>dropbox</title>
<path d="M11.478 21.367l4.522-3.766-6.531-4.034-4.469 3.583zM16 17.6l4.535 3.767 6.465-4.217-4.469-3.583z"></path>
<path d="M16.027 18.42v-0.027l-0.013 0.013-0.014-0.013v0.027l-4.522 3.754-1.943-1.268v1.426l6.465 3.875v0.012l0.014-0.012 0.013 0.012v-0.012l6.477-3.875v-1.426l-1.942 1.268zM5 9.998l4.469 3.569 6.531-4.019-4.522-3.767zM20.535 5.781l-4.535 3.767 6.531 4.019 4.469-3.569z"></path>
</svg>
