<!-- Generated by IcoMoon.io -->
<svg version="1.1" xmlns="http://www.w3.org/2000/svg" width="32" height="32" viewBox="0 0 32 32">
<title>duckduckgo</title>
<path fill="#de5833" d="M16.018 2.418c7.5 0 13.58 6.080 13.58 13.58s-6.080 13.58-13.58 13.58c-7.5 0-13.58-6.080-13.58-13.58s6.080-13.58 13.58-13.58z"></path>
<path fill="#de5833" d="M16.018 31.928c8.798 0 15.93-7.132 15.93-15.93s-7.132-15.93-15.93-15.93c-8.798 0-15.93 7.132-15.93 15.93s7.132 15.93 15.93 15.93v0zM16.018 30.6c-8.065 0-14.602-6.538-14.602-14.602s6.538-14.602 14.602-14.602c8.065 0 14.602 6.538 14.602 14.602s-6.538 14.602-14.602 14.602v0z"></path>
<path fill="#d5d7d8" d="M9.402 6.829c-0.003-0.228 0.163-0.356 0.384-0.446-0.101 0.016-0.197 0.042-0.284 0.081-0.23 0.104-0.402 0.498-0.4 0.685 1.115-0.113 2.765-0.035 3.971 0.325 0.089-0.013 0.178-0.025 0.268-0.035-1.203-0.534-2.633-0.74-3.938-0.61z"></path>
<path fill="#d5d7d8" d="M9.631 5.456c0.025-0.005 0.051-0.008 0.076-0.012-0.241 0.030-0.367 0.116-0.548 0.146 0.196 0.017 0.939 0.364 1.406 0.555 0.066-0.025 0.124-0.053 0.173-0.085-0.242-0.036-0.844-0.58-1.107-0.604z"></path>
<path fill="#d5d7d8" d="M10.791 8.157c-0.067 0.026-0.13 0.053-0.185 0.082-1.818 0.958-2.621 3.195-2.143 5.876 0.437 2.44 2.227 10.776 3.047 14.696 0.239 0.084 0.482 0.162 0.727 0.233-0.73-3.53-2.723-12.78-3.188-15.378-0.471-2.643-0.013-4.539 1.742-5.509z"></path>
<path fill="#fff" d="M18.148 27.39c-0.030 0.020-0.066 0.039-0.104 0.057-0.028 0.11-0.071 0.192-0.134 0.234-0.375 0.249-1.436 0.375-1.996 0.249-0.096-0.021-0.169-0.057-0.226-0.105-0.956 0.531-2.331 1.238-2.61 1.078-0.436-0.25-0.499-3.556-0.436-4.368 0.046-0.613 2.198 0.38 3.244 0.9 0.231-0.216 0.798-0.361 1.3-0.41-0.758-1.845-1.317-3.956-0.974-5.452-0.474-0.33-1.102-1.096-0.971-1.895 0.101-0.608 1.672-1.759 2.785-1.829 1.115-0.070 1.463-0.055 2.392-0.277 0.047-0.011 0.098-0.023 0.151-0.036 0.572-2.011-0.8-5.509-2.33-7.040-0.499-0.499-1.266-0.813-2.13-0.979-0.332-0.456-0.869-0.892-1.627-1.296-1.409-0.748-3.151-1.053-4.774-0.777-0.025 0.004-0.051 0.007-0.076 0.012 0.263 0.024 0.864 0.568 1.107 0.604-0.048 0.033-0.107 0.060-0.173 0.085-0.227 0.087-0.536 0.139-0.779 0.238-0.22 0.090-0.386 0.218-0.384 0.446 1.305-0.131 2.736 0.076 3.938 0.61-0.090 0.010-0.179 0.023-0.268 0.035-0.853 0.12-1.637 0.341-2.204 0.64-0.027 0.014-0.052 0.029-0.078 0.043-1.755 0.97-2.213 2.867-1.742 5.509 0.465 2.598 2.471 11.991 3.201 15.521 1.2 0.347 2.323 0.625 3.635 0.625 1.114 0 2.454-0.247 3.49-0.5-0.364-0.702-0.832-1.477-1.12-2.034-0.038 0.046-0.069 0.086-0.107 0.111zM18.882 14.070c-0.476 0-0.863-0.387-0.863-0.865 0-0.476 0.388-0.863 0.863-0.863 0.478 0 0.864 0.387 0.864 0.863 0 0.478-0.386 0.865-0.864 0.865v0zM19.402 10.819c0 0-0.545-0.311-0.967-0.306-0.869 0.011-1.105 0.395-1.105 0.395s0.146-0.915 1.256-0.731c0.602 0.1 0.816 0.642 0.816 0.642v0zM10.245 11.943c0 0-0.391-0.872 0.651-1.299 1.043-0.427 1.552 0.243 1.552 0.243s-0.758-0.343-1.495 0.12c-0.736 0.463-0.708 0.935-0.708 0.935v0zM11.157 13.801c0-0.556 0.449-1.005 1.006-1.005 0.555 0 1.005 0.45 1.005 1.005s-0.45 1.005-1.005 1.005c-0.556 0-1.006-0.449-1.006-1.005v0z"></path>
<path fill="#2d4f8e" d="M13.168 13.801c0-0.556-0.45-1.005-1.005-1.005-0.556 0-1.006 0.45-1.006 1.005s0.449 1.005 1.006 1.005c0.555 0 1.005-0.449 1.005-1.005v0zM12.608 13.727c-0.143 0-0.26-0.117-0.26-0.261s0.117-0.261 0.26-0.261c0.144 0 0.261 0.116 0.261 0.261s-0.117 0.261-0.261 0.261v0z"></path>
<path fill="#fff" d="M12.608 13.205c-0.143 0-0.26 0.116-0.26 0.261s0.117 0.262 0.26 0.261c0.144 0 0.261-0.117 0.261-0.261s-0.117-0.261-0.261-0.261z"></path>
<path fill="#2d4f8e" d="M18.882 12.342c-0.476 0-0.863 0.387-0.863 0.863 0 0.478 0.388 0.865 0.863 0.865 0.478 0 0.864-0.387 0.864-0.865 0-0.476-0.386-0.863-0.864-0.863v0zM19.265 13.141c-0.122 0-0.223-0.099-0.223-0.224 0-0.123 0.101-0.224 0.223-0.224 0.127 0 0.225 0.101 0.225 0.224 0 0.124-0.098 0.224-0.225 0.224v0z"></path>
<path fill="#fff" d="M19.265 12.694c-0.122 0-0.223 0.101-0.223 0.224 0 0.124 0.101 0.224 0.223 0.224 0.127 0 0.225-0.099 0.225-0.224 0-0.123-0.098-0.224-0.225-0.224z"></path>
<path fill="#000" d="M12.448 10.888c0 0-0.508-0.67-1.552-0.243-1.042 0.427-0.651 1.299-0.651 1.299s-0.027-0.473 0.708-0.935c0.737-0.463 1.495-0.12 1.495-0.12z"></path>
<path fill="#000" d="M18.586 10.177c-1.111-0.184-1.256 0.731-1.256 0.731s0.236-0.384 1.105-0.395c0.423-0.005 0.967 0.306 0.967 0.306s-0.214-0.542-0.816-0.642z"></path>
<path fill="#fdd209" d="M18.025 15.85c-1.113 0.069-2.685 1.22-2.785 1.829-0.131 0.799 0.497 1.565 0.971 1.895 0.001 0.001 0.003 0.002 0.004 0.003 0.474 0.329 3.627 1.393 5.192 1.364 1.566-0.030 4.139-0.99 3.856-1.758-0.281-0.769-2.836 0.678-5.501 0.431-1.974-0.183-2.322-1.067-1.885-1.713 0.55-0.812 1.551 0.154 3.202-0.34 1.654-0.493 3.966-1.375 4.825-1.855 1.984-1.106-0.83-1.565-1.495-1.258-0.63 0.291-2.823 0.845-3.84 1.090-0.053 0.013-0.105 0.025-0.151 0.036-0.929 0.223-1.277 0.207-2.392 0.277z"></path>
<path fill="#65bc46" d="M15.54 25.934c0-0.115 0.093-0.217 0.24-0.304 0.004-0.070 0.042-0.135 0.106-0.195-1.047-0.52-3.198-1.512-3.244-0.9-0.063 0.811 0 4.118 0.436 4.368 0.279 0.159 1.654-0.547 2.61-1.078-0.276-0.235-0.148-0.806-0.148-1.891z"></path>
<path fill="#65bc46" d="M18.241 27.273c0.005 0.002 0.009 0.004 0.014 0.005 0.857 0.331 2.562 0.953 2.933 0.817 0.499-0.191 0.374-4.182-0.186-4.309-0.449-0.1-2.168 1.111-2.844 1.605 0.12 0.505 0.264 1.506 0.084 1.881z"></path>
<path fill="#43a244" d="M16.152 27.639c-0.562-0.125-0.374-0.687-0.374-1.996 0-0.004 0.001-0.008 0.002-0.013-0.147 0.087-0.24 0.189-0.24 0.304 0 1.085-0.128 1.656 0.148 1.891 0.057 0.049 0.13 0.084 0.226 0.105 0.56 0.125 1.621 0 1.996-0.249 0.063-0.042 0.106-0.125 0.134-0.234-0.439 0.21-1.378 0.309-1.892 0.192z"></path>
<path fill="#65bc46" d="M15.885 25.435c-0.064 0.060-0.102 0.125-0.106 0.195-0 0.004-0.002 0.008-0.002 0.013 0 1.31-0.188 1.872 0.374 1.996 0.514 0.117 1.453 0.018 1.892-0.192 0.038-0.018 0.074-0.037 0.104-0.057 0.038-0.025 0.068-0.065 0.093-0.116 0.181-0.376 0.036-1.376-0.084-1.881-0.026-0.111-0.051-0.199-0.072-0.25-0.052-0.128-0.449-0.161-0.9-0.116-0.502 0.049-1.069 0.194-1.3 0.41z"></path>
</svg>
