<?xml version="1.0" encoding="utf-8"?>
<!-- Svg Vector Icons : http://www.onlinewebfonts.com/icon -->
<!DOCTYPE svg PUBLIC "-//W3C//DTD SVG 1.1//EN" "http://www.w3.org/Graphics/SVG/1.1/DTD/svg11.dtd">
<svg version="1.1" xmlns="http://www.w3.org/2000/svg" xmlns:xlink="http://www.w3.org/1999/xlink" x="0px" y="0px" viewBox="0 0 256 256" enable-background="new 0 0 256 256" xml:space="preserve">
<metadata> Svg Vector Icons : http://www.onlinewebfonts.com/icon </metadata>
<g><g><path fill="#000000" d="M151.8,224.9c-2,0.5-3.9,0.9-5.9,1.3c-5.2,1-8.5,5.9-7.6,11.1c0.5,2.5,1.9,4.6,3.9,6c2,1.4,4.6,2,7.2,1.6c2.3-0.4,4.7-0.9,7-1.5c5.1-1.3,8.2-6.4,6.9-11.5C162.1,226.8,156.9,223.6,151.8,224.9L151.8,224.9z"/><path fill="#000000" d="M222,97.7c0.7,2,1.9,3.6,3.5,4.8c2.4,1.7,5.5,2.2,8.5,1.3c5-1.7,7.7-7,6-12c-0.7-2.3-1.6-4.6-2.5-6.7c-2-4.9-7.5-7.2-12.3-5.3c-4.9,2-7.2,7.5-5.3,12.3C220.7,93.9,221.4,95.8,222,97.7L222,97.7z"/><path fill="#000000" d="M182.7,211.4c-1.7,1.1-3.4,2.2-5.2,3.2c-4.6,2.6-6.1,8.4-3.5,13c0.7,1.2,1.7,2.2,2.7,3c2.9,2,6.9,2.4,10.2,0.5c2.1-1.2,4.1-2.5,6.1-3.8c4.4-2.9,5.6-8.8,2.7-13.1C192.9,209.7,187,208.5,182.7,211.4L182.7,211.4z"/><path fill="#000000" d="M245.9,124.3c-0.2-5.2-4.6-9.3-9.9-9.1s-9.3,4.6-9.1,9.9c0.1,2,0.1,4,0,6c-0.1,3.3,1.5,6.2,4,8c1.5,1,3.3,1.7,5.3,1.7c5.2,0.1,9.6-4,9.7-9.3C246,129,246,126.6,245.9,124.3L245.9,124.3z"/><path fill="#000000" d="M220.4,186.4c-4.2-3.2-10.1-2.3-13.3,1.9c-1.2,1.6-2.5,3.2-3.8,4.7c-3.4,4-2.9,10,1.1,13.4c0.2,0.2,0.5,0.4,0.7,0.5c4,2.8,9.5,2.1,12.7-1.6c1.5-1.8,3.1-3.7,4.5-5.6C225.5,195.5,224.6,189.6,220.4,186.4L220.4,186.4z"/><path fill="#000000" d="M234.4,152.1c-5-1.6-10.3,1.2-11.9,6.2c-0.6,1.9-1.3,3.8-2,5.7c-1.6,4.1-0.1,8.7,3.4,11.1c0.6,0.5,1.3,0.8,2.1,1.1c4.9,1.9,10.4-0.6,12.2-5.5c0.8-2.2,1.6-4.5,2.4-6.8C242.2,159,239.4,153.7,234.4,152.1L234.4,152.1z"/><path fill="#000000" d="M110.4,226.3c-8.5-1.5-16.6-4.1-24.3-7.7c-0.1,0-0.2-0.1-0.3-0.1c-1.8-0.9-3.6-1.8-5.4-2.7c0,0,0,0,0,0c-3.2-1.8-6.4-3.7-9.4-5.9c-44.6-31.5-55.3-93.3-23.9-138c6.8-9.7,15.1-17.8,24.3-24.2c0.1-0.1,0.2-0.2,0.3-0.2c32.5-22.4,76.6-23.9,111.1-0.9l-7.4,10.7c-2.1,3-0.8,5.2,2.8,4.8l32.2-2.9c3.6-0.3,5.8-3.4,4.8-6.9L206.6,21c-1-3.5-3.4-3.9-5.5-0.9l-7.4,10.7c-25.3-17-55.7-23.5-85.9-18.3c-3,0.5-6,1.2-9,1.9c0,0,0,0,0,0c-0.1,0-0.2,0.1-0.3,0.1c-26,6.7-48.7,21.8-64.9,43.5c-0.1,0.2-0.3,0.3-0.4,0.5c-0.5,0.7-1.1,1.5-1.6,2.2c-0.9,1.2-1.7,2.5-2.5,3.7c-0.1,0.1-0.2,0.3-0.3,0.5C15.4,85.7,9,109.6,10.1,134c0,0.1,0,0.2,0,0.2c0.1,2.4,0.3,4.8,0.6,7.2c0,0.1,0,0.3,0.1,0.5c0.3,2.4,0.6,4.8,1,7.2c4.2,24.4,15.8,46.4,33,63.5c0,0,0.1,0.1,0.1,0.1c0,0,0,0,0,0c4.6,4.6,9.7,8.8,15.1,12.6c14.2,10,30.1,16.6,47,19.7c5.2,0.9,10.1-2.5,11-7.7C119,232.2,115.6,227.2,110.4,226.3L110.4,226.3z"/><path fill="#000000" d="M122.2,52.2c-4.2,0-7.7,3.4-7.7,7.7v76.5l69.9,36.2c1.1,0.6,2.3,0.9,3.5,0.9c2.8,0,5.5-1.5,6.8-4.1c2-3.8,0.5-8.4-3.3-10.3L129.8,127V59.8C129.8,55.6,126.4,52.2,122.2,52.2L122.2,52.2z"/></g></g>
</svg>