<!-- Generated by IcoMoon.io -->
<svg version="1.1" xmlns="http://www.w3.org/2000/svg" width="32" height="32" viewBox="0 0 32 32">
<title>evernote</title>
<path fill="#20c05c" d="M22.529 15.136c-0.43-0.015-0.845 0.012-1.231 0.074 0.109-0.881 0.471-1.963 1.755-1.918 1.421 0.050 1.621 1.398 1.626 2.312-0.6-0.269-1.342-0.439-2.149-0.468zM28.606 5.567c-0.238-1.277-0.994-1.906-1.678-2.153-0.737-0.268-2.233-0.545-4.113-0.768-1.512-0.178-3.289-0.164-4.363-0.131-0.128-0.886-0.747-1.695-1.44-1.975-1.845-0.746-4.696-0.566-5.427-0.36-0.582 0.163-1.226 0.498-1.585 1.013-0.24 0.344-0.395 0.786-0.396 1.402 0 0.349 0.010 1.17 0.018 1.9 0.009 0.732 0.019 1.387 0.019 1.392 0 0.651-0.527 1.182-1.179 1.183h-2.991c-0.638 0-1.127 0.108-1.498 0.277-0.373 0.171-0.637 0.4-0.839 0.671-0.399 0.539-0.469 1.203-0.467 1.881 0 0 0.006 0.555 0.139 1.627 0.111 0.83 1.007 6.629 1.859 8.392 0.33 0.686 0.55 0.972 1.198 1.274 1.445 0.622 4.747 1.313 6.294 1.511 1.545 0.198 2.514 0.615 3.092-0.601 0.002-0.003 0.116-0.303 0.272-0.742 0.502-1.526 0.572-2.88 0.572-3.859 0-0.1 0.145-0.104 0.145 0 0 0.691-0.131 3.139 1.71 3.796 0.727 0.259 2.235 0.489 3.767 0.67 1.386 0.16 2.391 0.707 2.391 4.276 0 2.171-0.454 2.469-2.829 2.469-1.925 0-2.659 0.050-2.659-1.485 0-1.241 1.223-1.111 2.129-1.111 0.405 0 0.112-0.302 0.112-1.068 0-0.762 0.474-1.202 0.026-1.213-3.134-0.087-4.977-0.004-4.977 3.93 0 3.572 1.362 4.235 5.808 4.235 3.487 0 4.716-0.115 6.155-4.599 0.285-0.886 0.974-3.587 1.39-8.124 0.264-2.868-0.248-11.525-0.654-13.71zM5.33 6.198c-0.735 0-1.349 0.125-1.855 0.355-0.023 0.010-0.187 0.091-0.308 0.151 0.003-0.012 0.011-0.025 0.022-0.034l5.812-5.787c0.012-0.011 0.023-0.017 0.035-0.018l-0.103 0.192c-0.214 0.43-0.337 0.942-0.337 1.53v0.009c0 0.716 0.036 3.29 0.036 3.291 0 0.17-0.138 0.311-0.31 0.311h-2.993z"></path>
</svg>
