<!-- Generated by IcoMoon.io -->
<svg version="1.1" xmlns="http://www.w3.org/2000/svg" width="32" height="32" viewBox="0 0 32 32">
<title>fastly</title>
<path fill="#ff282d" d="M32 16c0 8.837-7.163 16-16 16s-16-7.163-16-16c0-8.837 7.163-16 16-16s16 7.163 16 16z"></path>
<path fill="#fff" d="M19.809 12.753v5.506h1.653v-0.841h-0.547v-5.506h-1.106v0.841zM5.453 17.419h0.563v-2.656h-0.563v-0.731l0.563-0.094v-0.741c0-0.897 0.194-1.284 1.338-1.284 0.247 0 0.537 0.037 0.794 0.081l-0.153 0.9c-0.172-0.028-0.259-0.031-0.369-0.031-0.403 0-0.503 0.041-0.503 0.434v0.641h0.834v0.822h-0.834v2.656h0.556v0.841h-2.225v-0.837zM19.247 17.153c-0.172 0.038-0.325 0.031-0.434 0.034-0.456 0.012-0.416-0.137-0.416-0.569v-1.856h0.866v-0.825h-0.866v-2.025h-1.106v4.934c0 0.969 0.238 1.409 1.281 1.409 0.247 0 0.584-0.063 0.841-0.119l-0.166-0.984zM15.906 14.759v-0.147c-0.334-0.063-0.669-0.063-0.847-0.063-0.516 0-0.578 0.272-0.578 0.422 0 0.209 0.072 0.322 0.628 0.444 0.816 0.184 1.634 0.375 1.634 1.388 0 0.959-0.494 1.456-1.534 1.456-0.697 0-1.369-0.15-1.884-0.281v-0.828h0.838v0.147c0.359 0.069 0.738 0.063 0.938 0.063 0.55 0 0.637-0.297 0.637-0.453 0-0.219-0.156-0.322-0.672-0.428-0.972-0.166-1.741-0.497-1.741-1.484 0-0.934 0.625-1.3 1.662-1.3 0.703 0 1.241 0.109 1.753 0.241v0.822h-0.834zM10.813 15.488l-0.084-0.084-0.428 0.372c-0.022-0.006-0.044-0.012-0.069-0.012-0.116 0-0.209 0.097-0.209 0.216s0.094 0.216 0.209 0.216 0.209-0.097 0.209-0.216c0-0.022-0.003-0.044-0.009-0.066l0.381-0.425zM12.509 17.153v-3.447h-1.106v0.322c-0.228-0.137-0.481-0.234-0.753-0.284h0.006v-0.381h0.134v-0.281h-1.116v0.281h0.134v0.381h0.006c-1.059 0.194-1.862 1.122-1.862 2.238 0 1.256 1.019 2.278 2.275 2.278 0.428 0 0.831-0.119 1.172-0.325l0.2 0.325h1.169v-1.106h-0.259zM10.297 17.15v-0.131h-0.131v0.131c-0.594-0.034-1.069-0.512-1.1-1.106h0.131v-0.131h-0.131c0.034-0.591 0.509-1.066 1.1-1.1v0.131h0.131v-0.131c0.581 0.031 1.053 0.488 1.103 1.066v0.037h-0.134v0.131h0.134v0.038c-0.050 0.575-0.519 1.034-1.103 1.066zM24.262 13.938h2.284v0.822h-0.547l-1.4 3.447c-0.4 0.969-1.059 1.878-2.066 1.878-0.247 0-0.575-0.028-0.803-0.081l0.1-1.006c0.147 0.028 0.337 0.047 0.438 0.047 0.466 0 0.991-0.288 1.156-0.791l-1.419-3.494h-0.547v-0.822h2.284v0.822h-0.547l0.803 1.978 0.803-1.978h-0.544l0.003-0.822z"></path>
</svg>
