<!-- Generated by IcoMoon.io -->
<svg version="1.1" xmlns="http://www.w3.org/2000/svg" width="32" height="32" viewBox="0 0 32 32">
<title>favicon-ru</title>
<path fill="#5c5f62" d="M28.336 0.464c-0.304-0.288-0.704-0.464-1.136-0.464h-22.4c-0.432 0-0.832 0.176-1.136 0.464-0.288 0.304-0.464 0.704-0.464 1.136v16c0 0.432 0.176 0.832 0.464 1.136 0.304 0.288 0.704 0.464 1.136 0.464h22.4c0.432 0 0.832-0.176 1.136-0.464 0.288-0.304 0.464-0.704 0.464-1.136v-16c0-0.432-0.176-0.832-0.464-1.136zM25.6 11.2l-3.856-2.931c-0.249-0.169-0.556-0.271-0.886-0.271-0.36 0-0.692 0.12-0.958 0.321l0.004-0.003-5.504 4.483-4.032-2.931c-0.48-0.32-1.088-0.352-1.6-0.096l-2.368 1.427v-8h19.2v8zM14.4 25.6c0.432 0 0.832-0.176 1.136-0.464 0.288-0.304 0.464-0.704 0.464-1.136s-0.176-0.832-0.464-1.136c-0.304-0.288-0.704-0.464-1.136-0.464-2.64 0-4.8 2.16-4.8 4.8s2.16 4.8 4.8 4.8c0.432 0 0.832-0.176 1.136-0.464 0.288-0.304 0.464-0.704 0.464-1.136s-0.176-0.832-0.464-1.136c-0.304-0.288-0.704-0.464-1.136-0.464-0.43-0.017-0.814-0.204-1.087-0.495l-0.001-0.001c-0.277-0.282-0.448-0.668-0.448-1.095 0-0.003 0-0.006 0-0.010v0c0-0.416 0.16-0.816 0.448-1.104 0.288-0.304 0.672-0.48 1.088-0.496zM24 22.4c-2.64 0-4.8 2.16-4.8 4.8s2.16 4.8 4.8 4.8 4.8-2.16 4.8-4.8-2.16-4.8-4.8-4.8zM25.088 28.304c-0.288 0.304-0.672 0.48-1.088 0.496-0.43-0.017-0.814-0.204-1.087-0.495l-0.001-0.001c-0.277-0.282-0.448-0.668-0.448-1.095 0-0.003 0-0.006 0-0.010v0c0-0.416 0.16-0.816 0.448-1.104 0.288-0.304 0.672-0.48 1.088-0.496 0.416 0.016 0.8 0.192 1.088 0.496 0.288 0.288 0.448 0.688 0.448 1.104s-0.16 0.816-0.448 1.104zM4.8 22.4c-0.432 0-0.832 0.176-1.136 0.464-0.288 0.304-0.464 0.704-0.464 1.136v6.4c0 0.432 0.176 0.832 0.464 1.136 0.304 0.288 0.704 0.464 1.136 0.464s0.832-0.176 1.136-0.464c0.288-0.304 0.464-0.704 0.464-1.136v-6.4c0-0.432-0.176-0.832-0.464-1.136-0.304-0.288-0.704-0.464-1.136-0.464z"></path>
</svg>
