<!-- Generated by IcoMoon.io -->
<svg version="1.1" xmlns="http://www.w3.org/2000/svg" width="32" height="32" viewBox="0 0 32 32">
<title>favicon</title>
<path d="M1.455 5.818h1.455v-1.455h26.182v1.455h1.455v20.364h-1.455v1.455h-26.182v-1.455h-1.455v-20.364zM4.364 20.364h1.455v-1.455h1.455v-1.455h1.455v-1.455h1.455v-1.455h1.455v-1.455h2.909v1.455h1.455v1.455h1.455v1.455h1.455v1.455h1.455v1.455h1.455v1.455h1.455v1.455h1.455v1.455h2.909v-17.455h-23.273v13.091zM20.364 24.727v-1.455h-1.455v-1.455h-1.455v-1.455h-1.455v-1.455h-1.455v-1.455h-2.909v1.455h-1.455v1.455h-1.455v1.455h-1.455v1.455h-1.455v1.455h14.545zM18.909 11.636h1.455v-1.455h2.909v1.455h1.455v2.909h-1.455v1.455h-2.909v-1.455h-1.455v-2.909z"></path>
</svg>
