<!-- Generated by IcoMoon.io -->
<svg version="1.1" xmlns="http://www.w3.org/2000/svg" width="32" height="32" viewBox="0 0 32 32">
<title>figma</title>
<path fill="#1abcfe" d="M16 16c0-2.209 1.791-4 4-4s4 1.791 4 4c0 2.209-1.791 4-4 4s-4-1.791-4-4z"></path>
<path fill="#0acf83" d="M8 24c0-2.209 1.791-4 4-4h4v4c0 2.209-1.791 4-4 4s-4-1.791-4-4z"></path>
<path fill="#ff7262" d="M16 4v8h4c2.209 0 4-1.791 4-4s-1.791-4-4-4h-4z"></path>
<path fill="#f24e1e" d="M8 8c0 2.209 1.791 4 4 4h4v-8h-4c-2.209 0-4 1.791-4 4z"></path>
<path fill="#a259ff" d="M8 16c0 2.209 1.791 4 4 4h4v-8h-4c-2.209 0-4 1.791-4 4z"></path>
</svg>
