<!-- Generated by IcoMoon.io -->
<svg version="1.1" xmlns="http://www.w3.org/2000/svg" width="32" height="32" viewBox="0 0 32 32">
<title>fontsquirrel</title>
<path fill="#3688ff" d="M25.291 32h-18.581c-2.228 0-4.044-1.813-4.044-4.044v-23.913c0-2.231 1.816-4.044 4.044-4.044h18.581c2.228 0 4.044 1.813 4.044 4.044v23.916c0 2.228-1.816 4.041-4.044 4.041zM6.709 2.666c-0.759 0-1.375 0.619-1.375 1.375v23.916c0 0.759 0.619 1.375 1.375 1.375h18.581c0.759 0 1.375-0.619 1.375-1.375v-23.913c0-0.759-0.619-1.375-1.375-1.375h-18.581z"></path>
<path fill="#5f6379" d="M22.666 12c-0.738 0-1.334-0.597-1.334-1.334v-0.666h-10.666v0.666c0 0.738-0.597 1.334-1.334 1.334s-1.331-0.597-1.331-1.334v-2c0-0.737 0.597-1.334 1.334-1.334h13.334c0.738 0 1.334 0.597 1.334 1.334v2c-0.003 0.738-0.6 1.334-1.337 1.334z"></path>
<path fill="#5f6379" d="M16 24.666c-0.738 0-1.334-0.597-1.334-1.334v-14.666c0-0.737 0.597-1.334 1.334-1.334s1.334 0.597 1.334 1.334v14.666c0 0.738-0.597 1.334-1.334 1.334z"></path>
<path fill="#5f6379" d="M19.334 24.666h-6.669c-0.738 0-1.334-0.597-1.334-1.334s0.597-1.334 1.334-1.334h6.666c0.738 0 1.334 0.597 1.334 1.334s-0.597 1.334-1.331 1.334z"></path>
</svg>
