<!-- Generated by IcoMoon.io -->
<svg version="1.1" xmlns="http://www.w3.org/2000/svg" width="32" height="32" viewBox="0 0 32 32">
<title>font</title>
<path d="M7.273 2.809c-0.796 0-1.43 0.642-1.43 1.438v23.508c0 0.796 0.634 1.438 1.43 1.438h17.453c0.796 0 1.43-0.642 1.43-1.438v-17.664h-5.258c-1.077 0-2.016-0.785-2.016-1.828v-5.453h-11.609zM19.883 2.809v5.453c0 0.429 0.408 0.828 1.016 0.828h5.258l-6.273-6.281zM20.719 11.973h0.328l-0.953 10.438c-0.049 0.487-0.078 0.807-0.078 0.961 0 0.247 0.048 0.433 0.141 0.563 0.117 0.179 0.271 0.312 0.469 0.398 0.204 0.086 0.548 0.133 1.023 0.133l-0.102 0.344h-4.945l0.102-0.344h0.211c0.401 0 0.731-0.085 0.984-0.258 0.179-0.117 0.315-0.314 0.414-0.586 0.068-0.191 0.134-0.642 0.195-1.352l0.148-1.594h-3.594l-1.273 1.734c-0.29 0.389-0.473 0.671-0.547 0.844-0.074 0.167-0.109 0.321-0.109 0.469 0 0.197 0.074 0.366 0.234 0.508s0.427 0.222 0.797 0.234l-0.102 0.344h-3.711l0.102-0.344c0.457-0.018 0.858-0.169 1.203-0.453 0.352-0.29 0.879-0.906 1.57-1.844l7.492-10.195zM19.211 15.051l-3.641 4.953h3.156l0.484-4.953z"></path>
</svg>
