<!-- Generated by IcoMoon.io -->
<svg version="1.1" xmlns="http://www.w3.org/2000/svg" width="32" height="32" viewBox="0 0 32 32">
<title>fontawesome</title>
<path d="M3.428 0c-1.893 0.001-3.427 1.535-3.428 3.428v25.145c0.002 1.892 1.536 3.426 3.428 3.427h25.145c1.892-0.002 3.426-1.536 3.427-3.428v-25.145c-0.002-1.892-1.536-3.426-3.428-3.427v0zM9.193 5.333c1.324 0 2.391 1.067 2.391 2.388 0 0.012 0 0.027 0 0.042 0 0.753-0.367 1.421-0.933 1.833l-0.006 0.005v1.324c0.171-0.057 2.448-1.196 4.779-1.196 2.72 0 4.071 1.153 5.291 1.153 1.623 0 3.413-1.153 3.84-1.153 0.343 0 0.64 0.256 0.64 0.555v10.028c0 0.299-0.255 0.427-0.553 0.555-1.195 0.512-2.476 0.981-3.84 0.981-1.92 0-2.817-1.195-5.121-1.195-1.664 0-3.413 0.597-4.821 1.239-0.085 0.043-0.172 0.043-0.257 0.085v3.243c0 0.892-0.671 1.451-1.408 1.451-0.003 0-0.007 0-0.011 0-0.795 0-1.44-0.645-1.44-1.44 0-0.004 0-0.008 0-0.011v0.001-15.62c-0.568-0.436-0.932-1.114-0.939-1.876v-0.001c0-1.321 1.067-2.388 2.389-2.388z"></path>
</svg>
