<!-- Generated by IcoMoon.io -->
<svg version="1.1" xmlns="http://www.w3.org/2000/svg" width="32" height="32" viewBox="0 0 32 32">
<title>freefonts</title>
<path d="M26.352 0.5h-20.704c-3.119 0-5.648 2.529-5.648 5.648v0 19.705c0 3.119 2.529 5.648 5.648 5.648v0h20.704c3.119 0 5.648-2.529 5.648-5.648 0-0 0-0.001 0-0.001v0-19.705c-0.001-3.119-2.529-5.647-5.648-5.647v0zM22.019 9.215c-0.323 0-0.485-0.241-0.587-0.585-0.343-1.293-0.787-1.676-1.049-1.676s-0.667 0.485-1.111 1.493c-0.556 1.293-1.005 2.627-1.343 3.992l2.309-0.003c0.147 0.373 0.013 0.8-0.317 1.029h-2.281c-0.747 2.504-1.375 4.917-2.123 7.28-0.354 1.296-0.858 2.431-1.505 3.468l0.032-0.054c-0.747 1.050-1.945 1.737-3.306 1.776l-0.006 0c-1.031 0-2.040-0.484-2.040-1.555 0.048-0.671 0.565-1.213 1.232-1.293 0.007-0 0.016-0 0.024-0 0.233 0 0.436 0.13 0.539 0.321l0.002 0.003c0.505 0.909 0.989 1.433 1.212 1.433 0.221 0 0.404-0.303 0.767-1.615l2.651-9.763-1.907-0.003c-0.034-0.092-0.054-0.198-0.054-0.308 0-0.294 0.139-0.555 0.354-0.722l0.002-0.002h1.897c0.343-1.193 0.812-2.347 1.397-3.44 0.789-1.679 2.431-2.84 4.352-2.926l0.011-0c1.515 0 2.14 0.727 2.14 1.656-0.007 0.755-0.561 1.378-1.285 1.492l-0.009 0.001z"></path>
</svg>
