<!-- Generated by IcoMoon.io -->
<svg version="1.1" xmlns="http://www.w3.org/2000/svg" width="32" height="32" viewBox="0 0 32 32">
<title>gcp</title>
<path fill="#ea4335" d="M20.626 10.752l3.774-3-0.664-0.828c-2.074-1.816-4.808-2.923-7.8-2.923-1.202 0-2.362 0.179-3.456 0.511l0.084-0.022c-3.882 1.199-6.858 4.245-7.936 8.085l-0.020 0.083c-0.060 0.226 0.624-0.196 0.926-0.112l5.216-0.856s0.254-0.248 0.402-0.41c2.32-2.532 6.252-2.864 8.93-0.708l0.544 0.18z"></path>
<path fill="#4285f4" d="M27.274 12.6c-0.634-2.271-1.871-4.2-3.528-5.665l-0.012-0.011-3.66 3.64c1.461 1.192 2.387 2.993 2.387 5.010 0 0.041 0 0.083-0.001 0.124v-0.006 0.646c1.8 0 3.26 1.45 3.26 3.24 0 1.786-1.46 3.238-3.26 3.238l-6.514-0.006-0.65 0.070v5.014l0.65 0.106h6.514c0.025 0 0.054 0 0.083 0 3.768 0 6.962-2.462 8.060-5.864l0.017-0.060c0.241-0.746 0.38-1.605 0.38-2.496 0-2.897-1.467-5.451-3.698-6.961l-0.030-0.019z"></path>
<path fill="#34a853" d="M9.422 27.998h6.518v-5.188h-6.52c-0.464 0-0.922-0.132-1.344-0.322l-0.916 0.28-2.626 2.594-0.228 0.894c1.403 1.078 3.181 1.73 5.112 1.74h0.002z"></path>
<path fill="#fbbc05" d="M9.422 11.144c-3.685 0.016-6.812 2.382-7.962 5.677l-0.018 0.059c-0.28 0.802-0.442 1.727-0.442 2.69 0 2.717 1.288 5.134 3.288 6.672l0.020 0.015 3.78-3.768c-1.139-0.517-1.917-1.645-1.917-2.954 0-1.632 1.209-2.982 2.78-3.202l0.017-0.002c0.139-0.021 0.3-0.033 0.463-0.033 1.309 0 2.438 0.772 2.957 1.885l0.008 0.020 3.78-3.756c-1.566-2.017-3.991-3.302-6.716-3.302-0.014 0-0.028 0-0.043 0h0.002z"></path>
</svg>
