<!-- Generated by IcoMoon.io -->
<svg version="1.1" xmlns="http://www.w3.org/2000/svg" width="32" height="32" viewBox="0 0 32 32">
<title>gdocs</title>
<path fill="#3c8cea" d="M4.55 0c-1.4 0-2.55 1.15-2.55 2.55v26.9c0 1.4 1.15 2.55 2.55 2.55h22.9c1.4 0 2.55-1.15 2.55-2.55v-19.3l-9.45-10.15c0 0-16 0-16 0z"></path>
<path fill="#2d6fe4" d="M30 10.2v0.5h-6.4c0 0-3.2-0.65-3.1-3.35 0 0 0.1 2.85 3 2.85h6.5z"></path>
<path fill="#fff" opacity="0.5" d="M20.55 0v7.3c0 0.8 0.55 2.9 3.050 2.9h6.4c0 0-9.45-10.2-9.45-10.2z"></path>
<path fill="#fff" d="M14.95 22.55h-3.8v1.1h2.7c-0.15 1.6-1.45 2.25-2.7 2.25-1.6 0-2.95-1.25-2.95-3 0-1.7 1.3-3 2.95-3 1.25 0 2.050 0.8 2.050 0.8l0.8-0.8c0 0-1-1.1-2.85-1.1-2.35 0-4.15 2-4.15 4.1s1.7 4.15 4.2 4.15c2.2 0 3.85-1.5 3.85-3.75-0.050-0.45-0.1-0.75-0.1-0.75v0z"></path>
</svg>
