<!-- Generated by IcoMoon.io -->
<svg version="1.1" xmlns="http://www.w3.org/2000/svg" width="32" height="32" viewBox="0 0 32 32">
<title>gitlab</title>
<path fill="#fc6d26" d="M29.95 17.808l-1.57-4.708-3.104-9.34c-0.075-0.211-0.273-0.36-0.506-0.36-0.001 0-0.003 0-0.004 0v0c0 0-0.001 0-0.002 0-0.233 0-0.431 0.149-0.505 0.356l-0.001 0.004-3.104 9.334h-10.31l-3.104-9.336c-0.075-0.21-0.272-0.358-0.504-0.358-0.001 0-0.003 0-0.004 0v0c-0.001 0-0.002 0-0.003 0-0.233 0-0.43 0.149-0.504 0.356l-0.001 0.004-3.1 9.334-1.568 4.714c-0.033 0.096-0.052 0.208-0.052 0.323 0 0.347 0.172 0.654 0.435 0.841l0.003 0.002 13.56 9.624 13.556-9.624c0.269-0.189 0.443-0.498 0.443-0.847 0-0.114-0.018-0.224-0.053-0.326l0.002 0.007z"></path>
<path fill="#e24329" d="M16 28.592l5.156-15.5h-10.31l5.154 15.5z"></path>
<path fill="#fc6d26" d="M16 28.592l-5.158-15.5h-7.216l12.374 15.5z"></path>
<path fill="#fca326" d="M3.62 13.098l-1.568 4.708c-0.033 0.096-0.052 0.208-0.052 0.323 0 0.347 0.172 0.654 0.435 0.841l0.003 0.002 13.562 9.628-12.38-15.5z"></path>
<path fill="#e24329" d="M3.624 13.098h7.224l-3.108-9.334c-0.075-0.211-0.273-0.36-0.506-0.36-0.001 0-0.001 0-0.002 0v0c-0.001 0-0.002 0-0.004 0-0.233 0-0.431 0.149-0.505 0.356l-0.001 0.004-3.098 9.334z"></path>
<path fill="#fc6d26" d="M16 28.592l5.156-15.5h7.228l-12.384 15.5z"></path>
<path fill="#fca326" d="M28.38 13.098l1.566 4.708c0.033 0.097 0.052 0.208 0.052 0.324 0 0.347-0.172 0.654-0.435 0.84l-0.003 0.002-13.56 9.62 12.378-15.494z"></path>
<path fill="#e24329" d="M28.38 13.098h-7.22l3.102-9.334c0.074-0.211 0.272-0.36 0.505-0.36 0.002 0 0.004 0 0.005 0v0c0.23 0 0.434 0.146 0.508 0.36l3.104 9.334z"></path>
</svg>
