<!-- Generated by IcoMoon.io -->
<svg version="1.1" xmlns="http://www.w3.org/2000/svg" width="32" height="32" viewBox="0 0 32 32">
<title>glitch</title>
<path fill="#000" d="M9.704 5.568c-3.019-0.606-10.117 2.484-9.685 5.952v0c1.074 0.319 2.009 0.71 1.856 1.11v0h29.541c0.178-1.183-0.751-2.090-0.123-3.077v0c0.198-0.312 0.349-0.667 0.454-1.022v0-1.919c-0.016-0.014-0.033-0.026-0.051-0.035v0c-7.335 2.374-3.773 1.872-11.602 0.001v0c-1.358-1.705-5.868-2.94-7.969-3.078v0c-0.807 0-2.421 2.068-2.421 2.068z"></path>
<path fill="#000" d="M19.439 11.621v0.908h-17.548c0.016 0.268-0.427 0.544-1.62 0.807v0c1.059 1.312 4.186 2.572 5.296 2.724v0c-0.199 0.041-0.419 0.115-0.654 0.215v0c3.55 0.447 7.748 0.598 9.835 0.642v0h6.887c-0.074-0.017-0.15-0.033-0.229-0.050v0c-1.532-0.289-0.92-0.080-1.665-0.504v0c9.863-2.374 4.148-2.023 11.954-0.303v0c0.253-0.454-0.958-1.564-0.403-2.976v0c0.211-0.537 0.159-1.015 0.053-1.463v0h-11.908z"></path>
<path fill="#000" d="M12.579 15.203v0.908c-1.649-0.034-4.5-0.053-7.191-0.006v0c-1.778 0.503-4.919 3.187-5.369 4.765v0 0.643c0.014 0.033 0.031 0.066 0.050 0.096v0c0.938 0.279 1.771 0.612 1.864 0.958v0h13.218v-0.908h16.207c-0.169-0.752-0.513-1.414-0.065-2.119v0c0.461-0.992 0.676-1.672 0.706-2.121v0-0.199c-0.129-1.668-3.746 0.987-5.75 1.008v0c-2.27-0.404-1.816-0.706-4.843-1.362v0c-1.532-0.289-0.92-0.080-1.665-0.504v0c1.875-0.451 3.187-0.804 4.136-1.068v0-0.092h-11.299z"></path>
<path fill="#974dff" d="M11.369 8.040h0.050c1.209 2.141 0.439 3.785-0.202 5.902v0c-0.181 0.428 0.471 0.76 0.656 0.303v0c0.514-1.966 1.328-4.128 0.353-6.104v0h0.101c4.667 0.036 9.391 0.883 13.62 2.926v0c0.281 0.064 1.185 0.759 1.362 0.202v0c-2.037-2.409-9.963-3.781-13.317-3.683v0c-0.146 0.028-0.495-0.017-0.894-0.061v0c-0.313-0.035-0.657-0.069-0.959-0.069v0c-0.561 0-0.976 0.12-0.77 0.584v0z"></path>
<path fill="#f1a5ff" d="M11.369 8.040h0.050c0.729 1.379 0.916 3.065 0.202 4.489v0h0.706c0.367-1.431 0.49-2.965-0.151-4.338v0c4.723 0.014 9.515 0.787 13.771 2.926v0c0.28 0.049 1.237 0.809 1.362 0.202v0c-2.141-2.455-9.868-3.831-13.317-3.733v0c-0.166 0.032-0.512-0.015-0.901-0.062v0c-0.3-0.036-0.625-0.072-0.912-0.072v0c-0.528 0-0.928 0.122-0.81 0.588v0z"></path>
<path fill="#974dff" d="M9.553 8.292h0.050c0.98 1.333 0.936 2.945 0.303 4.389v0c-0.212 0.351 0.315 0.702 0.504 0.303v0c0.354-0.747 0.598-1.591 0.605-2.421v0c0.007-0.934-0.419-1.897-0.908-2.673v0c-0.064-0.115-0.157-0.163-0.252-0.163v0c-0.244 0-0.5 0.312-0.303 0.566v0z"></path>
<path fill="#f1a5ff" d="M10.612 12.529c0.293-1.221 0.509-2.519-0.151-3.682-0.092-0.191-0.365-0.743-0.353-0.958-0.21-0.389-0.77-0.002-0.555 0.353h0.050c0.897 1.281 1.009 2.877 0.353 4.288h0.656z"></path>
<path fill="#f1a5ff" d="M9.553 8.242h0.050c0.896 1.281 1.009 2.877 0.353 4.288v0h0.656c0.293-1.221 0.509-2.519-0.151-3.682v0c-0.092-0.191-0.365-0.743-0.353-0.958v0c-0.063-0.115-0.155-0.162-0.25-0.162v0c-0.224 0-0.457 0.266-0.305 0.516v0z"></path>
<path fill="#000" d="M15.101 21.659v0.908h-13.168c0.077 0.284-0.344 0.578-1.612 0.858v0c2.443 2.374 5.484 3.123 8.171 2.522v0c0.42 1.894 3.959 2.978 6.306 2.22v0c0.032-0.485-0.054-0.969-0.252-1.412v0c3.28 0.558 11.286-1.959 11.703-2.169v0c0.378-0.070 1.54 0.345 2.696 0.761v0c1.313 0.472 2.617 0.944 2.752 0.702v0c0.253-0.454-0.958-1.564-0.403-2.976v0c0.203-0.517 0.163-0.979 0.065-1.412v0h-16.257z"></path>
<path fill="#373fff" d="M11.369 18.128h0.050c1.221 2.154 0.416 3.819-0.202 5.952v0c-0.181 0.429 0.471 0.76 0.656 0.303v0c0.552-1.943 1.307-4.098 0.353-6.054v0l0.101-0.050c4.666 0.038 9.395 0.807 13.62 2.875v0c0.281 0.064 1.185 0.758 1.362 0.202v0c-2.037-2.409-9.963-3.781-13.317-3.682v0c-0.146 0.028-0.494-0.017-0.893-0.061v0c-0.313-0.035-0.658-0.070-0.96-0.070v0c-0.561 0-0.976 0.121-0.77 0.584v0z"></path>
<path fill="#f1a5ff" d="M11.369 18.128h0.050c0.722 1.364 0.916 3.030 0.202 4.439v0h0.706c0.37-1.431 0.49-2.965-0.151-4.338v0c4.718 0.016 9.496 0.862 13.771 2.926v0c0.28 0.064 1.186 0.759 1.362 0.202v0c-2.036-2.409-9.963-3.782-13.317-3.682v0c-0.146 0.028-0.494-0.017-0.893-0.061v0c-0.313-0.035-0.658-0.070-0.96-0.070v0c-0.561 0-0.976 0.121-0.77 0.584v0z"></path>
<path fill="#373fff" d="M9.553 18.381h0.050c0.98 1.333 0.936 2.945 0.303 4.389-0.212 0.351 0.315 0.702 0.504 0.303 0.354-0.747 0.598-1.591 0.605-2.421 0.020-0.96-0.46-1.9-0.908-2.724-0.249-0.438-0.897 0.107-0.555 0.454z"></path>
<path fill="#f1a5ff" d="M10.612 22.567c0.13-0.826 0.441-1.665 0.252-2.522-0.025-0.499-1.276-3.457-1.412-1.715h0.151c0.905 1.281 1.010 2.874 0.353 4.288l0.656-0.050z"></path>
<path fill="#f1a5ff" d="M9.452 18.33h0.151c0.905 1.281 1.010 2.875 0.353 4.288v0l0.656-0.050c0.13-0.825 0.441-1.665 0.252-2.522v0c-0.020-0.388-0.778-2.259-1.18-2.259v0c-0.116 0-0.201 0.154-0.232 0.543v0z"></path>
<path fill="#000" d="M5.467 8.645c0.752 0 1.362 0.61 1.362 1.362s-0.61 1.362-1.362 1.362c-0.752 0-1.362-0.61-1.362-1.362s0.61-1.362 1.362-1.362z"></path>
<path fill="#fff" d="M4.054 9.906v0c0.028-0.808 0.705-1.44 1.512-1.411s1.44 0.705 1.411 1.512c-0.027 0.787-0.673 1.412-1.461 1.412-0.75 0.057-1.405-0.504-1.462-1.254-0-0.003-0-0.005-0-0.008 0.079 0.566 0.592 0.968 1.16 0.908 0.641 0 1.16-0.519 1.16-1.16s-0.52-1.16-1.16-1.16-1.16 0.52-1.16 1.16z"></path>
<path fill="#fff" d="M4.66 9.906c0.222 0 0.404 0.181 0.404 0.404s-0.181 0.404-0.404 0.404c-0.223 0-0.404-0.181-0.404-0.404s0.181-0.404 0.404-0.404z"></path>
<path fill="#000" d="M5.467 18.734c0.752 0 1.362 0.609 1.362 1.361s-0.61 1.362-1.362 1.362c-0.752 0-1.362-0.61-1.362-1.362s0.61-1.361 1.362-1.361z"></path>
<path fill="#fff" d="M4.054 19.944v0c0.028-0.808 0.705-1.44 1.512-1.411s1.44 0.705 1.411 1.512c-0.027 0.788-0.673 1.412-1.461 1.412-0.75 0.058-1.405-0.503-1.462-1.253-0-0.003-0-0.005-0-0.008 0.052 0.583 0.568 1.012 1.151 0.959 0.004-0 0.006-0.001 0.010-0.001 0.641-0 1.16-0.521 1.159-1.161s-0.521-1.16-1.162-1.159c-0.62 0.001-1.13 0.49-1.158 1.11z"></path>
<path fill="#fff" d="M4.66 19.995c0.222 0 0.404 0.18 0.404 0.404s-0.181 0.404-0.404 0.404c-0.223 0-0.404-0.181-0.404-0.404 0-0.223 0.181-0.404 0.404-0.404z"></path>
</svg>
