<!-- Generated by IcoMoon.io -->
<svg version="1.1" xmlns="http://www.w3.org/2000/svg" width="32" height="32" viewBox="0 0 32 32">
<title>google-drive</title>
<path fill="#0066da" d="M2.419 26.192l1.411 2.438c0.293 0.513 0.715 0.916 1.21 1.21 1.417-1.799 2.404-3.18 2.96-4.142 0.564-0.976 1.258-2.504 2.080-4.582-2.217-0.292-3.897-0.438-5.040-0.438-1.097 0-2.777 0.146-5.040 0.438 0 0.568 0.147 1.136 0.44 1.649l1.979 3.427z"></path>
<path fill="#ea4335" d="M26.96 29.839c0.495-0.293 0.916-0.696 1.21-1.21l0.587-1.008 2.804-4.857c0.293-0.513 0.44-1.081 0.44-1.649-2.276-0.292-3.953-0.438-5.031-0.438-1.158 0-2.835 0.146-5.031 0.438 0.813 2.090 1.497 3.617 2.053 4.582 0.56 0.974 1.55 2.354 2.969 4.142z"></path>
<path fill="#00832d" d="M16 10.851c1.64-1.981 2.77-3.508 3.391-4.582 0.5-0.865 1.049-2.245 1.649-4.142-0.495-0.293-1.063-0.44-1.649-0.44h-6.781c-0.587 0-1.155 0.165-1.65 0.44 0.763 2.175 1.411 3.723 1.943 4.644 0.588 1.018 1.62 2.378 3.097 4.080z"></path>
<path fill="#2684fc" d="M21.92 21.115h-11.84l-5.040 8.724c0.495 0.293 1.063 0.44 1.65 0.44h18.621c0.587 0 1.155-0.165 1.65-0.44l-5.040-8.724z"></path>
<path fill="#00ac47" d="M16 10.851l-5.040-8.724c-0.495 0.293-0.916 0.696-1.21 1.21l-9.31 16.128c-0.293 0.513-0.44 1.081-0.44 1.65h10.080l5.92-10.264z"></path>
<path fill="#ffba00" d="M26.905 11.401l-4.655-8.064c-0.293-0.513-0.715-0.916-1.21-1.21l-5.040 8.724 5.92 10.264h10.062c0-0.568-0.147-1.136-0.44-1.65l-4.637-8.064z"></path>
</svg>
