<!-- Generated by IcoMoon.io -->
<svg version="1.1" xmlns="http://www.w3.org/2000/svg" width="32" height="32" viewBox="0 0 32 32">
<title>google-classroom</title>
<path d="M18.667 24h5.333v2.667h-5.333z"></path>
<path d="M16 16c1.105 0 2-0.895 2-2s-0.895-2-2-2v0c-1.105 0-2 0.895-2 2s0.895 2 2 2v0zM16 17c-1.335 0-4 0.669-4 2v1h8v-1c0-1.331-2.665-2-4-2z"></path>
<path d="M21 14c-0.828 0-1.5 0.672-1.5 1.5s0.672 1.5 1.5 1.5v0c0.828 0 1.5-0.672 1.5-1.5s-0.672-1.5-1.5-1.5v0zM21 17.751c-0.227 0-0.507 0.027-0.803 0.077 0.271 0.313 0.469 0.716 0.469 1.172v1h3.333v-0.751c0-0.997-2-1.499-3-1.499zM18.693 18.331c-0.409 0.235-0.693 0.543-0.693 0.92v0.083h1.333v-0.333c0-0.109-0.043-0.216-0.224-0.383-0.122-0.106-0.258-0.201-0.404-0.281l-0.012-0.006zM11 14c-0.828 0-1.5 0.672-1.5 1.5s0.672 1.5 1.5 1.5v0c0.828 0 1.5-0.672 1.5-1.5s-0.672-1.5-1.5-1.5v0zM11 17.751c-1 0-3 0.501-3 1.499v0.751h3.333v-1c0-0.456 0.2-0.859 0.469-1.172-0.239-0.046-0.516-0.075-0.799-0.079l-0.004-0zM13.307 18.331c-0.158 0.085-0.294 0.18-0.419 0.289l0.003-0.002c-0.181 0.167-0.224 0.273-0.224 0.383v0.333h1.333v-0.084c0-0.376-0.284-0.684-0.693-0.919z"></path>
</svg>
