<!-- Generated by IcoMoon.io -->
<svg version="1.1" xmlns="http://www.w3.org/2000/svg" width="32" height="32" viewBox="0 0 32 32">
<title>googlefonts</title>
<path d="M5.333 3.733c-2.651 0-4.8 2.149-4.8 4.8s2.149 4.8 4.8 4.8v0c2.651 0 4.8-2.149 4.8-4.8s-2.149-4.8-4.8-4.8v0zM15.467 3.733v24.533h9.6c-3.829 0-6.933-3.104-6.933-6.933s3.104-6.933 6.933-6.933v0c-2.946 0-5.333-2.388-5.333-5.333s2.388-5.333 5.333-5.333v0zM25.067 3.733v10.667c2.946 0 5.333-2.388 5.333-5.333s-2.388-5.333-5.333-5.333v0zM25.067 14.4v13.867c3.829 0 6.933-3.104 6.933-6.933v0c0-3.829-3.104-6.933-6.933-6.933v0zM14.8 4.792l-14.8 23.473h11.733l3.067-4.853z"></path>
</svg>
