<!-- Generated by IcoMoon.io -->
<svg version="1.1" xmlns="http://www.w3.org/2000/svg" width="32" height="32" viewBox="0 0 32 32">
<title>google-meet</title>
<path fill="#00832d" d="M18.103 15.978l3.12 3.566 4.195 2.681 0.73-6.224-0.73-6.084-4.276 2.355z"></path>
<path fill="#0066da" d="M0 21.645v5.304c0 1.211 0.983 2.194 2.194 2.194h5.304l1.098-4.007-1.098-3.491-3.639-1.098-3.859 1.098z"></path>
<path fill="#e94235" d="M7.498 2.813l-7.498 7.498 3.859 1.096 3.639-1.096 1.078-3.443z"></path>
<path fill="#2684fc" d="M0 21.647h7.498v-11.337h-7.498z"></path>
<path fill="#00ac47" d="M30.207 5.987l-4.79 3.93v12.307l4.81 3.945c0.72 0.564 1.773 0.050 1.773-0.865v-18.469c0-0.925-1.078-1.437-1.793-0.848z"></path>
<path fill="#00ac47" d="M18.103 15.978v5.667h-10.605v7.498h15.725c1.211 0 2.194-0.983 2.194-2.194v-4.724l-7.315-6.247z"></path>
<path fill="#ffba00" d="M23.223 2.813h-15.725v7.498h10.605v5.667l7.315-6.061v-4.91c0-1.211-0.983-2.194-2.194-2.194z"></path>
</svg>
