<!-- Generated by IcoMoon.io -->
<svg version="1.1" xmlns="http://www.w3.org/2000/svg" width="32" height="32" viewBox="0 0 32 32">
<title>google</title>
<path d="M26.347 14.36l-0.12-0.467h-9.92v4.213h5.933c-0.331 1.286-1.084 2.423-2.138 3.231s-2.348 1.238-3.676 1.223c-1.732-0.014-3.397-0.675-4.667-1.853-0.624-0.615-1.121-1.348-1.462-2.155s-0.519-1.675-0.525-2.551c0.020-1.761 0.717-3.446 1.947-4.707 1.252-1.186 2.915-1.841 4.64-1.827 1.477 0.011 2.899 0.561 4 1.547l2.933-3.013c-1.933-1.725-4.436-2.675-7.027-2.667-1.425-0.008-2.838 0.264-4.158 0.801s-2.521 1.33-3.535 2.332c-1.928 2.003-3.016 4.669-3.038 7.449s1.022 5.463 2.918 7.497c1.050 1.047 2.299 1.873 3.673 2.432s2.845 0.838 4.327 0.821c1.345 0.010 2.677-0.253 3.917-0.773s2.361-1.287 3.296-2.253c1.835-2.017 2.827-4.66 2.773-7.387 0.014-0.633-0.017-1.265-0.093-1.893z"></path>
</svg>
