<!-- Generated by IcoMoon.io -->
<svg version="1.1" xmlns="http://www.w3.org/2000/svg" width="32" height="32" viewBox="0 0 32 32">
<title>google-translate</title>
<path d="M5.667 4.667c-0.552 0-1 0.448-1 1v0 16.667c0 0.552 0.448 1 1 1v0h14.563l-6.925-18.667h-7.638zM2.667 5.667c0-1.657 1.343-3 3-3h8.333c0.427 0 0.792 0.268 0.935 0.645l0.002 0.007 1.242 3.348h10.154c1.657 0 3 1.343 3 3v16.667c0 1.657-1.343 3-3 3h-8.333c0 0 0 0 0 0-0.427 0-0.792-0.268-0.935-0.645l-0.002-0.007-1.242-3.348h-10.154c-1.657 0-3-1.343-3-3v-16.667zM22.604 23.985l-0.002-0.007c0.042 0.11 0.065 0.23 0.065 0.355 0 0.214-0.067 0.412-0.179 0.571l-0.002 0.003c-0.181 0.258-0.48 0.426-0.819 0.426 0 0 0 0 0 0h-3.713l0.742 2h7.638c0.552 0 1-0.448 1-1v-16.667c0-0.552-0.448-1-1-1h-9.412l5.683 15.319zM8 14.667c0 1.473 1.194 2.667 2.667 2.667 1.119 0 2.077-0.689 2.473-1.667h-2.473c-0.552 0-1-0.448-1-1s0.448-1 1-1h3.667c0.552 0 1 0.448 1 1 0 2.577-2.089 4.667-4.667 4.667s-4.667-2.089-4.667-4.667c0-2.577 2.089-4.667 4.667-4.667v0c0.002 0 0.003 0 0.005 0 1.287 0 2.452 0.522 3.295 1.367v0c0.178 0.181 0.287 0.428 0.287 0.701 0 0.552-0.448 1-1 1-0.273 0-0.521-0.11-0.701-0.287-0.484-0.484-1.149-0.781-1.886-0.781-1.473 0-2.667 1.194-2.667 2.667z"></path>
</svg>
