<!-- Generated by IcoMoon.io -->
<svg version="1.1" xmlns="http://www.w3.org/2000/svg" width="32" height="32" viewBox="0 0 32 32">
<title>habr</title>
<path d="M1.52 12.393l0.227 0.337c-0.453-0.013-0.928-0.057-1.019-0.252 0-0.009 0.003-0.019 0.005-0.028 0.253-0.067 0.471-0.071 0.787-0.057zM3.928 13.42l0.109 0.333-0.256 0.011 0.061-0.341c0.030 0 0.060-0.001 0.089-0.004l-0.004 0zM4.8 15.853c-0.227 0.208-0.401 0.347-0.536 0.663-0.187-0.153-0.284-0.457-0.344-0.797-0.067-0.371-0.088-0.783-0.139-1.091l0.016-0.157 0.263-0.019 0.74 1.4zM4.461 12.731c0.090-0.678 0.126-0.91 0.163-1.142l-0.060 0.46 0.087-0.005c-0.064 0.229-0.128 0.459-0.189 0.688zM4.279 9.635l1.2 0.325c-0.001 0.006-0.003 0.025-0.005 0.043l-0.001 0.010c-0.559 0.413-1.075 0.595-1.352 1.341l0.105-1.661 0.052-0.057zM5.399 7.915c-0.077 0.773 0.032 1.115 0.167 1.595 0.213 0.152 0.299 0.244 0.229 0.469-0.36-0.179-0.741-0.365-1.293-0.336-0.009-0.011-0.023-0.026-0.035-0.041l-0.005-0.005c0.155-0.609 0.456-0.984 0.689-1.467l0.249-0.216zM7.124 6.885l0.052-0.004c-0.165 0.571-0.232 1.887-0.521 2.409-0.684-0.324-0.671-1.728 0.095-2.283l0.373-0.123zM6.487 11.112l0.576 0.625c-0.227 0.696-0.655 1.22-0.836 2.027l-0.34-0.027c-0.291-0.812 0.436-2.135 0.56-2.727l0.533 0.061c0.067 0.167 0.131 0.333 0.196 0.501l-0.689-0.463zM8.063 6.88c-0.059 0.676 0.091 1.027 0.131 1.549-0.339 0.173-0.679 0.344-1.017 0.516 0.069-0.75 0.245-1.44 0.515-2.082l-0.017 0.046 0.389-0.029zM8.457 5.853l0.076-0.005-0.115 0.329-0.225 0.015 0.173-0.204 0.091-0.135zM8.533 9.007l-1.019 0.627c0.021-0.379 0.504-0.889 0.908-1.031l0.093 0.051 0.017 0.353zM9.213 6.636c-0.063 0.349-0.124 0.697-0.184 1.047l-0.191 0.12-0.101 0.111c-0.184-0.259-0.231-0.893-0.191-1.376l0.667 0.099zM9.891 5.849c0 0.013-0.003 0.024-0.004 0.035l-0.26 0.249c-0.173 0.067-0.195 0.064-0.413 0.056 0.028-0.113 0.060-0.227 0.091-0.34h0.587zM10.571 4.473l-0.304 0.687-1.053-0.076 0.004-0.056c0.433-0.2 0.813-0.437 1.352-0.556zM10.021 6.26l0.112-0.067 0.097 0.344-0.34-0.067 0.131-0.212zM10.909 7.277c-0.404 0.157-0.963 0.113-1.287 0.293-0.114-0.761-0.138-0.901-0.163-1.042l0.093 0.628 0.211-0.276c0.343 0.133 0.685 0.269 1.027 0.404l0.12-0.008zM10.041 7.896l-0.461 0.017c-0.011-0.048-0.019-0.096-0.028-0.145 0.324-0.132 0.868-0.144 1.357-0.199l-0.516 0.284-0.352 0.043zM11.248 7.896c-0.388 0.097-0.76 0.44-1.015 0.707-0.049-0.312 0.549-0.861 0.836-1.033 0.127 0.113 0.14 0.101 0.179 0.327zM11.928 3.785l-0.005 0.053-0.408 0.247-0.605 0.044 0.005-0.053 1.013-0.291zM11.379 4.817l-0.131-0.193c0.307-0.257 0.983-0.116 1.359-0.077l-1.228 0.271zM14.416 3.804c0.567 0.047 1.085 0.18 1.48 0.427l0.104-0.007-0.063 0.088-0.543 0.16c-0.327-0.045-0.653-0.093-0.979-0.14l-2.149-0.305 0.005-0.044c0.497-0.123 1.069-0.194 1.656-0.194 0.172 0 0.342 0.006 0.511 0.018l-0.023-0.001zM16.673 3.623l-0.12 0.163c-0.341-0.025-0.648-0.151-0.897-0.347l0.004 0.003 1.019 0.129-0.005 0.052zM18.481 4.895l0.281-0.107 0.292 0.251c-0.040 0.287-0.316 0.521-0.528 0.8l-0.163 0.011c-0.443-0.733-1.001-1.535-1.981-1.817l-0.043-0.087 0.396-0.16c0.665 0.232 1.22 0.584 1.837 0.787 0.080 0.193 0.055 0.128-0.093 0.323zM19.3 6.525l-0.077-0.076-0.168 0.012 0.28-0.267-0.035 0.331zM19.6 10.323c0.459 0.397 0.576 0.973 0.385 1.72-0.197-0.443-0.393-0.887-0.592-1.329 0.067-0.099 0.129-0.197 0.195-0.296 0.004-0.032 0.007-0.064 0.012-0.095zM19.733 7.229l-0.005 0.064-0.241 0.276-0.093-0.183c0.145-0.26 0.040-0.12 0.231-0.147l0.109-0.011zM20.016 7.225l1.075 0.399c-0.002 0.040-0.005 0.077-0.010 0.114l0.001-0.007c-0.091 0.063-0.181 0.123-0.272 0.183l-1.076-0.397 0.009-0.108 0.273-0.183zM22.109 8.603l-0.596-0.396-0.083-0.16c0.259-0.16 0.221-0.152 0.495-0.099 0.060 0.219 0.123 0.436 0.184 0.653zM22.448 8.472l-0.12 0.131c-0.144-0.075-0.169-0.169-0.219-0.345l0.311 0.136 0.028 0.079zM22.195 7.487l-0.085 0.007c0.093-0.089 0.187-0.179 0.283-0.267-0.067 0.087-0.133 0.173-0.197 0.26zM23.807 9.217l-0.167 0.073c-1.813-0.963-2.11-1.132-2.406-1.302l1.498 0.791c0.156 0.226 0.063 0.1-0.030-0.026l-0.254-0.36c0.471-0.347 0.488 0.056 0.932 0.276l0.427 0.548zM24.145 9.521l-0.339-0.124 0.204-0.107 0.135 0.231zM23.732 10.076c0.123 0.247 0.123 0.177 0.413 0.14l-0.521 0.451-0.497-0.949 0.007-0.059c0.367-0.079 0.484 0.053 0.843 0.107l0.137 0.221-0.38 0.089zM23.807 10.693l0.679-0.371c-0.136 0.307-0.313 0.464-0.523 0.688l-0.156-0.317zM25.164 12.007c-0.184 0.159-0.304 0.209-0.652 0.239l0.28 0.031-0.005 0.049-0.956 0.405-0.024-1.227 0.659-0.78 0.12-0.057 0.579 1.34zM24.824 10.124c1.875-0.523 1.512 0.472 0.676 1.231-0.227-0.409-0.452-0.82-0.676-1.231zM26.521 10.323c-0.691 3.245-0.824 3.423-3.267 4.817-0.051-0.082-0.093-0.145-0.137-0.207l0.009 0.014 0.087-0.363c1.593-0.453 2.499-1.288 2.404-3.177l0.799-1.027 0.105-0.057zM26.604 10.323c-0.027-0.112-0.053-0.224-0.083-0.336l0.253-0.008-0.171 0.344zM22.448 13.479l0.024-0.359 0.021-0.307 0.235-0.079c0.012 0 0.023-0.003 0.033-0.004 0.067 0.407 0 0.707-0.133 1.033-0.115-0.073-0.137-0.104-0.18-0.285zM21.091 16.489l0.005-0.060 0.445-1.065 0.093-0.224 0.784 0.053c0.012 0.059 0.020 0.116 0.024 0.171 0.035 0.405-0.105 0.729-0.249 1.152l-1.103-0.027zM21.431 17.871l0.009-0.533 0.013-0.133 0.573 0.043 0.083-0.007c-0.132 0.217-0.263 0.435-0.392 0.653l-0.287-0.023zM21.095 15.644l0.035-0.017 0.271-0.14 0.031-0.003-0.040 0.143-0.159 0.545-0.141-0.485 0.004-0.043zM20.565 17.357l-0.153-0.153c0.149 0.104 0.052 0.003 0.153 0.153zM19.733 16.948c0.191-0.12 0.397-0.083 0.68-0.080l-0.084 0.276c-0.233 0.093-0.267 0.059-0.529 0.031l-0.067-0.227zM20.149 18.236l0.263 0.621c-0.203 0.137-0.407 0.273-0.609 0.412-0.181-0.249 0.016-0.947 0.347-1.033zM19.479 16.076l-0.085 0.007 0.112-0.255-0.027 0.249zM20.456 16.172l-0.044-0.028 0.149-0.315 0.049-0.001 0.141 0.331-0.296 0.013zM22.807 11.699l-0.019-0.116c0.089-0.109 0.147-0.177 0.3-0.227l0.040 0.203c-0.067 0.044-0.133 0.087-0.199 0.132l-0.123 0.008zM22.788 12.539c-0.061 0.081-0.171 0.127-0.248 0.192l-0.092-1.72 0.34 1.528zM22.165 14.845c0.224-0.125 0.256-0.009 0.283 0.293h-0.679l0.012-0.107 0.384-0.187zM21.832 13.895l0.153-0.131 0.124 0.221-0.057 0.123-0.283-0.033 0.063-0.18zM21.769 14.807l-0.353 0.333-0.231-0.039-0.093 0.009c0.053-0.105 0.109-0.211 0.164-0.315l0.513 0.011zM20.489 14.611c-0.141-0.099-0.040-0.085-0.067-0.16l0.067 0.16zM21.559 13.075l-1.147-0.595c0.053-0.787 0.149-1.691 0.072-2.501 0.884 0.32 1.677 1.759 1.075 3.096zM20.752 13.075c0.281 0.149 0.267 0.285 0.657 0.405 0.068 0.255-0.036 0.356-0.199 0.627l-0.416-0.016c-0.085-0.453 0.008-0.713-0.043-1.016zM20.829 15.3c-0.143-0.099-0.040-0.085-0.067-0.16l0.067 0.16zM23.127 11.988l0.004-0.064 0.307-0.225c0.053 0.352 0.033 0.939-0.047 1.376-0.181-0.141-0.215-0.739-0.264-1.087zM23.127 13.075c0.069-0.115 0.139-0.229 0.205-0.344l-0.12 0.339-0.085 0.005zM25.107 12.047l0.057-0.004c0.016 1.319-0.797 1.559-1.867 2.053l-0.171 0.012 0.667-1.381 1.313-0.68zM23.093 9.471c0.011 0.035 0.023 0.068 0.032 0.103l-0.084 0.061-0.255-0.344 0.307 0.18zM22.787 10.044l0.009-0.060c0.010-0.001 0.036-0.003 0.061-0.005l0.013-0.001 0.256 0.344c-0.197-0.093-0.229-0.117-0.34-0.28zM23.125 10.924l-0.457 0.431-0.983-1.427-1.275-1.107 0.28-0.219c0.617 0.267 1.697 0.775 1.915 1.409 0.071 0.207-0.173 0.377-0.008 0.549 0.197 0.205 0.395 0.059 0.529 0.361zM20.261 13.075l0.104 0.041 0.045 0.992-0.159-0.037c-0.149-0.111-0.253-0.623-0.117-0.845l0.127-0.151zM19.509 14.8l0.109-0.004 0.113 0.269-0.173 0.067-0.167 0.008c0.040-0.113 0.080-0.227 0.117-0.34zM19.2 20.301l-0.147-0.503c0.209-0.060 0.417-0.12 0.627-0.183l0.053-0.003c-0.002 0.011-0.005 0.027-0.006 0.043l-0 0.003-0.527 0.64zM18.713 18.925c0.063-0.203 0.107-0.233 0.22-0.345l0.093 0.037 0.027 0.088-0.209 0.205-0.131 0.013zM18.873 19.269l-0.16-0.176 0.34-0.168-0.088 0.337-0.092 0.007zM18.516 20.829c-0.048-0.037-0.093-0.076-0.141-0.116l0.104-0.007 0.524-0.405 0.051 0.413-0.401 0.275-0.136-0.16zM18.543 24.771c-0.817 0.035-1.307-0.173-1.973-0.232l-0.764-1.511-0.147-0.152c1.283-0.152 2.089-0.771 3.040-1.199 0.336 0.32 1.097 1.949 0.427 2.671-0.16 0.247-0.34 0.272-0.584 0.423zM15.033 23.073l0.307-0.020c0.463 0.311 0.777 0.867 0.999 1.377l-1.359-0.393c0.101-0.344 0.144-0.693 0.053-0.964zM14.057 21.775l1.531-0.441 2.405 0.235 0.043 0.121c-0.716 0.323-1.531 0.595-2.352 1.011-0.889 0.071-1.104-0.261-1.72-0.48l0.095-0.445zM13.963 23.396l0.031-0.299 0.585-0.044c0.048 0.26 0.099 0.405 0.027 0.688l-0.643-0.347zM13.283 23.935l0.228-0.125c0.28-0.185 0.489 0.061 0.791 0.159l-0.12 0.117-0.897-0.151zM13.943 23.397c-0.207-0.087-0.279-0.121-0.352-0.155l0.131 0.055-0.099-0.244 0.34 0.021-0.020 0.323zM12.944 23.397l0.34 0.292c0 0.18-0.016 0.16-0.057 0.396l-0.283-0.688zM12.064 22.108c0.319-0.097 0.743-0.076 1.22-0.087l-0.444 0.344-0.913-0.089 0.137-0.168zM11.248 4.864c0.631-0.603 2.212-0.423 2.608-0.040l0.107-0.009c-0.527 0.492-1.343 0.548-1.844 1.035-0.393-0.261-0.719-0.429-0.871-0.985zM14.715 5.849l0.267 0.303c-0.237 0.013-0.487 0.028-0.736 0.049-0.561 0.048-1.116 0.132-1.504 0.333l-0.051 0.003c0.134 0.225 0.107 0.182 0.079 0.139l-0.163-0.271c0.597-0.32 1.301-0.52 2.049-0.552l0.010-0 0.049-0.004zM16.037 4.129c0.439 0.44 1.093 0.701 1.32 1.376-0.92-0.428-2.336-0.421-3.053-1.103 0.632 0.135 1.171 0.084 1.733-0.273zM16.34 6.537l1.259 0.173 0.099-0.008-1.009 0.867c-0.16-0.319-0.197-0.751-0.348-1.032zM17.957 8.009l-0.26-0.040 0.339-0.056-0.080 0.096zM17.697 7.187l0.311-0.305 0.028 0.344-0.225-0.049-0.113 0.011zM18.313 18.573l-0.149 0.007-0.128-0.12 0.099-0.129 0.24-0.093-0.061 0.337zM18.043 19.203c0.040-0.048 0.083-0.096 0.125-0.144l0.011-0.133 0.197 0.313-0.34 0.031 0.007-0.067zM17.908 20.301l-0.211-0.253 0.679-0.091-0.324 0.333-0.144 0.011zM18.036 21.333l-0.679-0.081 0.48-0.263 0.2 0.344zM17.56 20.363l0.137 0.131-0.492 0.125-0.527 0.027 0.733-0.344 0.148 0.061zM15.661 5.505c0.396 0.011 0.815 0.111 1.017 0.344-0.273-0.027-0.765 0.017-0.889-0.193l-0.128-0.151zM16.005 6.881c0.193 0.169 0.261 0.369 0.227 0.688-0.299-0.103-0.221-0.429-0.227-0.688zM16.339 9.051l0.012-0.059c0.676-0.147 0.821 0.088 0.513 0.299-0.267-0.037-0.387-0.137-0.524-0.24zM17.209 17.892l0.148 0.037c-0.001 0.007-0.003 0.023-0.005 0.040l-0.001 0.008-0.333 0.259 0.139-0.34 0.052-0.004zM17.023 9.5l0.253-0.209 0.081 0.344-0.339-0.075 0.003-0.060zM18.036 18.7l-0.82 0.215-0.197 0.009c0-0.011 0.003-0.023 0.005-0.033 0.307-0.061 0.504-0.163 0.685-0.311l0.288 0.053 0.040 0.067zM17.451 17.892l-0.093-0.191 0.233-0.153 0.107 0.057-0.133 0.277-0.113 0.009zM15.321 20.272l0.404-0.315 1.251 0.107 0.043 0.093-0.845 0.488c-0.313-0.052-0.584-0.191-0.747-0.381l-0.107 0.008zM14.693 20.301l0.627 0.344-1.017-0.18c0.131-0.053 0.26-0.109 0.391-0.164zM14.643 21.004c-0.001 0.005-0.002 0.033-0.003 0.062l-0.001 0.021-0.193 0.107-0.143 0.019 0.005-0.083c0.148-0.196 0.123-0.131 0.333-0.125zM13.043 7c-0.036-0.038-0.068-0.072-0.1-0.105l0.002 0.002c0.337-0.184 0.869-0.272 1.392-0.313 0.431-0.036 0.855-0.040 1.159-0.047l0.165 1.032c-0.444-0.048-0.867-0.107-1.324-0.127-0.102-0.005-0.223-0.008-0.343-0.008-0.296 0-0.588 0.019-0.875 0.055l0.034-0.003c-0.109-0.532-0.147-0.695-0.186-0.858l0.075 0.373zM13.541 20.807l0.083 0.147-0.080 0.308-0.937 0.072c0.1-0.307 0.249-0.455 0.411-0.688l0.524 0.161zM12.384 19.613c-0.427-0.024-1.011-0.336-1.136-0.688l1.359 0.345-0.223 0.343zM12.861 19.595l-0.255 0.019 0.008-0.083 0.283-0.261c-0.013 0.108-0.024 0.216-0.036 0.325zM11.928 7.012l0.413-0.131 0.265 0.333-0.28 0.011-0.4-0.213zM11.923 21.785c-0.023 0.075-0.043 0.151-0.064 0.227-0.037 0.002-0.071 0.005-0.105 0.010l0.006-0.001c-0.381-0.817-0.439-0.93-0.496-1.043l0.324 0.699 0.34 0.035-0.005 0.073zM12.111 20.301l0.792 0.16 0.043 0.107-0.615 0.765-0.743-0.109 0.523-0.923zM18.036 9.517l0.153-0.225 0.056-0.001 0.427 0.107 0.043 0.061-0.476 0.176c0.192 0.102 0.126 0.063 0.059 0.024l-0.262-0.142zM18.955 8.405l-0.24-0.147c0.244 0.089 0.104-0.012 0.24 0.147zM18.877 9.979l-0.163-0.139 0.34-0.205-0.177 0.344zM18.715 12.387l0.528 0.131c0.143 0.056 0.139 0.071 0.151 0.213-0.227-0.087-0.605-0.147-0.679-0.344zM18.768 11.449l0.072-0.093 0.215 0.343-0.34-0.067 0.053-0.183zM11.892 22.771l0.036 0.091-0.457 0.175-0.223 0.017 0.005-0.047 0.156-0.244c0.216-0.1 0.221-0.035 0.483 0.008zM10.909 5.504c0.296 0.221 0.373 0.493 0.327 1.377-0.195-0.249-0.313-0.779-0.327-1.376zM11.104 4.817l-0.024 0.249-0.169 0.012 0.195-0.261zM10.909 5.161c-0.009 0.083-0.016 0.165-0.027 0.248l-0.313-0.057 0.259-0.185 0.080-0.005zM10.909 25.119l0.168-1.752 1.189-0.313-1.251 2.001-0.107 0.064zM10.993 20.409l0.183-0.108c0.167 0.197 0.017 0.481-0.14 0.688-0.131-0.123-0.145-0.2-0.111-0.479l0.067-0.101zM9.891 20.241l0.391-0.628 0.627 0.368c-0.213 0.336-0.431 0.672-0.647 1.008-0.195-0.173-0.315-0.428-0.371-0.747zM9.891 22.936l0.627-0.571 0.295 0.027 0.097 0.16c-0.027 0.168-0.051 0.335-0.075 0.501l-0.944-0.117zM8.873 22.469l0.747-0.448 0.568 0.089 0.043 0.079-0.599 0.52c-0.299-0.031-0.497-0.111-0.653-0.247l-0.107 0.007zM8.773 21.804l0.273-0.127 0.117 0.025 0.048 0.056-0.791 0.263-0.227-0.080 0.579-0.137zM7.855 21.481l0.2-0.484c0.371-0.048 0.459 0.135 0.737 0.251l0.080 0.123-0.415 0.284-0.337 0.023-0.265-0.196zM7.175 22.893l0.495-0.872c0.328 0 0.368 0.027 0.503 0.2 0.060 0.101 0.008 0.047-0.123 0.069l-0.031 0.3 0.515 0.080c-0.101 0.252-0.117 0.219-0.269 0.379-0.507 0.027-0.735-0.069-1.088-0.156zM6.604 21.677l0.863 0.26 0.048 0.103-0.553 0.669-0.804-0.264 0.447-0.768zM3.28 20.747l0.011-0.103 0.481 0.371 0.041 0.099c-1.001 0.773 0.531 3.293 2.273 1.66l0.749 0.301c-0.288 0.513-0.783 0.716-1.304 1.007-1.247 0.104-2.992-1.932-2.253-3.335zM4.443 21.099l0.019 0.233c-0.093-0.071-0.187-0.139-0.277-0.209l-0.063-0.135 0.32 0.111zM6.157 22.56l-0.62 0.48c-1.221 0.128-1.716-0.717-1.756-1.756l0.239-0.288 0.104-0.008c0.615 0.484 1.159 1.223 1.993 1.467l0.040 0.105zM4.975 17.547c-0.111-0.080-0.117-0.12-0.173-0.256l0.232-0.883 0.271-0.237 0.175 0.256-0.504 1.12zM4.801 17.844l0.535-1.265 0.109-0.064c0.247 0.435 0.604 0.632 0.712 1.223l-0.805 0.841c-0.247-0.185-0.437-0.434-0.548-0.722l-0.004-0.011zM5.819 18.897l0.68-0.663 0.337 0.689c-0.158-0.006-0.514-0.016-0.869-0.024l-0.148-0.003zM7.515 11.944c-0.321 0.687-0.749 1.153-1.005 1.819-0.112-0.604 0.563-1.472 0.78-2.005l0.104-0.060 0.121 0.247zM7.515 10.051c0.505-0.156 0.844-0.441 1.205-0.761l0.153 0.459-0.429 0.573-0.929-0.269zM9.212 10.087l-0.184 0.235-0.155-0.027 0.003-0.037 0.309-0.28 0.027 0.109zM8.945 8.604l0.053-0.003 0.213 0.449-0.080 0.239c-0.311-0.163-0.299-0.356-0.187-0.685zM8.881 18.579l0.313 0.225-0.321-0.141c0.002-0.033 0.005-0.062 0.009-0.091l-0.001 0.007zM8.876 18.924l0.336 0.145c-0.001 0.007-0.003 0.021-0.005 0.034l-0.001 0.006-0.72 0.503c-0.207-0.093-0.232-0.279-0.293-0.48l0.007-0.043 0.676-0.165zM7.872 18.235l0.323 0.131-0.173 0.1-0.167 0.019 0.017-0.249zM7.855 11.355c0.408 0.115 0.279 0.037 0.296 0.343-0.187-0.109-0.2-0.161-0.296-0.344zM7.855 17.5l0.028-0.297c0.159 0.111 0.213 0.176 0.312 0.344 0.32 0.035 0.204 0.018 0.087 0.002l-0.427-0.049zM8.535 13.203c-0.128 0.164-0.123 0.12-0.34 0.215l0.148-0.344 0.191 0.129zM8.535 11.819l-0.213 0.223c-0.213-0.12-0.113-0.072-0.017-0.295l0.127-0.049 0.103 0.121zM8.507 11.233l-0.312-0.224c0.24 0.092 0.184 0.036 0.312 0.224zM7.855 17.547l0.34 0.271c-0.173-0.004-0.267-0.041-0.34-0.271zM8.873 17.533l-0.139 0.013-0.119-0.219-0.083-0.107 0.184-0.019c0.052 0.111 0.103 0.221 0.156 0.331zM8.687 11.163l-0.153-0.152c0.149 0.104 0.051 0.003 0.152 0.153zM8.707 16.829l-0.173-0.36 0.073-0.296 0.043-0.003 0.224 0.688c0.247 0.036 0.191 0.026 0.134 0.015l-0.301-0.045zM7.817 20.833l0.037 0.045-0.121 0.455c-0.287-0.121-0.497-0.375-0.556-0.682l-0.001-0.006 0.641 0.189zM6.836 21.333l0.34 0.301c-0.217-0.096-0.231-0.092-0.34-0.301zM7.423 18.283l0.040 0.297-0.287-0.344 0.247 0.047zM7.087 19.892l-0.251-0.623c0.297 0.113 0.529 0.453 0.68 0.688l-0.429-0.065zM7.353 13.767l0.084-0.003-0.248 0.344c-0.040-0.085 0.009-0.167 0.147-0.267l0.017-0.076zM7.176 16.724l-0.068 0.136-0.195-0.151c0.379 0.88 0.353 0.826 0.327 0.772l-0.404-0.936 0.267-0.029 0.073 0.208zM4.8 19.613c0.68 0.443 1.836 0.853 2.036 1.72-0.821-0.416-1.504-0.997-2.025-1.704l-0.011-0.016zM6.564 19.28l0.272 0.333-0.679-0.344 0.407 0.011zM9.049 20.301l-0.516-0.52 0.903-0.856 0.116 0.943-0.503 0.433zM9.552 20.876l0.089-0.224 0.12-0.007 0.129 0.344-0.339-0.113zM10.009 19.613l-0.119-0.344 0.247 0.045-0.128 0.299zM9.552 8.027l0.003-0.031c0.112-0.027 0.224-0.053 0.336-0.083l-0.235 0.344-0.104-0.231zM6.129 15.14l-0.311-0.688c0.399 0.087 0.333 0.371 0.311 0.688zM5.299 15.484c-0.291-0.201-0.476-0.603-0.499-1.032 0.596 0.14 0.563 0.375 0.68 0.919l-0.181 0.113zM4.948 13.688c-0.433-0.409 0.197-2.047 0.475-2.424 0.147-0.185 0.331-0.181 0.573-0.253l0.161 0.041c-0.408 0.723-0.683 1.707-0.78 2.712l-0.429-0.076zM4.315 19.269l0.207 0.348-0.185 0.433-0.107 0.113c0.152 0.021 0.187-0.109 0.413-0.295 0.44 0.713 1.112 1.396 1.853 1.784l-0.404 0.712-1.227-0.789c-0.14-0.26 0.053-0.559-0.172-0.717-0.204-0.144-0.467 0.064-0.675 0.001l-0.576-0.528c0.169-0.379 0.332-0.749 0.667-0.943l0.205-0.12zM3.141 15.475c0.054-0.398 0.124-0.743 0.212-1.080l-0.014 0.062 0.045-0.004 0.177 1.023 0.093 0.533c0.267 0.744 0.536 1.487 0.805 2.228-0.645-0.352-1.044-1.167-0.987-2.263-0.155 0.353-0.027 0.909 0.024 1.221-0.396-0.336-0.447-1.004-0.359-1.72zM2.552 15.828c-0.058-0.12-0.099-0.26-0.114-0.408l-0-0.005c-0.008-0.080-0.013-0.172-0.013-0.265 0-0.111 0.007-0.22 0.020-0.328l-0.001 0.013 0.059-0.123 0.263-0.26-0.148 0.961-0.064 0.413zM26.181 19.268l-0.679-0.261 0.659-0.081 0.020 0.344zM8.221 24.868l0.177-0.093-0.205 0.343 0.027-0.248zM3.103 13.076l-0.289-0.027c-0.36-0.119-0.697-0.539-0.728-1.005 0.551 0.049 0.737 0.311 1.009 0.629 0.003 0.133 0.007 0.268 0.008 0.403zM3.063 13.048c0.040-0.743-0.527-1.207-1.263-1.187 0.125-1.043 1.032-1.576 1.84-1.927l0.156-0.012c-0.135 1.309-0.032 2.437-0.521 3.571-0.361 0.835-1.643 0.819-1.573 2.107l0.009 0.107c0.183 1.712 2.044 2.060 2.301 3.565-2.76 1.404 0.604 7.304 2.787 3.839 0.392 0.056 0.74 0.233 1.227 0.063 0.227-0.125 0.271-0.227 0.359-0.488l0.78 0.404 0.040 0.099c-0.715 0.555-1.219 1.316-1.987 1.836l0.073-0.211-0.2-0.036-0.111 0.060-0.1 0.467c0.439 0.448 1.768-1.172 2.157-1.489-0.22 0.769-0.764 1.165-1.067 1.869l0.093 0.096c0.573-0.411 1.276-1.573 1.383-2.457l0.859 0.143c-1.076 1.455-3.84 4.655-5.293 5.509 0.221-0.695 0.573-1.225 0.752-1.796l-0.104 0.008c-0.036-0.037-0.066-0.068-0.097-0.099l0.003 0.003c-0.353 0.696-0.936 1.185-1.040 2.124 0.063 0.094 0.14 0.173 0.229 0.237l0.003 0.002c1.728-0.288 4.613-4.631 5.992-5.817-0.373 3.747-2.381 4.331-4.123 6.6 1.583-0.789 2.543-2.803 3.896-3.92-0.149 1.564-0.521 5.061-1.457 5.684l0.155-0.012c1.051-0.653 1.112-3.34 1.463-4.713l0.149-1.444 1.5-2.107 0.109-0.060c0.168 0.527 0.928 1.099 1.751 0.945l0.591-0.248 1.483 0.555c0.195 2.133 0.12 3.329-1.231 4.953 1.38-0.705 1.887-3.423 1.427-4.865 3.209 0.372 3.080-0.711 2.472-3.048l0.564 0.009c-0.104-0.156-0.385-0.040-0.6-0.16-0.097-0.063-0.079-0.051-0.139-0.144 0.763-0.86 2.6-0.005 2.213 1.423 0.528-1.184-0.639-2.237-1.763-1.813 0.48-0.569 1.061-1.037 1.365-1.791l0.109-0.059 2.64 2.773 0.156-0.012 0.12-0.163c-0.84-0.995-1.679-1.991-2.516-2.987l0.269-0.123c0.099-0.103 0.239-0.166 0.393-0.166 0.026 0 0.051 0.002 0.076 0.005l-0.003-0c-0.216-0.101-0.259-0.123-0.303-0.146l0.17 0.079c1.348 0.135 3.071 1.259 4.477 0.896 0.129-0.225 0.136-0.347 0.057-0.567 1.499 0.037 4.195-0.464 5.053-1.192-2.307 0.484-4.904 0.648-7.021 0.365l-1.876-0.22-0.105 0.008 0.505-0.907c1.547-0.029 5.603-0.068 6.423-1.039l-0.181-0.243-0.707-0.101c-0.047 0.075-0.077 0.165-0.080 0.262l-0 0.001 0.56 0.060c-1.216 0.307-4.603 0.953-5.708 0.576-0.116-0.141-0.031-0.632-0.025-0.985 0-0.012 0.001-0.026 0.001-0.040 0-0.053-0.003-0.104-0.009-0.155l0.001 0.006c1.589-0.475 2.769-1.544 3.253-3.157 0.276-0.924 0.093-2.137 0.691-2.713 0.381 0.033 0.459 0.195 0.739 0.304-0.148-0.205-0.36-0.32-0.625-0.413l-0.497 0.343c-0.455 0.176-0.931-0.284-1.703 0.075-0.627-0.536-0.98-1.383-1.827-1.707l-0.087-0.147 1.027-0.999c-0.336 0.281-0.679 0.613-1.021 0.947l-0.688-0.308-0.040-0.1c0.784-0.555 1.48-0.76 2.372-0.584 0.041 0.083 0.085 0.164 0.128 0.247-0.041 0.071-0.079 0.091-0.115 0.111l-0.3-0.080c0.129 0.076 0.264 0.1 0.399 0.124l0.113-0.111 0.017-0.155c-0.195-0.173-0.255-0.299-0.637-0.312l0.183-0.269c-0.437 0.301-1.325 0.381-1.76 0.643l1.005-0.792 0.12-0.161-1.86 1.109c-0.397-0.027-0.82-0.213-1.035-0.436-0.219 0.015-0.255 0.017-0.29 0.020l0.187-0.012 2.208-1.493-0.036-0.151c-0.837 0.488-1.676 0.976-2.512 1.465l-0.803-0.197 0.075-0.721 5.756-4.52 0.103-0.008-0.081-0.199c-0.213-0.101-1.089 0.609-1.42 0.821-1.275 0.817-2.401 1.835-3.655 2.573 0.517-0.657 1.464-1.312 1.621-2.269l-0.253-0.032-0.395 0.336 0.429-0.187c-0.277 0.844-1.533 2.351-2.243 2.828l-0.083-0.199c0.461-0.776 0.916-1.82 0.703-2.816l-0.387-0.227-0.415 0.031c0.265 0.105 0.445 0.131 0.64 0.26 0.124 0.965-0.351 1.619-0.607 2.4l-0.109 0.059c-0.171-0.316-0.16-0.468-0.511-0.525l-0.031-0.203 0.24-0.325 0.165-0.115c0.056 0.107 0.059 0.068 0.076 0.251 0.047-0.074 0.076-0.164 0.079-0.261v-0.001l-0.196-0.088-0.519 0.549c-0.433-0.289-0.911-0.593-1.52-0.707 0.345-0.716 1.395-1.867 0.853-2.775-0.661-1.104-2.919 0.168-3.745 1.044-0.093 0.095-0.176 0.202-0.244 0.318l-0.004 0.008c0.056-0.045 0.137-0.108 0.218-0.17l0.030-0.022c0.816-0.608 2.988-2.064 3.459-0.9 0.493 0.649-0.452 1.899-0.709 2.407-0.88-0.089-1.8-0.173-2.747-0.155-1.051 0.009-2.059 0.181-3.005 0.492l0.070-0.020c-0.48 0.159-2.528 1.385-2.607 1.369l-0.933-0.904-1.952-0.98-0.011 0.103-0.115 0.111 2.501 2.117-0.381 0.233c-1.029-0.78-1.739-1.253-3.271-1.652l-0.259 0.020c0.895 0.616 1.796 1.18 2.696 1.745l0.18 0.243c-0.643 0.271-0.915 0.833-1.457 1.183-0.848-0.405-1.633-0.773-2.661-1.084l-0.072 0.211 1.925 1.24 0.104-0.008-0.332 0.229c-0.153 0.516-0.453 1.115-0.704 1.843-0.96 0.781-2.204 0.735-2.397 2.327-0.307 0.084-0.523 0.111-0.803 0.316l-0.021 0.207c0.176 0.245 1.735 0.905 2.107 0.969l0.229-0.221zM14.449 2.040l0.143 0.027-0.191-0.024c-0.033 0-0.067 0.003-0.099 0.004 0.151-0.28 0.593-0.349 1.019-0.319l-0.029 0.203-0.832 0.041-0.011 0.067zM15.044 2.409l0.4-0.131c0.173-0.288 0.272-0.593 0.184-0.872-0.412-0.081-0.649 0.019-1.035 0.181 0.093-0.168 0.024-0.057-0.045 0.055l-0.164 0.287-0.080 0.133c0.025 0.029 0.051 0.055 0.079 0.079l0.001 0.001c0.131 0.107 0.288 0.144 0.577 0.12 0.080 0.136-0.013 0.076-0.156 0.113l0.24 0.032zM24.915 5.507l-0.429 0.080 0.264-0.019 0.303 0.131-0.459 0.84c0.236-0.279 0.471-0.476 0.571-0.899l-0.249-0.133zM22.448 18.927c-0.107-0.191-0.223-0.316-0.339-0.345 0.103 0.097 0.221 0.212 0.339 0.345zM21.091 23.055l-0.339 0.197 0.26-0.024 0.080-0.173zM22.448 18.927c0.345 0.389 0.604 1.136 0.529 1.72 0.392-0.847-0.055-1.375-0.529-1.72z"></path>
</svg>
