<!-- Generated by IcoMoon.io -->
<svg version="1.1" xmlns="http://www.w3.org/2000/svg" width="32" height="32" viewBox="0 0 32 32">
<title>heroku</title>
<path fill="#430098" d="M27.498 0c1.571 0 2.849 1.261 2.874 2.827v26.237c0 1.571-1.261 2.849-2.827 2.874h-23.043c-1.571 0-2.849-1.261-2.874-2.827v-26.237c0-1.572 1.261-2.849 2.827-2.874h23.043zM27.498 1.597h-22.995c-0.693 0-1.26 0.556-1.277 1.245v26.222c0 0.693 0.555 1.26 1.245 1.277h23.028c0.694 0 1.26-0.555 1.277-1.245v-26.222c0-0.704-0.573-1.278-1.277-1.278zM8.814 20.759l3.593 3.194-3.593 3.194v-6.388zM12.008 4.791v9.067c1.595-0.519 3.823-1.082 5.988-1.082 1.974 0 3.156 0.776 3.799 1.427 1.36 1.375 1.392 3.124 1.39 3.357v9.588h-3.194v-9.537c-0.016-0.745-0.375-1.641-1.996-1.641-3.215 0-6.817 1.601-6.924 1.649l-0.002 0.001-2.256 1.022v-13.85h3.194zM23.186 4.791c-0.216 1.814-0.951 3.553-2.395 5.19v0h-3.194c1.255-1.647 2.043-3.38 2.395-5.19v0z"></path>
</svg>
