<!-- Generated by IcoMoon.io -->
<svg version="1.1" xmlns="http://www.w3.org/2000/svg" width="32" height="32" viewBox="0 0 32 32">
<title>instagram</title>
<path fill="#000" d="M8 2h16c3.314 0 6 2.686 6 6v16c0 3.314-2.686 6-6 6h-16c-3.314 0-6-2.686-6-6v-16c0-3.314 2.686-6 6-6z"></path>
<path fill="#fff" d="M23 10.5c0 0.828-0.672 1.5-1.5 1.5s-1.5-0.672-1.5-1.5c0-0.828 0.672-1.5 1.5-1.5s1.5 0.672 1.5 1.5z"></path>
<path fill="#fff" d="M16 21c-2.761 0-5-2.239-5-5s2.239-5 5-5c2.761 0 5 2.239 5 5s-2.239 5-5 5zM16 19c1.657 0 3-1.343 3-3s-1.343-3-3-3c-1.657 0-3 1.343-3 3s1.343 3 3 3z"></path>
<path fill="#fff" d="M6 15.6v0.8c0 3.36 0 5.041 0.654 6.324 0.575 1.129 1.493 2.047 2.622 2.622 1.283 0.654 2.964 0.654 6.324 0.654h0.8c3.36 0 5.040 0 6.324-0.654 1.129-0.575 2.047-1.493 2.622-2.622 0.654-1.283 0.654-2.964 0.654-6.324v-0.8c0-3.36 0-5.040-0.654-6.324-0.575-1.129-1.493-2.047-2.622-2.622-1.283-0.654-2.964-0.654-6.324-0.654h-0.8c-3.36 0-5.040 0-6.324 0.654-1.129 0.575-2.047 1.493-2.622 2.622-0.654 1.283-0.654 2.964-0.654 6.324zM15.6 8h0.8c1.713 0 2.878 0.002 3.778 0.075 0.877 0.072 1.325 0.201 1.638 0.361 0.753 0.383 1.364 0.995 1.748 1.748 0.159 0.313 0.289 0.761 0.361 1.638 0.073 0.9 0.075 2.065 0.075 3.778v0.8c0 1.713-0.002 2.878-0.075 3.778-0.072 0.877-0.201 1.325-0.361 1.638-0.384 0.753-0.995 1.364-1.748 1.748-0.313 0.159-0.761 0.289-1.638 0.361-0.9 0.073-2.065 0.075-3.778 0.075h-0.8c-1.713 0-2.878-0.002-3.778-0.075-0.877-0.072-1.325-0.201-1.638-0.361-0.753-0.384-1.365-0.995-1.748-1.748-0.159-0.313-0.289-0.761-0.361-1.638-0.074-0.9-0.075-2.065-0.075-3.778v-0.8c0-1.713 0.002-2.878 0.075-3.778 0.072-0.877 0.201-1.325 0.361-1.638 0.383-0.753 0.995-1.365 1.748-1.748 0.313-0.159 0.761-0.289 1.638-0.361 0.9-0.074 2.065-0.075 3.778-0.075z"></path>
</svg>
