<!-- Generated by IcoMoon.io -->
<svg version="1.1" xmlns="http://www.w3.org/2000/svg" width="32" height="32" viewBox="0 0 32 32">
<title>jira</title>
<path fill="#2684ff" d="M29.665 15.216l-13.665-13.216-13.665 13.216c-0.447 0.433-0.447 1.134 0 1.567l13.665 13.216 13.665-13.216c0.447-0.433 0.447-1.134 0-1.567zM16 20.139l-4.28-4.139 4.28-4.139 4.28 4.139-4.28 4.139z"></path>
<path fill="#000" d="M16 11.861c-2.802-2.711-2.816-7.101-0.030-9.827l-9.366 9.055 5.097 4.93 4.299-4.158z"></path>
<path fill="#000" d="M20.291 15.989l-4.291 4.15c1.352 1.307 2.112 3.081 2.112 4.93s-0.76 3.623-2.112 4.93l9.389-9.081-5.098-4.93z"></path>
</svg>
