<!-- Generated by IcoMoon.io -->
<svg version="1.1" xmlns="http://www.w3.org/2000/svg" width="32" height="32" viewBox="0 0 32 32">
<title>jsdelivr</title>
<path fill="#e14337" d="M15.826 0l15.177 5.321-2.305 19.622-12.872 7.035-12.754-7.045-2.075-19.609 14.83-5.324z"></path>
<path fill="#f9bd3e" d="M21.419 16.483c0 0.483-0.392 0.875-0.875 0.875s-0.875-0.392-0.875-0.875c0-0.483 0.392-0.875 0.875-0.875s0.875 0.392 0.875 0.875zM16.197 11.001c0 0.483-0.392 0.875-0.875 0.875s-0.875-0.392-0.875-0.875c0-0.483 0.392-0.875 0.875-0.875s0.875 0.392 0.875 0.875zM15.966 9.519c1.067-1.055 2.244-1.964 3.444-2.634-1.091-0.468-2.292-0.727-3.554-0.727-0.591 0-1.168 0.059-1.727 0.167 0.101 0.892 0.434 1.959 0.961 3.078 0.076-0.011 0.153-0.019 0.232-0.019 0.229 0 0.447 0.048 0.644 0.134zM11.418 17.789c0.083-0.663 0.24-1.343 0.475-2.037 0.445-1.314 1.166-2.644 2.065-3.887-0.158-0.25-0.251-0.545-0.251-0.863 0-0.436 0.174-0.831 0.455-1.122-0.55-1.158-0.915-2.292-1.047-3.295-3.647 1.161-6.289 4.574-6.289 8.606 0 0.264 0.014 0.525 0.036 0.783 1.118 1.356 2.383 2.123 3.634 2.52 0.208-0.337 0.535-0.591 0.923-0.704zM16.46 13.5c-0.25-0.307-0.487-0.622-0.715-0.941-0.135 0.037-0.277 0.058-0.424 0.058-0.198 0-0.387-0.037-0.562-0.102-0.818 1.144-1.475 2.364-1.884 3.571-0.174 0.515-0.329 1.11-0.417 1.752 0.45 0.177 0.801 0.549 0.949 1.012 0.332-0.016 0.651-0.049 0.954-0.094 1.606-0.236 3.208-0.864 4.652-1.757-0.055-0.162-0.085-0.335-0.085-0.515 0-0.152 0.023-0.298 0.062-0.437-0.832-0.673-1.685-1.507-2.53-2.546zM16.606 11.979c0.825 1.159 1.829 2.274 2.973 3.211 0.269-0.201 0.603-0.322 0.965-0.322 0.32 0 0.617 0.094 0.868 0.254 1.15-1.126 2.065-2.43 2.604-3.803-0.759-1.597-1.973-2.937-3.474-3.851-1.322 0.627-2.636 1.59-3.811 2.743 0.131 0.234 0.207 0.503 0.207 0.79 0 0.368-0.124 0.706-0.332 0.978zM22.123 16.824c0.773 0.368 1.585 0.645 2.429 0.799 0.216-0.775 0.335-1.59 0.335-2.434 0-0.87-0.126-1.71-0.355-2.506-0.611 1.167-1.461 2.268-2.472 3.243 0.064 0.174 0.101 0.361 0.101 0.557 0 0.117-0.013 0.231-0.037 0.341zM10.261 19.499c-1.115-0.345-2.14-0.912-3.049-1.689 0.882 2.914 3.197 5.204 6.126 6.053-0.406-0.399-0.733-0.804-0.982-1.22-0.322-0.538-0.566-1.109-0.734-1.708-0.723-0.111-1.288-0.7-1.36-1.435zM19.638 17.821c-1.587 0.999-3.354 1.701-5.125 1.962-0.381 0.056-0.756 0.091-1.126 0.106-0.134 0.37-0.397 0.677-0.737 0.865 0.136 0.454 0.33 0.909 0.597 1.354 0.426 0.712 1.143 1.404 2.176 2.101 0.143 0.007 0.287 0.011 0.432 0.011 3.776 0 7.009-2.318 8.358-5.608-0.736-0.15-1.633-0.421-2.622-0.901-0.282 0.241-0.647 0.386-1.047 0.386-0.336 0-0.648-0.102-0.906-0.278zM12.744 19.339c0 0.483-0.392 0.875-0.875 0.875s-0.875-0.392-0.875-0.875c0-0.483 0.392-0.875 0.875-0.875s0.875 0.392 0.875 0.875z"></path>
<path fill="#440401" opacity="0.3" d="M31.004 5.321l-15.178-5.321v31.979l12.872-7.035 2.305-19.622z"></path>
</svg>
