<!-- Generated by IcoMoon.io -->
<svg version="1.1" xmlns="http://www.w3.org/2000/svg" width="32" height="32" viewBox="0 0 32 32">
<title>jsfiddle</title>
<path fill="#4679a4" d="M28.118 14.999c0.011-0.187 0.028-0.373 0.028-0.562 0-5.178-4.262-9.375-9.52-9.375-3.791 0-7.055 2.187-8.587 5.346-0.743-0.567-1.673-0.908-2.685-0.908-2.426 0-4.392 1.936-4.392 4.324 0 0.449 0.069 0.882 0.198 1.289-1.891 1.107-3.162 3.133-3.162 5.456 0 3.474 2.833 6.291 6.348 6.345l0.075 0.004 0.026 0.001 0.026-0.001h18.879c0.115 0.006 0.228 0.017 0.344 0.017 3.48 0 6.302-2.778 6.302-6.206 0-2.584-1.603-4.796-3.882-5.731v0zM8.591 22.135c-0.639-0.579-1.037-1.28-1.197-2.106-0.053-0.276-0.079-0.565-0.079-0.87-0.001-1.178 0.428-2.152 1.286-2.919s1.949-1.153 3.275-1.152c1.36 0 2.643 0.509 3.775 1.527 0.283 0.254 0.556 0.54 0.819 0.856l1.457 1.713c0.252 0.345 0.523 0.643 0.802 0.894 0.748 0.672 1.559 1.008 2.245 1.008 0.583 0 1.070-0.178 1.462-0.536 0.342-0.326 0.535-0.715 0.578-1.167l0.009-0.198c0-0.196-0.028-0.382-0.084-0.556-0.093-0.29-0.264-0.551-0.512-0.783-0.387-0.369-0.875-0.552-1.466-0.552-0.727 0-1.445 0.245-2.233 1.008l-1.29-1.517-0.157-0.176c1.128-1.105 2.254-1.52 3.77-1.52 1.343 0 2.43 0.382 3.262 1.143l0.019 0.015c0.846 0.76 1.269 1.743 1.269 2.948 0 0.298-0.027 0.583-0.079 0.855-0.159 0.816-0.557 1.511-1.194 2.087-0.625 0.576-1.388 0.937-2.289 1.080-0.3 0.048-0.616 0.072-0.948 0.072-1.391-0.001-2.678-0.498-3.784-1.491-0.299-0.269-0.585-0.574-0.856-0.915l-1.457-1.7c-0.246-0.341-0.513-0.636-0.79-0.885-0.746-0.67-1.568-1.005-2.273-1.005-0.219 0-0.424 0.026-0.615 0.077-0.318 0.085-0.595 0.242-0.835 0.471-0.293 0.279-0.477 0.601-0.55 0.965-0.024 0.121-0.037 0.247-0.036 0.378 0 0.517 0.186 0.959 0.559 1.326l0.028 0.027c0.4 0.366 0.892 0.548 1.475 0.548 0.733 0 1.455-0.246 2.241-1.016l1.283 1.498 0.142 0.171c-1.171 1.118-2.285 1.541-3.743 1.54-1.342 0-2.438-0.381-3.287-1.141v0z"></path>
</svg>
