<?xml version="1.0" standalone="no"?>
<!DOCTYPE svg PUBLIC "-//W3C//DTD SVG 20010904//EN"
 "http://www.w3.org/TR/2001/REC-SVG-20010904/DTD/svg10.dtd">
<svg version="1.0" xmlns="http://www.w3.org/2000/svg"
 width="64.000000pt" height="64.000000pt" viewBox="0 0 64.000000 64.000000"
 preserveAspectRatio="xMidYMid meet">

<g transform="translate(0.000000,64.000000) scale(0.100000,-0.100000)"
fill="#000000" stroke="none">
<path d="M178 557 l-138 -82 35 -21 c51 -30 51 -31 11 -55 -20 -11 -36 -24
-36 -28 0 -3 16 -15 35 -25 19 -11 35 -22 35 -26 0 -4 -16 -15 -35 -26 -19
-10 -35 -22 -35 -25 0 -4 16 -17 36 -28 40 -24 40 -25 -11 -55 l-35 -21 140
-82 140 -81 140 81 140 81 -35 22 c-51 30 -51 31 -11 55 20 11 36 24 36 28 0
5 -16 16 -35 27 -19 10 -35 21 -35 25 0 3 16 14 35 25 19 10 35 22 35 25 0 4
-16 17 -36 28 -40 24 -40 25 11 55 l36 22 -137 79 c-75 44 -140 81 -143 81 -3
1 -68 -35 -143 -79z m251 -13 c53 -31 100 -59 104 -64 9 -8 -169 -118 -205
-128 -19 -5 -233 116 -223 126 15 16 202 121 214 122 8 0 57 -25 110 -56z
m-187 -290 l78 -46 80 47 c75 44 83 46 110 35 17 -7 30 -16 30 -19 0 -6 -184
-118 -212 -129 -5 -2 -59 24 -119 59 -110 63 -111 63 -89 81 12 10 27 18 33
18 6 0 46 -21 89 -46z"/>
</g>
</svg>
