<!-- Generated by IcoMoon.io -->
<svg version="1.1" xmlns="http://www.w3.org/2000/svg" width="32" height="32" viewBox="0 0 32 32">
<title>loom</title>
<path fill="#222" d="M16.481 14.571c1.47 0 2.516 1.119 2.516 2.539 0 1.443-1.058 2.537-2.516 2.537s-2.516-1.083-2.516-2.537c0-1.431 1.053-2.539 2.516-2.539zM21.765 14.571c1.47 0 2.516 1.119 2.516 2.539 0 1.443-1.058 2.537-2.516 2.537-1.46 0-2.516-1.083-2.516-2.537 0-1.431 1.053-2.539 2.516-2.539zM30.266 14.576c0.886 0 1.734 0.536 1.734 1.823v3.109h-1.257v-2.846c0-0.517-0.253-0.906-0.848-0.906-0.555 0-0.887 0.429-0.887 0.946v2.807h-1.286v-2.846c0-0.517-0.263-0.906-0.848-0.906-0.565 0-0.896 0.419-0.896 0.946v2.807h-1.295v-4.796h1.237v0.585c0.263-0.468 0.877-0.721 1.403-0.721 0.653 0 1.179 0.283 1.422 0.799 0.38-0.585 0.887-0.799 1.52-0.799zM13.553 12.451v7.057h-1.296v-7.057h1.296zM21.765 15.728c-0.761 0-1.381 0.62-1.381 1.381s0.619 1.381 1.381 1.381c0.761 0 1.381-0.62 1.381-1.381s-0.62-1.381-1.381-1.381zM16.481 15.745c-0.753 0-1.365 0.612-1.365 1.366s0.612 1.366 1.365 1.366 1.365-0.612 1.365-1.366c0-0.753-0.612-1.366-1.365-1.366z"></path>
<path fill="#625df5" d="M9.646 15.443h-2.821l2.443-1.41-0.536-0.929-2.443 1.41 1.41-2.443-0.929-0.537-1.41 2.443v-2.821h-1.073v2.821l-1.411-2.443-0.929 0.537 1.41 2.443-2.443-1.41-0.536 0.929 2.443 1.41h-2.821v1.073h2.82l-2.443 1.41 0.536 0.929 2.443-1.41-1.41 2.443 0.929 0.537 1.41-2.443v2.821h1.073v-2.821l1.41 2.443 0.929-0.537-1.41-2.443 2.443 1.41 0.537-0.929-2.443-1.41h2.82v-1.073h0.001zM4.823 17.439c-0.809 0-1.465-0.656-1.465-1.465s0.656-1.465 1.465-1.465c0.809 0 1.465 0.656 1.465 1.465s-0.656 1.465-1.465 1.465z"></path>
</svg>
