<!-- Generated by IcoMoon.io -->
<svg version="1.1" xmlns="http://www.w3.org/2000/svg" width="32" height="32" viewBox="0 0 32 32">
<title>mega</title>
<path fill="#d9272e" d="M32 16c0 8.837-7.163 16-16 16s-16-7.163-16-16c0-8.837 7.163-16 16-16s16 7.163 16 16z"></path>
<path fill="#fff" d="M16 8.003c-4.416 0-7.997 3.578-7.997 7.997s3.581 7.997 7.997 7.997 7.997-3.581 7.997-7.997-3.581-7.997-7.997-7.997zM20.15 18.828c0 0.137-0.109 0.247-0.247 0.247h-1.047c-0.137 0-0.247-0.109-0.247-0.247v-3.219c0-0.028-0.031-0.041-0.053-0.022l-2.212 2.213c-0.194 0.191-0.503 0.191-0.694 0l-2.213-2.213c-0.019-0.019-0.053-0.003-0.053 0.022v3.216c0 0.137-0.109 0.247-0.247 0.247h-1.044c-0.137 0-0.247-0.109-0.247-0.247v-5.656c0-0.137 0.109-0.247 0.247-0.247h0.716c0.131 0 0.256 0.053 0.35 0.147l2.753 2.753c0.047 0.047 0.122 0.050 0.169 0.003l2.756-2.756c0.094-0.094 0.216-0.147 0.35-0.147h0.716c0.137 0 0.247 0.109 0.247 0.247v5.659z"></path>
</svg>
