<!-- Generated by IcoMoon.io -->
<svg version="1.1" xmlns="http://www.w3.org/2000/svg" width="32" height="32" viewBox="0 0 32 32">
<title>netflix</title>
<path fill="#b1060f" d="M18.517 0.094l-0.025 14.081-0.578-1.634v-0.004l-0.75 15.674c0.738 2.079 1.132 3.189 1.136 3.193s0.423 0.029 0.93 0.054c1.534 0.075 3.436 0.239 4.882 0.419 0.335 0.042 0.62 0.063 0.641 0.046s0.025-7.183 0.021-15.929l-0.013-15.9h-6.244z"></path>
<path fill="#b1060f" d="M7.223 0.073v15.917c0 8.755 0.008 15.925 0.021 15.938s0.553-0.042 1.207-0.113c0.654-0.071 1.555-0.163 2.003-0.201 0.687-0.059 2.749-0.189 2.984-0.193 0.071 0 0.075-0.356 0.084-6.743l0.013-6.743 0.499 1.408c0.075 0.218 0.101 0.285 0.176 0.499l0.75-15.67c-0.159-0.448-0.075-0.214-0.256-0.725-0.612-1.731-1.132-3.193-1.152-3.26l-0.042-0.117h-6.286z"></path>
<path fill="#000" d="M7.223 0.073v8.935l6.295 16.696c0-0.381 0-0.591 0.004-1.027l0.013-6.743 0.499 1.408c2.766 7.845 4.254 12.053 4.262 12.061 0.004 0.004 0.423 0.029 0.93 0.054 1.534 0.075 3.436 0.239 4.882 0.419 0.335 0.042 0.62 0.063 0.641 0.046 0.013-0.013 0.021-3.524 0.021-8.482l-6.261-18.012-0.004 1.706-0.013 7.041-0.578-1.634c-0.566-1.597-0.943-2.665-3.219-9.094-0.612-1.731-1.132-3.193-1.152-3.26l-0.042-0.117-6.278 0.004z"></path>
<path fill="#e50914" d="M7.223 0.073l6.307 17.874v-0.008l0.499 1.408c2.77 7.841 4.258 12.049 4.266 12.057 0.004 0.004 0.423 0.029 0.93 0.054 1.534 0.075 3.436 0.239 4.882 0.419 0.331 0.042 0.62 0.063 0.637 0.046l-6.253-17.748-0.578-1.634c-0.566-1.597-0.943-2.665-3.219-9.094-0.612-1.731-1.132-3.193-1.152-3.26l-0.042-0.117-6.278 0.004z"></path>
</svg>
