<!-- Generated by IcoMoon.io -->
<svg version="1.1" xmlns="http://www.w3.org/2000/svg" width="32" height="32" viewBox="0 0 32 32">
<title>netlify</title>
<path d="M22.871 11.308l-0.011-0.005c-0.006-0.002-0.013-0.005-0.018-0.010-0.015-0.016-0.024-0.037-0.024-0.060 0-0.005 0-0.010 0.001-0.015l-0 0.001 0.618-3.781 2.9 2.901-3.016 1.283c-0.007 0.003-0.016 0.005-0.025 0.005-0.001 0-0.001 0-0.002-0h-0.012c-0.004-0.002-0.008-0.006-0.016-0.014-0.111-0.123-0.242-0.225-0.388-0.301l-0.008-0.004zM27.078 11.078l3.101 3.101c0.644 0.645 0.966 0.966 1.084 1.339 0.018 0.055 0.032 0.11 0.043 0.167l-7.41-3.138c-0-0-0.004-0.002-0.008-0.003l-0.004-0.001c-0.030-0.012-0.064-0.026-0.064-0.056s0.035-0.045 0.065-0.057l0.010-0.004 3.184-1.347zM31.179 16.68c-0.16 0.301-0.472 0.613-1 1.142l-3.496 3.495-4.546-0.946c-0.040-0.006-0.082-0.014-0.082-0.050-0.037-0.39-0.233-0.727-0.521-0.952l-0.003-0.002c-0.018-0.018-0.014-0.047-0.008-0.074 0-0.004 0-0.008 0.002-0.011l0.85-5.221 0.003-0.018c0.005-0.040 0.012-0.086 0.048-0.086 0.38-0.049 0.707-0.245 0.926-0.529l0.002-0.003c0.007-0.008 0.012-0.017 0.022-0.022 0.026-0.012 0.056 0 0.082 0.011l7.72 3.266zM25.879 22.121l-5.749 5.749 0.984-6.048 0.002-0.008c0.001-0.008 0.002-0.016 0.005-0.023 0.008-0.019 0.029-0.027 0.049-0.035l0.010-0.004c0.221-0.096 0.408-0.236 0.554-0.411l0.002-0.002c0.019-0.022 0.042-0.044 0.072-0.048 0.003-0.001 0.008-0.001 0.012-0.001s0.008 0 0.012 0.001l-0-0 4.048 0.832zM18.914 29.086l-0.648 0.648-7.164-10.354c-0.003-0.005-0.006-0.008-0.009-0.012l0.001 0.001c-0.011-0.015-0.023-0.030-0.021-0.048 0.001-0.013 0.009-0.024 0.018-0.034l0.008-0.010c0.022-0.032 0.040-0.064 0.060-0.098l0.016-0.028 0.002-0.002c0.011-0.019 0.022-0.038 0.041-0.048 0.017-0.008 0.040-0.005 0.058-0.001l7.937 1.637c0.023 0.004 0.044 0.013 0.061 0.027l-0-0c0.010 0.010 0.013 0.022 0.015 0.034 0.116 0.429 0.419 0.77 0.813 0.937l0.009 0.003c0.022 0.011 0.013 0.036 0.002 0.062-0.005 0.010-0.009 0.022-0.012 0.035l-0 0.001c-0.1 0.608-0.958 5.838-1.188 7.25zM17.56 30.439c-0.478 0.473-0.759 0.723-1.078 0.824-0.144 0.047-0.31 0.074-0.482 0.074s-0.338-0.027-0.494-0.078l0.011 0.003c-0.373-0.118-0.695-0.44-1.339-1.085l-7.194-7.194 1.879-2.914c0.009-0.014 0.018-0.027 0.032-0.038 0.020-0.014 0.049-0.008 0.073 0 0.168 0.053 0.362 0.083 0.562 0.083 0.27 0 0.527-0.055 0.761-0.154l-0.013 0.005c0.022-0.008 0.043-0.014 0.060 0.002 0.008 0.008 0.016 0.016 0.022 0.025l0 0 7.199 10.447zM6.29 22.29l-1.65-1.65 3.259-1.39c0.008-0.003 0.017-0.006 0.026-0.006h0c0.027 0 0.043 0.027 0.058 0.052 0.038 0.058 0.072 0.106 0.108 0.153l-0.004-0.005 0.010 0.013c0.010 0.014 0.003 0.027-0.006 0.040l-1.8 2.794zM3.91 19.91l-2.088-2.088c-0.355-0.355-0.613-0.613-0.792-0.834l6.349 1.317c0.004 0.001 0.012 0.002 0.020 0.004l0.004 0c0.039 0.006 0.082 0.014 0.082 0.050 0 0.040-0.047 0.058-0.087 0.074l-0.018 0.008-3.47 1.47zM0.665 15.914c0.008-0.144 0.034-0.279 0.075-0.407l-0.003 0.011c0.118-0.373 0.44-0.694 1.085-1.339l2.672-2.672c4.967 7.439 6.185 9.181 7.405 10.921l-3.704-5.571c0.022 0.029 0.046 0.061 0.021 0.085-0.117 0.129-0.234 0.27-0.316 0.422-0.009 0.020-0.023 0.037-0.040 0.049l-0 0c-0.010 0.006-0.022 0.004-0.034 0.002h-0.002l-7.159-1.502zM5.209 10.791l3.593-3.593c0.338 0.148 1.566 0.667 2.666 1.131 0.832 0.352 1.59 0.672 1.829 0.776 0.024 0.010 0.046 0.019 0.056 0.043 0.006 0.014 0.003 0.033 0 0.048-0.024 0.103-0.037 0.222-0.037 0.343 0 0.436 0.174 0.831 0.456 1.119l-0-0c0.024 0.024 0 0.058-0.021 0.088l-0.011 0.017-3.648 5.65c-0.010 0.016-0.018 0.030-0.034 0.040-0.019 0.012-0.046 0.006-0.069 0.001-0.13-0.035-0.279-0.057-0.433-0.059l-0.001-0c-0.131 0-0.274 0.024-0.418 0.050h-0.001c-0.016 0.002-0.030 0.006-0.043-0.004-0.014-0.012-0.026-0.025-0.036-0.040l-0-0.001-3.846-5.61zM9.527 6.473l4.651-4.651c0.644-0.644 0.966-0.966 1.339-1.084 0.144-0.047 0.31-0.074 0.482-0.074s0.338 0.027 0.494 0.078l-0.011-0.003c0.373 0.118 0.695 0.44 1.339 1.084l1.008 1.008-3.308 5.123c-0.008 0.015-0.019 0.028-0.033 0.038l-0 0c-0.020 0.014-0.048 0.008-0.072 0-0.146-0.046-0.313-0.072-0.487-0.072-0.398 0-0.764 0.139-1.052 0.371l0.003-0.002c-0.022 0.022-0.054 0.010-0.081-0.002-0.432-0.188-3.792-1.608-4.273-1.812zM19.532 3.532l3.054 3.054-0.736 4.558v0.012c-0.001 0.011-0.003 0.021-0.007 0.031l0-0.001c-0.008 0.016-0.024 0.019-0.040 0.024-0.167 0.052-0.313 0.126-0.442 0.221l0.004-0.003c-0.006 0.004-0.011 0.009-0.016 0.014v0c-0.009 0.010-0.018 0.018-0.032 0.020-0.001 0-0.002 0-0.003 0-0.011 0-0.022-0.002-0.032-0.006l0.001 0-4.663-1.982c-0.030-0.012-0.065-0.026-0.065-0.057-0.030-0.274-0.118-0.523-0.252-0.74l0.004 0.008c-0.022-0.037-0.047-0.075-0.028-0.113l3.253-5.042zM16.386 10.417l4.363 1.848c0.024 0.011 0.050 0.022 0.061 0.046 0.002 0.007 0.003 0.015 0.003 0.023s-0.001 0.016-0.003 0.023l0-0.001c-0.013 0.064-0.024 0.137-0.024 0.21v0.122c0 0.030-0.031 0.043-0.060 0.055l-0.009 0.003c-0.691 0.295-9.704 4.138-9.718 4.138s-0.028 0-0.042-0.014c-0.024-0.024 0-0.058 0.022-0.088 0.003-0.003 0.006-0.009 0.010-0.014l3.593-5.564c0.021-0.034 0.045-0.071 0.083-0.071l0.036 0.006c0.082 0.011 0.154 0.022 0.226 0.022 0.544 0 1.048-0.265 1.352-0.718 0.008-0.012 0.017-0.023 0.027-0.032l0-0c0.022-0.016 0.054-0.008 0.078 0.003zM11.39 17.765l9.824-4.19s0.014 0 0.028 0.014c0.054 0.054 0.099 0.090 0.143 0.123l0.022 0.014c0.020 0.011 0.040 0.024 0.042 0.045 0 0.008 0 0.013-0.002 0.020l-0.842 5.17-0.003 0.021c-0.006 0.040-0.011 0.086-0.049 0.086-0.468 0.033-0.869 0.294-1.095 0.671l-0.003 0.006-0.004 0.006c-0.011 0.018-0.022 0.036-0.040 0.046-0.017 0.008-0.038 0.005-0.056 0.001l-7.834-1.616c-0.008-0.002-0.122-0.415-0.13-0.416z"></path>
</svg>
