<!-- Generated by IcoMoon.io -->
<svg version="1.1" xmlns="http://www.w3.org/2000/svg" width="32" height="32" viewBox="0 0 32 32">
<title>notion</title>
<path fill="#fff" d="M5.716 29.218l-3.439-4.285c-0.828-1.031-1.277-2.299-1.277-3.603v-15.515c0-1.954 1.564-3.576 3.581-3.714l15.951-1.089c1.159-0.079 2.311 0.229 3.263 0.873l5.604 3.789c1.003 0.678 1.601 1.787 1.601 2.97v17.639c0 1.913-1.537 3.496-3.512 3.618l-17.704 1.090c-1.576 0.097-3.099-0.567-4.067-1.773z"></path>
<path fill="#000" d="M11.248 13.579v-0.203c0-0.515 0.412-0.942 0.944-0.977l3.871-0.258 5.354 7.884v-6.919l-1.378-0.184v-0.096c0-0.521 0.422-0.951 0.96-0.978l3.523-0.18v0.507c0 0.238-0.177 0.441-0.419 0.482l-0.848 0.143v11.206l-1.064 0.366c-0.889 0.306-1.878-0.021-2.387-0.789l-5.197-7.843v7.486l1.6 0.306-0.022 0.148c-0.070 0.465-0.471 0.816-0.957 0.838l-3.979 0.177c-0.053-0.5 0.322-0.947 0.839-1.001l0.523-0.055v-9.981l-1.362-0.076z"></path>
<path fill="#000" d="M20.675 2.967l-15.951 1.089c-0.955 0.065-1.696 0.833-1.696 1.759v15.515c0 0.87 0.299 1.715 0.851 2.402l3.439 4.285c0.556 0.693 1.431 1.074 2.337 1.018l17.704-1.090c0.907-0.056 1.614-0.784 1.614-1.662v-17.639c0-0.544-0.274-1.053-0.736-1.365l-5.604-3.789c-0.571-0.386-1.262-0.571-1.958-0.523zM5.514 6.057c-0.222-0.164-0.116-0.506 0.162-0.526l15.105-1.083c0.481-0.035 0.959 0.098 1.349 0.374l3.031 2.147c0.115 0.082 0.061 0.258-0.081 0.265l-15.996 0.87c-0.484 0.026-0.962-0.116-1.347-0.401l-2.223-1.646zM8.334 10.831c0-0.52 0.42-0.949 0.957-0.978l16.913-0.921c0.523-0.028 0.964 0.374 0.964 0.88v15.273c0 0.519-0.418 0.948-0.954 0.978l-16.806 0.956c-0.582 0.033-1.073-0.414-1.073-0.978v-15.211z"></path>
</svg>
