<!-- Generated by IcoMoon.io -->
<svg version="1.1" xmlns="http://www.w3.org/2000/svg" width="32" height="32" viewBox="0 0 32 32">
<title>optimizilla</title>
<path fill="#5c5f62" d="M21.269 4.331c0.29 0.289 0.689 0.468 1.131 0.468 0.884 0 1.6-0.716 1.6-1.6v-1.6c0-0.884-0.716-1.6-1.6-1.6s-1.6 0.716-1.6 1.6v0 1.6c0 0.442 0.179 0.842 0.469 1.131v0zM27.2 6.4c-0.001 0-0.002 0-0.004 0-0.883 0-1.598-0.716-1.598-1.598 0-0.443 0.18-0.843 0.471-1.133l1.6-1.6c0.291-0.301 0.699-0.488 1.151-0.488 0.884 0 1.6 0.716 1.6 1.6 0 0.452-0.187 0.86-0.488 1.15l-1.6 1.6c-0.289 0.29-0.688 0.469-1.129 0.469-0.001 0-0.002 0-0.002 0h0zM30.4 11.2h-1.6c-0.884 0-1.6-0.716-1.6-1.6s0.716-1.6 1.6-1.6v0h1.6c0.884 0 1.6 0.716 1.6 1.6s-0.716 1.6-1.6 1.6v0zM24 9.6c0 0.884-0.716 1.6-1.6 1.6s-1.6-0.716-1.6-1.6v0c0-0.884 0.716-1.6 1.6-1.6s1.6 0.716 1.6 1.6v0zM1.6 4.8c0-1.767 1.433-3.2 3.2-3.2v0h12.8v3.2h-12.8v13.542c2.872-1.494 7.738-2.342 11.2-2.342s8.328 0.846 11.2 2.342v-3.942h3.2v12.8c0 1.767-1.433 3.2-3.2 3.2v0h-22.4c-1.767 0-3.2-1.433-3.2-3.2v0-22.4z"></path>
</svg>
