<!-- Generated by IcoMoon.io -->
<svg version="1.1" xmlns="http://www.w3.org/2000/svg" width="32" height="32" viewBox="0 0 32 32">
<title>pinterest</title>
<path fill="#cc2127" d="M16.001 0c-8.836 0-16.001 7.163-16.001 16.001 0 6.55 3.94 12.179 9.579 14.654-0.045-1.116-0.008-2.459 0.277-3.675 0.309-1.298 2.058-8.717 2.058-8.717s-0.51-1.022-0.51-2.533c0-2.371 1.375-4.141 3.086-4.141 1.454 0 2.158 1.093 2.158 2.403 0 1.462-0.933 3.65-1.413 5.677-0.401 1.699 0.85 3.082 2.525 3.082 3.031 0 5.073-3.893 5.073-8.507 0-3.505-2.361-6.13-6.657-6.13-4.853 0-7.876 3.618-7.876 7.66 0 1.396 0.41 2.378 1.054 3.138 0.297 0.352 0.337 0.491 0.23 0.894-0.075 0.292-0.252 1.003-0.325 1.283-0.107 0.405-0.435 0.551-0.8 0.401-2.237-0.913-3.278-3.36-3.278-6.113 0-4.544 3.833-9.997 11.434-9.997 6.109 0 10.13 4.424 10.13 9.167 0 6.277-3.488 10.966-8.635 10.966-1.725 0-3.351-0.933-3.908-1.993 0 0-0.93 3.686-1.125 4.397-0.339 1.232-1.003 2.467-1.611 3.426 1.439 0.425 2.96 0.657 4.535 0.657 8.836 0 15.999-7.163 15.999-15.999 0-8.838-7.163-16.001-15.999-16.001z"></path>
</svg>
