<!-- Generated by IcoMoon.io -->
<svg version="1.1" xmlns="http://www.w3.org/2000/svg" width="32" height="32" viewBox="0 0 32 32">
<title>proton-mail</title>
<path d="M6.4 22.2c1.6-1.6 3.7-2.5 6.1-2.5l1.9 0.1h3.1c2.1 0 4.1-0.8 5.6-2.3s2.3-3.5 2.3-5.6c0-2.1-0.8-4.1-2.3-5.6s-3.5-2.3-5.6-2.3h-11.1v8h4.3v-3.7h6.4c0.9 0 1.9 0.4 2.6 1.1s1.1 1.7 1.1 2.6c0 0.9-0.4 1.9-1.1 2.6s-1.6 1.1-2.6 1.1h-4.6c-0.8 0-1.6 0.2-2.3 0.5-0.8 0.3-1.4 0.7-2 1.3-0.5 0.6-1 1.3-1.3 2s-0.5 1.5-0.5 2.3v0.4zM10.8 22.4c-0.3 0-0.5 0.1-0.8 0.2-2.1 0.9-3.6 3-3.6 5.4h4.4v-5.6z"></path>
</svg>
