<!-- Generated by IcoMoon.io -->
<svg version="1.1" xmlns="http://www.w3.org/2000/svg" width="32" height="32" viewBox="0 0 32 32">
<title>proton-calendar</title>
<path d="M26.407 7c0.512 0 0.927 0.415 0.927 0.927v0 16.147c0 0.512-0.415 0.927-0.927 0.927v0h-20.813c-0.512 0-0.927-0.415-0.927-0.927v0-16.147c0-0.512 0.415-0.927 0.927-0.927v0h20.813zM26.407 5h-20.813c-1.616 0-2.927 1.31-2.927 2.927v0 16.147c0 1.616 1.31 2.927 2.927 2.927h20.813c1.616 0 2.927-1.31 2.927-2.927v0-16.147c0-1.616-1.31-2.927-2.927-2.927v0z"></path>
<path d="M21.667 10.333v5c-1.188 0.343-2.193 1.007-2.946 1.891l-0.007 0.009-4.532 5.287c-0.593 0.688-1.038 1.521-1.273 2.438l-0.009 0.042h-7.14c-0.512 0-0.927-0.415-0.927-0.927v0-13.74h16.833zM21.778 8.333h-18.945v15.74c0 1.616 1.31 2.927 2.927 2.927h8.907l0.065-0.833c0.072-0.899 0.427-1.704 0.974-2.339l-0.004 0.005 4.53-5.285c0.577-0.688 1.376-1.173 2.285-1.346l0.025-0.004 0.217-0.030c0.511-0.048 0.908-0.476 0.908-0.996 0-0.002 0-0.004 0-0.006v0-5.945c0-1.043-0.845-1.888-1.888-1.888v0z"></path>
<path fill="none" stroke="#000" stroke-width="0.48" stroke-miterlimit="4" stroke-linecap="round" stroke-linejoin="round" d="M22.833 20l1.333-0.667v3.833"></path>
</svg>
