<!-- Generated by IcoMoon.io -->
<svg version="1.1" xmlns="http://www.w3.org/2000/svg" width="32" height="32" viewBox="0 0 32 32">
<title>reddit</title>
<path fill="#fc471e" d="M16 2c-7.722 0-14 6.278-14 14s6.278 14 14 14c7.722 0 14-6.278 14-14s-6.278-14-14-14z"></path>
<path fill="#fff" d="M20.019 8.909l-2.655-0.668-1.099 4.501c2.075 0.047 3.951 0.651 5.335 1.606 0.361-0.362 0.855-0.586 1.4-0.586 1.105 0 2 0.917 2 2.047 0 0.787-0.434 1.47-1.070 1.813 0.046 0.244 0.070 0.493 0.070 0.746 0 3.11-3.582 5.63-8 5.63s-8-2.521-8-5.63c0-0.253 0.024-0.502 0.070-0.746-0.636-0.343-1.070-1.026-1.070-1.813 0-1.131 0.895-2.047 2-2.047 0.545 0 1.040 0.223 1.4 0.586 1.271-0.877 2.955-1.457 4.828-1.583l1.408-5.765 3.895 0.984c0.261-0.226 0.599-0.363 0.968-0.363 0.828 0 1.5 0.688 1.5 1.536s-0.672 1.536-1.5 1.536c-0.828 0-1.5-0.688-1.5-1.536 0-0.084 0.007-0.166 0.019-0.247zM12.5 18.881c0.828 0 1.5-0.688 1.5-1.536s-0.672-1.536-1.5-1.536c-0.828 0-1.5 0.688-1.5 1.536s0.672 1.536 1.5 1.536zM19.5 18.881c0.828 0 1.5-0.688 1.5-1.536s-0.672-1.536-1.5-1.536c-0.828 0-1.5 0.688-1.5 1.536s0.672 1.536 1.5 1.536zM12.777 20.503c-0.23-0.157-0.54-0.093-0.693 0.142s-0.091 0.553 0.139 0.71c1.088 0.742 2.433 1.114 3.777 1.114s2.689-0.371 3.777-1.114c0.23-0.157 0.292-0.475 0.139-0.71s-0.464-0.299-0.693-0.142c-0.92 0.628-2.071 0.942-3.223 0.942-0.683 0-1.366-0.11-2-0.331-0.435-0.152-0.848-0.355-1.223-0.611z"></path>
</svg>
