<!-- Generated by IcoMoon.io -->
<svg version="1.1" xmlns="http://www.w3.org/2000/svg" width="32" height="32" viewBox="0 0 32 32">
<title>seo</title>
<path d="M27.203 24.449c2.050-2.574 3.282-5.84 3.281-9.382 0.001-4.155-1.689-7.933-4.413-10.654-2.722-2.724-6.499-4.414-10.655-4.413-4.155-0.001-7.933 1.689-10.654 4.413-2.724 2.721-4.414 6.499-4.413 10.654-0.001 4.155 1.689 7.933 4.413 10.654 2.721 2.724 6.499 4.414 10.654 4.413 3.184 0.001 6.144-0.994 8.58-2.684l4.55 4.55 3.103-3.103-4.448-4.447zM23.657 23.307c-2.114 2.111-5.017 3.412-8.24 3.413-3.223-0.001-6.126-1.302-8.24-3.413-2.111-2.115-3.412-5.017-3.413-8.24 0.001-3.223 1.302-6.126 3.413-8.24 2.114-2.111 5.017-3.412 8.24-3.413 3.223 0.001 6.126 1.302 8.24 3.413 2.112 2.115 3.413 5.017 3.414 8.24-0.001 3.223-1.302 6.126-3.414 8.24z"></path>
<path d="M9.745 14.694l-0.356-0.050c-0.91-0.129-1.236-0.445-1.236-0.91 0-0.524 0.376-0.9 1.058-0.9 0.564 0 1.068 0.168 1.612 0.524 0.049 0.030 0.099 0.020 0.138-0.030l0.475-0.732c0.040-0.060 0.030-0.099-0.020-0.139-0.534-0.405-1.335-0.672-2.176-0.672-1.385 0-2.275 0.811-2.275 2.027 0 1.117 0.732 1.741 2.027 1.918l0.356 0.050c0.93 0.129 1.226 0.445 1.226 0.93 0 0.564-0.465 0.969-1.266 0.969-0.752 0-1.394-0.366-1.83-0.712-0.040-0.040-0.099-0.040-0.138 0.010l-0.613 0.712c-0.040 0.049-0.020 0.109 0.020 0.149 0.524 0.494 1.483 0.89 2.473 0.89 1.671 0 2.532-0.89 2.532-2.087 0-1.157-0.712-1.77-2.008-1.948z"></path>
<path d="M17.223 11.895h-4.213c-0.059 0-0.099 0.040-0.099 0.099v6.527c0 0.060 0.040 0.099 0.099 0.099h4.213c0.060 0 0.099-0.040 0.099-0.099v-0.85c0-0.059-0.040-0.099-0.099-0.099h-3.085l-0.059-0.060v-1.701l0.059-0.059h2.601c0.060 0 0.099-0.040 0.099-0.099v-0.851c0-0.059-0.040-0.099-0.099-0.099h-2.601l-0.059-0.060v-1.642l0.059-0.059h3.086c0.060 0 0.099-0.040 0.099-0.099v-0.851c0-0.060-0.040-0.099-0.099-0.099z"></path>
<path d="M20.903 11.787c-1.157 0-2.027 0.554-2.373 1.622-0.139 0.415-0.178 0.791-0.178 1.849s0.040 1.434 0.178 1.849c0.346 1.068 1.216 1.622 2.373 1.622 1.167 0 2.037-0.553 2.384-1.622 0.138-0.415 0.178-0.791 0.178-1.849s-0.040-1.434-0.178-1.849c-0.347-1.068-1.216-1.622-2.384-1.622zM22.159 16.801c-0.188 0.544-0.583 0.88-1.256 0.88-0.663 0-1.058-0.336-1.246-0.88-0.079-0.247-0.119-0.593-0.119-1.543 0-0.96 0.040-1.296 0.119-1.543 0.188-0.544 0.584-0.88 1.246-0.88 0.673 0 1.068 0.336 1.256 0.88 0.079 0.247 0.119 0.583 0.119 1.543 0 0.949-0.040 1.295-0.119 1.543z"></path>
</svg>
