<!-- Generated by IcoMoon.io -->
<svg version="1.1" xmlns="http://www.w3.org/2000/svg" width="32" height="32" viewBox="0 0 32 32">
<title>sketch</title>
<path fill="#fdb300" d="M8.109 4.79l7.891-0.79 7.891 0.79 6.109 7.768-14 15.442-14-15.442 6.109-7.768z"></path>
<path fill="#ea6c00" d="M7.671 12.558l8.329 15.442-14-15.442h5.671zM24.329 12.558l-8.329 15.442 14-15.442z"></path>
<path fill="#fdad00" d="M7.671 12.558h16.658l-8.329 15.442z"></path>
<path fill="#fdd231" d="M16 4l-7.891 0.79-0.438 7.768 8.329-8.558zM16 4l7.891 0.79 0.438 7.768z"></path>
<path fill="#fdad00" d="M30 12.558l-6.109-7.768 0.438 7.768h5.671zM2 12.558l6.109-7.768-0.438 7.768z"></path>
<path fill="#feeeb7" d="M16 4l-8.329 8.558h16.659z"></path>
</svg>
