<!-- Generated by IcoMoon.io -->
<svg version="1.1" xmlns="http://www.w3.org/2000/svg" width="32" height="32" viewBox="0 0 32 32">
<title>slack</title>
<path fill="#2eb67d" d="M26.5 15c1.381 0 2.5-1.119 2.5-2.5s-1.119-2.5-2.5-2.5c-1.381 0-2.5 1.119-2.5 2.5v2.5h2.5zM19.5 15c1.381 0 2.5-1.119 2.5-2.5v-7c0-1.381-1.119-2.5-2.5-2.5s-2.5 1.119-2.5 2.5v7c0 1.381 1.119 2.5 2.5 2.5z"></path>
<path fill="#e01e5a" d="M5.5 17c-1.381 0-2.5 1.119-2.5 2.5s1.119 2.5 2.5 2.5c1.381 0 2.5-1.119 2.5-2.5v-2.5h-2.5zM12.5 17c-1.381 0-2.5 1.119-2.5 2.5v7c0 1.381 1.119 2.5 2.5 2.5s2.5-1.119 2.5-2.5v-7c0-1.381-1.119-2.5-2.5-2.5z"></path>
<path fill="#ecb22e" d="M17 26.5c0 1.381 1.119 2.5 2.5 2.5s2.5-1.119 2.5-2.5c0-1.381-1.119-2.5-2.5-2.5h-2.5v2.5zM17 19.5c0 1.381 1.119 2.5 2.5 2.5h7c1.381 0 2.5-1.119 2.5-2.5s-1.119-2.5-2.5-2.5h-7c-1.381 0-2.5 1.119-2.5 2.5z"></path>
<path fill="#36c5f0" d="M15 5.5c0-1.381-1.119-2.5-2.5-2.5s-2.5 1.119-2.5 2.5c0 1.381 1.119 2.5 2.5 2.5h2.5v-2.5zM15 12.5c0-1.381-1.119-2.5-2.5-2.5h-7c-1.381 0-2.5 1.119-2.5 2.5s1.119 2.5 2.5 2.5h7c1.381 0 2.5-1.119 2.5-2.5z"></path>
</svg>
