<!-- Generated by IcoMoon.io -->
<svg version="1.1" xmlns="http://www.w3.org/2000/svg" width="32" height="32" viewBox="0 0 32 32">
<title>soundcloud</title>
<path fill="#f66e10" d="M27.636 15.569c-0.553 0-1.082 0.113-1.563 0.316-0.322-3.671-3.375-6.552-7.1-6.552-0.912 0-1.8 0.181-2.585 0.487-0.305 0.119-0.386 0.241-0.389 0.479v12.931c0.003 0.249 0.195 0.457 0.436 0.481 0.011 0.001 11.128 0.007 11.2 0.007 2.232 0 4.040-1.824 4.040-4.075s-1.809-4.074-4.040-4.074zM13.648 24c0.194 0 0.352-0.162 0.352-0.361v-13.278c0-0.199-0.158-0.361-0.352-0.361h-1.296c-0.194 0-0.352 0.162-0.352 0.361v13.278c0 0.198 0.158 0.361 0.352 0.361h1.296zM1.648 21.996c0.194 0 0.352-0.162 0.352-0.359v-3.282c0-0.197-0.158-0.359-0.352-0.359h-1.296c-0.194 0-0.352 0.162-0.352 0.359v3.282c0 0.197 0.158 0.359 0.352 0.359h1.296zM9.648 24c0.194 0 0.352-0.154 0.352-0.342v-8.648c0-0.188-0.158-0.342-0.352-0.342h-1.296c-0.194 0-0.352 0.154-0.352 0.342v8.648c0 0.188 0.158 0.342 0.352 0.342h1.296zM5.648 24c0.194 0 0.352-0.15 0.352-0.334v-6.665c0-0.184-0.158-0.334-0.352-0.334h-1.296c-0.194 0-0.352 0.15-0.352 0.334v6.665c0 0.184 0.158 0.334 0.352 0.334h1.296z"></path>
</svg>
