<!-- Generated by IcoMoon.io -->
<svg version="1.1" xmlns="http://www.w3.org/2000/svg" width="32" height="32" viewBox="0 0 32 32">
<title>squosh</title>
<path d="M8.273 4h15.453c1.485 0 2.025 0.155 2.568 0.445s0.969 0.717 1.26 1.26c0.291 0.543 0.445 1.081 0.445 2.568v10.013l-5.855-5.404c-0.355-0.329-0.832-0.53-1.356-0.53-0.691 0-1.3 0.35-1.659 0.883l-0.005 0.007-4.173 6.26-3.071-1.973c-0.306-0.199-0.679-0.317-1.081-0.317-0.614 0-1.163 0.276-1.53 0.712l-0.002 0.003-5.261 6.273c-0.004-0.141-0.007-0.307-0.007-0.473v-15.454c0-1.487 0.155-2.025 0.445-2.568s0.717-0.969 1.26-1.26c0.543-0.291 1.081-0.445 2.568-0.445zM20.909 15.372l-4.107 6.162c-0.359 0.533-0.969 0.884-1.66 0.884-0.402 0-0.776-0.118-1.081-0.317l-3.128-2.011-5.877 7.002c0.19 0.177 0.402 0.329 0.649 0.462 0.543 0.291 1.081 0.445 2.568 0.445h15.453c1.487 0 2.025-0.155 2.568-0.445l0.016-0.008c0.523-0.282 0.954-0.713 1.244-1.252 0.291-0.543 0.445-1.083 0.445-2.568v-1.809l-7.091-6.543zM10.651 8c-1.48 0-2.651 1.109-2.651 2.651 0 1.543 1.172 2.683 2.651 2.683 1.511 0 2.683-1.14 2.683-2.683 0-1.541-1.172-2.651-2.683-2.651z"></path>
</svg>
