<!-- Generated by IcoMoon.io -->
<svg version="1.1" xmlns="http://www.w3.org/2000/svg" width="32" height="32" viewBox="0 0 32 32">
<title>stackoverflow</title>
<path fill="#ff810f" d="M20.057 27.728l-0.002-2.699-12.74 0.007 0.001 2.698 12.741-0.006zM28.667 12.447l-2.682 0.461-2.179-12.447 2.681-0.461 2.18 12.447zM20.364 21.57l-0.25 2.686-12.687-1.158 0.25-2.687 12.687 1.159zM21.201 18.049l-0.706 2.606-12.304-3.28 0.707-2.605 12.303 3.279zM22.807 14.962l-1.383 2.324-10.974-6.418 1.383-2.323 10.974 6.418zM25.498 13.073l-2.248 1.52-7.179-10.438 2.248-1.52 7.178 10.438z"></path>
<path fill="#bebcbc" d="M22.221 18.852v11.031h-16.711v-11.031h-2.177v13.148h21.053v-13.148z"></path>
</svg>
