<!-- Generated by IcoMoon.io -->
<svg version="1.1" xmlns="http://www.w3.org/2000/svg" width="32" height="32" viewBox="0 0 32 32">
<title>steam</title>
<path fill="#000" d="M2.57 20.027c1.731 5.77 7.085 9.973 13.421 9.973 7.737 0 14.009-6.268 14.009-14s-6.272-14-14.009-14c-7.424 0-13.499 5.772-13.979 13.070 0 2.097 0 2.972 0.558 4.957z"></path>
<path fill="#fff" d="M15.271 12.563l-3.428 4.977c-0.808-0.037-1.622 0.192-2.297 0.636l-7.527-3.097c0 0-0.174 2.864 0.552 4.998l5.321 2.194c0.267 1.193 1.086 2.24 2.295 2.744 1.977 0.826 4.257-0.115 5.079-2.092 0.214-0.517 0.314-1.059 0.299-1.599l5.025-3.501c2.935 0 5.321-2.391 5.321-5.328s-2.386-5.326-5.321-5.326c-2.835 0-5.479 2.474-5.32 5.395zM14.447 22.578c-0.637 1.527-2.393 2.252-3.92 1.616-0.704-0.293-1.236-0.83-1.543-1.471l1.732 0.717c1.126 0.469 2.418-0.065 2.886-1.19 0.47-1.126-0.063-2.419-1.188-2.888l-1.791-0.741c0.691-0.262 1.476-0.271 2.21 0.034 0.74 0.308 1.314 0.887 1.618 1.627s0.303 1.557-0.005 2.295zM20.59 16.043c-1.954 0-3.545-1.592-3.545-3.55 0-1.956 1.591-3.549 3.545-3.549s3.546 1.593 3.546 3.549c0 1.957-1.591 3.55-3.546 3.55zM17.934 12.488c0-1.472 1.193-2.667 2.662-2.667 1.471 0 2.663 1.194 2.663 2.667s-1.193 2.666-2.663 2.666c-1.469 0-2.662-1.193-2.662-2.666z"></path>
</svg>
