<!-- Generated by IcoMoon.io -->
<svg version="1.1" xmlns="http://www.w3.org/2000/svg" width="32" height="32" viewBox="0 0 32 32">
<title>svg-omg</title>
<path d="M30.077 1.465h-28.154c-1.060 0-1.923 0.863-1.923 1.923v25.224c0 1.060 0.863 1.923 1.923 1.923h28.154c1.060 0 1.923-0.863 1.923-1.923v-25.224c0-1.060-0.863-1.923-1.923-1.923zM24.279 4.694c0-0.392 0.318-0.71 0.71-0.71h0.71c0.392 0 0.71 0.318 0.71 0.71v0.805c0 0.392-0.318 0.71-0.71 0.71h-0.71c-0.392 0-0.71-0.318-0.71-0.71v-0.805zM20.977 4.694c0-0.392 0.318-0.71 0.71-0.71h0.71c0.392 0 0.71 0.318 0.71 0.71v0.805c0 0.392-0.318 0.71-0.71 0.71h-0.71c-0.392 0-0.71-0.318-0.71-0.71v-0.805zM29.692 28.227h-27.385v-19.886h27.385v19.886zM29.711 5.499c0 0.392-0.318 0.71-0.71 0.71h-0.71c-0.392 0-0.71-0.318-0.71-0.71v-0.805c0-0.392 0.318-0.71 0.71-0.71h0.71c0.392 0 0.71 0.318 0.71 0.71v0.805z"></path>
<path d="M11.661 20.045l-0.811 4.731c-0.040 0.233 0.056 0.469 0.247 0.608s0.446 0.157 0.655 0.047l4.248-2.233 4.248 2.233c0.091 0.048 0.191 0.072 0.289 0.072 0.129 0 0.258-0.040 0.366-0.119 0.192-0.139 0.287-0.375 0.247-0.608l-0.811-4.731 3.437-3.349c0.169-0.166 0.23-0.413 0.158-0.638s-0.267-0.389-0.502-0.423l-4.75-0.69-2.124-4.304c-0.104-0.212-0.321-0.347-0.558-0.347s-0.453 0.134-0.558 0.347l-2.124 4.304-4.75 0.69c-0.234 0.034-0.429 0.199-0.502 0.423s-0.012 0.472 0.157 0.638l3.436 3.349z"></path>
</svg>
