<!-- Generated by IcoMoon.io -->
<svg version="1.1" xmlns="http://www.w3.org/2000/svg" width="32" height="32" viewBox="0 0 32 32">
<title>telegram</title>
<path d="M16 5.333c-2.11 0-4.172 0.626-5.926 1.798s-3.121 2.838-3.929 4.787c-0.807 1.949-1.019 4.094-0.607 6.163s1.427 3.97 2.919 5.462c1.492 1.492 3.392 2.508 5.462 2.919s4.214 0.2 6.163-0.607 3.615-2.174 4.787-3.929c1.172-1.754 1.798-3.816 1.798-5.926 0-2.829-1.124-5.542-3.124-7.542s-4.714-3.124-7.543-3.124zM21.24 12.64l-1.747 8.253c-0.133 0.587-0.48 0.72-0.973 0.453l-2.667-1.973-1.333 1.24c-0.063 0.082-0.143 0.149-0.236 0.195s-0.194 0.071-0.297 0.072l0.187-2.667 4.933-4.467c0.227-0.187 0-0.293-0.32-0.107l-6.053 3.8-2.667-0.827c-0.573-0.173-0.587-0.573 0.12-0.84l10.28-4c0.507-0.147 0.933 0.147 0.773 0.867z"></path>
</svg>
