<!-- Generated by IcoMoon.io -->
<svg version="1.1" xmlns="http://www.w3.org/2000/svg" width="32" height="32" viewBox="0 0 32 32">
<title>tiktok</title>
<path fill="#ee1d52" d="M8.451 19.793c0.156-1.294 0.687-2.018 1.687-2.761 1.431-1.006 3.218-0.437 3.218-0.437v-3.375c0.435-0.011 0.869 0.015 1.299 0.077v4.344c0 0-1.787-0.569-3.218 0.437-0.999 0.742-1.531 1.467-1.687 2.761-0.005 0.703 0.127 1.621 0.734 2.415-0.15-0.077-0.303-0.165-0.459-0.263-1.338-0.898-1.581-2.246-1.575-3.198zM22.035 6.979c-0.984-1.079-1.357-2.168-1.491-2.933h1.238c0 0-0.247 2.006 1.552 3.978l0.025 0.027c-0.485-0.305-0.93-0.665-1.325-1.072zM28 10.037v4.256c0 0-1.58-0.062-2.749-0.359-1.633-0.416-2.682-1.054-2.682-1.054s-0.725-0.455-0.784-0.487v8.789c0 0.489-0.134 1.712-0.543 2.731-0.533 1.334-1.357 2.209-1.508 2.388 0 0-1.001 1.183-2.767 1.98-1.592 0.719-2.99 0.701-3.408 0.719 0 0-2.416 0.096-4.59-1.317-0.47-0.311-0.909-0.664-1.311-1.054l0.011 0.008c2.175 1.413 4.59 1.317 4.59 1.317 0.418-0.018 1.816 0 3.408-0.719 1.765-0.797 2.767-1.98 2.767-1.98 0.15-0.179 0.977-1.054 1.508-2.388 0.407-1.019 0.543-2.241 0.543-2.731v-8.788c0.059 0.032 0.783 0.487 0.783 0.487s1.050 0.639 2.683 1.054c1.17 0.297 2.749 0.359 2.749 0.359v-3.335c0.54 0.121 1.001 0.154 1.3 0.124z"></path>
<path fill="#000" d="M26.701 9.913v3.334c0 0-1.58-0.062-2.749-0.359-1.633-0.416-2.683-1.054-2.683-1.054s-0.724-0.455-0.783-0.487v8.79c0 0.489-0.134 1.712-0.543 2.731-0.533 1.334-1.357 2.209-1.508 2.388 0 0-1.002 1.183-2.767 1.98-1.591 0.719-2.989 0.701-3.408 0.719 0 0-2.416 0.096-4.59-1.317l-0.011-0.008c-0.23-0.222-0.446-0.457-0.647-0.703-0.694-0.846-1.119-1.847-1.226-2.132-0-0.001-0-0.002 0-0.004-0.172-0.496-0.533-1.688-0.484-2.842 0.087-2.036 0.804-3.286 0.993-3.599 0.502-0.854 1.154-1.618 1.928-2.258 0.683-0.552 1.457-0.992 2.291-1.3 0.901-0.362 1.866-0.556 2.843-0.572v3.375c0 0-1.787-0.567-3.218 0.437-1 0.743-1.531 1.467-1.687 2.761-0.007 0.952 0.237 2.3 1.574 3.198 0.156 0.099 0.309 0.186 0.459 0.263 0.233 0.303 0.518 0.568 0.841 0.783 1.306 0.826 2.399 0.884 3.798 0.347 0.933-0.359 1.635-1.168 1.96-2.064 0.205-0.559 0.202-1.123 0.202-1.705v-16.569h3.256c0.135 0.765 0.507 1.854 1.491 2.933 0.395 0.407 0.84 0.767 1.325 1.072 0.143 0.148 0.876 0.881 1.816 1.331 0.486 0.233 0.999 0.411 1.527 0.531z"></path>
<path fill="#69c9d0" d="M4.489 22.757v0.003l0.081 0.219c-0.009-0.026-0.039-0.103-0.081-0.222z"></path>
<path fill="#69c9d0" d="M10.513 13.792c-0.834 0.309-1.608 0.748-2.291 1.3-0.774 0.641-1.426 1.407-1.927 2.262-0.189 0.312-0.906 1.563-0.993 3.599-0.049 1.154 0.312 2.346 0.484 2.842-0 0.001-0 0.002 0 0.004 0.109 0.283 0.532 1.284 1.226 2.132 0.202 0.246 0.418 0.481 0.647 0.703-0.736-0.488-1.392-1.077-1.947-1.75-0.688-0.839-1.112-1.829-1.223-2.121-0-0.002-0-0.004 0-0.006v-0.004c-0.173-0.496-0.535-1.688-0.485-2.843 0.087-2.036 0.804-3.286 0.993-3.599 0.501-0.855 1.153-1.621 1.927-2.262 0.683-0.553 1.457-0.992 2.291-1.3 0.52-0.207 1.062-0.359 1.616-0.455 0.835-0.14 1.688-0.152 2.527-0.036v0.962c-0.978 0.015-1.944 0.21-2.846 0.572z"></path>
<path fill="#69c9d0" d="M20.544 4.046h-3.256v16.57c0 0.582 0 1.144-0.202 1.705-0.329 0.896-1.028 1.704-1.96 2.063-1.399 0.539-2.493 0.479-3.798-0.347-0.324-0.214-0.609-0.477-0.843-0.78 1.112 0.568 2.107 0.558 3.34 0.084 0.932-0.359 1.632-1.168 1.96-2.064 0.205-0.56 0.202-1.123 0.202-1.705v-16.573h4.495c0 0-0.050 0.412 0.062 1.046zM26.7 8.991v0.922c-0.528-0.12-1.039-0.299-1.525-0.531-0.94-0.45-1.673-1.183-1.816-1.331 0.166 0.105 0.339 0.2 0.517 0.285 1.143 0.547 2.269 0.71 2.824 0.655z"></path>
</svg>
