<!-- Generated by IcoMoon.io -->
<svg version="1.1" xmlns="http://www.w3.org/2000/svg" width="32" height="32" viewBox="0 0 32 32">
<title>uigradients</title>
<path fill="none" stroke="#000" stroke-width="0.48" stroke-miterlimit="4" stroke-linecap="round" stroke-linejoin="miter" d="M25.667 9.333c-0 3.579-1.946 6.704-4.837 8.375l-0.047 0.025c-1.375 0.797-3.024 1.267-4.784 1.267-1.819 0-3.521-0.503-4.975-1.377l0.044 0.024"></path>
<path fill="none" stroke="#000" stroke-width="0.48" stroke-miterlimit="4" stroke-linecap="butt" stroke-linejoin="miter" d="M20.333 9.333c0 2.393-1.94 4.333-4.333 4.333v0c-2.393 0-4.333-1.94-4.333-4.333v0c0-2.393 1.94-4.333 4.333-4.333v0c2.393 0 4.333 1.94 4.333 4.333v0z"></path>
<path fill="none" stroke="#000" stroke-width="0.48" stroke-miterlimit="4" stroke-linecap="round" stroke-linejoin="miter" d="M28.333 26.667l-9.667-13.333M3.667 26.667l9.667-13.333"></path>
</svg>
