<!-- Generated by IcoMoon.io -->
<svg version="1.1" xmlns="http://www.w3.org/2000/svg" width="32" height="32" viewBox="0 0 32 32">
<title>vscode</title>
<path fill="#0065a9" d="M29.010 5.030l-5.766-2.776c-0.221-0.109-0.481-0.173-0.757-0.173-0.481 0-0.917 0.195-1.232 0.511v0l-18.875 17.208c-0.235 0.214-0.382 0.522-0.382 0.863 0 0.302 0.115 0.577 0.303 0.784l-0.001-0.001c0.025 0.027 0.050 0.053 0.077 0.077l1.541 1.4c0.206 0.188 0.482 0.303 0.784 0.303 0.266 0 0.511-0.089 0.708-0.239l-0.003 0.002 22.735-17.24c0.192-0.147 0.436-0.236 0.7-0.236 0.639 0 1.158 0.518 1.158 1.157v0-0.067c0-0.69-0.399-1.286-0.98-1.57l-0.010-0.005z"></path>
<path fill="#007acc" d="M29.010 26.97l-5.766 2.777c-0.221 0.109-0.481 0.172-0.756 0.172-0.481 0-0.917-0.195-1.233-0.51v0l-18.875-17.209c-0.235-0.214-0.382-0.522-0.382-0.864 0-0.302 0.115-0.577 0.303-0.784l-0.001 0.001c0.025-0.027 0.050-0.053 0.077-0.077l1.541-1.4c0.206-0.189 0.482-0.305 0.786-0.305 0.267 0 0.513 0.090 0.709 0.241l-0.003-0.002 22.732 17.24c0.192 0.147 0.436 0.236 0.7 0.236 0.639 0 1.158-0.518 1.158-1.157v0 0.072c-0.002 0.688-0.401 1.282-0.98 1.565l-0.010 0.005z"></path>
<path fill="#1f9cf0" d="M23.244 29.747c-0.221 0.109-0.481 0.172-0.756 0.172-0.481 0-0.917-0.195-1.233-0.51v0c0.185 0.183 0.439 0.295 0.72 0.295 0.564 0 1.022-0.456 1.025-1.020v-25.368c0 0 0-0.001 0-0.001 0-0.566-0.458-1.024-1.024-1.024-0.283 0-0.54 0.115-0.725 0.301v0c0.316-0.316 0.752-0.511 1.234-0.511 0.275 0 0.535 0.064 0.766 0.177l-0.010-0.005 5.765 2.772c0.593 0.288 0.994 0.884 0.995 1.575v18.8c0 0 0 0 0 0 0 0.69-0.4 1.287-0.981 1.571l-0.010 0.005z"></path>
</svg>
