<!-- Generated by IcoMoon.io -->
<svg version="1.1" xmlns="http://www.w3.org/2000/svg" width="32" height="32" viewBox="0 0 32 32">
<title>wikipedia</title>
<path d="M20.749 25.971l-4.093-9.651q-0.344 0.68-2.203 4.243t-2.757 5.409c-0.068 0.008-0.147 0.012-0.227 0.012-0.055 0-0.109-0.003-0.163-0.007h0.007c-0.025 0.001-0.053 0.001-0.083 0.001-0.1 0-0.2-0.008-0.296-0.024l0.011 0.001q-1.139-2.68-3.549-8.152t-3.605-8.279c-0.257-0.571-0.567-1.061-0.932-1.504l0.009 0.011c-0.42-0.528-0.892-0.988-1.417-1.38l-0.020-0.015c-0.383-0.331-0.871-0.548-1.407-0.596l-0.009-0.001q0-0.069-0.007-0.333t-0.007-0.376h8.097v0.695c-0.401 0.024-0.776 0.103-1.128 0.231l0.028-0.009c-0.367 0.123-0.677 0.328-0.923 0.596l-0.001 0.001c-0.139 0.137-0.224 0.328-0.224 0.537 0 0.128 0.032 0.249 0.088 0.355l-0.003-0.004q0.361 0.819 3.007 6.933t3.271 7.501q0.427-0.847 1.944-3.701t1.819-3.437q-0.264-0.541-1.751-3.901t-1.888-4.097q-0.528-0.96-2.792-0.987v-0.697l7.124 0.013v0.653c-0.016 0-0.035 0-0.053 0-0.46 0-0.889 0.128-1.256 0.351l0.011-0.007q-0.465 0.32-0.173 0.96 0.459 0.973 1.208 2.632t1.193 2.604q1.528-2.972 2.403-5.041 0.333-0.764-0.137-1.101c-0.453-0.237-0.989-0.376-1.559-0.376-0.081 0-0.161 0.003-0.241 0.008h0.011c0.009-0.087 0.015-0.187 0.015-0.288 0-0.020 0-0.040 0-0.060v0.003-0.333q0.888 0 2.368-0.007l3.779-0.020v0.68c-0.609 0.021-1.176 0.189-1.671 0.468l0.019-0.009c-0.509 0.271-0.929 0.648-1.241 1.104l-0.008 0.012-2.959 6.139q0.18 0.459 1.771 4.028t1.688 3.805l6.125-14.124c-0.137-0.361-0.376-0.659-0.681-0.864l-0.007-0.004c-0.257-0.191-0.559-0.341-0.884-0.432l-0.020-0.005c-0.227-0.057-0.492-0.095-0.763-0.107h-0.008v-0.699l6.389 0.056 0.013 0.028-0.013 0.611c-1.287 0.019-2.376 0.844-2.785 1.993l-0.007 0.021q-7.309 16.888-7.765 17.929z"></path>
</svg>
